<svg width="292" height="60" xmlns="http://www.w3.org/2000/svg"><g fill="none" fill-rule="evenodd"><path d="M61.1377636 32.0616456c-.0801903 1.0848101-.1209219 2.2303797-.1209219 3.4329114v6.1848101c0 2.3050633.0585517 3.5759494.1731093 3.8113924.1171034.2341772.5320567.3518987 1.2474055.3518987h.8159051v.6746836c-1.2919557-.0531646-2.3866177-.0797469-3.2852589-.0797469-.9075511 0-1.9933031.0265823-3.264893.0797469v-.6746836h.9177341c.4798692 0 .7904477-.0645569.9380998-.1911392.1463793-.1240506.2354796-.3746836.2723927-.743038.0725531-.8443038.1094662-1.9405063.1094662-3.278481v-6.2037975c0-1.2240506-.0267302-2.3430379-.0763718-3.3645569h-1.1137549c-1.7972823 0-2.7875696.0405063-2.9695889.121519-.1820194.0848101-.3029414.4063291-.3589473.970886l-.1540164 1.4468355h-.6784359l.0190929-1.2898734c0-.5177216-.045823-1.2708861-.1400149-2.243038 3.9458747.0531645 6.2663035.0797468 6.9587409.0797468l6.0613726-.0797468c-.138742 1.221519-.2202053 2.4-.2392982 3.5329114h-.6797087l-.1094662-1.4164557c-.0445502-.4886076-.1069205-.778481-.185838-.8683545-.0814632-.092405-.259664-.1443037-.538421-.1683544-.8057221-.0582278-1.7183647-.0860759-2.7417464-.0860759h-.8566367zm15.7537136 9.2137974h-6.3146723l-.7535347 1.7848102c-.4875065 1.1607595-.7306233 1.8696202-.7306233 2.1291139 0 .1683544.0458231.2873418.1349235.3594937.0916461.0721519.3220343.1291139.6949831.1734177l1.047566.1202531v.6759494c-.6975288-.0544304-1.484158-.0810126-2.3547961-.0810126-1.0475661 0-1.9653002.0265822-2.7570208.0810126v-.6759494l.3258529-.0113924c.5091451-.0151898.8375437-.0632911.9851958-.1582278.147652-.0873418.3067599-.3113924.4760506-.6670886.5129637-1.043038 1.0373832-2.1683544 1.5758042-3.378481l2.9925004-6.7683545c.7968121-1.7949367 1.3403245-3.0974683 1.6330829-3.9113924h.7586263l5.5051315 12.7873418c.3704031.8683544.6160656 1.3936709.7395333 1.5696203.1234677.178481.2634826.3063291.4238633.3822784.1603807.0734178.519328.1253165 1.0781148.1556962v.6759494c-.9342813-.0544304-1.8214666-.0810126-2.6679204-.0810126-.7891749 0-1.8481968.0265822-3.1770655.0810126v-.6759494l1.0806605-.0645569c.3869503-.0316456.6135199-.0696203.686073-.1202532.1069205-.0810126.1603807-.1810126.1603807-.3037974 0-.1316456-.1069204-.4721519-.3220342-1.0227849l-1.2206755-3.0556962zm-5.9162662-.8734177h5.5254974l-2.7595666-6.5822785-2.7659308 6.5822785zm17.0071016 5.0298734c.7128031.0354431 1.4090591.0531646 2.087495.0531646 1.3683275 0 2.4388051-.035443 3.2139785-.1101266.538421-.0556962 1.094662-.1607595 1.6712688-.313924l.6567972-2.5544304h.6784359c-.1896565 1.3734177-.3347629 2.6582278-.4404105 3.8518987-.6555244.1088608-1.549074.1658228-2.6831948.1658228l-5.194553-.0848101c-.7000746 0-1.7883722.0240506-3.2648931.0772152v-.5544304c.5867898-.2544304.9330085-.5265823 1.0361103-.8164557.1081934-.286076.1616536-1.4341772.1616536-3.4367089V35.744557c0-2.1683545-.0534602-3.3797469-.1565621-3.6265823-.1043748-.2506329-.4034975-.3746836-.8884582-.3746836h-1.1913996v-.6746835c1.7361848.0518987 2.8932171.0772152 3.4609139.0772152.7586262 0 1.790918-.0253165 3.0905109-.0772152v.6746835h-1.354326c-.3844046 0-.6287943.1088608-.7306233.3303798-.101829.2189873-.1527435 1.1367088-.1527435 2.7506329v6.9088608l.0343673 3.056962-.0343673.6417721zm13.8840054 0c.714076.0354431 1.410332.0531646 2.087495.0531646 1.3696 0 2.440078-.035443 3.216524-.1101266.537148-.0556962 1.093389-.1607595 1.668723-.313924l.655525-2.5544304h.678436c-.185838 1.3734177-.33349 2.6582278-.437865 3.8518987-.654252.1088608-1.55162.1658228-2.683195.1658228l-5.195826-.0848101c-.700074 0-1.785826.0240506-3.2636201.0772152v-.5544304c.5842441-.2544304.9330085-.5265823 1.0373832-.8164557.1081933-.286076.1603807-1.4341772.1603807-3.4367089V35.744557c0-2.1683545-.0521874-3.3797469-.1591078-3.6265823-.1031019-.2506329-.4009518-.3746836-.8859125-.3746836h-1.1913996v-.6746835c1.7361848.0518987 2.8919441.0772152 3.4609141.0772152.758626 0 1.789645-.0253165 3.090511-.0772152v.6746835h-1.354326c-.385678 0-.630067.1088608-.730624.3303798-.103101.2189873-.154016 1.1367088-.154016 2.7506329v6.9088608l.034367 3.056962-.034367.6417721zm9.875251.4103798h.689892c.682254 0 1.089571-.1620253 1.223221-.4873418.136197-.3278481.203658-1.8898734.203658-4.6860759v-3.686076c0-2.8974683-.058551-4.4974683-.175655-4.7936709-.117103-.2974683-.46714-.4455696-1.052657-.4455696h-.888459v-.6746835c1.220676.0531645 2.423531.078481 3.613658.078481.990287 0 1.888928-.0253165 2.695923-.078481v.6746835h-.847726c-.521874 0-.850273.0607595-.981378.186076-.13365.1215189-.211295.4329113-.230388.9329113-.036913.7759494-.057279 2.1582279-.057279 4.143038v3.7506329c0 2.8189874.062371 4.3721519.187111 4.6569621.126014.2860759.525693.4291139 1.202856.4291139h.726804v.6772152c-.903732-.0544304-1.886382-.0810127-2.950496-.0810127-1.239768 0-2.358614.0265823-3.359085.0810127v-.6772152zm12.279944-12.3473418v7.5253165c0 1.7113924.033095 2.9063291.099283 3.5810126.052188.5164557.138743.8303798.259664.9405064.120922.1151898.472233.1949367 1.051385.2468354l.707712.0531646v.6772151c-.798085-.0544303-1.518525-.0810126-2.162594-.0810126-.445502 0-1.470157.0265823-3.068872.0810126v-.6772151h.789175c.474778 0 .78281-.0632912.931735-.1962026.143834-.1291139.236753-.3860759.274939-.7721519.078917-.7974683.119649-1.878481.119649-3.2481012v-5.4050633c0-1.0126583-.011456-2.0177216-.033095-3.0101266-.012728-.4189874-.07128-.7088608-.170563-.864557-.098011-.1544304-.240571-.2949367-.431501-.4164557-.189656-.1253164-.453139-.1860759-.795539-.1860759h-.67589v-.6746836c.924098.0531646 1.629264.0797469 2.116771.0797469.520601 0 1.094662-.0265823 1.718364-.0797469.719168.8772152 1.397604 1.7278481 2.032762 2.5556962.636432.829114 1.297047 1.6632912 1.979302 2.5025317l3.728215 4.5582278c1.345416 1.6354431 2.314065 2.7708861 2.911037 3.407595v-6.9721519c0-2.9177216-.05346-4.5139241-.156562-4.786076-.108193-.2708861-.528238-.4417721-1.26268-.5151899l-.817178-.0759493v-.6746836c1.17358.0531646 2.083677.0797469 2.730291.0797469.677163 0 1.55162-.0265823 2.620824-.0797469v.6746836h-.842635c-.682254 0-1.073023.2253164-1.173579.6734177-.068735.2974684-.100556 1.8822785-.100556 4.7582278v4.8962026c0 1.3177215.058551 2.8949367.174382 4.7253164-.985196-.1518987-1.559257-.2645569-1.718365-.3316455-.160381-.0696203-.313124-.1835443-.455685-.3417722-.806995-.8898734-1.654721-1.8822785-2.54318-2.9708861l-7.837016-9.656962zm19.25765 0v7.5253165c0 1.7113924.033095 2.9063291.100557 3.5810126.050914.5164557.136196.8303798.258391.9405064.119649.1151898.470959.1949367 1.052657.2468354l.705166.0531646v.6772151c-.796812-.0544303-1.518525-.0810126-2.161321-.0810126-.445502 0-1.468883.0265823-3.070145.0810126v-.6772151h.790448c.474778 0 .785356-.0632912.930463-.1962026.146379-.1291139.238025-.3860759.276211-.7721519.08019-.7974683.118376-1.878481.118376-3.2481012v-5.4050633c0-1.0126583-.00891-2.0177216-.030549-3.0101266-.014001-.4189874-.070007-.7088608-.170563-.864557-.098011-.1544304-.240571-.2949367-.432774-.4164557-.18711-.1253164-.454412-.1860759-.795539-.1860759h-.677163v-.6746836c.925371.0531646 1.630537.0797469 2.119317.0797469.521874 0 1.095935-.0265823 1.718365-.0797469.717894.8772152 1.39633 1.7278481 2.031489 2.5556962.637704.829114 1.295774 1.6632912 1.979301 2.5025317l3.728215 4.5582278c1.345416 1.6354431 2.314065 2.7708861 2.911038 3.407595v-6.9721519c0-2.9177216-.050915-4.5139241-.156563-4.786076-.10692-.2708861-.526965-.4417721-1.261407-.5151899l-.819723-.0759493v-.6746836c1.174852.0531646 2.084949.0797469 2.73029.0797469.677163 0 1.55162-.0265823 2.622098-.0797469v.6746836h-.842635c-.682255 0-1.071751.2253164-1.17358.6734177-.067462.2974684-.100556 1.8822785-.100556 4.7582278v4.8962026c0 1.3177215.058552 2.8949367.173109 4.7253164-.983923-.1518987-1.556711-.2645569-1.718364-.3316455-.159108-.0696203-.311852-.1835443-.456958-.3417722-.805722-.8898734-1.652176-1.8822785-2.536816-2.9708861l-7.840835-9.656962zm25.83326 7.7805063h-6.314672l-.753535 1.7848102c-.487507 1.1607595-.729351 1.8696202-.729351 2.1291139 0 .1683544.047096.2873418.136197.3594937.091646.0721519.320761.1291139.692437.1734177l1.048839.1202531v.6759494c-.700074-.0544304-1.484158-.0810126-2.357342-.0810126-1.043747 0-1.962754.0265822-2.754475.0810126v-.6759494l.323307-.0113924c.511691-.0151898.836271-.0632911.989015-.1582278.145106-.0873418.302941-.3113924.472232-.6670886.514236-1.043038 1.041202-2.1683544 1.57835-3.378481l2.9925-6.7683545c.796812-1.7949367 1.340325-3.0974683 1.63181-3.9113924h.758626l5.506405 12.7873418c.371676.8683544.61352 1.3936709.739533 1.5696203.122195.178481.264756.3063291.423863.3822784.160381.0734178.519328.1253165 1.078115.1556962v.6759494c-.934281-.0544304-1.820194-.0810126-2.66792-.0810126-.789175 0-1.850743.0265822-3.178339.0810126v-.6759494l1.083207-.0645569c.38695-.0316456.612247-.0696203.686073-.1202532.105647-.0810126.161653-.1810126.161653-.3037974 0-.1316456-.110739-.4721519-.325853-1.0227849l-1.220675-3.0556962zm-5.914993-.8734177h5.52677l-2.76084-6.5822785-2.76593 6.5822785zm32.696026-12.8689873c.327126 0 .609701.1151898.838817.3468354.236752.2341772.353855.5101266.353855.8392405 0 .3341772-.117103.6151899-.353855.8481013-.229116.2316456-.511691.3481013-.838817.3481013-.328399 0-.61352-.1164557-.848999-.3481013-.236753-.2329114-.356402-.5139241-.356402-.8481013 0-.3291139.118376-.6050633.350037-.8392405.23548-.2316456.519328-.3468354.855364-.3468354zm-4.713411 0c.327126 0 .608429.1151898.841362.3468354.23548.2341772.352583.5101266.352583.8392405 0 .3341772-.117103.6151899-.352583.8481013-.232933.2316456-.514236.3481013-.841362.3481013-.336036 0-.619884-.1164557-.852818-.3481013-.234207-.2329114-.348764-.5139241-.348764-.8481013 0-.3291139.114557-.6050633.348764-.8392405.232934-.2316456.516782-.3468354.852818-.3468354zm-6.394863 4.2101266v-.6746836c1.499433.0518987 2.590276.078481 3.271258.078481.715349 0 1.769279-.0265823 3.159245-.078481v.6746836h-.798085c-.682254 0-1.092116.1329113-1.230858.3911392-.141288.2607595-.206204 1.4379747-.206204 3.5341772v4.2506329c0 1.5506329.085282 2.6316456.257118 3.2392405.169291.6050633.61352 1.121519 1.328869 1.5405064.715349.4177215 1.671269.6291139 2.869033.6291139 1.234677 0 2.273333-.2265823 3.122332-.6759494.582972-.3113924 1.009381-.7898734 1.281773-1.4455696.268574-.6544304.404771-1.8962025.404771-3.7240506v-4.0848102c0-1.8962025-.087828-2.9759493-.257119-3.2468354-.173109-.2721519-.64025-.4075949-1.412877-.4075949h-.565151v-.6746836c1.510888.0518987 2.466808.078481 2.876669.078481.665708 0 1.487977-.0265823 2.473173-.078481v.6746836h-.752262c-.57788 0-.953374.1531645-1.116301.4607595-.165472.3075949-.248208 1.3860759-.248208 3.2367088v4.0708861c0 1.8607595-.092919 3.1113924-.28003 3.7582278-.185838.6468355-.525692 1.2341773-1.019563 1.7556962-.490052.5189874-1.149395.9316456-1.970392 1.2329114-.823542.3063291-1.788372.4569621-2.899581.4569621-1.148122 0-2.152411-.1341773-3.014139-.4063292-.863001-.270886-1.510888-.6050632-1.943662-1.0025316-.435319-.3974684-.750989-.8835443-.945737-1.4620253-.190929-.5746836-.290212-1.5518988-.290212-2.9341772l.022911-2.0607595v-3.307595c0-2.0417721-.06237-3.1822784-.180746-3.4291139-.120922-.2455696-.507873-.3696202-1.15576-.3696202h-.780265zm23.097878 13.6887341c.714076.0354431 1.409059.0531646 2.088768.0531646 1.368327 0 2.440078-.035443 3.213978-.1101266.537148-.0556962 1.093389-.1607595 1.669996-.313924l.656797-2.5544304h.677163c-.188383 1.3734177-.332217 2.6582278-.436592 3.8518987-.65807.1088608-1.551619.1658228-2.687013.1658228l-5.19328-.0848101c-.700075 0-1.788372.0240506-3.26362.0772152v-.5544304c.584244-.2544304.931735-.5265823 1.037383-.8164557.105647-.286076.160381-1.4341772.160381-3.4367089V35.744557c0-2.1683545-.054734-3.3797469-.160381-3.6265823-.101829-.2506329-.400952-.3746836-.885913-.3746836h-1.188854v-.6746835c1.736185.0518987 2.889399.0772152 3.458369.0772152.758626 0 1.790918-.0253165 3.091783-.0772152v.6746835h-1.354326c-.38695 0-.628794.1088608-.731896.3303798-.103102.2189873-.152743 1.1367088-.152743 2.7506329v6.9088608l.03564 3.056962-.03564.6417721zm9.650336.4103798h.692438c.679708 0 1.088297-.1620253 1.223221-.4873418.134923-.3278481.202385-1.8898734.202385-4.6860759v-3.686076c0-2.8974683-.058552-4.4974683-.175655-4.7936709-.117103-.2974683-.467141-.4455696-1.052658-.4455696h-.889731v-.6746835c1.216857.0531645 2.426077.078481 3.611112.078481.99156 0 1.895293-.0253165 2.698469-.078481v.6746835h-.847726c-.520601 0-.847727.0607595-.980105.186076-.132378.1215189-.208749.4329113-.230388.9329113-.039459.7759494-.056006 2.1582279-.056006 4.143038v3.7506329c0 2.8189874.061097 4.3721519.187111 4.6569621.12474.2860759.525692.4291139 1.201582.4291139h.725532v.6772152c-.901187-.0544304-1.886383-.0810127-2.950496-.0810127-1.238495 0-2.358615.0265823-3.359085.0810127v-.6772152zm15.606189-7.9150633l7.418244 6.935443.673345.6417722c.138742.1392405.277484.2278481.420045.2734177.141287.0405063.376767.0632911.703893.0632911v.6772152c-.598246-.0544303-1.123938-.0810126-1.574532-.0810126-.474777 0-.992833.0265823-1.555438.0810126l-7.512436-7.1075949c-.254573-.2392405-.412408-.3594937-.469686-.3594937-.152744 0-.229116.1417722-.229116.4265823v3.3164557c0 1.6177215.031822 2.5050633.099284 2.6556962.108193.2607595.509145.3911392 1.191399.3911392h.826088v.6772152c-1.196491-.0544303-2.256786-.0810126-3.18343-.0810126-.969921 0-2.011123.0265823-3.129969.0810126v-.6772152h.891004c.584244 0 .936827-.1075949 1.052657-.3215189.117103-.2101266.175655-1.1341773.175655-2.7632912v-7.2734177c0-1.9924051-.058552-3.1164557-.175655-3.3670886-.11583-.2468355-.468413-.3721519-1.052657-.3721519h-.891004v-.6759494c1.345416.0531646 2.317883.0797469 2.919947.0797469.434046 0 1.566894-.0265823 3.393452-.0797469v.6759494l-.873184.0316456c-.497689.0202531-.814632.0898734-.948283.1987341-.132377.1151899-.215113.3367089-.245662.6683545-.031822.335443-.049642 1.2962025-.049642 2.8810126v2.9316456h.151471c.596973-.4835443 1.109936-.9278481 1.540164-1.3303798.428955-.4012658 1.134121-1.1063291 2.116771-2.1101265l3.098148-3.1924051v-.7544304c.798085.0531646 1.461246.0797469 1.986939.0797469.543512 0 1.148122-.0265823 1.808738-.0797469v.6759494h-.588063c-.525692 0-.968649.1-1.332687.2962025-.362766.2012658-1.201583.9-2.520269 2.1037975l-4.135531 3.7835443zm9.726454.8613924c0-2.3772152.770082-4.2898734 2.310246-5.743038 1.542709-1.4481012 3.595837-2.1772152 6.165747-2.1772152 2.512631 0 4.485569.6759494 5.916266 2.0202532 1.425607 1.3481013 2.140956 3.1379747 2.140956 5.3683544 0 2.4063291-.83118 4.4139241-2.487174 6.0329114-1.658541 1.6177215-3.747308 2.4253165-6.270122 2.4253165-1.577077 0-2.937768-.3177215-4.079526-.9506329-1.14303-.6367089-2.042944-1.5658228-2.706106-2.786076-.661889-1.2202532-.990287-2.6164557-.990287-4.1898734zm2.237693-.8873418c0 1.6278481.278757 3.0455696.840089 4.2506329.562605 1.207595 1.313594 2.1088608 2.255513 2.7088608.941918.6012658 2.021306.9037975 3.233071.9037975 1.121392 0 2.10277-.2582279 2.945405-.7696203.838816-.5101266 1.499432-1.2734177 1.98312-2.2886076.481142-1.0151899.725532-2.2481013.725532-3.7025316 0-1.5265823-.268574-2.8316456-.804449-3.9139241-.530784-1.0835443-1.26268-1.9012658-2.189324-2.4468354-.927917-.5481013-2.027671-.8202532-3.292896-.8202532-1.160851 0-2.160049.2405063-3.000138.721519-.840089.4873418-1.501978 1.1911392-1.979302 2.1240506-.479869.9329114-.716621 2.0101266-.716621 3.2329114zm16.015032.8873418c0-2.3772152.770082-4.2898734 2.310246-5.743038 1.541437-1.4481012 3.59711-2.1772152 6.163202-2.1772152 2.515176 0 4.488114.6759494 5.914993 2.0202532 1.430698 1.3481013 2.143501 3.1379747 2.143501 5.3683544 0 2.4063291-.826088 4.4139241-2.485901 6.0329114-1.657268 1.6177215-3.747308 2.4253165-6.270122 2.4253165-1.57835 0-2.936495-.3177215-4.079526-.9506329-1.140485-.6367089-2.041671-1.5658228-2.702287-2.786076-.661889-1.2202532-.994106-2.6164557-.994106-4.1898734zm2.237693-.8873418c0 1.6278481.281302 3.0455696.842635 4.2506329.561332 1.207595 1.313594 2.1088608 2.252967 2.7088608.944464.6012658 2.01876.9037975 3.229253.9037975 1.125211 0 2.107861-.2582279 2.949223-.7696203.838817-.5101266 1.499432-1.2734177 1.980574-2.2886076.482415-1.0151899.724259-2.2481013.724259-3.7025316 0-1.5265823-.267301-2.8316456-.799357-3.9139241-.53333-1.0835443-1.26268-1.9012658-2.190597-2.4468354-.925372-.5481013-2.026398-.8202532-3.292896-.8202532-1.160851 0-2.161321.2405063-3.001411.721519-.841362.4873418-1.500705 1.1911392-1.976756 2.1240506-.481142.9329114-.717894 2.0101266-.717894 3.2329114zm20.256975 7.5306329c.712803.0354431 1.409059.0531646 2.084949.0531646 1.372146 0 2.441351-.035443 3.216524-.1101266.538421-.0556962 1.094662-.1607595 1.668723-.313924l.65807-2.5544304h.678436c-.185838 1.3734177-.33349 2.6582278-.44041 3.8518987-.654252.1088608-1.550347.1658228-2.681922.1658228l-5.197099-.0848101c-.700075 0-1.784554.0240506-3.262347.0772152v-.5544304c.585516-.2544304.933008-.5265823 1.037383-.8164557.108193-.286076.16038-1.4341772.16038-3.4367089V35.744557c0-2.1683545-.052187-3.3797469-.159107-3.6265823-.105648-.2506329-.400952-.3746836-.885913-.3746836h-1.192672v-.6746835c1.737457.0518987 2.891944.0772152 3.463459.0772152.757354 0 1.788373-.0253165 3.087965-.0772152v.6746835h-1.353053c-.385677 0-.628794.1088608-.731896.3303798-.101829.2189873-.15147 1.1367088-.15147 2.7506329v6.9088608l.031821 3.056962-.031821.6417721z" fill="#000"/><path d="M.02176595 46.6303797v2.6278481c.27493837-.0063291.54987673-.0063291.83245227-.0063291 4.99471358 0 9.73740038.8873418 14.00149068 2.4987342l.0012729-21.1607595c0-3.9405063 1.4917952-6.0822785 3.617476-7.5063291 2.0569463 1.4455696 3.6582077 3.6151899 3.6582077 7.5063291l-.0458231 24.8556962c1.7960094 1.2101266 3.4392753 2.5670886 4.8827017 4.0481013l.0381859-29.0126582c0-6.6126583-3.5334672-10.2848102-7.4080615-12.5594937-.3742216-.1835443-.7535348-.4240506-1.1073906-.5455696-.3322172.1367088-.6975288.3202531-1.1022992.5455696-3.7536724 2.1316456-7.41060714 5.9620253-7.41060714 12.5594937l-.01145577 16.149367H4.90574048l-.01909295-15.8101265c0-13.0962026 5.76988707-20.0101266 13.49870987-24.37721523C25.6317653 10.8101266 31.886613 17.7265823 31.886613 30.8202532l.0178201 15.8101265h4.8865203l-.0203659-16.1c0-15.5544303-8.1425032-24.05696198-17.5069548-29.55569616 0 0-.7357147-.4392405-.8782753-.46835443-.138742.02911393-.8757296.46835443-.8757296.46835443C8.5104879 6.04683544.00012729 14.9759494.00012729 30.5303797l.02163866 16.1z" fill="#B71234"/></g></svg>