<?xml version="1.0" encoding="utf-8"?>
<!-- Generator: Adobe Illustrator 27.0.0, SVG Export Plug-In . SVG Version: 6.00 Build 0)  -->
<svg version="1.1" id="Layer_1" xmlns="http://www.w3.org/2000/svg" xmlns:xlink="http://www.w3.org/1999/xlink" x="0px" y="0px"
	 viewBox="0 0 241.7 64.5" style="enable-background:new 0 0 241.7 64.5;" xml:space="preserve">
<style type="text/css">
	.st0{fill:#FFFFFF;}
	.st1{fill:#B20E10;}
</style>
<g>
	<g>
		<path class="st0" d="M60.3,48c0-2.4,0.1-4.4,0.1-6.2s0-3.9-0.1-6.2c0-0.6-0.1-1-0.4-1.2c-0.6-0.2-1.2-0.3-1.8-0.2l0,0v-0.7
			c1.3,0.1,2.5,0.1,3.4,0.1c0.9,0,2,0,3.4-0.1v0.7c-0.6-0.1-1.2,0-1.8,0.2c-0.3,0.2-0.4,0.6-0.4,1.2l-0.1,5.5h5h5.1l-0.1-5.5
			c0-0.6-0.1-1-0.4-1.2c-0.6-0.2-1.2-0.3-1.8-0.2v-0.7c1.3,0.1,2.5,0.1,3.4,0.1s2,0,3.3-0.1v0.7l0,0c-0.6-0.1-1.2,0-1.8,0.2
			c-0.3,0.2-0.4,0.6-0.4,1.2c0,2.4-0.1,4.4-0.1,6.2s0,3.9,0.1,6.2c0,0.6,0.1,1,0.4,1.2c0.6,0.2,1.2,0.3,1.8,0.2l0,0v0.7
			c-1.3-0.1-2.5-0.1-3.4-0.1c-0.9,0-2,0-3.3,0.1v-0.7c0.6,0.1,1.2,0,1.8-0.3c0.3-0.2,0.4-0.6,0.4-1.2l0.1-6c-1.9,0-3.5,0-5,0h-5.1
			l0.1,6c0,0.6,0.1,1,0.4,1.2c0.6,0.2,1.2,0.3,1.8,0.3v0.7c-1.3-0.1-2.5-0.1-3.4-0.1c-0.9,0-2,0-3.3,0.1v-0.7l0,0
			c0.6,0.1,1.2,0,1.8-0.2C60.1,49,60.3,48.6,60.3,48z M81.3,50.4c-0.8,0-1.6-0.2-2.3-0.7c-0.6-0.5-0.9-1.2-0.8-2
			c0-0.9,0.2-1.7,0.8-2.4c0.7-0.7,1.5-1.1,2.4-1.2l3.9-0.8c0-0.8-0.2-1.7-0.8-2.3c-0.6-0.6-1.3-0.9-2.1-0.8c-0.3,0-0.7,0.1-1,0.2
			c-0.3,0.1-0.6,0.2-0.8,0.3l-0.7,1.7L79.1,42v-1.7c0.7-0.5,1.4-0.9,2.2-1.2c0.6-0.2,1.2-0.4,1.8-0.4c1.1-0.1,2.3,0.3,3.1,1
			c0.7,0.9,1.1,2.1,1,3.2v1.4V48c-0.1,0.4,0.1,0.8,0.3,1.2c0.4,0.2,0.9,0.3,1.3,0.2l0,0v0.6L87.1,50h-1.9v-1.9l-2.7,2
			C82.1,50.3,81.7,50.4,81.3,50.4z M85.3,44.4v-0.6l-3,0.8c-0.6,0.1-1.1,0.4-1.5,0.9c-0.3,0.4-0.5,0.9-0.5,1.5c0,0.5,0.1,1,0.5,1.4
			c0.4,0.4,0.9,0.5,1.4,0.5c0.6,0,1.3-0.2,1.8-0.6c0.5-0.4,0.9-0.8,1.3-1.2C85.3,46.1,85.3,45.2,85.3,44.4L85.3,44.4z M93.4,50.4
			c-0.8,0-1.6-0.2-2.3-0.7c-0.6-0.5-0.9-1.2-0.8-2c-0.1-0.9,0.2-1.7,0.8-2.4c0.7-0.7,1.5-1.1,2.4-1.2l3.9-0.8c0-0.8-0.2-1.7-0.8-2.3
			c-0.6-0.6-1.3-0.9-2.1-0.8c-0.3,0-0.7,0.1-1,0.2c-0.3,0.1-0.6,0.2-0.8,0.3l-0.7,1.7L91.2,42v-1.7c0.7-0.5,1.4-0.9,2.2-1.2
			c0.6-0.2,1.2-0.4,1.8-0.4c1.1-0.1,2.3,0.3,3.1,1c0.7,0.9,1.1,2.1,1,3.2v1.4V48c-0.1,0.4,0.1,0.8,0.3,1.2c0.4,0.2,0.9,0.3,1.3,0.2
			l0,0v0.6L99.1,50h-1.9v-1.9l-2.7,2C94.2,50.3,93.8,50.4,93.4,50.4z M97.3,44.4v-0.6l-3,0.8c-0.6,0.1-1.1,0.4-1.5,0.9
			c-0.3,0.4-0.5,0.9-0.5,1.5c0,0.5,0.1,1,0.5,1.4c0.4,0.4,0.9,0.5,1.4,0.5c0.6,0,1.3-0.2,1.8-0.6c0.5-0.4,0.9-0.8,1.3-1.2
			C97.3,46.1,97.3,45.2,97.3,44.4L97.3,44.4z M103.2,41.7c0-0.6-0.1-1-0.3-1.2c-0.5-0.2-1-0.3-1.6-0.2l0,0v-0.6
			c0.7-0.1,1.3-0.2,1.9-0.3c0.6-0.2,1.3-0.4,1.9-0.6l0.4,0.2c-0.1,0.4-0.2,0.8-0.2,1.2v1.1c0.7-0.7,1.5-1.4,2.3-2
			c0.6-0.4,1.4-0.6,2.1-0.6c1.3-0.1,2.5,0.4,3.4,1.3c0.9,1,1.3,2.3,1.3,3.6c-0.1,1.8-0.9,3.4-2.2,4.5c-1.2,1.3-2.8,2.1-4.6,2.2
			c-0.8,0-1.5-0.2-2.2-0.5l-0.2-0.1l0.1,4.8c0,0.6,0.1,1,0.4,1.2c0.5,0.2,1,0.3,1.6,0.2v0.6c-1.1-0.1-2.1-0.1-3-0.1
			c-0.9,0-1.9,0-3,0.1V56l0,0c0.5,0.1,1.1,0,1.5-0.2c0.2-0.2,0.3-0.6,0.4-1.2c0-2.7,0.1-5,0.1-6.9L103.2,41.7z M108.5,49.2
			c1.1,0.1,2.1-0.4,2.8-1.2c0.7-1,1.1-2.2,1-3.5c0-1.1-0.3-2.2-1-3.1c-0.6-0.8-1.6-1.2-2.6-1.2c-1.5,0.1-2.8,0.9-3.4,2.2v5.1
			c0.4,0.6,0.9,1,1.4,1.3C107.3,49.1,107.9,49.3,108.5,49.2L108.5,49.2z M123,42.2l-0.1-0.7c0-0.2-0.1-0.4-0.1-0.5
			c0-0.1-0.1-0.3-0.2-0.4c-0.2-0.3-0.5-0.5-0.7-0.6c-0.5-0.3-1-0.4-1.5-0.4c-0.6,0-1.3,0.2-1.8,0.5c-0.4,0.4-0.7,0.9-0.6,1.5
			c0,0.5,0.2,0.9,0.6,1.2c0.7,0.4,1.5,0.6,2.3,0.7c1,0.1,2,0.5,2.9,1.1c0.6,0.5,0.9,1.2,0.8,1.9c0,1.1-0.5,2.2-1.4,2.9
			c-1,0.8-2.2,1.2-3.5,1.1c-0.6,0-1.1,0-1.7-0.1c-0.7-0.1-1.3-0.3-1.9-0.4c0.1-0.7,0.1-1.2,0.2-1.7c0-0.4,0-1,0-1.6h0.7l0.1,1.3
			c0,0.2,0.1,0.4,0.2,0.5c0.1,0.2,0.2,0.3,0.4,0.4c0.3,0.2,0.6,0.4,1,0.5c0.5,0.2,1,0.3,1.5,0.3c0.7,0,1.5-0.2,2.1-0.6
			c0.5-0.4,0.8-1.1,0.8-1.8c0-0.5-0.3-1-0.7-1.3c-0.9-0.4-1.8-0.7-2.7-0.8c-0.9-0.1-1.8-0.4-2.6-1c-0.5-0.5-0.8-1.3-0.7-2
			c0-1,0.5-1.9,1.2-2.5c0.9-0.7,2.1-1,3.2-1c0.6,0,1.2,0.1,1.8,0.2c0.5,0.1,1,0.3,1.5,0.5c-0.1,0.5-0.2,1-0.2,1.3
			c0,0.5-0.1,0.9-0.1,1.4L123,42.2z M129.3,50.4c-0.8,0-1.6-0.2-2.3-0.7c-0.6-0.5-0.9-1.2-0.8-2c0-0.9,0.2-1.7,0.8-2.4
			c0.7-0.7,1.5-1.1,2.4-1.2l3.9-0.8c0-0.8-0.2-1.7-0.8-2.3c-0.6-0.6-1.3-0.9-2.1-0.8c-0.3,0-0.7,0.1-1,0.2c-0.3,0.1-0.6,0.2-0.9,0.3
			l-0.7,1.7l-0.7-0.2v-1.7c0.7-0.5,1.4-0.9,2.2-1.2c0.6-0.2,1.2-0.4,1.8-0.4c1.1-0.1,2.3,0.3,3.1,1c0.7,0.9,1.1,2.1,1,3.2v1.4v3.7
			c-0.1,0.4,0.1,0.8,0.3,1.2c0.4,0.2,0.9,0.3,1.3,0.2l0,0v0.6l-1.9-0.1h-1.9v-1.9l-2.7,2C130.1,50.3,129.7,50.4,129.3,50.4z
			 M133.3,44.4v-0.6l-3,0.8c-0.6,0.1-1.1,0.4-1.5,0.9c-0.3,0.4-0.5,1-0.5,1.5c0,0.5,0.1,1,0.5,1.4c0.4,0.4,0.9,0.5,1.4,0.5
			c0.6,0,1.3-0.2,1.8-0.6c0.5-0.4,0.9-0.8,1.3-1.2C133.3,46.1,133.3,45.2,133.3,44.4L133.3,44.4z M140.2,48.1c0-2.6,0.1-4.9,0.1-6.8
			v-5.8c0-0.7-0.1-1.2-0.3-1.3c-0.5-0.2-1.1-0.2-1.7-0.1l0,0v-0.6c0.7-0.1,1.3-0.2,1.9-0.3c0.6-0.2,1.3-0.4,1.9-0.7l0.4,0.2
			c-0.1,0.6-0.2,1.1-0.2,1.6c0,0.4-0.1,1.2-0.1,2.2v4.9c0,2,0,4.3,0.1,6.8c0,0.6,0.1,1,0.4,1.2c0.5,0.2,1,0.3,1.6,0.2l0,0v0.6
			c-1.1-0.1-2.1-0.1-3-0.1s-1.9,0-3,0.1v-0.6l0,0c0.5,0.1,1.1,0,1.5-0.2C140,49.1,140.2,48.7,140.2,48.1z M148.5,42.7v3.8
			c0,0.7,0.2,1.3,0.6,1.8c0.4,0.5,1,0.7,1.6,0.7c0.8,0,1.6-0.3,2.2-0.9c0.6-0.4,1-1.1,1-1.9v-1.8v-2.7c0-0.4,0-0.8-0.2-1.2
			c-0.1-0.2-0.4-0.2-0.8-0.2H152v-0.6c0.7-0.1,1.3-0.2,1.9-0.3c0.6-0.2,1.3-0.4,1.9-0.6l0.4,0.2c-0.1,0.4-0.1,0.8-0.2,1.2
			c0,0.4,0,1.3-0.1,2.5v1.7v3.7c0,0.6,0.1,1,0.4,1.2c0.5,0.2,1.1,0.3,1.6,0.2l0,0v0.6L156,50h-2v-2c-0.5,0.6-1,1.1-1.6,1.5
			c-0.8,0.6-1.8,0.8-2.7,0.8c-0.9,0-1.7-0.2-2.4-0.8c-0.6-0.6-0.9-1.4-0.9-2.3v-2.9v-2.7c0-0.4,0-0.8-0.2-1.2
			c-0.1-0.2-0.4-0.2-0.8-0.2h-0.9v-0.6c0.7-0.1,1.3-0.2,1.9-0.3c0.6-0.2,1.3-0.4,1.9-0.6l0.4,0.2c-0.1,0.4-0.2,0.8-0.2,1.2
			C148.5,40.5,148.5,41.4,148.5,42.7z M169.2,48.1c0,0.6,0.1,1,0.4,1.2c0.5,0.2,1,0.3,1.6,0.2l0,0v0.6c-1.1-0.1-2.1-0.1-3-0.1
			c-0.9,0-1.9,0-3,0.1v-0.6l0,0c0.5,0.1,1.1,0,1.5-0.2c0.2-0.2,0.3-0.6,0.4-1.2c0-2.6,0.1-4.9,0.1-6.8v-5.8c0-0.7-0.1-1.2-0.3-1.3
			c-0.6-0.2-1.2-0.2-1.8-0.1l0,0v-0.6c0.7-0.1,1.3-0.2,2-0.3c0.7-0.2,1.3-0.4,2-0.7l0.4,0.2c-0.1,0.6-0.2,1.1-0.2,1.6
			c0,0.4-0.1,1.2-0.1,2.2v4.9v2.5h0.1c1-0.9,1.9-1.6,2.6-2.3c0.7-0.7,1.6-1.5,2.6-2.5h2.4v0.6h-0.1c-0.5,0.1-1,0.2-1.4,0.4
			c-0.7,0.4-1.3,0.8-1.9,1.3l-0.8,0.6l-1.6,1.3l2.4,2.4l2.4,2.3c0.3,0.4,0.7,0.7,1.1,1c0.3,0.1,0.6,0.2,0.9,0.2l0,0v0.5l-1.2,0.4
			l-1.2,0.4c-1.3-1.3-2.3-2.4-3.3-3.3l-3.2-3.1l0,0L169.2,48.1z M180.1,48.8c-1.1-1.2-1.6-2.7-1.6-4.2c-0.1-1.6,0.5-3.1,1.7-4.2
			c1.1-1.1,2.7-1.7,4.3-1.6c1.5-0.1,2.9,0.5,4,1.5c1,1,1.6,2.5,1.6,3.9c0.1,1.7-0.5,3.3-1.7,4.5c-1.1,1.2-2.7,1.8-4.3,1.8
			C182.5,50.5,181.1,49.8,180.1,48.8z M187,48.4c0.6-1,0.9-2.2,0.9-3.3c0.1-1.4-0.3-2.8-1-4.1c-0.6-1-1.7-1.5-2.9-1.5
			c-0.9,0-1.8,0.4-2.4,1.1c-0.6,0.9-0.9,2-0.9,3.1c-0.1,1.5,0.3,3,1,4.3c0.6,1,1.7,1.6,2.8,1.6C185.5,49.6,186.4,49.2,187,48.4z
			 M192.7,48.1c0-2.6,0.1-4.9,0.1-6.8v-5.8c0-0.7-0.1-1.2-0.3-1.3c-0.5-0.2-1.1-0.2-1.7-0.1l0,0v-0.6c0.7-0.1,1.3-0.2,1.9-0.3
			c0.6-0.2,1.3-0.4,1.9-0.7l0.4,0.2c-0.1,0.6-0.2,1.1-0.2,1.6s-0.1,1.2-0.1,2.2v4.9c0,2,0,4.3,0.1,6.8c0,0.6,0.1,1,0.4,1.2
			c0.5,0.2,1,0.3,1.6,0.2l0,0v0.6c-1.1-0.1-2.1-0.1-3-0.1s-1.9,0-3,0.1v-0.6l0,0c0.5,0.1,1.1,0,1.5-0.2
			C192.6,49.1,192.7,48.7,192.7,48.1z M200,48.1c0-2.6,0.1-4.9,0.1-6.8v-5.8c0-0.7-0.1-1.2-0.3-1.3c-0.5-0.2-1.1-0.2-1.7-0.1l0,0
			v-0.6c0.7-0.1,1.3-0.2,1.9-0.3c0.6-0.2,1.3-0.4,1.9-0.7l0.4,0.2c-0.1,0.6-0.2,1.1-0.2,1.6c0,0.4-0.1,1.2-0.1,2.2v4.9
			c0,2,0,4.3,0.1,6.8c0,0.6,0.1,1,0.4,1.2c0.5,0.2,1,0.3,1.6,0.2l0,0v0.6c-1.1-0.1-2.1-0.1-3-0.1s-1.9,0-3,0.1v-0.6l0,0
			c0.5,0.1,1.1,0,1.5-0.2C199.9,49.1,200,48.7,200,48.1z M210,50.4c-1.4,0-2.8-0.6-3.8-1.6c-1-1.2-1.5-2.7-1.5-4.2
			c0-1.6,0.6-3.1,1.7-4.1c1.1-1.1,2.6-1.7,4.2-1.6l0,0c1.2,0,2.3,0.5,3.1,1.4c0.7,0.8,1.1,1.8,1.2,2.8v1.2l-2.4,0.3h-2.7h-2.9
			c0,1.2,0.4,2.3,1,3.3c0.7,1,1.8,1.5,3,1.4c0.6,0,1.2-0.1,1.8-0.2c0.6-0.2,1.1-0.5,1.6-0.9l0.3,0.3l-0.4,0.9
			c-0.6,0.4-1.3,0.7-2.1,0.9C211.4,50.3,210.7,50.4,210,50.4z M212.9,43.6v-0.4c0.1-1-0.2-1.9-0.8-2.7c-0.5-0.7-1.3-1-2.1-1l0,0
			c-0.9,0-1.8,0.4-2.4,1.1c-0.6,0.9-0.9,1.9-0.8,2.9h2.9L212.9,43.6z M221.6,50.4c-1.4,0.1-2.7-0.5-3.6-1.6c-0.9-1.1-1.4-2.5-1.4-4
			c0.1-1.6,0.8-3.1,2-4.1c1.1-1.2,2.6-1.9,4.1-2c0.7,0,1.4,0.1,2,0.4l0.7,0.3v-4c0-0.7-0.1-1.2-0.3-1.3c-0.5-0.2-1.1-0.2-1.7-0.1
			v-0.6c0.7-0.1,1.3-0.2,1.9-0.3c0.6-0.2,1.3-0.4,1.9-0.7l0.4,0.2c-0.1,0.6-0.2,1.1-0.2,1.6s-0.1,1.2-0.1,2.2v4.9c0,2,0,4.3,0.1,6.8
			c0,0.6,0.1,1,0.4,1.2c0.5,0.2,1,0.3,1.6,0.2l0,0v0.6h-2h-2V48c-0.7,0.7-1.5,1.3-2.3,1.9C222.8,50.3,222.2,50.4,221.6,50.4z
			 M222.2,39.7c-1,0-2,0.4-2.6,1.3c-0.7,1-1,2.2-0.9,3.4c-0.1,1.2,0.3,2.3,1,3.3c0.6,0.8,1.6,1.3,2.6,1.3c0.6,0,1.3-0.2,1.8-0.6
			c0.6-0.4,1-1,1.3-1.6v-5.5c-0.4-0.4-1-0.8-1.6-1.1C223.4,39.9,222.8,39.8,222.2,39.7z M230.9,49.6c1.6-1.9,2.9-3.6,4.1-5
			c1-1.3,2.3-2.9,3.6-4.7c-0.6-0.1-1.2-0.1-1.8-0.1c-0.5,0-1.1,0-1.7,0.1c-0.6,0-1.3,0.1-1.9,0.2c-0.2,0.1-0.3,0.2-0.3,0.5l-0.3,1.6
			h-0.7c0.1-0.6,0.1-1.2,0.2-1.6c0-0.5,0.1-1,0.1-1.6l5.5,0.1l3.9-0.1v0.5c-1.6,1.9-2.9,3.6-4.1,5l-3.6,4.7c0.8,0.1,1.6,0.1,2.4,0.1
			c0.7,0,1.5,0,2.3-0.1c0.6,0,1.3-0.1,1.9-0.2c0.2-0.1,0.3-0.3,0.3-0.6l0.3-1.8h0.7c-0.1,0.7-0.1,1.3-0.2,1.8c0,0.5-0.1,1.1-0.1,1.8
			l-6.8-0.1l-3.9,0.1L230.9,49.6L230.9,49.6z M236.2,37.9c-0.6-0.8-1-1.5-1.5-2s-0.9-1.2-1.5-2h0.8l2.8,2.6l2.8-2.6h0.8l-3,4H236.2
			L236.2,37.9z"/>
		<path class="st1" d="M0,50.4v2.9h0.9c5.2,0,10.4,0.9,15.2,2.7V32.9c0-4.3,1.6-6.6,3.9-8.2c2.2,1.6,4,4,4,8.2L24,60.1
			c1.9,1.3,3.7,2.8,5.3,4.4V32.8c0-7.2-3.8-11.2-8.1-13.7c-0.4-0.2-0.8-0.4-1.2-0.6c-0.4,0.2-0.8,0.4-1.2,0.6
			c-5.1,2.7-8.2,8-8.1,13.7v17.7H5.3V33.1c0-14.3,6.3-21.9,14.7-26.6c7.9,4.8,14.7,12.3,14.7,26.6v17.3H40V32.8
			c0-17-8.9-26.3-19-32.3c-0.3-0.2-0.7-0.4-1-0.5c-0.3,0.1-0.7,0.3-1,0.5C9.2,6.1,0,15.8,0,32.8V50.4z"/>
		<path class="st0" d="M61.7,18.7c0,0.5-0.1,1.1-0.1,1.6v3c0,0.6,0,1.2,0.1,1.8c0.1,0.1,0.2,0.2,0.6,0.2h0.4v0.3c-0.6,0-1.1,0-1.6,0
			c-0.4,0-0.9,0-1.5,0v-0.3H60c0.2,0,0.3,0,0.5-0.1c0.1-0.1,0.1-0.2,0.1-0.4c0-0.4,0-0.9,0-1.6v-3c0-0.6,0-1.1,0-1.6H60
			c-0.5,0-0.9,0-1.4,0.1c-0.1,0-0.1,0.2-0.2,0.5l-0.1,0.7H58v-0.6c0-0.2,0-0.6-0.1-1.1h3.3h2.9c-0.1,0.6-0.1,1.1-0.1,1.7h-0.3l0-0.7
			c0-0.1,0-0.3-0.1-0.4c-0.1-0.1-0.2-0.1-0.3-0.1c-0.4,0-0.8,0-1.3,0L61.7,18.7z M69.1,23.1h-3L65.8,24c-0.2,0.3-0.3,0.7-0.3,1
			c0,0.1,0,0.1,0.1,0.2c0.1,0,0.2,0.1,0.3,0.1l0.5,0.1v0.3c-0.3,0-0.7,0-1.1,0s-0.9,0-1.3,0v-0.3H64c0.2,0,0.3,0,0.5-0.1
			c0.1-0.1,0.2-0.2,0.2-0.3c0.2-0.5,0.5-1,0.8-1.6l1.4-3.2c0.4-0.9,0.6-1.5,0.8-1.9H68l2.6,6.1c0.1,0.3,0.2,0.5,0.3,0.8
			c0,0.1,0.1,0.1,0.2,0.2c0.2,0,0.3,0.1,0.5,0.1v0.3c-0.4,0-0.9,0-1.3,0s-0.9,0-1.5,0v-0.3h0.5c0.1,0,0.2,0,0.3-0.1
			c0.1,0,0.1-0.1,0.1-0.1c0-0.2-0.1-0.3-0.2-0.5L69.1,23.1z M66.3,22.7H69l-1.3-3.1L66.3,22.7z M74.4,25.1h1c0.7,0,1.2,0,1.5,0
			c0.3,0,0.5-0.1,0.8-0.1l0.3-1.2h0.3c-0.1,0.7-0.2,1.3-0.2,1.8c-0.4,0.1-0.9,0.1-1.3,0.1h-2.5h-1.6v-0.3c0.3-0.1,0.4-0.2,0.5-0.4
			c0.1-0.5,0.1-1.1,0.1-1.6v-2.9c0-0.6,0-1.2-0.1-1.7c0-0.1-0.2-0.2-0.4-0.2h-0.6v-0.3H74c0.4,0,0.8,0,1.5,0v0.3h-0.6
			c-0.2,0-0.3,0-0.3,0.2c-0.1,0.4-0.1,0.8,0,1.3v3.3v1.5V25.1z M81,25.1h1c0.7,0,1.2,0,1.5,0c0.3,0,0.5-0.1,0.8-0.1l0.3-1.2H85
			c-0.1,0.7-0.2,1.3-0.2,1.8c-0.4,0.1-0.9,0.1-1.3,0.1H81h-1.6v-0.3c0.3-0.1,0.4-0.2,0.5-0.4c0.1-0.5,0.1-1.1,0-1.6v-2.9
			c0-0.6,0-1.2-0.1-1.7c0-0.1-0.2-0.2-0.4-0.2H79v-0.3h1.7c0.4,0,0.8,0,1.5,0v0.3h-0.7c-0.2,0-0.3,0-0.3,0.2C81,19.1,81,19.6,81,20
			v3.3v1.5V25.1z M85.7,25.3H86c0.3,0,0.5-0.1,0.6-0.2c0.1-0.7,0.1-1.5,0.1-2.2v-1.8c0-0.8,0-1.5-0.1-2.3c-0.1-0.1-0.2-0.2-0.5-0.2
			h-0.4v-0.3c0.6,0,1.2,0,1.7,0c0.5,0,0.9,0,1.3,0v0.3h-0.4c-0.2,0-0.3,0-0.5,0.1c-0.1,0.1-0.1,0.3-0.1,0.5c0,0.4,0,1,0,2v1.8
			c0,0.7,0,1.5,0.1,2.2c0.1,0.1,0.2,0.2,0.6,0.2h0.3v0.3c-0.4,0-0.9,0-1.4,0s-1.1,0-1.6,0L85.7,25.3z M91.5,19.4V23
			c0,0.8,0,1.4,0,1.7c0,0.2,0,0.3,0.1,0.5c0.2,0.1,0.3,0.1,0.5,0.1h0.3v0.3c-0.4,0-0.7,0-1,0H90v-0.3h0.4c0.2,0,0.3,0,0.4-0.1
			c0.1-0.1,0.1-0.2,0.1-0.4c0-0.4,0.1-0.9,0.1-1.5v-2.6c0-0.5,0-1,0-1.4c0-0.1,0-0.3-0.1-0.4c-0.1-0.1-0.1-0.1-0.2-0.2
			c-0.1-0.1-0.2-0.1-0.4-0.1h-0.3v-0.3h1c0.2,0,0.5,0,0.8,0c0.3,0.4,0.7,0.8,1,1.2c0.3,0.4,0.6,0.8,0.9,1.2l1.8,2.2
			c0.7,0.8,1.1,1.3,1.4,1.6v-3.3c0-0.8,0-1.5-0.1-2.3c-0.1-0.1-0.2-0.2-0.6-0.2h-0.4v-0.3h1.3c0.3,0,0.7,0,1.2,0v0.3H98
			c-0.3,0-0.5,0.1-0.6,0.3s0,0.9,0,2.3v2.3c0,0.6,0,1.4,0.1,2.3c-0.3,0-0.6-0.1-0.8-0.2c-0.1,0-0.2-0.1-0.2-0.2
			c-0.4-0.4-0.8-0.9-1.2-1.4L91.5,19.4z M100.7,19.4V23c0,0.8,0,1.4,0,1.7c0,0.2,0,0.3,0.1,0.5c0.2,0.1,0.3,0.1,0.5,0.1h0.3v0.3
			c-0.4,0-0.7,0-1,0h-1.5v-0.3h0.4c0.2,0,0.3,0,0.4-0.1c0.1-0.1,0.1-0.2,0.1-0.4c0-0.4,0.1-0.9,0.1-1.5v-2.6c0-0.5,0-1,0-1.4
			c0-0.1,0-0.3-0.1-0.4c-0.1-0.1-0.1-0.1-0.2-0.2c-0.1-0.1-0.2-0.1-0.4-0.1h-0.3v-0.3h1c0.2,0,0.5,0,0.8,0c0.3,0.4,0.7,0.8,1,1.2
			s0.6,0.8,0.9,1.2l1.8,2.2c0.7,0.8,1.1,1.3,1.4,1.6v-3.3c0-0.8,0-1.5-0.1-2.3c-0.1-0.1-0.2-0.2-0.6-0.2H105v-0.3h1.3
			c0.3,0,0.7,0,1.2,0v0.3h-0.4c-0.3,0-0.5,0.1-0.6,0.3s0,0.9,0,2.3v2.3c0,0.6,0,1.4,0.1,2.3c-0.3,0-0.6-0.1-0.8-0.2
			c-0.1,0-0.2-0.1-0.2-0.2c-0.4-0.5-0.9-0.9-1.3-1.5L100.7,19.4z M113,23.1h-3l-0.4,0.9c-0.2,0.3-0.3,0.7-0.3,1c0,0.1,0,0.1,0.1,0.2
			c0.1,0,0.2,0.1,0.3,0.1l0.5,0.1v0.3c-0.3,0-0.7,0-1.1,0s-0.9,0-1.3,0v-0.3h0.2c0.2,0,0.3,0,0.5-0.1c0.1-0.1,0.2-0.2,0.2-0.3
			c0.2-0.5,0.5-1,0.8-1.6l1.4-3.2c0.4-0.9,0.6-1.5,0.8-1.9h0.4l2.6,6.1c0.1,0.3,0.2,0.5,0.3,0.8c0,0.1,0.1,0.1,0.2,0.2
			c0.2,0,0.3,0.1,0.5,0.1v0.3c-0.4,0-0.9,0-1.3,0s-0.9,0-1.5,0v-0.3h0.5c0.1,0,0.2,0,0.3-0.1c0.1,0,0.1-0.1,0.1-0.1
			c0-0.2-0.1-0.3-0.2-0.5L113,23.1z M110.2,22.7h2.6l-1.3-3.1L110.2,22.7z M120.4,18.6v-0.3h1.6h1.5v0.3h-0.4
			c-0.3,0-0.5,0.1-0.6,0.2c-0.1,0.6-0.1,1.1-0.1,1.7v2c0,0.5,0,1,0.1,1.5c0.1,0.3,0.3,0.6,0.6,0.7c0.4,0.2,0.9,0.3,1.4,0.3
			c0.5,0,1-0.1,1.5-0.3c0.3-0.1,0.5-0.4,0.6-0.7c0.2-0.6,0.2-1.2,0.2-1.8v-2c0-0.5,0-1-0.1-1.5c-0.1-0.1-0.3-0.2-0.7-0.2h-0.3v-0.3
			h1.4c0.3,0,0.7,0,1.2,0v0.3h-0.4c-0.3,0-0.4,0.1-0.5,0.2c-0.1,0.5-0.2,1-0.1,1.5v1.9c0,0.6,0,1.2-0.1,1.8
			c-0.1,0.3-0.3,0.6-0.5,0.8c-0.3,0.3-0.6,0.5-0.9,0.6c-0.4,0.2-0.9,0.2-1.4,0.2c-0.5,0-1-0.1-1.4-0.2c-0.3-0.1-0.7-0.3-0.9-0.5
			c-0.2-0.2-0.4-0.4-0.4-0.7c-0.1-0.5-0.2-0.9-0.1-1.4v-2.5c0-0.5,0-1.1-0.1-1.6c-0.1-0.1-0.2-0.2-0.6-0.2H120.4z M123.4,16.6
			c0.3,0,0.6,0.3,0.6,0.6s-0.3,0.6-0.6,0.6s-0.6-0.3-0.6-0.6l0,0c0-0.2,0.1-0.3,0.2-0.4C123.1,16.6,123.3,16.6,123.4,16.6
			 M125.7,16.6c0.3,0,0.6,0.3,0.6,0.6c0,0.2-0.1,0.3-0.2,0.4c-0.1,0.1-0.2,0.2-0.4,0.2c-0.2,0-0.3-0.1-0.4-0.2
			c-0.2-0.2-0.2-0.6,0-0.8c0,0,0,0,0,0C125.4,16.6,125.5,16.6,125.7,16.6 M131.4,25.1h1c0.6,0,1.2,0,1.5,0c0.3,0,0.5-0.1,0.8-0.1
			l0.3-1.2h0.3c-0.1,0.7-0.2,1.3-0.2,1.8c-0.4,0.1-0.9,0.1-1.3,0.1h-2.5h-1.6v-0.3c0.2-0.1,0.4-0.2,0.5-0.4c0.1-0.5,0.1-1.1,0.1-1.6
			v-2.8c0-0.6,0-1.2-0.1-1.7c-0.1-0.1-0.2-0.2-0.4-0.2h-0.6v-0.3h1.6c0.4,0,0.9,0,1.5,0v0.3h-0.6c-0.2,0-0.3,0-0.4,0.2
			c-0.1,0.4-0.1,0.9-0.1,1.3v3.3v1.5L131.4,25.1z M136,25.3h0.3c0.3,0,0.5-0.1,0.6-0.2c0.1-0.7,0.1-1.5,0.1-2.2v-1.8
			c0-0.8,0-1.5-0.1-2.3c-0.1-0.1-0.2-0.2-0.5-0.2H136v-0.3c0.6,0,1.1,0,1.7,0s0.9,0,1.3,0v0.3h-0.4c-0.2,0-0.3,0-0.5,0.1
			c-0.1,0.1-0.1,0.3-0.1,0.5c0,0.4,0,1,0,2v1.8c0,0.7,0,1.5,0.1,2.2c0.1,0.1,0.2,0.2,0.6,0.2h0.3v0.3c-0.4,0-0.9,0-1.4,0s-1,0-1.6,0
			V25.3z M143.4,21.5l3.5,3.3l0.3,0.3c0.1,0.1,0.1,0.1,0.2,0.1c0.1,0,0.2,0,0.3,0v0.3c-0.3,0-0.5,0-0.8,0s-0.5,0-0.7,0l-3.6-3.4
			c-0.1-0.1-0.2-0.2-0.2-0.2s-0.1,0.1-0.1,0.2v1.6c0,0.4,0,0.8,0,1.3c0.1,0.1,0.2,0.2,0.6,0.2h0.4v0.3c-0.6,0-1.1,0-1.5,0
			s-1,0-1.5,0v-0.3h0.4c0.3,0,0.4,0,0.5-0.1c0.1-0.4,0.1-0.9,0.1-1.3v-3.5c0-0.5,0-1.1-0.1-1.6c-0.1-0.1-0.2-0.2-0.5-0.2h-0.4v-0.3
			h1.4h1.6v0.3H143c-0.2,0-0.3,0-0.4,0.1c-0.1,0.1-0.1,0.2-0.1,0.3c0,0.2,0,0.6,0,1.4v1.4h0.1c0.3-0.2,0.5-0.4,0.7-0.6s0.5-0.5,1-1
			l1.5-1.5v-0.4c0.4,0,0.7,0,0.9,0s0.6,0,0.9,0v0.3h-0.3c-0.2,0-0.4,0-0.6,0.1c-0.4,0.3-0.8,0.6-1.2,1L143.4,21.5z M148,21.9
			c0-1,0.4-2,1.1-2.7c0.8-0.7,1.9-1.1,2.9-1c1,0,2,0.3,2.8,1c0.7,0.7,1,1.6,1,2.6c0,1.1-0.4,2.1-1.2,2.9c-0.8,0.8-1.9,1.2-3,1.2
			c-0.7,0-1.3-0.1-1.9-0.5c-0.5-0.3-1-0.8-1.3-1.3C148.1,23.4,147.9,22.7,148,21.9 M149,21.6c0,0.7,0.1,1.4,0.4,2
			c0.2,0.5,0.6,1,1.1,1.3c0.5,0.3,1,0.4,1.5,0.4c0.5,0,1-0.1,1.4-0.4c0.4-0.3,0.7-0.6,0.9-1.1c0.2-0.6,0.4-1.2,0.3-1.8
			c0-0.6-0.1-1.3-0.4-1.9c-0.2-0.5-0.6-0.9-1-1.2c-0.5-0.3-1-0.4-1.6-0.4c-0.5,0-1,0.1-1.4,0.4c-0.4,0.2-0.7,0.6-0.9,1
			C149.2,20.5,149,21,149,21.6 M156.7,21.9c0-1,0.4-2,1.1-2.7c0.8-0.7,1.9-1.1,2.9-1c1,0,2,0.3,2.8,1c0.7,0.7,1,1.6,1,2.6
			c0,1.1-0.4,2.1-1.2,2.9c-0.8,0.8-1.9,1.2-3,1.2c-0.7,0-1.3-0.1-1.9-0.5c-0.5-0.3-1-0.8-1.3-1.3C156.8,23.4,156.6,22.7,156.7,21.9
			 M157.7,21.6c0,0.7,0.1,1.4,0.4,2c0.2,0.5,0.6,1,1.1,1.3c0.5,0.3,1,0.4,1.5,0.4c0.5,0,1-0.1,1.4-0.4c0.4-0.3,0.7-0.6,0.9-1.1
			c0.2-0.6,0.4-1.2,0.3-1.8c0-0.6-0.1-1.3-0.4-1.9c-0.2-0.5-0.6-0.9-1-1.2c-0.5-0.3-1-0.4-1.6-0.4c-0.5,0-1,0.1-1.4,0.4
			c-0.4,0.2-0.7,0.6-0.9,1C157.8,20.5,157.7,21,157.7,21.6 M167.4,25.1h1c0.6,0,1.2,0,1.5,0c0.3,0,0.5-0.1,0.8-0.1l0.3-1.2h0.3
			c-0.1,0.7-0.2,1.3-0.2,1.8c-0.4,0.1-0.9,0.1-1.3,0.1h-2.5h-1.6v-0.3c0.3-0.1,0.4-0.2,0.5-0.4c0.1-0.5,0.1-1.1,0.1-1.6v-2.8
			c0-0.6,0-1.2-0.1-1.7c-0.1-0.1-0.2-0.2-0.4-0.2h-0.6v-0.3h1.6c0.4,0,0.9,0,1.5,0v0.3h-0.6c-0.2,0-0.3,0-0.4,0.2
			c-0.1,0.4-0.1,0.9-0.1,1.3v3.3v1.5L167.4,25.1z"/>
	</g>
</g>
</svg>
