<?xml version="1.0" encoding="utf-8"?>
<!-- Generator: Adobe Illustrator 27.5.0, SVG Export Plug-In . SVG Version: 6.00 Build 0)  -->
<svg version="1.1" id="Layer_1" xmlns="http://www.w3.org/2000/svg" xmlns:xlink="http://www.w3.org/1999/xlink" x="0px" y="0px"
	 viewBox="0 0 990 979.4" style="enable-background:new 0 0 990 979.4;" xml:space="preserve">
<style type="text/css">
	.st0{opacity:0.72;fill:none;stroke:url(#SVGID_1_);stroke-linecap:round;enable-background:new    ;}
	
		.st1{opacity:0.61;fill:none;stroke:url(#SVGID_00000031923324683908543300000005881580910444271758_);stroke-linecap:round;stroke-dasharray:3,3;enable-background:new    ;}
	
		.st2{opacity:0.49;fill:none;stroke:url(#SVGID_00000053504358902599583360000018079336631004923792_);stroke-linecap:round;stroke-dasharray:1,5;enable-background:new    ;}
	
		.st3{opacity:0.81;fill:none;stroke:url(#SVGID_00000106864313358147718860000011677117495862651803_);stroke-linecap:round;stroke-dasharray:1,4;enable-background:new    ;}
	
		.st4{opacity:0.14;fill:none;stroke:url(#SVGID_00000118358170210765332870000000749019878008824254_);stroke-linecap:round;stroke-dasharray:3,2;enable-background:new    ;}
	
		.st5{opacity:0.55;fill:none;stroke:url(#SVGID_00000114777362504750397360000003079994895215115944_);stroke-linecap:round;stroke-dasharray:5,4;enable-background:new    ;}
	
		.st6{opacity:0.19;fill:none;stroke:url(#SVGID_00000005988423505759043050000008451861976990452373_);stroke-linecap:round;enable-background:new    ;}
	
		.st7{opacity:0.18;fill:none;stroke:url(#SVGID_00000156559268524639296570000000954100159639031985_);stroke-linecap:round;stroke-dasharray:4,3;enable-background:new    ;}
	
		.st8{opacity:0.75;fill:none;stroke:url(#SVGID_00000083084001519931021920000015084840935601858208_);stroke-linecap:round;stroke-dasharray:4,3;enable-background:new    ;}
	
		.st9{opacity:0.23;fill:none;stroke:url(#SVGID_00000103954566079711923570000007939143935512721834_);stroke-linecap:round;stroke-dasharray:1,2;enable-background:new    ;}
	
		.st10{opacity:0.69;fill:none;stroke:url(#SVGID_00000160906005636613347300000017259664925430738579_);stroke-linecap:round;stroke-dasharray:3,4;enable-background:new    ;}
	
		.st11{opacity:0.46;fill:none;stroke:url(#SVGID_00000173882142169235060260000001199515178332423052_);stroke-linecap:round;stroke-dasharray:3,2;enable-background:new    ;}
	
		.st12{opacity:0.24;fill:none;stroke:url(#SVGID_00000163049929928510733650000003655798903658109358_);stroke-linecap:round;stroke-dasharray:5,1;enable-background:new    ;}
	
		.st13{opacity:0.63;fill:none;stroke:url(#SVGID_00000044175394509205847360000003066850645148313480_);stroke-linecap:round;stroke-dasharray:4,2;enable-background:new    ;}
	
		.st14{opacity:0.19;fill:none;stroke:url(#SVGID_00000092454214927782371420000007450665786948348595_);stroke-linecap:round;stroke-dasharray:2,4;enable-background:new    ;}
	
		.st15{opacity:0.79;fill:none;stroke:url(#SVGID_00000152966839026390161860000010227355215502632584_);stroke-linecap:round;stroke-dasharray:2,2;enable-background:new    ;}
	
		.st16{opacity:0.54;fill:none;stroke:url(#SVGID_00000029751629941232161520000005142111553731803317_);stroke-linecap:round;stroke-dasharray:4,1;enable-background:new    ;}
	
		.st17{opacity:0.19;fill:none;stroke:url(#SVGID_00000008143488369418509550000002276645998056652451_);stroke-linecap:round;stroke-dasharray:5,1;enable-background:new    ;}
	
		.st18{opacity:0.1;fill:none;stroke:url(#SVGID_00000021112310530650782260000011718284643858256277_);stroke-linecap:round;stroke-dasharray:2,4;enable-background:new    ;}
	
		.st19{opacity:0.25;fill:none;stroke:url(#SVGID_00000047040061610144751010000004421121193532524218_);stroke-linecap:round;stroke-dasharray:4,1;enable-background:new    ;}
	
		.st20{opacity:0.43;fill:none;stroke:url(#SVGID_00000026135284765331481010000013056042995658023333_);stroke-linecap:round;enable-background:new    ;}
	
		.st21{opacity:0.52;fill:none;stroke:url(#SVGID_00000152981373139547811480000003582224840436739220_);stroke-linecap:round;stroke-dasharray:2,5;enable-background:new    ;}
	
		.st22{opacity:0.96;fill:none;stroke:url(#SVGID_00000093142114889642045700000004843874707536429232_);stroke-linecap:round;enable-background:new    ;}
	
		.st23{opacity:0.82;fill:none;stroke:url(#SVGID_00000046326944493964330940000014629983479425683379_);stroke-linecap:round;stroke-dasharray:1,3;enable-background:new    ;}
	
		.st24{opacity:0.54;fill:none;stroke:url(#SVGID_00000044145357631452661800000008360265549176430512_);stroke-linecap:round;enable-background:new    ;}
	
		.st25{opacity:0.82;fill:none;stroke:url(#SVGID_00000182498044368691804800000000350247314232012442_);stroke-linecap:round;stroke-dasharray:2,1;enable-background:new    ;}
	
		.st26{opacity:0.1;fill:none;stroke:url(#SVGID_00000059989759060944873460000018007474012004191129_);stroke-linecap:round;enable-background:new    ;}
	
		.st27{opacity:0.71;fill:none;stroke:url(#SVGID_00000008835744744041613850000004054015826314087843_);stroke-linecap:round;stroke-dasharray:5,4;enable-background:new    ;}
	
		.st28{opacity:0.28;fill:none;stroke:url(#SVGID_00000040547595104569569380000007290616207317305216_);stroke-linecap:round;stroke-dasharray:3,4;enable-background:new    ;}
	
		.st29{opacity:0.28;fill:none;stroke:url(#SVGID_00000131347190167882908960000005644459995151088002_);stroke-linecap:round;stroke-dasharray:1,3;enable-background:new    ;}
	
		.st30{opacity:0.64;fill:none;stroke:url(#SVGID_00000144316399538311743200000010967749679668880548_);stroke-linecap:round;enable-background:new    ;}
	
		.st31{opacity:0.61;fill:none;stroke:url(#SVGID_00000019662394464128019540000000838687764323490480_);stroke-linecap:round;enable-background:new    ;}
	
		.st32{opacity:0.77;fill:none;stroke:url(#SVGID_00000054985938566881700870000001065755373776139196_);stroke-linecap:round;stroke-dasharray:2,4;enable-background:new    ;}
	
		.st33{opacity:0.72;fill:none;stroke:url(#SVGID_00000014593307628336022240000003278262049689826488_);stroke-linecap:round;stroke-dasharray:3,4;enable-background:new    ;}
	
		.st34{opacity:0.97;fill:none;stroke:url(#SVGID_00000002383117507536568670000005175085924283919756_);stroke-linecap:round;enable-background:new    ;}
	
		.st35{opacity:0.85;fill:none;stroke:url(#SVGID_00000007407191088123399850000005251471797710971283_);stroke-linecap:round;enable-background:new    ;}
	
		.st36{opacity:0.13;fill:none;stroke:url(#SVGID_00000135673241581434779400000012607328208282889882_);stroke-linecap:round;stroke-dasharray:2,5;enable-background:new    ;}
	
		.st37{opacity:0.9;fill:none;stroke:url(#SVGID_00000051384228679787192330000000981936470000244615_);stroke-linecap:round;enable-background:new    ;}
	
		.st38{opacity:0.9;fill:none;stroke:url(#SVGID_00000081621334784471590700000004394745494818904744_);stroke-linecap:round;enable-background:new    ;}
	
		.st39{opacity:0.69;fill:none;stroke:url(#SVGID_00000046328752819219680570000010341499242972547242_);stroke-linecap:round;stroke-dasharray:3,1;enable-background:new    ;}
	
		.st40{opacity:0.69;fill:none;stroke:url(#SVGID_00000104679972249714230910000016556443922525445288_);stroke-linecap:round;stroke-dasharray:3,1;enable-background:new    ;}
	
		.st41{opacity:0.79;fill:none;stroke:url(#SVGID_00000112627399288478691670000001423672077013933449_);stroke-linecap:round;stroke-dasharray:5,2;enable-background:new    ;}
	
		.st42{opacity:0.79;fill:none;stroke:url(#SVGID_00000084492316399973994670000002956025440717627805_);stroke-linecap:round;stroke-dasharray:5,2;enable-background:new    ;}
	
		.st43{opacity:0.91;fill:none;stroke:url(#SVGID_00000027596634371361943830000013903564288700478652_);stroke-linecap:round;stroke-dasharray:5,3;enable-background:new    ;}
	
		.st44{opacity:0.91;fill:none;stroke:url(#SVGID_00000180352986539133746120000001358719060962532229_);stroke-linecap:round;stroke-dasharray:5,3;enable-background:new    ;}
	
		.st45{opacity:0.86;fill:none;stroke:url(#SVGID_00000174559589654591109800000006995086708327464590_);stroke-linecap:round;stroke-dasharray:4,4;enable-background:new    ;}
	
		.st46{opacity:0.86;fill:none;stroke:url(#SVGID_00000010278728603976771750000005698113037888979334_);stroke-linecap:round;stroke-dasharray:4,4;enable-background:new    ;}
	
		.st47{opacity:0.1;fill:none;stroke:url(#SVGID_00000012434064536171253200000000270468293822931624_);stroke-linecap:round;stroke-dasharray:3,2;enable-background:new    ;}
	
		.st48{opacity:0.1;fill:none;stroke:url(#SVGID_00000023247293139068487310000004474376831722565530_);stroke-linecap:round;stroke-dasharray:3,2;enable-background:new    ;}
	
		.st49{opacity:0.93;fill:none;stroke:url(#SVGID_00000054944270251394780500000014368876923920729502_);stroke-linecap:round;stroke-dasharray:1,4;enable-background:new    ;}
	
		.st50{opacity:0.93;fill:none;stroke:url(#SVGID_00000140713442854918163950000003893354906411283379_);stroke-linecap:round;stroke-dasharray:1,4;enable-background:new    ;}
	
		.st51{opacity:0.18;fill:none;stroke:url(#SVGID_00000156549407309140544720000003470732972755014027_);stroke-linecap:round;stroke-dasharray:1,3;enable-background:new    ;}
	
		.st52{opacity:0.12;fill:none;stroke:url(#SVGID_00000122688702884867833570000006580036235147605919_);stroke-linecap:round;stroke-dasharray:1,2;enable-background:new    ;}
	
		.st53{opacity:0.49;fill:none;stroke:url(#SVGID_00000178187278199062585390000016624780513971682204_);stroke-linecap:round;stroke-dasharray:5,2;enable-background:new    ;}
	
		.st54{opacity:0.91;fill:none;stroke:url(#SVGID_00000132799997258842310340000015528462707262959807_);stroke-linecap:round;stroke-dasharray:3,2;enable-background:new    ;}
	
		.st55{opacity:0.56;fill:none;stroke:url(#SVGID_00000176017397200902954570000004722222568807510699_);stroke-linecap:round;stroke-dasharray:3,2;enable-background:new    ;}
	
		.st56{opacity:0.52;fill:none;stroke:url(#SVGID_00000116942246769087174180000009570933264080797065_);stroke-linecap:round;stroke-dasharray:4,3;enable-background:new    ;}
	
		.st57{opacity:0.43;fill:none;stroke:url(#SVGID_00000017509637433015988740000016337587779759216817_);stroke-linecap:round;stroke-dasharray:5,2;enable-background:new    ;}
	
		.st58{opacity:0.48;fill:none;stroke:url(#SVGID_00000109020547741611650540000007536647221036501890_);stroke-linecap:round;stroke-dasharray:4,5;enable-background:new    ;}
	
		.st59{opacity:0.85;fill:none;stroke:url(#SVGID_00000079473611195196613790000017900091653885202568_);stroke-linecap:round;stroke-dasharray:3,5;enable-background:new    ;}
	
		.st60{opacity:0.29;fill:none;stroke:url(#SVGID_00000089552876073076904580000007496330237511050408_);stroke-linecap:round;enable-background:new    ;}
</style>
<g>
	
		<linearGradient id="SVGID_1_" gradientUnits="userSpaceOnUse" x1="664.5061" y1="677.8868" x2="-23367.1191" y2="-44975.6289" gradientTransform="matrix(1 0 0 -1 0 918.1499)">
		<stop  offset="0" style="stop-color:#6D55A4"/>
		<stop  offset="1" style="stop-color:#FFFFFF"/>
	</linearGradient>
	<path class="st0" d="M985,733.4c-11.1,5.2-22.2,10.9-33.2,16.8c-10.7,6.2-21.3,12.5-31.6,18.7c-9.9,6-19.5,11.4-28.6,16.2
		c-8.6,4.2-16.8,7.4-24.5,9.6c-7.1,1.3-13.9,1.6-20.2,0.9c-6-1.3-11.9-3.4-17.8-6c-6-2.6-12.2-5.1-18.9-7.5
		c-7.2-1.6-15.1-2.6-23.8-2.8c-9.4,0.9-19.5,2.6-30.4,5.1c-11.4,3.2-23.2,6.7-35.3,10.2c-12.1,3.3-24,5.9-35.6,7.4
		c-11,0.4-21.4-0.8-31.1-3.7c-8.9-4.2-17.2-10-24.9-17.1c-7.4-7.7-14.6-16-21.9-24.4c-7.7-7.7-15.9-14.7-24.8-20.7
		c-9.8-4.4-20.4-7.5-31.7-9.4c-12.1-0.6-24.6-0.6-37.2-0.5c-12.6,0.1-24.7-0.7-36-2.8c-10.5-3.4-20-8.6-28.5-15.5
		c-7.6-8.4-14.4-18.2-20.5-29c-5.8-11.3-11.5-22.7-17.3-33.9c-6.2-10.3-12.9-19.7-20.1-27.9c-8-6.8-16.6-12.4-25.6-17
		c-9.6-3.6-19.4-6.7-29.1-9.8c-9.7-3.1-19-6.7-27.7-11.2c-8.1-5.4-15.5-12.1-21.9-20.1c-5.8-9.1-10.8-19.4-15.1-30.6
		c-3.9-11.9-7.3-24.3-10.5-37c-3.1-12.5-6.2-24.8-9.4-36.6c-3.5-11.1-7.2-21.4-11.1-30.9c-4.4-8.6-8.9-16.5-13.6-23.7
		c-5-6.6-10-12.7-14.9-18.7c-5-5.7-9.7-11.5-14.1-17.6c-4.4-6.4-8.1-13.2-11.4-20.3c-3-7.8-5.6-16.2-7.6-25.2
		c-1.8-9.6-3.1-19.7-3.9-30.3c-0.7-11-1-22.4-1.1-34.1c0-11.9,0.3-23.9,0.7-36c0.4-12,1-24,1.8-36c0.7-11.6,1.5-23.1,2.5-34.7
		c0.9-10.9,2-21.8,3.3-32.7c1.3-10.4,2.7-20.6,4.5-30.5c1.7-9.8,3.7-19.3,6-28.7c2.3-9.2,4.8-18.3,7.7-27.3c2.9-8.9,6-17.8,9.4-26.5
		"/>
	
		<linearGradient id="SVGID_00000142868676637356773650000011750175111669087378_" gradientUnits="userSpaceOnUse" x1="491.1931" y1="914.0966" x2="491.1931" y2="-96562.9062" gradientTransform="matrix(1 0 0 -1 0 918.1499)">
		<stop  offset="0" style="stop-color:#6D55A4"/>
		<stop  offset="1" style="stop-color:#FFFFFF"/>
	</linearGradient>
	
		<path style="opacity:0.61;fill:none;stroke:url(#SVGID_00000142868676637356773650000011750175111669087378_);stroke-linecap:round;stroke-dasharray:3,3;enable-background:new    ;" d="
		M981.9,946.3c-6.6,4.7-13.2,8.8-19.8,12.3c-6.6,2.8-13.1,4.9-19.7,6.2c-6.5,0.5-13.1,0.3-19.7-0.7c-6.5-1.6-13.1-3.8-19.7-6.4
		c-6.5-2.9-13.1-6-19.7-9.1c-6.6-3-13.1-5.7-19.7-8c-6.6-1.7-13.2-2.9-19.8-3.4c-6.6,0.3-13.2,1.3-19.8,3c-6.6,2.4-13.2,5.5-19.9,9
		c-6.6,3.9-13.3,8.1-20,12.2c-6.7,4.1-13.3,7.9-19.9,11.2c-6.6,2.8-13.2,4.9-19.7,6.2c-6.6,0.5-13.1,0.2-19.6-1.1
		c-6.5-2-13-4.8-19.4-8.3c-6.4-4-12.9-8.4-19.2-13.2c-6.4-4.8-12.7-9.7-19-14.4c-6.3-4.3-12.6-8.3-18.9-11.8
		c-6.2-2.8-12.5-5-18.7-6.5c-9.3-0.9-27.6,1.2-36.7,3.7c-6.1,2-12.1,4.1-18.1,6.2c-9,2.7-26.8,5.6-35.6,5.2
		c-5.9-1.1-11.7-2.9-17.5-5.5c-5.8-3.2-11.6-7-17.4-11.5c-5.8-4.9-11.5-10.2-17.2-15.9c-5.7-5.9-11.4-11.9-17.1-17.9
		c-5.7-5.9-11.4-11.6-17-17.1c-5.6-5.1-11.3-9.8-16.9-14.1c-8.4-5.4-25.1-13-33.5-15.3c-8.3-1.4-24.8-2.7-33-3
		c-8.2-0.5-24.4-2.9-32.5-5.2c-8-3.3-23.8-12.9-31.6-19.2c-5.2-4.8-10.3-9.9-15.3-15.5c-5.1-6-10.1-12.1-14.9-18.4
		c-4.9-6.6-9.7-13.3-14.5-20c-4.7-6.7-9.3-13.5-13.9-20.2c-4.5-6.6-9-13-13.4-19.2c-4.4-6-8.6-11.8-12.8-17.3
		c-6.2-7.8-18.2-21.6-23.9-27.8c-5.7-5.6-16.6-15.7-22-20.4c-5.3-4.5-15.6-13.4-20.7-18.1c-5.1-4.8-15.2-15.3-20.3-21.1
		c-5.1-6.2-15.5-19.7-20.7-27.1c-3.6-5.3-7.1-10.6-10.6-16c-3.6-5.8-7.2-11.6-10.7-17.5c-3.6-6.2-7.2-12.4-10.7-18.7
		c-3.6-6.5-7.1-13.1-10.5-19.7c-3.5-6.7-6.8-13.5-10.1-20.3c-3.3-6.9-6.4-13.8-9.5-20.7c-3-6.9-5.9-13.9-8.6-20.9
		c-2.7-6.9-5.2-13.9-7.6-20.9c-2.3-6.9-4.4-13.8-6.4-20.8c-1.8-6.9-3.5-13.7-5-20.7c-1.4-6.8-2.6-13.6-3.7-20.5
		c-1-6.7-1.8-13.5-2.4-20.3c-0.6-6.7-1-13.4-1.4-20.1c-0.3-6.6-0.5-13.3-0.6-19.9c-0.1-6.6-0.1-13.2-0.1-19.8c0-6.6,0-13.1,0-19.7
		c-0.1-6.6-0.1-13.1-0.2-19.7c-0.2-6.6-0.4-13.1-0.6-19.7c-0.4-6.6-0.8-13.1-1.2-19.7c-0.6-6.6-1.2-13.2-1.9-19.8
		c-0.8-6.6-1.6-13.2-2.4-19.8c-0.9-6.6-1.8-13.2-2.7-19.8c-0.9-6.5-1.8-13-2.6-19.6c-0.8-6.4-1.5-12.9-2.1-19.4
		c-0.6-6.4-1-12.7-1.3-19.1c-0.2-6.3-0.2-12.6-0.1-18.9c0.2-6.2,0.7-12.4,1.3-18.6C2.7,52.2,3.6,46.1,4.8,40C6,34,7.5,28,9.1,22.1
		c1.7-5.9,3.7-11.7,5.7-17.5"/>
	
		<linearGradient id="SVGID_00000044887609110065409200000007195525062901927076_" gradientUnits="userSpaceOnUse" x1="513.1216" y1="866.0452" x2="-3108.3293" y2="-89165.2578" gradientTransform="matrix(1 0 0 -1 0 918.1499)">
		<stop  offset="0" style="stop-color:#6D55A4"/>
		<stop  offset="1" style="stop-color:#FFFFFF"/>
	</linearGradient>
	
		<path style="opacity:0.49;fill:none;stroke:url(#SVGID_00000044887609110065409200000007195525062901927076_);stroke-linecap:round;stroke-dasharray:1,5;enable-background:new    ;" d="
		M970.5,926.9c-6.8,5-13.7,9.8-20.5,14.3c-6.8,4-13.5,7.5-20.2,10.3c-6.7,2.2-13.3,3.6-19.9,4.2c-6.5,0-13-0.8-19.5-2.3
		c-6.4-2-12.9-4.5-19.3-7.5c-6.4-3.1-12.8-6.4-19.2-9.7c-6.4-3.1-12.8-5.9-19.2-8.3c-6.5-1.8-12.9-3.1-19.4-3.7
		c-6.5,0.2-13.1,1-19.7,2.5c-6.6,2.2-13.3,4.9-20,8.1c-6.7,3.6-13.4,7.3-20.2,11.1c-6.7,3.7-13.4,7.2-20.1,10.2
		c-6.6,2.5-13.2,4.4-19.7,5.4c-6.4,0.3-12.9-0.2-19.2-1.5c-6.3-2.1-12.5-4.9-18.7-8.5c-6.2-4-12.3-8.5-18.3-13.4
		c-6-5-12.1-10-18.1-14.9c-6-4.6-12-8.9-18-12.8c-6-3.3-12-5.9-18-8c-9-1.7-27.1-1.3-36.1,0.4c-9,2.4-26.9,7.5-35.8,9.4
		c-8.8,0.9-26.1-0.8-34.6-3.8c-5.6-2.8-11.2-6.3-16.7-10.5c-5.5-4.6-11-9.7-16.4-15.2c-5.4-5.8-10.8-11.8-16.1-17.9
		c-5.4-6.1-10.7-12.2-16-18c-5.3-5.6-10.7-10.9-16-15.9c-5.4-4.5-10.7-8.5-16.1-12.1c-8.1-4.4-24.3-10.4-32.4-12.3
		c-8.1-1.2-24.2-2.9-32.2-3.9c-7.9-1.3-23.5-6-31.1-9.5c-5.1-2.9-10-6.2-14.9-9.9c-4.9-4.2-9.7-8.8-14.4-13.8
		c-9.4-11-18.4-23.3-27.2-36.4c-8.6-13.5-17-27.2-25-40.7c-8-12.8-15.6-25-23-36.3c-7.4-10.2-14.5-19.6-21.4-28.1
		c-5.2-5.8-15.3-16.5-20.2-21.5c-4.9-4.8-14.7-14.6-19.6-19.6c-4.9-5.2-14.6-16.2-19.5-22.2c-4.9-6.3-14.8-20.1-19.7-27.5
		c-3.4-5.3-6.7-10.6-9.8-16c-3.3-5.7-6.6-11.5-9.7-17.3c-3.2-6.1-6.4-12.2-9.4-18.4c-3.1-6.4-6.1-12.8-8.9-19.3
		c-2.9-6.6-5.6-13.2-8.3-19.9c-2.6-6.7-5.1-13.5-7.4-20.4c-2.3-6.8-4.4-13.7-6.3-20.6c-1.9-6.9-3.6-13.7-5.2-20.7
		c-1.5-6.8-2.8-13.7-3.9-20.6c-1.1-6.8-1.9-13.7-2.7-20.5c-0.6-6.8-1.2-13.6-1.5-20.4c-0.3-6.7-0.5-13.5-0.6-20.2
		c0-6.7,0-13.4,0.2-20c0.1-6.6,0.3-13.3,0.6-19.9c0.2-6.6,0.4-13.2,0.7-19.8c0.2-6.6,0.3-13.1,0.5-19.7c0.1-6.6,0.1-13.1,0.1-19.6
		c-0.1-6.5-0.3-13.1-0.4-19.6c-0.3-6.5-0.6-13.1-1-19.6c-0.5-6.5-0.9-13.1-1.4-19.6c-0.6-6.5-1.1-13-1.7-19.5
		c-0.6-6.5-1.1-12.9-1.6-19.2c-0.5-6.3-0.8-12.6-1.1-18.9c-0.2-6.2-0.4-12.4-0.3-18.6c0.2-9.2,1.6-27.3,2.8-36.2"/>
	
		<linearGradient id="SVGID_00000061438601996013415000000009348413250059405242_" gradientUnits="userSpaceOnUse" x1="543.664" y1="850.6448" x2="-6383.041" y2="-85102.3516" gradientTransform="matrix(1 0 0 -1 0 918.1499)">
		<stop  offset="0" style="stop-color:#6D55A4"/>
		<stop  offset="1" style="stop-color:#FFFFFF"/>
	</linearGradient>
	
		<path style="opacity:0.81;fill:none;stroke:url(#SVGID_00000061438601996013415000000009348413250059405242_);stroke-linecap:round;stroke-dasharray:1,4;enable-background:new    ;" d="
		M982.6,895.1c-7,4-14,8.3-21.1,12.8c-7,4.7-14.1,9.5-21.1,14.2c-7,4.5-13.9,8.8-20.9,12.6c-6.9,3.4-13.7,6.2-20.4,8.4
		c-6.7,1.5-13.3,2.3-19.8,2.4c-6.5-0.6-12.9-1.9-19.2-3.8c-6.3-2.4-12.6-5.2-18.8-8.4c-6.2-3.3-12.4-6.8-18.6-10.2
		c-6.2-3.2-12.5-6-18.7-8.5c-6.3-1.9-12.7-3.2-19.1-4c-6.5,0-13,0.7-19.6,1.9c-6.7,1.9-13.3,4.4-20.1,7.3
		c-6.8,3.2-13.6,6.6-20.3,10.1c-6.8,3.4-13.5,6.5-20.2,9.1c-6.6,2.2-13.2,3.8-19.6,4.7c-6.3,0.2-12.7-0.5-18.8-1.9
		c-6.1-2.2-12.1-5.1-18.1-8.7c-5.9-4.1-11.7-8.6-17.5-13.5c-5.7-5.1-11.4-10.2-17.1-15.3c-5.7-4.9-11.4-9.4-17.1-13.6
		c-8.6-5.2-26-11.9-34.8-13.2c-8.9,0.1-26.7,2.7-35.7,4.8c-8.9,2.1-26.4,4.8-35,4.8c-5.7-0.7-11.3-2-16.8-3.9
		c-10.9-5.6-21.5-13.7-31.8-23.8C432.1,847.8,422,835.4,412,823c-10.1-11.7-20.2-22.4-30.3-31.5c-10.3-7.2-20.7-12.8-31.1-16.9
		c-10.6-2.7-21.1-4.7-31.4-6.4c-10.4-1.8-20.5-4.5-30.4-8.4c-9.7-5.1-19.1-11.9-28.1-20.4c-8.8-9.9-17.3-21.2-25.3-33.7
		c-7.9-13.1-15.5-26.8-22.8-40.5c-7.2-13.5-14.2-26.6-20.9-39.1c-6.7-11.6-13.3-22.4-19.6-32.4c-6.1-8.6-12.4-17-18.9-25.2
		c-6.3-7.2-12.5-14.3-18.6-21.3c-6.4-7.1-12.6-14.3-18.6-21.7c-6.3-7.9-12.5-16.3-18.5-25.4c-6.2-9.5-12.2-19.6-17.9-30.3
		c-5.9-11.4-11.4-23-16.4-34.9c-5-12.5-9.5-25.2-13.4-38.1c-1.9-6.6-3.6-13.2-5.2-19.8c-1.5-6.6-2.9-13.3-4.1-20
		c-1.1-6.7-2.1-13.4-2.9-20.2c-0.7-6.7-1.3-13.4-1.7-20.2c-0.4-6.7-0.6-13.4-0.7-20.1c0-6.7,0-13.3,0.2-20
		c0.2-6.6,0.5-13.3,0.9-19.9c0.4-6.6,0.8-13.2,1.2-19.7c0.4-6.6,0.9-13.1,1.3-19.6c0.4-6.5,0.8-13,1.2-19.6c0.3-6.5,0.6-13,0.8-19.5
		c0.2-6.5,0.3-13,0.4-19.4c0-6.5-0.1-12.9-0.1-19.4c-0.2-6.5-0.3-12.9-0.5-19.4c-0.2-6.4-0.5-12.8-0.7-19.2
		c-0.3-6.4-0.5-12.6-0.6-18.9c-0.2-6.2-0.2-12.4-0.2-18.5c0.2-9.1,1.2-27.1,2.1-36"/>
	
		<linearGradient id="SVGID_00000169530016400472374390000002698153575243606966_" gradientUnits="userSpaceOnUse" x1="562.3329" y1="834.1133" x2="-9348.1533" y2="-80917.3125" gradientTransform="matrix(1 0 0 -1 0 918.1499)">
		<stop  offset="0" style="stop-color:#6D55A4"/>
		<stop  offset="1" style="stop-color:#FFFFFF"/>
	</linearGradient>
	
		<path style="opacity:0.14;fill:none;stroke:url(#SVGID_00000169530016400472374390000002698153575243606966_);stroke-linecap:round;stroke-dasharray:3,2;enable-background:new    ;" d="
		M975,881.4c-14,5.9-28.1,13.3-42.4,21.7c-14.3,8.8-28.5,17-42.5,23.8c-13.7,5-27.1,7.4-40.1,7c-6.4-1.1-12.6-2.9-18.8-5.2
		c-6.1-2.7-12.2-5.9-18.2-9.3c-6-3.5-12-7.1-18-10.6c-6-3.2-12.1-6.2-18.2-8.7c-6.2-2-12.5-3.4-18.8-4.3c-6.4-0.2-12.9,0.3-19.5,1.4
		c-6.6,1.7-13.4,3.8-20.1,6.4c-6.8,2.9-13.6,5.9-20.5,9c-6.8,3-13.6,5.8-20.3,8.1c-6.6,1.9-13.1,3.2-19.5,3.9
		c-6.3,0-12.5-0.8-18.5-2.4c-6-2.2-11.8-5.2-17.5-8.8c-5.6-4.1-11.2-8.7-16.7-13.7c-5.5-5.1-10.9-10.4-16.2-15.6
		c-5.4-5.1-10.8-9.9-16.2-14.4c-5.5-4-11-7.6-16.5-10.6c-11.3-4.1-22.8-6.1-34.4-6.1c-11.9,1.6-23.7,3.7-35.3,5.6
		c-11.6,1.2-22.9,0.6-33.8-2.2c-10.7-4.9-20.9-12.3-30.8-21.8c-9.7-11.1-19.2-23.3-28.6-35.9c-9.4-12.3-18.9-23.9-28.4-34.3
		c-9.8-8.7-19.6-15.8-29.5-21.4c-10.2-4-20.3-7.1-30.4-9.6c-10.1-2.2-20-4.8-29.6-8.3c-9.4-4.3-18.5-10.1-27.1-17.4
		c-8.4-8.7-16.3-18.9-23.8-30.3c-7.3-12.4-14.2-25.6-20.8-39.2c-6.5-13.7-12.7-27.4-18.7-40.7c-6-12.7-11.9-24.7-17.6-36
		c-5.5-9.9-11.3-19.6-17.3-29.2c-5.7-8.1-11.5-16.1-17.4-24.1c-5.9-7.4-11.8-14.8-17.5-22.5c-6.1-7.9-11.9-15.9-17.4-24.2
		c-5.9-9.1-11.4-18.4-16.5-27.9c-5.4-10.5-10.2-21.2-14.6-32.1c-4.4-11.6-8.2-23.5-11.5-35.5c-3-12.4-5.5-25-7.3-37.7
		c-1.5-12.8-2.5-25.8-2.8-38.7c-0.1-13,0.3-26,1.1-38.9c0.4-6.5,0.9-12.9,1.5-19.4c0.6-6.5,1.2-12.9,1.9-19.3
		c0.6-6.4,1.3-12.9,2-19.3l1.9-19.2c0.5-6.4,1-12.8,1.6-19.2c0.4-6.4,0.8-12.8,1.1-19.1c0.3-6.4,0.5-12.8,0.7-19.1
		c0.1-6.4,0.3-12.7,0.4-19.1c0.1-6.3,0.1-12.6,0.2-18.9c0.1-6.2,0.2-12.4,0.4-18.5c0.3-9.2,1.3-27.2,2.1-36"/>
	
		<linearGradient id="SVGID_00000125595840894694340090000010861614306095977376_" gradientUnits="userSpaceOnUse" x1="591.0124" y1="832.7261" x2="-12261.2725" y2="-78360.9375" gradientTransform="matrix(1 0 0 -1 0 918.1499)">
		<stop  offset="0" style="stop-color:#6D55A4"/>
		<stop  offset="1" style="stop-color:#FFFFFF"/>
	</linearGradient>
	
		<path style="opacity:0.55;fill:none;stroke:url(#SVGID_00000125595840894694340090000010861614306095977376_);stroke-linecap:round;stroke-dasharray:5,4;enable-background:new    ;" d="
		M986.9,869.2c-12.9,0.6-26.2,2.9-39.9,7.1c-14,6-28.3,13.2-42.6,21c-14.4,8-28.6,15.1-42.6,20.7c-13.6,3.7-26.8,4.8-39.5,3.3
		c-12.3-3.7-24.2-9.4-35.9-16.5c-11.6-7.3-23.3-14.2-35.2-19.9c-6.1-2.1-12.2-3.6-18.5-4.6c-6.4-0.3-12.8,0-19.4,0.8
		c-6.7,1.4-13.4,3.3-20.2,5.5c-6.8,2.6-13.7,5.2-20.6,7.9c-6.9,2.7-13.6,5.1-20.3,7.1c-6.6,1.6-13.1,2.7-19.4,3.1
		c-9.2-0.7-26.8-6.6-35.1-11.7c-10.8-8.7-21.1-18.8-31.3-29.6c-10.2-10.2-20.5-19.4-31-26.8c-10.9-5.1-22-8.1-33.4-9.2
		c-11.7,0.6-23.4,2-35,3.4c-11.6,1-22.8,0.5-33.6-1.8c-10.5-4.3-20.5-11-30-19.8c-9.3-10.5-18.3-22.4-27-35.1
		c-8.8-12.7-17.6-25-26.4-36.4c-9.1-10-18.3-18.6-27.7-25.7c-9.6-5.5-19.4-9.8-29-13.3c-9.8-2.8-19.4-5.7-28.7-9
		c-9.4-3.9-18.2-9-26.3-15.2c-8.1-7.5-15.6-16.5-22.7-26.8c-6.8-11.4-13.2-23.8-19.1-36.9c-5.8-13.5-11.3-27.2-16.6-40.9
		c-5.3-13.4-10.4-26.3-15.4-38.7c-5.2-11.7-10.3-22.6-15.3-33c-5.1-9.2-10.3-18.4-15.8-27.4c-5.5-8.2-10.9-16.3-16.2-24.3
		c-5.5-7.8-10.9-15.9-16.1-24.2c-5.4-8.6-10.5-17.4-15.2-26.4c-4.8-9.7-9.2-19.5-13.1-29.6c-3.8-10.7-7.1-21.7-9.8-32.8
		c-2.5-11.6-4.4-23.3-5.6-35.1c-1-12.1-1.4-24.3-1.3-36.5c0.4-12.4,1.2-24.8,2.4-37.2c1.3-12.5,2.8-24.9,4.6-37.4
		c1.6-12.5,3.3-25,5.1-37.4c0.7-6.3,1.5-12.5,2.2-18.7c0.6-6.2,1.3-12.5,1.9-18.7c0.5-6.2,1-12.5,1.5-18.7
		c0.4-6.3,0.9-12.5,1.3-18.7c0.4-6.2,0.7-12.4,1.2-18.5c0.6-9.2,2-27.2,2.9-36.1c0.6-5.9,1.4-11.7,2.3-17.5"/>
	
		<linearGradient id="SVGID_00000120535484704664252830000006954407367354186893_" gradientUnits="userSpaceOnUse" x1="593.4734" y1="799.6137" x2="-14344.3018" y2="-72452.2734" gradientTransform="matrix(1 0 0 -1 0 918.1499)">
		<stop  offset="0" style="stop-color:#6D55A4"/>
		<stop  offset="1" style="stop-color:#FFFFFF"/>
	</linearGradient>
	
		<path style="opacity:0.19;fill:none;stroke:url(#SVGID_00000120535484704664252830000006954407367354186893_);stroke-linecap:round;enable-background:new    ;" d="
		M958.4,862c-12.7,1.1-25.8,3.8-39.5,8.2c-14,6-28.3,12.8-42.7,20.1c-14.4,7.1-28.5,13.1-42.3,17.5c-13.4,2.4-26.3,2.4-38.6-0.1
		c-11.9-4.5-23.3-10.9-34.6-18.4c-11.2-7.5-22.5-14.6-34-20.3c-12-3.7-24.4-5.2-37.3-4.5c-13.4,2.8-27,6.9-40.8,11.6
		c-13.7,4.4-27,7.5-39.6,8.5c-12.2-1.4-23.6-5.5-34.3-12.2c-10.3-8.7-20.2-18.9-29.8-29.8c-9.7-10.6-19.4-20.2-29.3-28.4
		c-10.4-6.1-21.2-10.1-32.2-12.2c-11.5-0.4-23,0.2-34.5,1c-11.5,0.7-22.7,0.2-33.4-1.8c-10.4-3.8-20.2-9.8-29.5-17.9
		c-9-9.9-17.5-21.3-25.7-33.7c-8.2-12.8-16.2-25.6-24.3-37.8c-8.3-11.1-16.9-21-25.5-29.5c-9-6.9-18.2-12.6-27.3-17.2
		c-9.4-3.7-18.6-7.1-27.7-10.6c-9-3.7-17.5-8.1-25.6-13.6c-7.8-6.5-15.1-14.3-21.9-23.4c-6.4-10.2-12.4-21.5-17.8-33.8
		c-5.3-12.9-10.2-26.3-14.8-39.9c-4.6-13.6-9-27.1-13.3-40.2c-4.4-12.6-8.8-24.7-13.2-36.2c-4.4-10.4-9-20.7-13.8-30.9
		c-4.7-9-9.6-17.9-14.5-26.8c-5-8.4-9.9-16.7-14.6-25.2c-4.8-8.4-9.4-16.9-13.7-25.8c-4.3-9.1-8.2-18.4-11.6-27.9
		c-3.3-10-6.1-20.1-8.3-30.3c-2-10.6-3.4-21.4-4.2-32.5c-0.6-11.2-0.6-22.6-0.1-34.1c0.7-11.6,1.9-23.3,3.5-35
		c1.6-11.8,3.5-23.7,5.6-35.6c2-12,4-24,6.1-36c1.8-12.1,3.6-24.2,5.4-36.4c1.5-12.2,2.9-24.4,4.4-36.5c1.3-12.2,2.7-24.2,4.2-36.1"
		/>
	
		<linearGradient id="SVGID_00000034083442219196165380000009807727752312759452_" gradientUnits="userSpaceOnUse" x1="609.8684" y1="764.1423" x2="-16000.2988" y2="-66677.9766" gradientTransform="matrix(1 0 0 -1 0 918.1499)">
		<stop  offset="0" style="stop-color:#6D55A4"/>
		<stop  offset="1" style="stop-color:#FFFFFF"/>
	</linearGradient>
	
		<path style="opacity:0.18;fill:none;stroke:url(#SVGID_00000034083442219196165380000009807727752312759452_);stroke-linecap:round;stroke-dasharray:4,3;enable-background:new    ;" d="
		M963.9,858.1c-10.8-2.4-22.2-3.9-34-4.1c-12.4,1.6-25.4,4.7-38.9,9.2c-13.9,5.8-28.1,12.3-42.4,18.8c-14.2,6.1-28.1,11.1-41.7,14.2
		c-13,1.2-25.5,0.1-37.3-3.4c-11.4-5.3-22.3-12.1-33-20c-10.7-7.7-21.6-14.8-32.8-20.7c-11.7-3.8-24-5.6-36.8-5.3
		c-13.3,2.3-26.9,5.8-40.6,9.7c-13.7,3.8-26.9,6.2-39.4,6.7c-12-1.7-23.2-6-33.5-12.8c-9.9-8.7-19.3-18.9-28.3-29.9
		c-9.1-10.9-18.3-21-27.7-29.8c-9.9-6.9-20.2-11.9-30.9-15.1c-11.2-1.4-22.5-1.7-33.9-1.5c-11.5,0.3-22.6-0.3-33.3-2.1
		c-10.4-3.4-20.1-8.7-29.2-16.2c-8.7-9.2-16.8-20-24.6-32.1c-7.6-12.7-15-25.7-22.4-38.4c-7.6-12-15.3-22.9-23.2-32.7
		c-8.3-8.3-16.7-15.3-25.3-21.2c-8.8-4.8-17.6-9-26.3-13c-8.6-3.8-16.9-8-24.8-13c-7.6-5.7-14.7-12.4-21.3-20.4
		c-6.2-9-11.8-19.2-16.9-30.4c-4.9-12-9.3-24.7-13.4-37.9c-4-13.4-7.8-27-11.4-40.4c-3.6-12.8-7.2-25.6-11-38.4
		c-3.7-11.4-7.5-22.8-11.6-34.1c-4-10-8.1-19.9-12.4-29.8c-4.3-9.2-8.6-18.1-12.7-27c-4.2-8.7-8.3-17.4-12-26.2
		c-3.7-8.8-7.1-17.8-10.1-27c-2.8-9.4-5.2-18.9-6.9-28.5c-1.6-10-2.6-20.1-3-30.2c-0.2-10.4,0.1-21,1-31.7c1-10.8,2.5-21.8,4.3-32.8
		c1.9-11.1,4-22.4,6.4-33.7c2.3-11.5,4.6-23,7.1-34.4c2.2-11.6,4.4-23.3,6.7-35c1.9-11.8,3.9-23.7,5.9-35.5"/>
	
		<linearGradient id="SVGID_00000047020994627964987070000009760481044783835320_" gradientUnits="userSpaceOnUse" x1="642.1259" y1="762.1227" x2="-18273.5957" y2="-64565.6367" gradientTransform="matrix(1 0 0 -1 0 918.1499)">
		<stop  offset="0" style="stop-color:#6D55A4"/>
		<stop  offset="1" style="stop-color:#FFFFFF"/>
	</linearGradient>
	
		<path style="opacity:0.75;fill:none;stroke:url(#SVGID_00000047020994627964987070000009760481044783835320_);stroke-linecap:round;stroke-dasharray:4,3;enable-background:new    ;" d="
		M989.5,861.4c-9-0.2-17.9-1.8-27-4.5c-9.2-3-18.6-6.2-28.5-9.1c-10.3-2-21.3-2.9-32.9-2.5c-12.2,2-25,5.4-38.4,10
		c-13.8,5.6-27.8,11.6-41.8,17.3c-13.9,5.2-27.5,9-40.6,10.9c-12.5,0.1-24.4-2.1-35.7-6.4c-10.8-5.9-21.2-13.2-31.3-21.3
		c-10.2-7.8-20.7-15-31.5-20.9c-11.4-4-23.5-6-36.1-6.1c-13.2,1.8-26.7,4.6-40.4,7.8c-13.6,3.1-26.7,5-39.1,5
		c-11.8-2-22.7-6.4-32.7-13.3c-9.5-8.7-18.4-18.9-26.9-30c-8.5-11.1-17.1-21.6-25.9-31c-9.4-7.7-19.2-13.6-29.4-17.8
		c-10.8-2.4-21.9-3.6-33.1-4.2c-11.3-0.2-22.4-1-33-2.8c-10.3-3-20-7.9-29-14.6c-8.5-8.4-16.4-18.6-23.7-30.1
		c-7.1-12.4-13.9-25.4-20.6-38.4c-6.8-12.6-13.7-24.4-20.8-35.3c-7.5-9.6-15.1-17.9-22.9-25.1c-8.2-6-16.4-11.2-24.5-15.8
		c-8.2-4.2-16.2-8.5-23.9-13.2c-7.6-5.2-14.5-11.3-20.8-18.1c-6-7.9-11.5-16.9-16.4-26.9c-4.6-10.9-8.7-22.6-12.4-35
		c-3.5-12.9-6.7-26.1-9.7-39.5c-3-13.4-6-26.6-8.8-39.6c-3-12.2-6-24.5-9.2-36.6c-3.2-10.9-6.6-21.8-10-32.7
		c-3.6-10.1-7.1-19.8-10.5-29.4c-3.5-9.2-6.9-18.4-10-27.4c-3.1-8.9-5.9-17.9-8.4-27c-2.3-9.1-4.2-18.2-5.5-27.5
		c-1.2-9.5-1.8-19-1.9-28.5c0.1-9.7,0.7-19.6,1.9-29.6c1.3-10.1,2.9-20.3,5-30.7c2.1-10.4,4.5-21,7.1-31.7
		c2.5-10.8,5.1-21.7,7.9-32.7c2.6-11.2,5.1-22.4,7.7-33.6C128,32,130.5,20.6,133,9.1"/>
	
		<linearGradient id="SVGID_00000054953882414426122060000001403148808622570155_" gradientUnits="userSpaceOnUse" x1="646.2589" y1="733.3679" x2="-19433.2441" y2="-59403.9492" gradientTransform="matrix(1 0 0 -1 0 918.1499)">
		<stop  offset="0" style="stop-color:#6D55A4"/>
		<stop  offset="1" style="stop-color:#FFFFFF"/>
	</linearGradient>
	
		<path style="opacity:0.23;fill:none;stroke:url(#SVGID_00000054953882414426122060000001403148808622570155_);stroke-linecap:round;stroke-dasharray:1,2;enable-background:new    ;" d="
		M980.5,847.1c-8.5,2.9-16.8,4.3-25.1,4.1c-8.1-1.2-16.3-3.4-24.5-6.4c-8.5-3-17.3-6-26.7-8.6c-9.9-1.4-20.5-1.8-31.9-0.8
		c-12,2.4-24.7,6.1-37.9,10.6c-13.5,5.3-27.3,10.7-41,15.6c-13.5,4.2-26.6,6.9-39.2,7.7c-11.9-1-23.2-4.1-33.8-9.2
		c-10.1-6.5-19.9-14.2-29.5-22.4c-9.7-7.9-19.7-15.1-30.2-21.1c-11.1-4.1-22.9-6.3-35.4-6.9c-13,1.2-26.5,3.5-40,6
		c-13.5,2.4-26.5,3.7-38.8,3.3c-11.6-2.3-22.2-6.9-32-13.8c-9.1-8.7-17.6-18.8-25.6-29.9c-8-11.2-16-22.1-24.2-32
		c-8.8-8.4-18.1-15.2-27.8-20.3c-10.4-3.4-21.1-5.5-32.1-6.8c-11.1-0.8-22.1-1.9-32.7-3.7c-10.3-2.8-19.9-7.2-28.8-13.3
		c-8.4-7.7-16-17.2-23-28.1c-6.7-11.9-13-24.6-19-37.7c-6.1-12.9-12.2-25.4-18.4-37.1c-6.6-10.6-13.3-20.2-20.3-28.6
		c-7-6.9-14.5-13.2-22.4-19c-7.7-4.9-15.3-9.6-22.6-14.3c-7.2-4.9-14-10.4-20.2-16.6c-5.9-6.9-11.3-14.8-16.1-23.7
		c-4.4-9.7-8.3-20.3-11.8-31.8c-3.2-12-6-24.6-8.5-37.5c-2.5-13.1-4.8-26.4-7-39.5c-2.3-12.8-4.5-25.5-6.9-38.2
		c-2.4-11.7-4.9-23.5-7.5-35.2c-2.7-10.9-5.4-21.5-8-31.8c-2.8-9.9-5.4-19.6-7.8-29.2c-2.4-9.3-4.6-18.5-6.4-27.7
		c-1.7-9-3-18.1-3.9-27.2c-0.7-9.1-0.9-18.3-0.7-27.5c0.4-9.2,1.3-18.6,2.7-28.1c1.5-9.5,3.4-19.2,5.7-29c2.3-9.8,4.9-19.8,7.7-29.9
		c2.8-10.4,5.7-20.7,8.6-31c2.9-10.7,5.8-21.4,8.8-32.1"/>
	
		<linearGradient id="SVGID_00000163790824659127906620000016667814895746555300_" gradientUnits="userSpaceOnUse" x1="646.6447" y1="710.2011" x2="-20392.8203" y2="-54727.6016" gradientTransform="matrix(1 0 0 -1 0 918.1499)">
		<stop  offset="0" style="stop-color:#6D55A4"/>
		<stop  offset="1" style="stop-color:#FFFFFF"/>
	</linearGradient>
	
		<path style="opacity:0.69;fill:none;stroke:url(#SVGID_00000163790824659127906620000016667814895746555300_);stroke-linecap:round;stroke-dasharray:3,4;enable-background:new    ;" d="
		M969.6,825.4c-8.4,5.6-16.7,9.8-24.8,12.6c-7.8,1.6-15.3,1.8-22.8,0.7c-7.3-1.9-14.8-4.5-22.4-7.7c-7.9-2.9-16.3-5.5-25.3-7.5
		c-9.6-0.8-20-0.6-31.2,0.9c-11.8,2.8-24.3,6.6-37.3,11c-13.3,4.9-26.7,9.7-40,13.8c-13,3.2-25.5,4.8-37.5,4.6
		c-11.3-1.9-21.8-5.9-31.7-11.6c-9.5-6.9-18.6-14.9-27.6-23.2c-9.2-7.9-18.8-15.1-28.9-21.1c-10.8-4.2-22.3-6.7-34.6-7.6
		c-12.9,0.7-26.1,2.3-39.5,4.3c-13.4,1.8-26.2,2.5-38.2,1.7c-11.4-2.6-21.7-7.4-31.1-14.3c-8.7-8.6-16.7-18.7-24.2-29.8
		c-7.4-11.3-14.9-22.4-22.5-32.8c-8.2-9-16.9-16.6-26.1-22.6c-9.9-4.3-20.2-7.4-30.8-9.5c-10.9-1.4-21.7-2.9-32.1-4.9
		c-10.2-2.7-19.8-6.8-28.7-12.3c-8.3-7.1-15.8-15.7-22.6-25.9c-6.3-11.3-12.2-23.6-17.6-36.5c-5.4-13-10.7-25.8-16.1-38.1
		c-5.6-11.5-11.5-22.1-17.6-31.6c-6.5-8.4-13.2-15.8-19.9-22.4c-7.1-5.7-14.1-11-21-16.1c-6.9-5-13.4-10.2-19.4-15.9
		c-5.8-6.2-11.1-13.2-15.9-21c-4.4-8.6-8.2-18-11.5-28.3c-3-11-5.6-22.6-7.8-34.8c-2.1-12.5-3.9-25.4-5.5-38.3
		c-1.7-13-3.2-26-4.7-38.7c-1.6-12.3-3.3-24.6-4.9-36.9c-1.8-11.7-3.6-23-5.3-34c-1.9-10.7-3.6-21-5.2-31.1c-1.6-9.8-3-19.5-4.1-29
		c-1.1-9.3-1.8-18.5-2.1-27.7c-0.2-9,0-18.1,0.7-27.1c0.8-9.1,2-18.2,3.7-27.2c1.7-9.1,3.9-18.3,6.4-27.7c2.5-9.6,5.3-19.1,8.3-28.5
		c3-9.9,6.1-19.8,9.3-29.6"/>
	
		<linearGradient id="SVGID_00000152971707687066120520000013920937093200529795_" gradientUnits="userSpaceOnUse" x1="652.9712" y1="688.5394" x2="-21183.4355" y2="-50494.1523" gradientTransform="matrix(1 0 0 -1 0 918.1499)">
		<stop  offset="0" style="stop-color:#6D55A4"/>
		<stop  offset="1" style="stop-color:#FFFFFF"/>
	</linearGradient>
	
		<path style="opacity:0.46;fill:none;stroke:url(#SVGID_00000152971707687066120520000013920937093200529795_);stroke-linecap:round;stroke-dasharray:3,2;enable-background:new    ;" d="
		M987.2,776.5c-9.2,7.9-18.5,15.7-27.6,23.1c-8.8,7-17.5,13.1-25.9,18.2c-8,4.1-15.8,6.9-23.2,8.4c-7.1,0.4-14-0.3-20.8-2.2
		c-6.7-2.3-13.6-5.1-20.7-8.2c-7.5-2.6-15.6-4.7-24.3-6.1c-9.4-0.2-19.7,0.6-30.7,2.5c-11.7,3.1-23.9,6.8-36.7,11.1
		c-12.9,4.4-25.9,8.5-38.7,11.7c-12.4,2.2-24.3,2.8-35.5,1.7c-10.5-2.8-20.3-7.5-29.5-13.8c-8.8-7.3-17.3-15.4-25.7-23.9
		c-8.7-7.9-17.8-15.1-27.5-21.1c-10.5-4.3-21.7-7-33.7-8.2c-12.6,0.2-25.7,1.3-38.9,2.6c-13.2,1.2-25.8,1.4-37.6,0.1
		c-11.1-2.9-21.2-7.8-30.3-14.7c-8.3-8.6-15.9-18.6-23-29.6c-6.9-11.4-13.7-22.6-20.7-33.3c-7.6-9.5-15.6-17.8-24.2-24.6
		c-9.3-5.2-19.2-9.2-29.3-12.1c-10.5-2.2-21.1-4.1-31.4-6.4c-10.1-2.8-19.6-6.5-28.4-11.7c-8.2-6.4-15.7-14.4-22.3-23.8
		c-6.1-10.6-11.6-22.3-16.5-34.8c-4.8-12.8-9.4-25.7-13.9-38.4c-4.7-12.1-9.6-23.5-14.7-34c-5.5-9.5-11.3-18-17.2-25.6
		c-6.3-6.7-12.6-12.8-18.9-18.4c-6.4-5.3-12.5-10.6-18.4-16.1c-5.8-5.8-11-12.2-15.5-19c-4.4-7.6-8.2-16-11.5-25.1
		c-3-9.8-5.4-20.4-7.5-31.6c-1.8-11.7-3.3-23.8-4.5-36.2c-1.2-12.6-2.2-25.4-3-38.1c-0.9-12.5-1.8-25.1-2.6-37.6
		c-0.9-11.8-1.8-23.7-2.7-35.5c-0.9-11-1.8-21.9-2.5-32.9c-0.8-10.4-1.4-20.5-1.7-30.4c-0.3-9.7-0.4-19.2,0-28.6
		c0.4-9.1,1.1-18.3,2.3-27.4c1.2-9,2.8-17.9,4.8-26.8c2.1-9,4.5-18,7.2-26.9c2.8-9.2,5.8-18.4,9-27.4"/>
	
		<linearGradient id="SVGID_00000078018068572932630640000017402762069727545990_" gradientUnits="userSpaceOnUse" x1="652.576" y1="671.4587" x2="-21787.0371" y2="-46519.6484" gradientTransform="matrix(1 0 0 -1 0 918.1499)">
		<stop  offset="0" style="stop-color:#6D55A4"/>
		<stop  offset="1" style="stop-color:#FFFFFF"/>
	</linearGradient>
	
		<path style="opacity:0.24;fill:none;stroke:url(#SVGID_00000078018068572932630640000017402762069727545990_);stroke-linecap:round;stroke-dasharray:5,1;enable-background:new    ;" d="
		M983.1,752.5c-10.1,6.8-20.1,13.9-30,21c-9.7,7.1-19.1,13.8-28.4,20c-8.8,5.6-17.2,10.3-25.3,13.9c-7.6,2.7-14.8,4.2-21.6,4.5
		c-6.5-0.5-12.8-2.1-19.1-4.4c-6.2-2.5-12.7-5.3-19.5-8.1c-7.3-2.1-15.2-3.7-23.8-4.5c-9.4,0.4-19.5,1.7-30.4,3.9
		c-11.5,3.2-23.6,6.9-36,10.8c-12.5,3.9-25,7.2-37.2,9.6c-11.7,1.3-22.9,0.9-33.3-1.1c-9.7-3.6-18.8-8.8-27.2-15.6
		c-8.1-7.6-15.9-15.8-23.8-24.2c-8.2-7.8-16.8-14.9-26.1-20.9c-10.1-4.3-21.1-7.3-32.7-8.8c-12.4-0.2-25.2,0.3-38.1,1
		c-12.9,0.6-25.3,0.3-36.8-1.4c-10.8-3.2-20.6-8.2-29.4-15.1c-8-8.5-15.1-18.4-21.7-29.4c-6.4-11.3-12.6-22.7-19-33.7
		c-6.9-10-14.3-18.8-22.2-26.4c-8.7-6.1-17.9-10.9-27.6-14.7c-10.1-2.9-20.3-5.4-30.4-8c-10-2.9-19.4-6.5-28.1-11.3
		c-8.2-5.9-15.6-13.2-22.1-21.9C287,578,281.8,567,277.2,555c-4.3-12.5-8.3-25.2-12-38c-3.9-12.5-7.9-24.4-12-35.7
		c-4.5-10.4-9.2-19.9-14.2-28.5c-5.1-7.3-10.6-14.3-16.4-21.1c-5.8-5.8-11.4-11.5-16.9-17.1c-5.4-5.6-10.4-11.5-15-17.9
		c-4.4-6.8-8.2-14.2-11.5-22.4c-3-8.8-5.5-18.2-7.4-28.3c-1.7-10.6-3.1-21.8-4-33.4c-0.8-12-1.4-24.2-1.8-36.5
		c-0.4-12.5-0.6-24.9-0.7-37.3c-0.2-12.1-0.3-24.2-0.2-36.2c-0.1-11.7-0.1-23.1,0.1-34.2c0.1-10.9,0.4-21.5,0.9-31.8
		c0.4-9.9,1.2-19.8,2.2-29.6c1-9.5,2.4-18.8,4.1-27.9c1.7-9,3.8-18,6.2-26.9c2.5-8.9,5.2-17.8,8.2-26.5"/>
	
		<linearGradient id="SVGID_00000119805508536892245450000008531902897169267368_" gradientUnits="userSpaceOnUse" x1="654.6634" y1="660.7142" x2="-23355.3105" y2="-40763.4844" gradientTransform="matrix(1 0 0 -1 0 918.1499)">
		<stop  offset="0" style="stop-color:#6D55A4"/>
		<stop  offset="1" style="stop-color:#FFFFFF"/>
	</linearGradient>
	
		<path style="opacity:0.63;fill:none;stroke:url(#SVGID_00000119805508536892245450000008531902897169267368_);stroke-linecap:round;stroke-dasharray:4,2;enable-background:new    ;" d="
		M956.7,731.7c-11.8,4.9-23.5,10-34.9,15.2c-11.2,5.4-22,10.6-32.5,15.5c-10,4.6-19.5,8.7-28.5,11.9c-8.4,2.7-16.2,4.4-23.5,5.2
		c-9.9-0.3-27.6-5.4-36.1-9.3c-5.9-2.4-12.1-4.7-18.8-6.7c-7.3-1.1-15.3-1.5-24.1-1.2c-9.5,1.3-19.7,3.3-30.5,5.9
		c-11.3,3.1-22.8,6.3-34.6,9.2c-11.6,2.6-23,4.4-33.9,5.1c-10.3-0.5-19.9-2.5-28.7-6c-8.1-4.8-15.6-11-22.5-18.3
		c-6.7-7.8-13.3-16.1-20-24.3c-7.2-7.6-14.9-14.5-23.4-20.3c-9.4-4.4-19.6-7.7-30.7-9.9c-11.7-1-23.9-1.5-36.2-1.9
		c-12.3-0.5-24-1.7-35-4.1c-10.2-3.7-19.4-8.9-27.5-15.8c-7.2-8.3-13.6-17.9-19.2-28.6c-5.3-11.2-10.4-22.6-15.5-33.8
		c-5.5-10.6-11.5-20.4-17.9-29.1c-7.3-7.5-15.1-13.8-23.5-19.2c-9-4.3-18.3-8.1-27.6-11.6c-9.4-3.3-18.4-7.1-27-11.4
		c-8.1-5.1-15.3-11.2-21.8-18.5c-5.8-8.3-10.6-17.8-14.8-28.3c-3.6-11.2-6.6-23.1-9.2-35.4c-2.5-12.4-4.8-24.7-7.1-36.8
		c-2.5-11.5-5.2-22.5-8.1-32.8c-3.3-9.5-6.8-18.2-10.6-26.3c-4.1-7.3-8.3-14.2-12.6-20.6c-4.4-6.1-8.7-12-12.8-18
		c-4-6-7.7-12.4-11-19c-3.1-7-5.7-14.6-7.8-22.6c-1.9-8.5-3.2-17.6-4.1-27.2c-0.7-10-1-20.4-0.9-31.2c0.2-11.3,0.8-22.6,1.6-33.9
		c0.9-11.6,2-23.3,3.3-34.8c1.3-11.5,2.8-22.9,4.5-34.4c1.6-11,3.4-22,5.5-32.9c2-10.4,4.2-20.8,6.6-31.1c2.4-9.8,5-19.6,7.9-29.2
		c2.8-9.3,5.9-18.5,9.3-27.7"/>
	
		<linearGradient id="SVGID_00000009582589943580482710000015877516113573821067_" gradientUnits="userSpaceOnUse" x1="652.8376" y1="633.387" x2="-22819.9355" y2="-36301.1133" gradientTransform="matrix(1 0 0 -1 0 918.1499)">
		<stop  offset="0" style="stop-color:#6D55A4"/>
		<stop  offset="1" style="stop-color:#FFFFFF"/>
	</linearGradient>
	
		<path style="opacity:0.19;fill:none;stroke:url(#SVGID_00000009582589943580482710000015877516113573821067_);stroke-linecap:round;stroke-dasharray:2,4;enable-background:new    ;" d="
		M966.4,718.6c-12.6,3.4-25.1,7.1-37.5,11.1c-12.2,4.2-24.3,8.6-36,12.8c-11.3,4.2-22.2,8.2-32.7,11.7c-9.9,3.2-19.1,5.7-27.8,7.4
		c-8,1.2-15.5,1.6-22.4,1.1c-9.4-1.8-26.5-8.4-34.9-12.4c-6.3-2.4-12.7-4.2-19.2-5.7c-7.5-0.6-15.8-0.6-24.7,0.1
		c-9.6,1.6-19.9,3.7-30.7,6.2c-11.1,2.9-22.4,5.6-33.8,8c-11.1,1.9-21.8,2.9-32,2.8c-9.5-1.3-18.3-4-26.3-8.2
		c-7.3-5.3-14-11.8-20.3-19.3c-6-7.8-12.1-16-18.3-24.1c-6.7-7.4-14.1-14.2-22.2-20c-9-4.5-18.9-7.9-29.6-10.3
		c-11.4-1.4-23.2-2.3-35.1-3.2c-11.9-0.9-23.3-2.6-33.9-5.3c-9.9-3.9-18.7-9.2-26.4-16.1c-6.9-8.2-12.8-17.6-18-28.1
		c-4.8-11-9.4-22.3-13.8-33.6c-4.8-10.8-10-20.9-15.7-30.1c-6.5-8.1-13.6-15.1-21.2-21.1c-8.3-5-17-9.4-25.8-13.4
		c-9-3.7-17.7-7.6-26-11.9c-7.9-4.8-15.1-10.5-21.5-17.2c-5.7-7.6-10.6-16.3-14.6-26c-3.4-10.5-6.2-21.7-8.4-33.4
		c-1.9-12-3.6-24.1-5.1-36.2c-1.6-11.8-3.4-23.1-5.2-33.9c-2.2-10.1-4.7-19.6-7.4-28.4c-3-7.7-6.2-15.3-9.8-22.7
		c-3.7-6.6-7.4-12.9-10.9-19.1c-3.7-6.1-7.1-12.2-10.1-18.5c-3.1-6.7-5.7-13.6-7.7-20.7c-1.9-7.6-3.4-15.8-4.4-24.3
		c-0.8-9-1.1-18.4-1-28.2c0.3-10.1,0.9-20.6,1.9-31.2c1.1-11,2.5-22,4.1-32.9c1.7-11.1,3.7-22.2,5.9-33.2
		c2.2-10.9,4.6-21.7,7.2-32.5c2.6-10.4,5.4-20.8,8.4-31.1c3-10,6.2-19.8,9.7-29.4"/>
	
		<linearGradient id="SVGID_00000168097127273040579060000004930344096003144078_" gradientUnits="userSpaceOnUse" x1="662.3665" y1="629.0109" x2="-23473.1016" y2="-34120.6367" gradientTransform="matrix(1 0 0 -1 0 918.1499)">
		<stop  offset="0" style="stop-color:#6D55A4"/>
		<stop  offset="1" style="stop-color:#FFFFFF"/>
	</linearGradient>
	
		<path style="opacity:0.79;fill:none;stroke:url(#SVGID_00000168097127273040579060000004930344096003144078_);stroke-linecap:round;stroke-dasharray:2,2;enable-background:new    ;" d="
		M978.7,709.9c-12.7,2.3-25.6,4.8-38.5,7.6c-12.8,3-25.6,6.2-38.3,9.5c-12.4,3.4-24.5,6.6-36.2,9.7c-11.3,2.9-22,5.5-32.2,7.5
		c-9.6,1.7-18.5,2.7-26.8,3c-7.7-0.2-14.8-1-21.4-2.5c-6.1-1.8-12-4.1-17.6-6.8c-5.5-2.6-11.2-5.2-17-7.8c-6.2-2-12.9-3.5-20.1-4.6
		c-7.9-0.2-16.4,0.2-25.7,1.2c-9.8,1.7-20.1,3.8-30.9,6.1c-10.9,2.5-21.9,4.8-32.8,6.5c-10.5,1.2-20.6,1.4-30.1,0.4
		c-8.7-2-16.7-5.4-23.9-10.1c-6.6-5.7-12.6-12.4-18.2-20c-5.4-7.8-10.9-15.9-16.7-23.8c-6.3-7.2-13.2-13.8-21-19.5
		c-8.7-4.5-18.2-8-28.5-10.7c-11-1.8-22.4-3.1-34-4.4c-11.5-1.4-22.5-3.4-32.8-6.5c-9.5-4-18-9.5-25.3-16.3
		c-6.5-8-12-17.3-16.8-27.5c-4.3-10.8-8.3-22-12.2-33.2c-4.1-10.8-8.6-21.2-13.5-30.7c-5.7-8.5-11.9-16.1-18.8-22.8
		c-7.6-5.7-15.5-10.6-23.7-15.1c-8.5-4.1-16.8-8.2-24.8-12.5c-7.7-4.7-14.8-10-21.2-16.2c-5.7-7-10.5-14.9-14.5-23.7
		c-3.3-9.7-5.9-20.1-7.8-31.1c-1.6-11.4-2.7-23.2-3.6-35c-0.9-11.7-1.8-23.2-2.7-34.3c-1.2-10.6-2.6-20.7-4.3-30.1
		c-2.1-8.8-4.3-17.1-6.8-24.8c-2.8-7.2-5.7-14-8.6-20.6c-3.1-6.3-6.1-12.5-8.8-18.7c-2.8-6.3-5.3-12.8-7.3-19.5
		c-2-7-3.5-14.3-4.6-22c-0.9-8.1-1.4-16.5-1.4-25.3c0.2-9.1,0.8-18.6,1.8-28.3c1.1-10,2.6-20.1,4.5-30.4c2-10.5,4.2-21,6.7-31.4
		c2.6-10.5,5.4-20.9,8.4-31.3c3-10.2,6.3-20.3,9.9-30.4c3.5-9.8,7.2-19.5,11.1-29.1"/>
	
		<linearGradient id="SVGID_00000121970707277115233440000014800642755080064682_" gradientUnits="userSpaceOnUse" x1="644.5389" y1="605.1602" x2="-22152.498" y2="-29502.5977" gradientTransform="matrix(1 0 0 -1 0 918.1499)">
		<stop  offset="0" style="stop-color:#6D55A4"/>
		<stop  offset="1" style="stop-color:#FFFFFF"/>
	</linearGradient>
	
		<path style="opacity:0.54;fill:none;stroke:url(#SVGID_00000121970707277115233440000014800642755080064682_);stroke-linecap:round;stroke-dasharray:4,1;enable-background:new    ;" d="
		M952.9,709c-13,2.2-25.9,4.4-38.8,6.7c-12.9,2.4-25.7,4.9-38.3,7.2c-12.3,2.3-24.1,4.4-35.6,6.2c-10.9,1.5-21.3,2.6-31.1,3.2
		c-9.1,0.2-17.6-0.2-25.5-1.2c-7.3-1.3-14.1-3.2-20.4-5.6c-6-2.5-11.8-5.3-17.4-8.2c-5.7-2.7-11.6-5.3-17.7-7.6
		c-6.6-1.7-13.7-2.9-21.3-3.7c-8.3,0.1-17.2,0.7-26.7,1.8c-10,1.7-20.4,3.6-31,5.6c-10.7,2-21.4,3.7-31.8,4.7
		c-10,0.4-19.4-0.2-28.1-1.9c-8-2.7-15.2-6.7-21.6-11.9c-5.8-6-11.2-12.9-16.1-20.5c-4.9-7.7-9.9-15.6-15.2-23.4
		c-5.9-7-12.5-13.5-19.9-19.1c-8.3-4.5-17.5-8.2-27.4-11c-10.6-2.1-21.6-3.8-32.8-5.5c-11.1-1.8-21.7-4.2-31.6-7.5
		c-9.1-4.2-17.2-9.7-24.2-16.4c-6.1-7.9-11.3-16.9-15.6-26.8c-3.9-10.5-7.3-21.5-10.6-32.6c-3.5-10.8-7.2-21.2-11.3-31.1
		c-4.8-8.9-10.2-17-16.2-24.2c-6.7-6.2-13.9-11.8-21.5-16.8c-7.9-4.5-15.7-8.8-23.4-13.3c-7.5-4.6-14.4-9.7-20.6-15.4
		c-5.7-6.4-10.5-13.6-14.5-21.7c-3.3-8.8-5.8-18.4-7.6-28.7c-1.3-10.8-2.1-21.9-2.5-33.3c-0.3-11.4-0.4-22.8-0.5-34
		c-0.3-10.8-0.7-21.3-1.3-31.2c-1-9.4-2.2-18.3-3.7-26.6c-1.8-7.5-3.7-14.9-5.9-22.2c-2.4-6.7-4.7-13.2-7-19.5
		c-2.4-6.3-4.6-12.6-6.5-19c-1.9-6.7-3.4-13.5-4.6-20.4c-1-7.3-1.6-14.9-1.7-22.8c0-8.2,0.5-16.7,1.4-25.5c1.1-9,2.5-18.3,4.3-27.7
		c2-9.7,4.3-19.4,6.9-29c2.7-9.9,5.7-19.7,9-29.4c3.3-9.8,6.9-19.5,10.8-29.1"/>
	
		<linearGradient id="SVGID_00000011716085312181025760000008797680355134579878_" gradientUnits="userSpaceOnUse" x1="650.9604" y1="600.6636" x2="-22423.7695" y2="-27403.1328" gradientTransform="matrix(1 0 0 -1 0 918.1499)">
		<stop  offset="0" style="stop-color:#6D55A4"/>
		<stop  offset="1" style="stop-color:#FFFFFF"/>
	</linearGradient>
	
		<path style="opacity:0.19;fill:none;stroke:url(#SVGID_00000011716085312181025760000008797680355134579878_);stroke-linecap:round;stroke-dasharray:5,1;enable-background:new    ;" d="
		M964.2,702.2c-12.2,1.8-24.7,3.6-37.3,5.4c-12.8,1.8-25.6,3.6-38.4,5.3c-12.7,1.7-25.1,3.2-37.3,4.5c-11.8,1.2-23.3,2-34.2,2.4
		c-10.4,0.2-20.2-0.1-29.4-0.9c-8.6-1.1-16.6-2.7-24.1-4.9c-6.7-2.3-13.3-5-19.7-8.1c-6-3-11.8-6.1-17.6-9.2
		c-6-2.7-12.2-5.2-18.8-7.3c-7.1-1.5-14.6-2.4-22.8-2.9c-8.7,0.2-18,0.9-27.7,2c-10.1,1.5-20.5,3.1-31,4.6
		c-10.4,1.4-20.7,2.4-30.6,2.7c-9.3-0.3-18.1-1.7-26-4.1c-7.2-3.3-13.7-7.8-19.4-13.4c-5.2-6.2-9.9-13.3-14.3-20.9
		c-4.4-7.6-9-15.3-13.9-22.9c-5.5-6.8-11.8-13.1-18.9-18.6c-8-4.5-16.8-8.3-26.3-11.3c-10.2-2.4-20.8-4.4-31.5-6.5
		c-10.7-2.2-20.8-4.9-30.3-8.4c-8.7-4.4-16.4-9.8-23.1-16.5c-5.7-7.7-10.5-16.5-14.4-26.1c-3.4-10.3-6.3-21-9-31.9
		c-2.8-10.7-5.8-21.2-9.2-31.1c-4-9.2-8.5-17.6-13.7-25.2c-5.9-6.7-12.3-12.8-19-18.2c-7.2-4.9-14.5-9.6-21.7-14.2
		c-7.1-4.6-13.8-9.6-19.9-15c-5.7-6-10.5-12.6-14.5-19.9c-3.4-8-5.9-16.8-7.6-26.2c-1.2-10-1.8-20.4-1.9-31.2c0.1-11,0.5-22,1.1-33
		c0.5-10.8,0.9-21.4,1.2-31.6c0-9.8-0.2-19.1-0.6-28c-0.8-8-1.8-15.9-3-23.8c-1.5-6.9-3-13.8-4.7-20.6c-1.8-6.4-3.5-12.8-5.1-19.2
		c-1.6-6.4-3-12.9-4-19.4c-1-6.9-1.6-13.9-1.9-20.9c-0.1-7.4,0.2-15.1,0.9-23c0.9-8.1,2.2-16.5,3.9-25c1.8-8.7,4.1-17.5,6.6-26.5
		c2.7-9.2,5.8-18.2,9.1-27.2c3.4-9.2,7.1-18.3,11.1-27.3"/>
	
		<linearGradient id="SVGID_00000011019774665627704000000005602572228165748392_" gradientUnits="userSpaceOnUse" x1="641.5596" y1="575.9457" x2="-20936.2441" y2="-23516.082" gradientTransform="matrix(1 0 0 -1 0 918.1499)">
		<stop  offset="0" style="stop-color:#6D55A4"/>
		<stop  offset="1" style="stop-color:#FFFFFF"/>
	</linearGradient>
	
		<path style="opacity:0.1;fill:none;stroke:url(#SVGID_00000011019774665627704000000005602572228165748392_);stroke-linecap:round;stroke-dasharray:2,4;enable-background:new    ;" d="
		M971.5,694.7c-11,2.1-22.4,4.1-34.2,5.8c-12.2,1.7-24.4,3.3-36.6,4.7c-12.4,1.3-24.7,2.4-37.1,3.4c-12.2,0.8-24.1,1.3-35.6,1.5
		c-11.2,0-21.9-0.4-32.2-1.3c-9.7-1.1-18.9-2.7-27.5-4.7c-8.1-2.3-15.6-4.9-22.7-7.9c-6.7-3.1-13.1-6.5-19.2-10
		c-6.1-3.3-12.1-6.6-18.2-9.7c-6.6-2.7-13.3-5.1-20.2-6.9c-7.6-1.3-15.7-2.1-24.3-2.5c-9.1,0.3-18.7,0.9-28.6,1.8
		c-10.2,1.2-20.5,2.3-30.8,3.3c-10.1,0.8-19.9,1-29.2,0.5c-8.7-1.1-16.7-3.2-24-6.3c-6.5-3.9-12.3-8.8-17.3-14.7
		c-4.6-6.4-8.7-13.5-12.7-21c-4-7.5-8.2-15-12.8-22.3c-5.2-6.6-11.2-12.7-17.9-18.2c-7.6-4.5-16.1-8.4-25.2-11.6
		c-9.8-2.6-19.9-5-30.2-7.5c-10.2-2.5-20-5.5-29-9.2c-8.3-4.5-15.6-10-21.9-16.5c-5.4-7.5-9.8-16-13.3-25.4c-3-9.9-5.4-20.3-7.6-31
		c-2.2-10.6-4.5-20.9-7.1-30.9c-3.2-9.3-6.8-18-11.1-26c-4.9-7-10.4-13.5-16.4-19.5c-6.5-5.3-13.1-10.3-19.7-15.1
		c-6.7-4.7-13.1-9.6-19-14.8c-5.5-5.5-10.3-11.6-14.4-18.3c-3.4-7.3-6-15.2-7.8-23.8c-1.2-9.1-1.8-18.8-1.7-28.9
		c0.4-10.4,1.2-20.9,2.2-31.5c1.1-10.6,2.2-21.1,3.4-31.3c0.9-10,1.7-19.6,2.3-28.8c0.2-8.8,0.2-17.2,0-25.2
		c-0.5-7.3-1.2-14.6-2.1-21.9c-1.1-6.7-2.2-13.3-3.2-19.8c-1.2-6.3-2.2-12.7-3-19.1c-0.8-6.5-1.4-13.1-1.6-19.6
		c-0.1-6.8,0.1-13.8,0.7-21c0.7-7.4,1.9-14.9,3.4-22.6c1.7-8.1,3.8-16.1,6.2-23.9c2.6-8.4,5.5-16.7,8.7-24.8"/>
	
		<linearGradient id="SVGID_00000114785881478309652640000017725180385601490072_" gradientUnits="userSpaceOnUse" x1="645.2772" y1="579.2369" x2="-21273.8867" y2="-21948.4414" gradientTransform="matrix(1 0 0 -1 0 918.1499)">
		<stop  offset="0" style="stop-color:#6D55A4"/>
		<stop  offset="1" style="stop-color:#FFFFFF"/>
	</linearGradient>
	
		<path style="opacity:0.25;fill:none;stroke:url(#SVGID_00000114785881478309652640000017725180385601490072_);stroke-linecap:round;stroke-dasharray:4,1;enable-background:new    ;" d="
		M973.6,684.3c-9.6,2.9-19.6,5.5-30,7.8c-10.8,2.2-21.9,4-33.3,5.6c-11.7,1.4-23.4,2.6-35.2,3.5c-11.8,0.7-23.5,1.1-35.2,1.2
		c-11.4-0.1-22.5-0.6-33.2-1.5c-10.4-1.1-20.3-2.7-29.7-4.7c-9-2.2-17.4-4.8-25.4-7.8c-7.3-3.1-14.4-6.5-21.4-10.3
		c-6.5-3.7-12.8-7.4-19-11.2c-6.3-3.5-12.6-6.8-19.1-9.9c-7.1-2.7-14.3-4.9-21.7-6.6c-8.1-1.2-16.7-1.9-25.8-2.3
		c-9.5,0.2-19.3,0.5-29.3,1.1c-10.2,0.7-20.4,1.3-30.4,1.6c-9.7,0.1-19-0.5-27.7-1.8c-8.1-1.9-15.4-4.7-21.9-8.4
		c-5.8-4.4-10.9-9.8-15.4-15.9c-4-6.6-7.7-13.7-11.2-21.1c-3.6-7.3-7.5-14.6-11.8-21.7c-5-6.5-10.8-12.5-17.1-17.8
		c-7.3-4.5-15.4-8.5-24.2-11.9c-9.4-2.9-19.1-5.6-28.9-8.3c-9.8-2.8-19.1-6.1-27.7-10c-7.9-4.6-14.9-10-20.8-16.5
		c-5-7.3-9.1-15.5-12.2-24.5c-2.6-9.6-4.6-19.6-6.2-30c-1.6-10.3-3.3-20.6-5.1-30.5c-2.4-9.4-5.2-18.3-8.6-26.5
		c-4.1-7.5-8.7-14.4-13.8-20.6c-5.7-5.7-11.6-11-17.6-16c-6.2-4.8-12.2-9.7-17.8-14.7c-5.4-5.3-10.1-10.9-14.1-17.1
		c-3.5-6.6-6.2-13.9-8.1-21.7c-1.3-8.3-1.9-17.2-1.8-26.4c0.5-9.6,1.5-19.5,2.8-29.6c1.5-10.2,3.2-20.4,5-30.5
		c1.6-9.9,3.2-19.6,4.7-29c1.1-8.7,2.1-17.5,3-26.2c0.4-8,0.7-15.8,0.8-23.2c-0.2-7.1-0.5-14-0.9-20.7c-0.6-6.4-1-12.9-1.5-19.3
		c-0.5-6.3-0.8-12.7-0.8-19c0-6.4,0.2-13,0.8-19.6c0.7-6.9,1.7-13.8,3-20.6c1.5-7.3,3.4-14.5,5.6-21.7c2.4-7.6,5.1-15.1,8.1-22.5"/>
	
		<linearGradient id="SVGID_00000103964611132139473360000016043396313417082764_" gradientUnits="userSpaceOnUse" x1="652.9476" y1="584.5538" x2="-21854.1797" y2="-20708.2891" gradientTransform="matrix(1 0 0 -1 0 918.1499)">
		<stop  offset="0" style="stop-color:#6D55A4"/>
		<stop  offset="1" style="stop-color:#FFFFFF"/>
	</linearGradient>
	
		<path style="opacity:0.43;fill:none;stroke:url(#SVGID_00000103964611132139473360000016043396313417082764_);stroke-linecap:round;enable-background:new    ;" d="
		M970.5,670c-8.1,3.9-16.8,7.4-25.8,10.6c-9.4,2.9-19.2,5.5-29.3,7.7c-10.6,2-21.2,3.6-31.9,4.9c-11,1-22,1.7-33.1,2
		c-11,0-21.8-0.3-32.5-1.1c-10.4-1-20.6-2.5-30.3-4.3c-9.4-2.1-18.4-4.6-27-7.6c-7.9-3-15.7-6.5-23.3-10.3
		c-7.1-3.8-13.8-7.8-20.3-12c-6.4-4-12.8-8-19.2-11.9c-6.5-3.5-13.2-6.9-20.2-9.9c-7.4-2.5-15.1-4.6-23.3-6.4
		c-8.6-1.2-17.6-2-27-2.5c-9.7-0.1-19.7-0.1-29.7,0c-10.1,0.2-20,0.1-29.7-0.3c-9.3-0.7-18-2-26.1-4c-7.4-2.6-14-6-19.9-10.3
		c-5.2-4.9-9.7-10.5-13.5-16.9c-3.5-6.7-6.8-13.7-9.9-21.1c-3.3-7.2-6.9-14.3-11-21.1c-4.8-6.4-10.3-12.2-16.3-17.4
		c-7-4.5-14.8-8.6-23.2-12.2c-9-3.1-18.2-6.1-27.6-9.1c-9.3-3.1-18.2-6.6-26.3-10.6c-7.5-4.6-14.1-10.1-19.7-16.4
		c-4.7-7.1-8.4-15-11.2-23.7c-2.2-9.2-3.8-18.9-5-28.9c-1.1-10-2.1-20.1-3.3-29.9c-1.6-9.4-3.6-18.3-6.1-26.7
		c-3.2-7.7-6.9-14.9-11.1-21.5c-4.8-6-9.9-11.6-15.2-16.9c-5.6-5-11.1-9.9-16.3-14.9c-5.1-5.1-9.7-10.4-13.7-16.1
		c-3.5-6.1-6.4-12.6-8.4-19.7c-1.5-7.5-2.2-15.6-2.3-24c0.4-8.9,1.4-18,2.9-27.5c1.7-9.6,3.7-19.3,6-29.1c2.2-9.7,4.5-19.3,6.7-28.6
		c1.9-8.9,3.8-17.8,5.6-26.7c1.3-8,2.5-16.1,3.6-24.1c0.7-7.2,1.3-14.4,1.7-21.7c0.2-6.8,0.4-13.4,0.6-19.9c0-6.4,0.2-12.7,0.5-18.9
		c0.2-6.3,0.7-12.6,1.4-18.8c0.7-6.4,1.7-12.8,3-19.2c1.4-6.7,3.2-13.3,5.2-19.9"/>
	
		<linearGradient id="SVGID_00000147936843289318994440000014988095283580590270_" gradientUnits="userSpaceOnUse" x1="690.5135" y1="618.5496" x2="-25493.6738" y2="-22170.2949" gradientTransform="matrix(1 0 0 -1 0 918.1499)">
		<stop  offset="0" style="stop-color:#6D55A4"/>
		<stop  offset="1" style="stop-color:#FFFFFF"/>
	</linearGradient>
	
		<path style="opacity:0.52;fill:none;stroke:url(#SVGID_00000147936843289318994440000014988095283580590270_);stroke-linecap:round;stroke-dasharray:2,5;enable-background:new    ;" d="
		M982.5,635.9c-6.2,5.6-12.6,10.9-19.3,15.9c-7,4.8-14.5,9.3-22.3,13.4c-8.1,3.9-16.6,7.3-25.4,10.4c-9.2,2.9-18.6,5.3-28.1,7.2
		c-9.9,1.7-19.9,3-29.9,3.8c-10.1,0.5-20.3,0.6-30.4,0.3c-10-0.6-19.8-1.7-29.4-3.3c-9.2-1.8-18.3-4-27.2-6.7
		c-8.5-2.9-16.6-6.2-24.3-9.8c-7.3-3.7-14.5-7.7-21.5-12.1c-6.7-4.2-13.2-8.6-19.6-13c-6.5-4.2-13-8.3-19.6-12.2
		c-7-3.6-14.2-6.9-21.5-9.8c-7.9-2.5-16.1-4.6-24.7-6.3c-9-1.3-18.4-2.3-28-3.1c-9.9-0.5-19.8-0.9-29.8-1.4
		c-9.8-0.5-19.4-1.3-28.6-2.4c-8.7-1.5-16.8-3.6-24.2-6.3c-6.7-3.3-12.7-7.3-17.9-12.1c-4.6-5.3-8.5-11.2-11.9-17.7
		c-3.1-6.7-6-13.7-8.8-21c-3.1-7-6.4-13.9-10.3-20.6c-4.6-6.2-9.8-11.9-15.6-17c-6.8-4.6-14.2-8.7-22.2-12.4
		c-8.6-3.3-17.4-6.5-26.3-9.8c-8.9-3.3-17.2-7-25-11.2c-7.1-4.7-13.3-10.1-18.6-16.3c-4.4-6.9-7.8-14.5-10.3-22.8
		c-1.9-8.8-3.1-18.1-3.9-27.7c-0.6-9.7-1.1-19.4-1.7-29c-0.9-9.3-2.2-18.2-3.8-26.6c-2.3-7.9-5.1-15.2-8.4-22.1
		c-3.9-6.3-8.2-12.1-12.8-17.7c-4.9-5.2-9.9-10.2-14.7-15.2c-4.8-5-9.2-10.1-13.1-15.5c-3.6-5.7-6.5-11.7-8.6-18.1
		c-1.7-6.8-2.6-14.1-2.8-21.8c0.3-8.1,1.2-16.5,2.6-25.2c1.8-9,3.9-18.1,6.4-27.3c2.6-9.3,5.3-18.6,8-27.7c2.7-9.1,5.3-18,7.8-26.7
		c2.2-8.2,4.3-16.5,6.3-24.7c1.6-7.5,3.1-15,4.5-22.5c1-6.9,2-13.7,3-20.6c0.7-6.5,1.5-12.9,2.3-19.2c0.7-6.2,1.5-12.4,2.5-18.5
		c0.9-6.2,2.1-12.3,3.5-18.4"/>
	
		<linearGradient id="SVGID_00000087400070623635164780000017282389511008262298_" gradientUnits="userSpaceOnUse" x1="726.8862" y1="650.1075" x2="-29114.8984" y2="-23215.3945" gradientTransform="matrix(1 0 0 -1 0 918.1499)">
		<stop  offset="0" style="stop-color:#6D55A4"/>
		<stop  offset="1" style="stop-color:#FFFFFF"/>
	</linearGradient>
	
		<path style="opacity:0.96;fill:none;stroke:url(#SVGID_00000087400070623635164780000017282389511008262298_);stroke-linecap:round;enable-background:new    ;" d="
		M988.6,596.1c-5.6,6-11.3,11.8-17.1,17.7c-5.8,5.9-11.9,11.5-18.1,17c-6.4,5.4-13,10.6-19.9,15.4c-7.1,4.7-14.5,9-22.1,12.9
		c-8,3.7-16.1,7-24.4,9.8c-8.7,2.6-17.4,4.7-26.3,6.3c-9.1,1.3-18.2,2.2-27.4,2.5c-9.1,0-18.2-0.4-27.3-1.3
		c-8.8-1.2-17.5-3-26.1-5.2c-8.2-2.4-16.3-5.3-24.1-8.6c-7.5-3.4-14.7-7.2-21.8-11.4c-6.8-4.2-13.5-8.6-20-13.1
		c-6.5-4.4-12.9-8.9-19.3-13.4c-6.6-4.2-13.3-8.2-20.2-12.1c-7.4-3.5-15-6.7-22.7-9.6c-8.3-2.5-17-4.6-25.9-6.5
		c-9.3-1.5-18.9-2.8-28.7-3.9c-9.9-1-19.7-1.9-29.4-3.1c-9.5-1.2-18.6-2.7-27.3-4.6c-8.1-2.3-15.6-5.1-22.3-8.5
		c-6-3.9-11.3-8.5-15.9-13.7c-4-5.6-7.4-11.7-10.3-18.3c-2.7-6.7-5.3-13.7-7.9-20.8c-2.9-6.9-6.1-13.6-9.7-20.1
		c-4.4-6.1-9.5-11.7-15-16.7c-6.5-4.6-13.6-8.8-21.2-12.7c-8.2-3.5-16.6-7-25-10.5c-8.4-3.6-16.4-7.4-23.7-11.7
		c-6.7-4.8-12.6-10.1-17.5-16.2c-4.1-6.7-7.2-14-9.4-22c-1.6-8.4-2.5-17.3-2.9-26.5c-0.2-9.3-0.2-18.7-0.2-28
		c-0.3-9.1-0.8-17.9-1.7-26.3c-1.5-8-3.4-15.4-5.8-22.5c-3-6.3-6.4-12.5-10.3-18.3c-4.2-5.4-8.5-10.5-12.8-15.6
		c-4.4-4.9-8.5-9.9-12.2-15.1c-3.5-5.3-6.4-10.9-8.7-16.7c-1.9-6.2-3-12.8-3.5-19.7c0-7.3,0.7-14.9,1.9-22.9
		c1.6-8.2,3.7-16.7,6.2-25.3c2.7-8.8,5.6-17.6,8.8-26.4c3.1-8.8,6.2-17.5,9.4-26.1c2.9-8.3,5.7-16.5,8.6-24.8
		c2.5-7.9,4.9-15.6,7.1-23c1.9-7.1,3.7-14.1,5.5-21.2c1.4-6.6,2.9-13.1,4.4-19.7c1.3-6.2,2.6-12.4,4-18.6"/>
	
		<linearGradient id="SVGID_00000169542871629468173540000006668534008314780815_" gradientUnits="userSpaceOnUse" x1="740.9832" y1="667.4908" x2="-30764.2051" y2="-22442.8223" gradientTransform="matrix(1 0 0 -1 0 918.1499)">
		<stop  offset="0" style="stop-color:#6D55A4"/>
		<stop  offset="1" style="stop-color:#FFFFFF"/>
	</linearGradient>
	
		<path style="opacity:0.82;fill:none;stroke:url(#SVGID_00000169542871629468173540000006668534008314780815_);stroke-linecap:round;stroke-dasharray:1,3;enable-background:new    ;" d="
		M979.1,576.1c-6.1,5.3-12.1,10.6-18.1,16c-5.9,5.6-11.9,11.1-18,16.6c-6.1,5.5-12.3,10.9-18.7,16c-6.4,5.1-13.1,9.9-19.9,14.5
		c-7,4.4-14.1,8.4-21.5,12c-7.5,3.4-15.2,6.3-23,8.8c-7.9,2.2-16,3.9-24.1,5.1c-8.2,0.9-16.4,1.3-24.6,1.2
		c-8.1-0.4-16.2-1.4-24.1-2.8c-7.8-1.7-15.4-3.9-22.9-6.6c-7.3-2.9-14.4-6.2-21.3-9.8c-6.7-3.8-13.3-7.9-19.7-12.2
		c-6.4-4.3-12.6-8.8-18.9-13.4c-6.3-4.5-12.7-8.9-19.3-13.3c-6.9-4.2-13.9-8.1-21-11.8c-7.8-3.5-15.8-6.6-23.8-9.4
		c-8.6-2.5-17.6-4.8-26.8-6.8c-9.5-1.8-19.1-3.4-28.8-5c-9.7-1.5-19.3-3.1-28.6-4.8c-9-1.9-17.6-4.1-25.6-6.8
		c-7.5-3-14.2-6.5-20.2-10.5c-5.3-4.4-10-9.4-14-15c-3.5-5.9-6.4-12.2-8.9-18.8c-2.4-6.7-4.7-13.6-7.1-20.5
		c-2.7-6.7-5.7-13.2-9.2-19.6c-4.2-5.8-9-11.3-14.4-16.5c-6.2-4.6-13-8.9-20.3-13c-7.8-3.7-15.7-7.4-23.7-11.1
		c-7.9-3.8-15.5-7.8-22.4-12.2c-6.4-4.8-11.9-10.1-16.4-16.1c-3.8-6.5-6.7-13.5-8.7-21.1c-1.3-8-2-16.5-2.1-25.3
		c0.2-8.9,0.6-17.9,1.1-27c0.3-8.8,0.4-17.5,0.3-25.8c-0.7-7.9-1.8-15.5-3.4-22.6c-2.1-6.5-4.7-12.8-7.7-18.8
		c-3.4-5.5-7-10.8-10.7-16c-5.7-7.4-15.9-22.5-19.7-30.6c-2-5.7-3.4-11.7-4.1-18c-0.3-6.6,0.1-13.5,1-20.7
		c1.4-7.5,3.3-15.2,5.7-23.2c2.6-8.1,5.6-16.4,8.9-24.7c3.3-8.4,6.8-16.8,10.4-25.1c3.4-8.2,6.9-16.3,10.4-24.4
		c3.2-7.9,6.3-15.6,9.4-23.2c2.7-7.2,5.3-14.4,8-21.6c2.3-6.9,4.5-13.6,6.7-20.1c2-6.4,4-12.7,6-18.9"/>
	
		<linearGradient id="SVGID_00000152242543015917437910000002779760300249863578_" gradientUnits="userSpaceOnUse" x1="757.8877" y1="677.7269" x2="-32230.8262" y2="-21462.2559" gradientTransform="matrix(1 0 0 -1 0 918.1499)">
		<stop  offset="0" style="stop-color:#6D55A4"/>
		<stop  offset="1" style="stop-color:#FFFFFF"/>
	</linearGradient>
	
		<path style="opacity:0.54;fill:none;stroke:url(#SVGID_00000152242543015917437910000002779760300249863578_);stroke-linecap:round;enable-background:new    ;" d="
		M971.4,559.5c-6.6,4.2-13.1,8.6-19.5,13.2c-6.3,4.8-12.5,9.7-18.7,14.6c-6.1,5.1-12.3,10.1-18.5,15.2c-6.2,5-12.4,9.9-18.8,14.7
		c-6.3,4.6-12.9,9-19.5,13.2c-6.6,3.9-13.4,7.5-20.4,10.7c-6.9,2.9-14,5.5-21.2,7.6c-7.1,1.8-14.4,3.1-21.7,3.9
		c-7.2,0.5-14.5,0.5-21.6,0c-7.1-0.8-14.1-2.2-21-4c-6.8-2.1-13.5-4.6-19.9-7.5c-6.4-3.2-12.7-6.6-18.8-10.4
		c-6.2-4-12.2-8.1-18.1-12.4c-6-4.3-12.1-8.8-18.3-13.2c-6.3-4.3-12.8-8.6-19.5-12.8c-7.1-4-14.4-7.8-21.8-11.4
		c-8.1-3.4-16.4-6.5-24.7-9.3c-8.9-2.6-18-5-27.3-7.3c-9.5-2.1-19-4.2-28.5-6.2c-9.4-2.1-18.5-4.3-27.3-6.7
		c-8.4-2.6-16.3-5.5-23.7-8.8c-6.7-3.6-12.8-7.7-18.1-12.3c-4.7-4.9-8.7-10.3-12.1-16.1c-3-6.1-5.5-12.5-7.7-19.2
		c-2.1-6.7-4.2-13.5-6.4-20.3c-2.5-6.5-5.5-12.9-8.8-19.1c-4-5.7-8.7-11.2-13.9-16.3c-5.9-4.7-12.4-9.1-19.4-13.2
		c-7.4-3.9-14.9-7.8-22.5-11.7c-7.5-3.9-14.6-8.1-21.1-12.6c-6-4.8-11.2-10.1-15.4-15.9c-3.5-6.3-6.2-13-7.9-20.3
		c-1.1-7.7-1.5-15.7-1.4-24c0.5-8.5,1.2-17.1,2.1-25.8c0.8-8.6,1.5-16.9,2-25.1c0-7.8-0.3-15.4-1.1-22.5c-1.4-6.8-3.1-13.2-5.2-19.2
		c-4.1-8.4-13.5-23.8-18.3-31.2c-4.5-7.4-11.1-23.1-12.8-31.6c-0.6-6-0.5-12.3,0.1-18.8c1-6.8,2.6-13.8,4.8-21.1
		c2.4-7.5,5.2-15.1,8.4-22.8c3.3-7.9,6.9-15.7,10.7-23.6c3.8-7.9,7.6-15.8,11.5-23.6c3.7-7.6,7.4-15.3,11.2-22.9
		c3.5-7.4,6.9-14.6,10.2-21.7c3.1-7,6.1-13.8,9-20.4"/>
	
		<linearGradient id="SVGID_00000053504152925190908530000016529498408178244767_" gradientUnits="userSpaceOnUse" x1="790.947" y1="700.9281" x2="-35414.9648" y2="-21457.6836" gradientTransform="matrix(1 0 0 -1 0 918.1499)">
		<stop  offset="0" style="stop-color:#6D55A4"/>
		<stop  offset="1" style="stop-color:#FFFFFF"/>
	</linearGradient>
	
		<path style="opacity:0.82;fill:none;stroke:url(#SVGID_00000053504152925190908530000016529498408178244767_);stroke-linecap:round;stroke-dasharray:2,1;enable-background:new    ;" d="
		M987.3,539.1c-7.4,2.3-14.7,4.8-21.8,7.5c-7,3-13.9,6.3-20.7,9.7c-6.6,3.7-13.2,7.6-19.7,11.6c-6.3,4.3-12.6,8.6-18.9,13
		c-6.1,4.5-12.3,9.1-18.5,13.5c-6.1,4.5-12.3,8.9-18.5,13.1c-6.1,4.1-12.3,8-18.7,11.6c-6.3,3.5-12.6,6.6-19,9.3
		c-6.3,2.5-12.7,4.6-19.2,6.2c-6.3,1.4-12.7,2.3-19.2,2.7c-9.5,0-28-2.9-37-5.7c-6-2.3-11.8-4.9-17.4-7.9c-5.8-3.2-11.5-6.7-17-10.5
		c-5.7-3.8-11.4-7.9-17.1-12.1c-6-4.2-12-8.4-18-12.6c-6.6-4.2-13.2-8.2-19.9-12.1c-7.4-3.9-14.9-7.5-22.6-10.9
		c-8.2-3.2-16.6-6.3-25.3-9.3c-9.1-2.8-18.2-5.4-27.3-8c-9.3-2.5-18.5-5-27.6-7.6c-8.9-2.6-17.5-5.4-25.7-8.5
		c-7.8-3.2-14.9-6.8-21.5-10.7c-6-4.2-11.3-8.8-15.9-13.8c-4.1-5.3-7.5-11-10.4-17c-2.5-6.2-4.7-12.7-6.6-19.3
		c-1.9-6.6-3.8-13.3-5.9-19.9c-2.4-6.4-5.2-12.6-8.5-18.7c-3.9-5.6-8.4-11-13.4-16.1c-5.7-4.7-11.9-9.2-18.5-13.5
		c-7-4.1-14.1-8.1-21.2-12.2c-7.1-4.1-13.7-8.4-19.8-13c-5.6-4.8-10.5-10.1-14.5-15.7c-3.3-6.1-5.7-12.6-7.3-19.5
		c-1-7.3-1.2-14.9-0.8-22.8c0.7-8.1,1.8-16.3,3-24.6c1.2-8.2,2.4-16.3,3.5-24.3c0.7-7.7,1-15.1,1-22.2c-0.6-6.8-1.5-13.2-2.8-19.4
		c-2.9-8.6-10.3-24.3-14.4-31.6c-4-7.3-10.5-22.2-12.4-30c-1-8.4,0.5-26.6,2.8-36.3c2.1-6.8,4.6-13.8,7.6-20.9
		c3.2-7.3,6.6-14.6,10.4-22c3.9-7.5,7.8-15,11.9-22.4c4.1-7.5,8.2-14.9,12.3-22.2c3.9-7.1,7.9-14.3,11.9-21.4
		c3.7-6.8,7.4-13.6,11.1-20.4"/>
	
		<linearGradient id="SVGID_00000093883796764374862780000014094202740191422134_" gradientUnits="userSpaceOnUse" x1="808.1863" y1="701.8748" x2="-36499.4922" y2="-20031.459" gradientTransform="matrix(1 0 0 -1 0 918.1499)">
		<stop  offset="0" style="stop-color:#6D55A4"/>
		<stop  offset="1" style="stop-color:#FFFFFF"/>
	</linearGradient>
	
		<path style="opacity:0.1;fill:none;stroke:url(#SVGID_00000093883796764374862780000014094202740191422134_);stroke-linecap:round;enable-background:new    ;" d="
		M983.3,532.4c-7.5,1.4-14.9,2.9-22.3,4.6c-7.2,1.9-14.4,4-21.5,6.3c-6.9,2.6-13.7,5.4-20.5,8.3c-6.6,3.2-13.1,6.6-19.5,10
		c-6.3,3.7-12.5,7.5-18.7,11.3c-6,3.9-12.1,7.8-18.1,11.7c-5.8,3.9-11.8,7.7-17.7,11.3c-5.8,3.6-11.7,6.9-17.5,10
		c-8.7,4.2-26,10.7-34.5,12.8c-8.5,1.3-25,1.3-33.1,0c-8-2.1-23.7-8.5-31.4-12.8c-5.2-3.1-10.5-6.4-15.7-10
		c-5.5-3.7-11.1-7.5-16.5-11.3c-5.9-3.9-11.9-7.8-18.1-11.8c-6.7-3.9-13.6-7.7-20.5-11.4c-7.6-3.7-15.3-7.2-23.1-10.5
		c-8.4-3.3-16.9-6.4-25.5-9.4c-8.9-2.9-17.8-5.8-26.7-8.7c-8.9-2.9-17.7-5.8-26.3-8.9c-8.3-3.2-16.2-6.5-23.7-10.1
		c-7-3.8-13.4-7.9-19.2-12.3c-5.2-4.7-9.8-9.7-13.7-15.1c-3.4-5.6-6.3-11.5-8.7-17.7c-2.1-6.3-4-12.8-5.6-19.4
		c-1.7-6.5-3.5-13.1-5.4-19.6c-2.3-6.2-5-12.3-8.2-18.2c-3.8-5.6-8.1-10.9-12.9-16c-5.4-4.8-11.3-9.3-17.5-13.7
		c-6.6-4.2-13.3-8.4-20-12.6c-6.6-4.3-12.9-8.7-18.6-13.3c-5.3-4.9-9.8-10.1-13.5-15.6c-3.1-5.9-5.3-12.2-6.7-18.8
		c-0.8-6.9-0.9-14.2-0.4-21.7c0.9-7.7,2.2-15.5,3.7-23.3c1.6-7.9,3.2-15.7,4.7-23.3c1.2-7.5,2.2-14.8,2.9-21.8
		c0.2-6.8,0-13.2-0.5-19.4c-1.7-8.7-7.1-24.7-10.3-32.1c-3.5-7.2-9.4-21.6-11.4-29.1c-1.3-7.8-0.9-24.4,0.9-33.3
		c1.7-6.2,3.8-12.5,6.4-19c2.9-6.7,6.1-13.4,9.6-20.3c3.7-7,7.6-14,11.8-21c4.2-7.1,8.5-14.1,12.9-21.1c4.3-6.9,8.7-13.8,13.1-20.7"
		/>
	
		<linearGradient id="SVGID_00000147200661441046219980000010567998502127753863_" gradientUnits="userSpaceOnUse" x1="822.3027" y1="705.9927" x2="-37460.3281" y2="-18508.8203" gradientTransform="matrix(1 0 0 -1 0 918.1499)">
		<stop  offset="0" style="stop-color:#6D55A4"/>
		<stop  offset="1" style="stop-color:#FFFFFF"/>
	</linearGradient>
	
		<path style="opacity:0.71;fill:none;stroke:url(#SVGID_00000147200661441046219980000010567998502127753863_);stroke-linecap:round;stroke-dasharray:5,4;enable-background:new    ;" d="
		M979.7,526.8c-7.2,0.8-14.5,1.6-21.9,2.5c-7.3,1.1-14.5,2.3-21.7,3.6c-7,1.6-14,3.3-20.9,5.1c-6.7,2.1-13.4,4.4-20,6.9
		c-6.4,2.7-12.8,5.5-19.1,8.4c-6.1,3.1-12.1,6.3-18.2,9.5c-5.9,3.4-11.7,6.7-17.4,9.9c-5.5,3.3-11.1,6.4-16.7,9.5
		c-8.1,4.4-24.1,11.8-31.9,14.7c-7.7,2.3-22.7,4.8-30,4.8c-7.2-0.6-21.5-4.1-28.5-6.9c-7.2-3.4-21.8-11.7-29.4-16.6
		c-5.3-3.3-10.8-6.8-16.4-10.4c-6.1-3.7-12.3-7.3-18.5-10.8c-6.9-3.7-13.9-7.2-20.9-10.6c-7.7-3.5-15.5-6.9-23.4-10.1
		c-8.4-3.3-16.8-6.5-25.2-9.6c-8.6-3.1-17.2-6.3-25.7-9.5c-8.4-3.2-16.6-6.6-24.5-10.1c-7.6-3.6-14.7-7.5-21.4-11.5
		c-6.2-4.3-11.8-8.8-16.8-13.6c-4.4-4.9-8.3-10.3-11.6-16c-2.9-5.8-5.2-11.8-7.2-18.1c-1.8-6.3-3.3-12.7-4.7-19.2
		c-1.6-6.4-3.2-12.8-5-19.1c-2.2-6.1-4.9-12.1-7.9-17.9c-3.6-5.5-7.8-10.8-12.3-15.8c-5.2-4.8-10.7-9.4-16.6-14
		c-6.2-4.4-12.5-8.7-18.8-13.1c-6.2-4.4-12.1-8.9-17.4-13.6c-4.9-4.9-9.2-10-12.7-15.5c-2.9-5.7-4.9-11.7-6.2-18.1
		c-0.7-6.6-0.7-13.5,0-20.6c1-7.3,2.5-14.6,4.3-22.1c1.8-7.5,3.8-14.9,5.7-22.3c1.7-7.2,3.2-14.3,4.5-21.2c1.1-9.9,1-28-0.2-36.3
		c-2.1-7.8-7.1-22.5-9.8-29.6c-2.5-7.1-5.9-21.5-6.5-29c0.2-7.9,3.5-24.6,6.5-33.4c2.4-6.1,5.3-12.3,8.4-18.5
		c3.4-6.4,7.1-12.9,11.1-19.4c4.1-6.7,8.4-13.3,12.8-19.8c4.4-6.6,9-13.2,13.6-19.7"/>
	
		<linearGradient id="SVGID_00000068653499661026057460000006586379871292957832_" gradientUnits="userSpaceOnUse" x1="836.7997" y1="709.3749" x2="-38377.6328" y2="-16946.1562" gradientTransform="matrix(1 0 0 -1 0 918.1499)">
		<stop  offset="0" style="stop-color:#6D55A4"/>
		<stop  offset="1" style="stop-color:#FFFFFF"/>
	</linearGradient>
	
		<path style="opacity:0.28;fill:none;stroke:url(#SVGID_00000068653499661026057460000006586379871292957832_);stroke-linecap:round;stroke-dasharray:3,4;enable-background:new    ;" d="
		M976.7,520.7c-6.9,0.6-13.8,1.1-20.9,1.6c-7,0.6-14.1,1.2-21.2,1.8c-7,0.8-14,1.7-21,2.6c-6.8,1.2-13.5,2.5-20.2,4
		c-6.5,1.7-12.9,3.5-19.3,5.5c-6.2,2.2-12.3,4.4-18.3,6.8c-5.9,2.6-11.7,5.2-17.4,7.8c-8.3,4.1-24.3,12.2-32.1,16
		c-7.5,3.6-22,9.7-29.1,12c-6.9,1.8-20.3,3.6-26.9,3.5c-6.5-0.7-19.6-4-26.2-6.6c-4.5-1.9-9.1-4.2-13.8-6.6
		c-9.9-5.2-20.4-11.1-31.6-17.5c-12.4-6.4-25.8-13-40.1-19.7c-7.7-3.3-15.5-6.6-23.2-9.8c-8.1-3.2-16.2-6.5-24.4-9.9
		c-8.1-3.3-16.2-6.7-24.2-10.3c-7.8-3.6-15.2-7.3-22.3-11.2c-6.8-4-13.1-8.2-18.9-12.7c-5.3-4.6-10.1-9.5-14.3-14.6
		c-3.7-5.2-6.9-10.8-9.6-16.6c-2.3-5.9-4.2-12-5.8-18.2c-1.5-6.3-2.8-12.6-4-19c-1.4-6.3-2.9-12.5-4.7-18.7
		c-2.2-6-4.7-11.8-7.6-17.5c-3.5-5.4-7.4-10.7-11.8-15.7c-4.9-4.8-10.2-9.5-15.7-14.2c-5.8-4.5-11.7-8.9-17.6-13.4
		c-5.8-4.5-11.3-9.1-16.2-13.8c-4.6-4.9-8.5-10-11.8-15.3c-2.7-5.5-4.6-11.4-5.7-17.4c-0.6-6.3-0.5-12.8,0.2-19.5
		c1.1-6.9,2.7-13.9,4.6-20.9c2-7.1,4.3-14.2,6.5-21.2c2.1-7,4.1-13.8,5.9-20.5c2-9.7,4-27.7,3.9-36.1c-1-7.9-4.3-22.7-6.3-29.8
		c-2.1-7-5.2-20.9-6-28c-0.2-4.9-0.1-9.8,0.5-14.9c2-10.5,5.7-21.5,10.9-32.9c6.2-11.9,13.6-23.9,22-36.1
		c4.4-6.2,8.9-12.4,13.5-18.4"/>
	
		<linearGradient id="SVGID_00000149371514857112283200000000865367922988994231_" gradientUnits="userSpaceOnUse" x1="854.5098" y1="707.6138" x2="-39256.793" y2="-15352.1738" gradientTransform="matrix(1 0 0 -1 0 918.1499)">
		<stop  offset="0" style="stop-color:#6D55A4"/>
		<stop  offset="1" style="stop-color:#FFFFFF"/>
	</linearGradient>
	
		<path style="opacity:0.28;fill:none;stroke:url(#SVGID_00000149371514857112283200000000865367922988994231_);stroke-linecap:round;stroke-dasharray:1,3;enable-background:new    ;" d="
		M975.1,513c-6.5,0.7-13.2,1.3-19.9,1.7c-6.8,0.4-13.6,0.7-20.3,1c-6.8,0.4-13.7,0.7-20.5,1c-6.7,0.5-13.5,1.1-20.2,1.7
		c-6.5,0.9-13,1.8-19.4,2.9c-9.4,2-27.4,6.7-36,9.5c-11.1,4.3-21.8,8.6-31.9,12.7c-9.9,4.5-19.3,8.5-28.3,11.8
		c-8.8,3.2-17.4,5.4-25.6,6.4c-8.3,0.7-16.4,0.1-24.6-1.7c-8.5-2.2-17.3-5.5-26.5-9.8c-10-4.5-20.8-9.7-32.3-15.5
		c-13.5-6.1-26.9-12.2-40.4-18.3c-15.1-6.3-30.5-12.9-45.8-19.8c-15.1-7.1-29.4-14.7-42.2-23c-11.4-8.8-20.9-18.4-28.2-28.9
		c-5.7-11-9.7-22.8-12.2-35c-2.4-12.3-4.8-24.6-7.7-36.7c-2.1-5.8-4.5-11.5-7.3-17.1c-3.3-5.3-7.1-10.5-11.3-15.6
		c-4.6-4.9-9.6-9.6-14.7-14.3c-5.4-4.6-10.9-9.1-16.4-13.7c-5.4-4.6-10.5-9.3-15.1-14c-6.1-7.4-14.3-23.4-16.2-32
		c-0.5-6-0.3-12.2,0.4-18.6c2.6-13.1,6.9-26.5,11.9-39.9c4.6-13.3,8.9-26.1,12.2-38.2c1.7-11.6,2.4-22.4,2.1-32.5
		c-1.6-9.7-3.4-19-5.1-28.1c-1.7-9.1-2.5-18.4-2-27.7c1.3-9.8,4.1-19.9,8.5-30.3c5.3-10.9,11.9-21.9,19.6-33.1"/>
	
		<linearGradient id="SVGID_00000060028543376199030840000004266762528780130996_" gradientUnits="userSpaceOnUse" x1="871.4006" y1="711.1754" x2="-40380.7969" y2="-13814.209" gradientTransform="matrix(1 0 0 -1 0 918.1499)">
		<stop  offset="0" style="stop-color:#6D55A4"/>
		<stop  offset="1" style="stop-color:#FFFFFF"/>
	</linearGradient>
	
		<path style="opacity:0.64;fill:none;stroke:url(#SVGID_00000060028543376199030840000004266762528780130996_);stroke-linecap:round;enable-background:new    ;" d="
		M975.2,503.4c-12.5,1.9-25.3,3-38.4,3.4c-13.1,0.5-26.3,0.7-39.5,0.7c-13,0.7-25.7,1.6-38,2.7c-11.9,2-23.3,4.3-34.2,6.9
		c-10.6,3.3-20.6,6.6-30.2,9.8c-9.3,3.6-18.2,6.8-26.6,9.4c-8.3,2.6-16.4,4.3-24.2,5.1c-8,0.5-16,0-24-1.5c-8.6-1.9-17.5-4.7-27-8.3
		c-10.3-3.9-21.4-8.5-33.2-13.7c-13.5-5.6-26.9-11.2-40.2-17.1c-14.5-6.2-29-12.8-43.2-20c-13.7-7.4-26.3-15.4-37.4-24.1
		c-9.7-9.2-17.5-19.1-23.3-29.8c-4.5-11.1-7.5-22.7-9.4-34.7c-2-12-4.1-23.9-6.9-35.6c-4.5-11.1-10.4-21.8-17.7-32.1
		c-9.1-9.6-19-19-29-28.4c-9.8-9.4-18-19.1-24-29.2c-4.1-10.7-5.5-22.1-4.3-34c2.7-12.4,7-25.1,12.3-37.8
		c5.2-12.7,10.1-25,14.5-36.8c2.9-11.4,4.9-22.1,5.9-32.2c-0.3-9.8-1.1-19.1-2-28.1c-1.3-9-1.9-17.9-1.6-26.9
		c0.8-9.2,3-18.7,6.5-28.2c4.3-10,10-20.1,16.8-30.3"/>
	
		<linearGradient id="SVGID_00000131348402263060520190000013791624648161552545_" gradientUnits="userSpaceOnUse" x1="871.5603" y1="710.3085" x2="-39735.4258" y2="-11682.5967" gradientTransform="matrix(1 0 0 -1 0 918.1499)">
		<stop  offset="0" style="stop-color:#6D55A4"/>
		<stop  offset="1" style="stop-color:#FFFFFF"/>
	</linearGradient>
	
		<path style="opacity:0.61;fill:none;stroke:url(#SVGID_00000131348402263060520190000013791624648161552545_);stroke-linecap:round;enable-background:new    ;" d="
		M958.8,495.4c-12.3,1.4-24.8,2.1-37.4,2c-12.6,0.1-25.3-0.1-38-0.5c-12.5,0.2-24.6,0.5-36.2,1c-11.4,1.3-22.2,2.9-32.6,4.6
		c-10.1,2.5-19.7,4.9-28.8,7.3c-8.9,2.8-17.4,5.3-25.6,7.3c-8.1,2.1-16,3.5-23.8,4.1c-8,0.4-16.1,0-24.4-1.2
		c-8.9-1.5-18.2-3.9-28-7.1c-10.6-3.4-21.9-7.5-33.9-12.2c-13.2-5.1-26.3-10.5-39.3-16.2c-13.6-6.1-27-12.8-39.8-20
		c-12.1-7.6-23-15.8-32.3-24.7c-8-9.3-14.2-19.3-18.6-30c-3.4-10.9-5.6-22.3-6.9-34c-1.7-11.5-3.6-23.1-6.2-34.4
		c-4.3-10.8-9.9-21.3-16.8-31.4c-8.5-9.6-17.6-19.1-26.8-28.5c-9-9.5-16.6-19.1-22.1-29.1c-3.8-10.5-5-21.3-3.8-32.6
		c2.7-11.8,7-23.7,12.5-35.7c5.5-12,11.1-23.8,16.3-35.2c4-11.1,7.2-21.7,9.4-31.7c0.9-9.7,1.3-19.1,1.4-28
		c-0.6-8.9-0.8-17.6-0.4-26.2c0.6-8.8,2.3-17.7,5.1-26.6c3.5-9.2,8.2-18.5,14.1-27.9"/>
	
		<linearGradient id="SVGID_00000054955211743905103230000005578066451836013458_" gradientUnits="userSpaceOnUse" x1="906.9432" y1="717.3445" x2="-42430.2461" y2="-10524.6406" gradientTransform="matrix(1 0 0 -1 0 918.1499)">
		<stop  offset="0" style="stop-color:#6D55A4"/>
		<stop  offset="1" style="stop-color:#FFFFFF"/>
	</linearGradient>
	
		<path style="opacity:0.77;fill:none;stroke:url(#SVGID_00000054955211743905103230000005578066451836013458_);stroke-linecap:round;stroke-dasharray:2,4;enable-background:new    ;" d="
		M978.8,479.9c-11.2,3.2-22.7,5.3-34.5,6.5c-11.8,0.9-23.9,1.1-36,0.7c-12.1-0.3-24.2-0.9-36.3-1.7c-11.9-0.2-23.4-0.4-34.5-0.5
		c-10.4,0.7-20.8,1.5-31.2,2.6c-9.7,1.7-19,3.5-27.8,5.1c-8.7,2.1-17.1,4-25.2,5.5c-8.2,1.6-16.2,2.7-24.2,3.2
		c-8.3,0.4-16.8,0-25.5-1.1c-9.3-1.3-19-3.4-29.2-6.2c-10.9-3-22.3-6.7-34.2-11.1c-12.7-4.7-25.2-9.9-37.6-15.6
		c-12.5-6-24.6-12.7-35.8-20c-10.4-7.6-19.5-15.9-27.1-24.9c-6.4-9.3-11.1-19.2-14.3-29.7c-2.4-10.6-4-21.6-4.9-32.8
		c-1.4-11.1-3.2-22.1-5.7-33c-4.1-10.5-9.4-20.7-15.8-30.7c-7.8-9.6-16.3-19.1-24.7-28.6c-8.3-9.5-15.1-19.1-20.1-28.9
		c-3.5-10.2-4.6-20.6-3.4-31.4c2.6-11.1,6.9-22.4,12.4-33.7c5.8-11.4,11.8-22.6,17.6-33.5c4.9-10.7,9.1-21.1,12.6-30.9
		c2.1-9.2,3.7-18.4,4.8-27.8c0.3-8.8,0.7-17.4,1.5-25.8c0.7-8.5,2.2-17,4.5-25.4c2.8-8.6,6.8-17.3,11.8-25.9"/>
	
		<linearGradient id="SVGID_00000124855403307469872530000006972329915030057605_" gradientUnits="userSpaceOnUse" x1="906.5659" y1="714.7794" x2="-41519.332" y2="-8388.5508" gradientTransform="matrix(1 0 0 -1 0 918.1499)">
		<stop  offset="0" style="stop-color:#6D55A4"/>
		<stop  offset="1" style="stop-color:#FFFFFF"/>
	</linearGradient>
	
		<path style="opacity:0.72;fill:none;stroke:url(#SVGID_00000124855403307469872530000006972329915030057605_);stroke-linecap:round;stroke-dasharray:3,4;enable-background:new    ;" d="
		M963.8,472.3c-10.7,2.4-21.6,3.9-32.8,4.6c-11.3,0.4-22.7,0.2-34.2-0.6c-11.5-0.7-23-1.6-34.4-2.8c-11.3-0.7-22.3-1.3-32.9-1.8
		c-10,0.1-20,0.4-30,0.9c-9.4,1.1-18.5,2.2-27.2,3.2c-8.7,1.5-17.1,2.8-25.4,3.8c-8.4,1.2-16.7,2-25.1,2.2
		c-8.7,0.2-17.6-0.2-26.8-1.2c-9.7-1.2-19.7-3.1-30.2-5.7c-10.9-2.8-22.2-6.3-33.8-10.4c-11.9-4.4-23.7-9.5-35.1-15.1
		c-11.2-6-21.8-12.6-31.4-19.9c-8.7-7.6-16.1-15.8-22.1-24.6c-4.9-9.1-8.3-18.7-10.5-28.8c-1.7-10.2-2.6-20.7-3.2-31.4
		c-1.2-10.5-2.9-21.1-5.3-31.5c-3.9-10.1-8.9-20.1-14.8-29.9c-7.2-9.5-14.9-19-22.5-28.4c-7.5-9.5-13.7-19-18.2-28.6
		c-3.1-9.9-4.1-20-3-30.2c2.5-10.6,6.7-21.2,12.1-31.9c5.9-10.8,12.1-21.4,18.4-31.8c5.6-10.3,10.7-20.3,15.2-29.9
		c3.2-9,5.9-18.1,8.2-27.3c1.3-8.7,2.5-17.1,3.8-25.4c1-8.3,2.6-16.4,4.8-24.4c2.5-8.1,5.8-16.2,10.1-24.2"/>
	
		<linearGradient id="SVGID_00000124864589762281265930000014070993675018154641_" gradientUnits="userSpaceOnUse" x1="935.4261" y1="706.7155" x2="-43222.8242" y2="-6822.3403" gradientTransform="matrix(1 0 0 -1 0 918.1499)">
		<stop  offset="0" style="stop-color:#6D55A4"/>
		<stop  offset="1" style="stop-color:#FFFFFF"/>
	</linearGradient>
	
		<path style="opacity:0.97;fill:none;stroke:url(#SVGID_00000124864589762281265930000014070993675018154641_);stroke-linecap:round;enable-background:new    ;" d="
		M976.5,455.2c-8.9,3.9-18.3,6.9-28.1,9c-9.9,1.7-20.2,2.6-30.7,2.8c-10.6,0-21.3-0.6-32.1-1.8c-10.8-1-21.7-2.3-32.5-3.8
		c-10.8-1-21.2-2-31.3-3c-10-0.3-19.7-0.5-29-0.7c-9.3,0.5-18.3,1-27,1.5c-8.8,0.9-17.4,1.7-25.9,2.3c-8.7,0.8-17.4,1.2-26.2,1.2
		c-9.1,0-18.4-0.5-27.9-1.7c-9.9-1.2-20.1-3.1-30.6-5.6c-11.1-2.8-21.9-6.2-32.6-10.1c-11-4.3-21.7-9.2-31.9-14.8
		c-9.8-5.8-18.8-12.3-26.7-19.5c-7.1-7.4-12.9-15.4-17.3-23.9c-3.6-8.7-5.9-17.9-7.3-27.5c-1-9.7-1.6-19.6-2-29.7
		c-1.1-10-2.6-20-4.9-30c-3.7-9.8-8.3-19.4-13.8-29c-6.6-9.4-13.6-18.7-20.4-28.1c-6.8-9.4-12.4-18.8-16.4-28.2
		c-2.8-9.6-3.7-19.3-2.6-29.1c2.4-10,6.4-20.1,11.7-30.1c5.8-10.1,12.2-20.2,18.8-30c6.2-9.8,12-19.4,17.4-28.6
		c4.2-8.7,8-17.6,11.5-26.6c2.4-8.5,4.5-16.8,6.6-24.8c1.6-8,3.5-15.9,5.9-23.6"/>
	
		<linearGradient id="SVGID_00000016770707850501919310000009100519786392876209_" gradientUnits="userSpaceOnUse" x1="952.0742" y1="705.6981" x2="-43847.6172" y2="-4985.2617" gradientTransform="matrix(1 0 0 -1 0 918.1499)">
		<stop  offset="0" style="stop-color:#6D55A4"/>
		<stop  offset="1" style="stop-color:#FFFFFF"/>
	</linearGradient>
	
		<path style="opacity:0.85;fill:none;stroke:url(#SVGID_00000016770707850501919310000009100519786392876209_);stroke-linecap:round;enable-background:new    ;" d="
		M980,436.1c-6.8,5-14.2,9.2-22.1,12.7c-8.1,3-16.7,5.3-25.7,6.7c-9.1,1.1-18.5,1.5-28.2,1.2c-9.7-0.4-19.7-1.4-29.8-2.8
		c-10.1-1.3-20.2-2.9-30.5-4.6c-10.2-1.4-20.1-2.7-29.8-4c-9.4-0.7-18.8-1.4-28.2-2c-9.1,0-18.1-0.1-27-0.1
		c-8.9,0.4-17.7,0.7-26.5,0.7c-9,0.3-18,0.3-27,0c-9.5-0.3-19.1-1.1-28.5-2.4c-10.2-1.4-20.3-3.4-30.2-5.9
		c-10.4-2.7-20.7-6.1-30.7-10c-9.9-4.2-19.4-9-28.3-14.5c-8.3-5.7-15.7-12-22.1-18.8c-5.5-7.1-9.9-14.7-13.1-22.8
		c-2.5-8.3-4-16.9-4.6-26c-0.6-9.1-0.9-18.4-1.1-27.8c-1-9.4-2.5-18.9-4.7-28.4c-3.5-9.3-7.7-18.7-12.8-28
		c-6-9.2-12.3-18.4-18.4-27.7c-6-9.3-11-18.5-14.6-27.6c-2.5-9.3-3.2-18.6-2.2-27.9c2.3-9.5,6.1-19,11.2-28.4
		c5.7-9.5,12.1-18.9,18.9-28.2c6.5-9.3,12.9-18.3,18.9-27.2c5.3-8.8,10.1-17.3,14.3-25.6c3.5-8.3,6.6-16.3,9.5-24.1
		c2.4-7.8,4.9-15.4,7.6-22.7"/>
	
		<linearGradient id="SVGID_00000109746850193885142880000014287422847315331969_" gradientUnits="userSpaceOnUse" x1="973.7673" y1="703.7757" x2="-44877.6406" y2="-3147.928" gradientTransform="matrix(1 0 0 -1 0 918.1499)">
		<stop  offset="0" style="stop-color:#6D55A4"/>
		<stop  offset="1" style="stop-color:#FFFFFF"/>
	</linearGradient>
	
		<path style="opacity:0.13;fill:none;stroke:url(#SVGID_00000109746850193885142880000014287422847315331969_);stroke-linecap:round;stroke-dasharray:2,5;enable-background:new    ;" d="
		M988.5,396c-4.1,7-8.6,13.6-13.6,19.6c-5.1,5.7-10.6,10.9-16.7,15.4c-6.2,4.1-12.9,7.6-20.2,10.3c-7.3,2.3-15.1,4-23.3,4.8
		c-8.3,0.6-16.9,0.6-25.7-0.1c-8.9-0.8-18.1-2-27.4-3.7c-9.3-1.5-18.8-3.4-28.4-5.3c-9.6-1.6-19-3.3-28.3-4.9
		c-9.1-1.1-18.3-2.2-27.4-3.3c-9-0.5-18-1.1-26.8-1.6c-8.9-0.1-17.9-0.4-26.8-0.8c-9.2-0.2-18.3-0.6-27.4-1.4
		c-9.5-0.7-19-1.8-28.4-3.3c-9.8-1.6-19.5-3.7-29-6.4c-9.6-2.8-19-6.2-28-10.1c-8.7-4.1-16.9-8.8-24.3-14.1
		c-6.8-5.5-12.8-11.5-17.6-18c-4.2-6.7-7.3-13.9-9.4-21.5c-1.6-7.7-2.4-15.8-2.6-24.2c-0.3-8.4-0.4-17.1-0.6-25.9
		c-1-8.8-2.4-17.7-4.5-26.7c-3.2-8.9-7.2-17.9-11.7-26.9c-5.4-8.9-11-17.9-16.4-27c-5.3-9.1-9.7-18.1-12.8-27
		c-2.2-9-2.8-17.9-1.7-26.8c2.1-9,5.7-17.9,10.6-26.8c5.5-8.9,11.8-17.7,18.5-26.4c6.7-8.7,13.4-17.2,20-25.6
		c6-8.3,11.6-16.5,16.8-24.4c4.3-7.6,8.4-15.3,12.4-23.1c3.3-7.5,6.5-14.7,9.7-21.7"/>
	
		<linearGradient id="SVGID_00000148640195486018555850000014679255161733677228_" gradientUnits="userSpaceOnUse" x1="984.1365" y1="910.9839" x2="984.1365" y2="910.9839" gradientTransform="matrix(1 0 0 -1 0 918.1499)">
		<stop  offset="0" style="stop-color:#6D55A4"/>
		<stop  offset="1" style="stop-color:#FFFFFF"/>
	</linearGradient>
	
		<path style="opacity:0.9;fill:none;stroke:url(#SVGID_00000148640195486018555850000014679255161733677228_);stroke-linecap:round;enable-background:new    ;" d="
		M984.1,7.2"/>
	
		<linearGradient id="SVGID_00000015320696623818278680000000941772968503571901_" gradientUnits="userSpaceOnUse" x1="972.6885" y1="708.5361" x2="-43609.8281" y2="-1131.2258" gradientTransform="matrix(1 0 0 -1 0 918.1499)">
		<stop  offset="0" style="stop-color:#6D55A4"/>
		<stop  offset="1" style="stop-color:#FFFFFF"/>
	</linearGradient>
	
		<path style="opacity:0.9;fill:none;stroke:url(#SVGID_00000015320696623818278680000000941772968503571901_);stroke-linecap:round;enable-background:new    ;" d="
		M979,373.9c-4.3,7.2-8.6,14-13.1,20.5c-4.4,6.2-9,12-13.9,17.2c-4.9,4.9-10.2,9.3-15.9,13c-5.8,3.4-12,6.1-18.5,8.2
		c-6.7,1.8-13.7,2.9-21.2,3.3c-7.5,0.2-15.3-0.2-23.4-1.1c-8.1-1-16.5-2.5-25.2-4.4c-8.6-1.7-17.5-3.7-26.5-5.9
		c-9-1.9-18-3.8-26.8-5.7c-8.8-1.5-17.7-3-26.5-4.4c-8.8-1-17.6-2-26.4-3c-8.9-0.7-17.8-1.5-26.7-2.4c-9-0.7-18.1-1.6-27.2-2.8
		c-9.2-1.1-18.4-2.6-27.5-4.4c-9.1-1.9-18.1-4.2-27-7c-8.7-2.9-17-6.3-24.8-10.2c-7.4-4.1-14.2-8.6-20.2-13.7
		c-5.4-5.2-10-10.9-13.6-17c-3-6.3-5.1-12.9-6.4-20c-0.9-7.1-1.3-14.6-1.2-22.3c-0.1-7.8-0.1-15.8-0.3-24c-1-8.4-2.4-16.8-4.4-25.1
		c-3-8.5-6.6-17-10.7-25.7c-4.8-8.6-9.7-17.4-14.4-26.2c-4.7-8.8-8.4-17.5-11.1-26.2c-1.9-8.6-2.3-17.2-1.3-25.6
		c2-8.5,5.4-16.9,9.9-25.2c5.2-8.4,11.3-16.6,17.9-24.6c6.7-8.1,13.6-16.1,20.5-23.9c6.3-7.6,12.5-15.2,18.6-22.9
		c5.1-7.2,10.1-14.5,15-21.8c4.1-7.1,8.1-14,12.1-20.6c3.6-6.7,7.3-13.1,11.2-19.2"/>
	
		<linearGradient id="SVGID_00000031192811913642539130000012980373575700995738_" gradientUnits="userSpaceOnUse" x1="984.0572" y1="899.7631" x2="-1210.6361" y2="902.6819" gradientTransform="matrix(1 0 0 -1 0 918.1499)">
		<stop  offset="0" style="stop-color:#6D55A4"/>
		<stop  offset="1" style="stop-color:#FFFFFF"/>
	</linearGradient>
	
		<path style="opacity:0.69;fill:none;stroke:url(#SVGID_00000031192811913642539130000012980373575700995738_);stroke-linecap:round;stroke-dasharray:3,1;enable-background:new    ;" d="
		M962.6,10.9c7.4,4.8,14.4,9.8,21,14.9"/>
	
		<linearGradient id="SVGID_00000121976240855147820800000008450258770865063048_" gradientUnits="userSpaceOnUse" x1="975.3806" y1="703.6166" x2="-42554.5156" y2="761.5106" gradientTransform="matrix(1 0 0 -1 0 918.1499)">
		<stop  offset="0" style="stop-color:#6D55A4"/>
		<stop  offset="1" style="stop-color:#FFFFFF"/>
	</linearGradient>
	
		<path style="opacity:0.69;fill:none;stroke:url(#SVGID_00000121976240855147820800000008450258770865063048_);stroke-linecap:round;stroke-dasharray:3,1;enable-background:new    ;" d="
		M974.7,352.3c-5.4,7.1-10.6,13.9-15.8,20.4c-4.8,6.4-9.7,12.4-14.6,18c-4.7,5.4-9.6,10.4-14.6,14.8c-5,4.2-10.2,7.8-15.7,10.8
		c-5.5,2.8-11.4,5-17.4,6.4c-6.2,1.3-12.6,1.9-19.5,2c-6.8-0.1-14-0.8-21.4-2c-7.4-1.2-15.2-2.9-23.1-4.9c-8-1.9-16.2-4-24.6-6.4
		c-8.5-2.1-16.9-4.2-25.3-6.4c-8.5-1.8-17-3.6-25.5-5.4c-8.6-1.4-17.1-2.9-25.7-4.4c-8.7-1.2-17.3-2.5-25.9-3.8
		c-8.7-1.2-17.4-2.6-26.1-4.2c-8.7-1.5-17.3-3.3-25.7-5.5c-8.2-2.1-16.3-4.6-24.3-7.6c-7.6-3-14.7-6.4-21.2-10.2
		c-6.1-3.9-11.6-8.3-16.3-13.1c-4.2-4.9-7.5-10.2-10.1-15.9c-2.1-5.8-3.4-11.9-4-18.4c-0.5-6.5-0.5-13.4-0.3-20.5
		c0-7.2-0.1-14.6-0.4-22.2c-1-7.9-2.5-15.7-4.3-23.5c-2.8-8-6.1-16.2-9.7-24.5c-4.2-8.3-8.5-16.7-12.6-25.2
		c-4-8.5-7.3-16.9-9.5-25.2c-1.6-8.3-1.9-16.4-0.9-24.5c1.9-8,5-15.9,9.3-23.7c4.9-7.8,10.7-15.4,17.1-22.9
		c6.6-7.5,13.5-14.9,20.5-22.1c6.8-7.2,13.4-14.3,19.9-21.3c5.8-6.7,11.5-13.5,17.2-20.3c5-6.6,9.7-13,14.4-19.2
		c4.3-6.2,8.6-12.2,12.9-17.9"/>
	
		<linearGradient id="SVGID_00000031886023216151542300000004289077699513599636_" gradientUnits="userSpaceOnUse" x1="982.0176" y1="894.2386" x2="-5349.1538" y2="1172.3698" gradientTransform="matrix(1 0 0 -1 0 918.1499)">
		<stop  offset="0" style="stop-color:#6D55A4"/>
		<stop  offset="1" style="stop-color:#FFFFFF"/>
	</linearGradient>
	
		<path style="opacity:0.79;fill:none;stroke:url(#SVGID_00000031886023216151542300000004289077699513599636_);stroke-linecap:round;stroke-dasharray:5,2;enable-background:new    ;" d="
		M920,1.1c7.6,4.2,15.1,8.7,22.5,13.4c7.2,4.6,14.1,9.4,20.6,14.3c6.3,4.9,12.2,9.9,17.6,15.1"/>
	
		<linearGradient id="SVGID_00000030456313667146529480000017617503210691655824_" gradientUnits="userSpaceOnUse" x1="981.4982" y1="698.3559" x2="-41810.5039" y2="2578.2273" gradientTransform="matrix(1 0 0 -1 0 918.1499)">
		<stop  offset="0" style="stop-color:#6D55A4"/>
		<stop  offset="1" style="stop-color:#FFFFFF"/>
	</linearGradient>
	
		<path style="opacity:0.79;fill:none;stroke:url(#SVGID_00000030456313667146529480000017617503210691655824_);stroke-linecap:round;stroke-dasharray:5,2;enable-background:new    ;" d="
		M976.5,332.3c-6.3,6.7-12.6,13.3-18.8,19.6c-5.9,6.2-11.7,12.2-17.4,17.9c-5.4,5.6-10.7,10.7-16.1,15.5
		c-5.1,4.6-10.3,8.8-15.5,12.5c-7.7,5-24,11.9-32.6,13.7c-5.8,0.9-11.9,1.2-18.2,0.9c-6.3-0.4-12.9-1.3-19.8-2.6
		c-6.9-1.4-14-3.1-21.3-5.2c-7.4-2-15-4.3-22.8-6.8c-7.9-2.3-15.9-4.6-23.8-7c-8-2.1-16-4.2-24.1-6.3c-8.1-1.8-16.2-3.7-24.4-5.6
		c-8.2-1.6-16.3-3.3-24.5-5.2c-8.1-1.6-16.2-3.4-24.2-5.4c-7.9-1.9-15.7-4-23.3-6.4c-7.4-2.4-14.5-5.1-21.1-8.1
		c-6.4-3-12.3-6.4-17.6-10.2c-7-5.9-17-19.5-19.8-27.2c-1.8-8.1-2.5-25.9-2.2-35.5c-0.1-6.6-0.2-13.4-0.5-20.4
		c-1.1-7.4-2.5-14.7-4.2-21.9c-2.6-7.5-5.5-15.3-8.7-23.2c-3.7-7.9-7.4-16-10.9-24.1c-3.4-8.2-6.1-16.2-8-24.1
		c-1.3-7.9-1.4-15.6-0.4-23.2c1.8-7.6,4.7-15,8.6-22.2c4.6-7.2,10-14.3,16-21.2c6.3-6.9,13.1-13.7,20-20.3
		c6.9-6.6,13.7-13.1,20.5-19.5c6.3-6.2,12.5-12.4,18.8-18.6c5.7-6.1,11.1-11.9,16.4-17.6c5-5.7,9.8-11.1,14.7-16.3"/>
	
		<linearGradient id="SVGID_00000080915463801374240910000003610250683210044572_" gradientUnits="userSpaceOnUse" x1="978.053" y1="881.3992" x2="-6744.9248" y2="1550.8489" gradientTransform="matrix(1 0 0 -1 0 918.1499)">
		<stop  offset="0" style="stop-color:#6D55A4"/>
		<stop  offset="1" style="stop-color:#FFFFFF"/>
	</linearGradient>
	
		<path style="opacity:0.91;fill:none;stroke:url(#SVGID_00000080915463801374240910000003610250683210044572_);stroke-linecap:round;stroke-dasharray:5,3;enable-background:new    ;" d="
		M903.4,5.6c7.1,4,14.2,8.2,21,12.6c6.7,4.3,13.2,8.8,19.6,13.6c6.1,4.6,11.9,9.4,17.3,14.4c5.2,4.9,9.9,9.9,14.2,15.1"/>
	
		<linearGradient id="SVGID_00000158736728183780943860000005783797165127945349_" gradientUnits="userSpaceOnUse" x1="988.8801" y1="699.6613" x2="-41019.9219" y2="4341.104" gradientTransform="matrix(1 0 0 -1 0 918.1499)">
		<stop  offset="0" style="stop-color:#6D55A4"/>
		<stop  offset="1" style="stop-color:#FFFFFF"/>
	</linearGradient>
	
		<path style="opacity:0.91;fill:none;stroke:url(#SVGID_00000158736728183780943860000005783797165127945349_);stroke-linecap:round;stroke-dasharray:5,3;enable-background:new    ;" d="
		M980.5,314.6c-6.2,6.3-12.6,12.4-19.1,18.4c-6.3,5.8-12.8,11.5-19.3,17c-6,5.2-12.2,10.3-18.4,15.3c-5.8,4.7-11.6,9.1-17.3,13.1
		c-8.2,5.6-24.4,14.2-32.6,17.2c-8.1,2.2-25,3.9-33.9,3.4c-5.9-0.6-12.1-1.7-18.5-3.1c-6.4-1.5-13-3.3-19.8-5.5
		c-6.8-2.1-13.9-4.4-21.2-7c-7.3-2.4-14.7-4.9-22.1-7.4c-7.5-2.3-15-4.7-22.4-7.1c-7.6-2.1-15.1-4.3-22.6-6.6
		c-7.5-2-15-4.1-22.5-6.3c-7.3-2-14.6-4.1-21.8-6.5c-7-2.2-13.8-4.6-20.3-7.2c-9.3-4-25.4-13.2-31.9-18.5
		c-5.4-5.6-12.6-18.3-14.5-25.3c-1.1-7.4-1.3-23.6-1-32.4c-0.2-6-0.4-12.3-0.9-18.8c-1.1-6.9-2.5-13.7-4.1-20.4
		c-2.3-7.1-4.9-14.4-7.7-21.8c-3.2-7.5-6.3-15.1-9.2-22.9c-2.9-7.7-5.1-15.4-6.5-22.9c-1-7.5-1-14.8,0-21.9c1.7-7.1,4.3-14,7.9-20.7
		c4.2-6.7,9.2-13.2,14.9-19.6c6-6.3,12.4-12.5,19.2-18.5c6.8-6,13.7-11.9,20.6-17.6C642,55,648.7,49.5,655.1,44
		c6-5.3,12-10.6,18.1-15.8c5.5-5.1,11-10,16.4-14.6c5.1-4.6,10.3-9,15.5-13.1"/>
	
		<linearGradient id="SVGID_00000032618647630763002340000013623693324215913103_" gradientUnits="userSpaceOnUse" x1="997.2759" y1="819.7802" x2="-12902.2109" y2="2623.0195" gradientTransform="matrix(1 0 0 -1 0 918.1499)">
		<stop  offset="0" style="stop-color:#6D55A4"/>
		<stop  offset="1" style="stop-color:#FFFFFF"/>
	</linearGradient>
	
		<path style="opacity:0.86;fill:none;stroke:url(#SVGID_00000032618647630763002340000013623693324215913103_);stroke-linecap:round;stroke-dasharray:4,4;enable-background:new    ;" d="
		M868.9,0.9c6.8,3,13.5,6.4,20,9.9c6.6,3.6,13,7.4,19.3,11.4c6.2,4,12.3,8.2,18.2,12.6c5.8,4.4,11.3,8.9,16.5,13.6
		c5.1,4.6,9.8,9.4,14.1,14.2c6,7.2,15.4,22.2,18.7,29.9c2.6,7.7,5.6,23.5,6.2,31.7c0.5,8.3,1.2,25.6,1.8,34.6
		c0.8,6.1,1.8,12.4,2.8,18.9"/>
	
		<linearGradient id="SVGID_00000152973150378850249020000015367690760826955706_" gradientUnits="userSpaceOnUse" x1="991.062" y1="693.2656" x2="-39696.375" y2="5971.8188" gradientTransform="matrix(1 0 0 -1 0 918.1499)">
		<stop  offset="0" style="stop-color:#6D55A4"/>
		<stop  offset="1" style="stop-color:#FFFFFF"/>
	</linearGradient>
	
		<path style="opacity:0.86;fill:none;stroke:url(#SVGID_00000152973150378850249020000015367690760826955706_);stroke-linecap:round;stroke-dasharray:4,4;enable-background:new    ;" d="
		M981.4,298.8c-4.9,5.9-10.3,11.7-16.1,17.3c-5.9,5.5-12.1,10.9-18.5,16c-6.3,5-12.7,9.9-19.3,14.5c-6.2,4.4-12.5,8.7-18.9,12.8
		c-6.1,3.9-12.1,7.4-18,10.6c-8.6,4.4-25.4,11.1-33.7,13.3c-8.2,1.5-24.8,2.1-33.3,1.3c-8.6-1.4-26.6-6.2-36-9.4
		c-6.3-2.2-12.9-4.6-19.6-7.2c-6.8-2.5-13.6-5.1-20.3-7.7c-6.9-2.5-13.7-5-20.5-7.6c-6.8-2.4-13.7-4.8-20.5-7.3
		c-6.7-2.3-13.4-4.6-20-7.1c-6.4-2.2-12.7-4.7-19-7.2c-8.9-3.7-24.8-11.9-31.6-16.4c-6-4.6-15-15-18-20.8c-2.1-6-4-19.3-4-26.5
		c-0.1-7.6-0.4-24.1-1.2-33c-1.1-6.4-2.5-12.7-4-19c-2.1-6.6-4.4-13.5-6.8-20.5c-2.7-7.1-5.3-14.3-7.7-21.6
		c-2.3-7.3-4.1-14.5-5.2-21.6c-0.7-7-0.6-13.9,0.4-20.5c1.6-6.6,4-13,7.3-19.3c3.8-6.2,8.4-12.2,13.6-18c5.5-5.8,11.6-11.3,18-16.8
		c6.5-5.4,13.2-10.7,20-15.8c6.6-5,13.3-10,20.1-14.8c6.3-4.7,12.6-9.3,19-13.9c5.8-4.4,11.7-8.6,17.7-12.8
		c5.6-4,11.1-7.8,16.6-11.4"/>
	
		<linearGradient id="SVGID_00000108295332273630022530000000188342576627378068_" gradientUnits="userSpaceOnUse" x1="997.6166" y1="787.9642" x2="-16529.8359" y2="3824.3423" gradientTransform="matrix(1 0 0 -1 0 918.1499)">
		<stop  offset="0" style="stop-color:#6D55A4"/>
		<stop  offset="1" style="stop-color:#FFFFFF"/>
	</linearGradient>
	
		<path style="opacity:0.1;fill:none;stroke:url(#SVGID_00000108295332273630022530000000188342576627378068_);stroke-linecap:round;stroke-dasharray:3,2;enable-background:new    ;" d="
		M839.4,2.9c6.2,1.7,12.5,3.8,18.6,6.2c6.2,2.5,12.3,5.2,18.2,8.3c11.9,6.1,23.4,13.3,34.3,21.4c10.6,7.9,20.3,16.5,28.7,25.7
		c8,8.9,14.5,18.3,19.4,28c4.4,9.4,7.1,19.3,8.4,29.4c1.3,10,1.8,20.5,1.7,31.4c1,11,2.2,22.7,3.7,34.9c1.3,6.2,2.6,12.6,4,19
		c1.6,6.6,3.1,13.2,4.3,19.9"/>
	
		<linearGradient id="SVGID_00000021117955974205619440000006197359630281632406_" gradientUnits="userSpaceOnUse" x1="989.8046" y1="697.0848" x2="-37823.8086" y2="7420.9829" gradientTransform="matrix(1 0 0 -1 0 918.1499)">
		<stop  offset="0" style="stop-color:#6D55A4"/>
		<stop  offset="1" style="stop-color:#FFFFFF"/>
	</linearGradient>
	
		<path style="opacity:0.1;fill:none;stroke:url(#SVGID_00000021117955974205619440000006197359630281632406_);stroke-linecap:round;stroke-dasharray:3,2;enable-background:new    ;" d="
		M980.6,227.1c1.3,6.7,2.2,13.4,2.6,20c0.2,6.5-0.2,12.9-1.1,19.1c-3,12.3-8.7,23.8-16.8,34.6c-9.2,10.5-20.2,20.2-32.3,28.9
		c-12.2,8.5-24.8,16.1-37.4,22.5c-12.1,6.2-24,11-35.7,14.5c-11.1,3.1-22.2,4.6-33.3,4.5c-10.8-0.4-21.8-2.3-33.2-5.7
		c-5.9-1.7-11.6-3.7-17.3-5.9c-5.9-2.2-11.9-4.6-18.1-7.3c-6.2-2.5-12.4-5.2-18.5-7.9c-6.2-2.6-12.3-5.2-18.4-7.9
		c-12.2-4.9-24.2-10-35.4-15.5c-11.1-4.8-21.3-10-30.1-15.8c-8.3-5.3-15-11.3-19.8-18c-4.2-6.5-6.6-13.8-7.4-21.9
		c-0.9-8.2-1.1-17.3-0.9-27.3c-1.3-10.3-3-21.6-5.5-33.7c-1.9-6.2-3.9-12.6-5.9-19.1c-2.3-6.6-4.4-13.3-6.3-20.2
		c-1.9-6.8-3.2-13.6-4-20.1c-0.5-6.5-0.2-12.9,0.8-19.1c3.4-12.2,9.9-23.6,19-34.2c10.4-10.4,22.5-20.1,35.6-29
		c12.7-8.8,25.8-17.1,39.1-24.9c12.2-7.6,24.2-14.5,35.9-20.4c11.1-5.8,22.1-10.5,33.3-14"/>
	
		<linearGradient id="SVGID_00000033360699774885706430000006771255523221241230_" gradientUnits="userSpaceOnUse" x1="984.0192" y1="774.9737" x2="-14632.1455" y2="4169.1426" gradientTransform="matrix(1 0 0 -1 0 918.1499)">
		<stop  offset="0" style="stop-color:#6D55A4"/>
		<stop  offset="1" style="stop-color:#FFFFFF"/>
	</linearGradient>
	
		<path style="opacity:0.93;fill:none;stroke:url(#SVGID_00000033360699774885706430000006771255523221241230_);stroke-linecap:round;stroke-dasharray:1,4;enable-background:new    ;" d="
		M847.8,18.9c11.3,3.7,22.3,8.7,32.8,14.8c10.3,6.1,20.1,13.1,29.2,20.9c8.8,7.7,16.6,16,23.1,24.7c6.2,8.5,11.1,17.4,14.5,26.7
		c3.2,9,5,18.3,5.7,27.9c1,9.5,1.3,19.5,1.2,29.9c1,10.5,2.1,21.6,3.3,33.1c2.4,11.8,4.8,24.1,6.5,36.6"/>
	
		<linearGradient id="SVGID_00000024700060859561327620000003017068127126830476_" gradientUnits="userSpaceOnUse" x1="974.0868" y1="693.285" x2="-34621.4648" y2="8429.9668" gradientTransform="matrix(1 0 0 -1 0 918.1499)">
		<stop  offset="0" style="stop-color:#6D55A4"/>
		<stop  offset="1" style="stop-color:#FFFFFF"/>
	</linearGradient>
	
		<path style="opacity:0.93;fill:none;stroke:url(#SVGID_00000024700060859561327620000003017068127126830476_);stroke-linecap:round;stroke-dasharray:1,4;enable-background:new    ;" d="
		M964.1,233.5c1.8,12.6,2,24.7,0.2,36.1c-2.9,11.2-8.1,21.6-15.3,31.2c-8.3,9.2-18.3,17.6-29.4,24.9c-11.3,7-23.2,13.1-35.6,18.2
		c-11.9,4.8-23.7,8.3-35.2,10.6c-11.1,2-22.1,2.7-33,1.9c-10.6-0.9-21.2-3.2-32-6.7c-10.7-3.4-21.6-7.9-32.8-13.3
		c-11.3-4.9-22.3-10.3-32.9-16c-10.7-5-20.9-10.4-30.3-15.9c-9.3-5-17.5-10.3-24.4-16c-6.6-5.3-11.7-11.1-15.1-17.4
		c-3.2-6.2-5-13-5.5-20.5c-0.9-7.6-1.3-16-1.5-25.2c-1.5-9.6-3.3-20-5.6-31.3c-3.6-11.6-7.2-23.8-10.1-36.4
		c-2.8-12.6-3.5-24.8-1.9-36.3c3.1-11.2,8.9-21.6,17.1-31.2c9.4-9.3,20.4-17.9,32.5-25.7c12.3-7.8,25.1-14.9,37.8-21.3
		c12.3-6.4,24.4-12,36.3-16.7c11.4-4.6,22.6-8.3,33.8-10.8"/>
	
		<linearGradient id="SVGID_00000067959107215532721420000011516986041154747311_" gradientUnits="userSpaceOnUse" x1="959.5295" y1="695.4556" x2="-31388.5918" y2="9178.4639" gradientTransform="matrix(1 0 0 -1 0 918.1499)">
		<stop  offset="0" style="stop-color:#6D55A4"/>
		<stop  offset="1" style="stop-color:#FFFFFF"/>
	</linearGradient>
	
		<path style="opacity:0.18;fill:none;stroke:url(#SVGID_00000067959107215532721420000011516986041154747311_);stroke-linecap:round;stroke-dasharray:1,3;enable-background:new    ;" d="
		M852.6,34.7c10.1,3.9,19.8,8.8,28.9,14.8c8.9,5.9,17.1,12.7,24.4,20.1c7.1,7.3,13.3,15.1,18.2,23.3c4.8,8.1,8.3,16.5,10.7,25.1
		c2.3,8.5,3.6,17.3,3.9,26.4c0.8,9,1.1,18.5,1.1,28.3c1,10,2,20.4,3,31.3c2,11.1,3.7,22.5,4.9,34.1l0,0c1.2,11.6,1,22.7-0.8,33.1
		c-2.7,10.1-7.4,19.5-13.8,27.9c-7.4,8.1-16.3,15.2-26.2,21.3c-10.4,5.9-21.5,10.7-32.8,14.5c-11.2,3.6-22.5,6-33.6,7.3
		c-10.8,1.1-21.5,1-32-0.3c-10.3-1.4-20.4-3.9-30.5-7.5c-10-3.5-20.1-8-30.2-13.3c-9.9-4.8-19.6-10.1-29-15.8
		c-9.2-5.1-17.7-10.4-25.4-15.9c-7.6-5.1-14.2-10.4-19.5-15.9c-5.2-5.2-9.1-10.9-11.6-16.8c-2.5-5.9-4-12.3-4.5-19.3
		c-1-7.1-1.7-15-2.2-23.5c-1.8-9.7-3.6-19.3-5.5-29c-3.1-10.7-5.9-21.9-8.1-33.5c-2-11.6-2.3-22.7-0.6-33.2
		c2.9-10.2,8-19.6,15.2-28.2c8.3-8.3,18.2-15.9,29.1-22.7c11.4-6.6,23.3-12.6,35.4-17.8c11.9-5.2,23.8-9.6,35.5-13.3
		c11.3-3.5,22.5-6.2,33.4-7.8"/>
	
		<linearGradient id="SVGID_00000071518921066136503650000008624778774766337727_" gradientUnits="userSpaceOnUse" x1="943.8903" y1="693.7491" x2="-28151.6504" y2="9657.7812" gradientTransform="matrix(1 0 0 -1 0 918.1499)">
		<stop  offset="0" style="stop-color:#6D55A4"/>
		<stop  offset="1" style="stop-color:#FFFFFF"/>
	</linearGradient>
	
		<path style="opacity:0.12;fill:none;stroke:url(#SVGID_00000071518921066136503650000008624778774766337727_);stroke-linecap:round;stroke-dasharray:1,2;enable-background:new    ;" d="
		M931.3,240.5c0.7,10.6,0.2,20.7-1.7,30c-2.5,9.1-6.7,17.4-12.3,24.7c-6.4,7-14.1,13.1-22.9,18.2c-9.2,4.8-19.1,8.6-29.3,11.4
		c-10.3,2.6-20.7,4.2-31.1,4.7c-10.2,0.4-20.3-0.3-30.1-2c-9.7-1.8-19.3-4.5-28.5-8.1c-9.3-3.6-18.4-7.9-27.4-13
		c-8.7-4.6-17.1-9.7-25.2-15.3c-7.8-5-14.9-10.2-21.1-15.6c-6.2-5-11.4-10.2-15.6-15.6c-4.1-5.1-7.2-10.5-9.2-16.3
		c-2.2-5.7-3.5-11.8-4.2-18.3c-1.2-6.7-2.2-14.1-3-22.1c-1.9-8.9-3.6-17.8-5.3-26.8c-2.6-9.8-4.8-20.1-6.3-30.6
		c-1.4-10.5-1.3-20.6,0.4-30.1c2.6-9.2,7.2-17.6,13.4-25.3c7.2-7.3,15.8-14,25.5-19.8c10.2-5.6,21-10.6,32.2-14.8
		c11.1-4.1,22.4-7.5,33.4-10.1c10.9-2.5,21.6-4.2,32-5c10.2-0.6,20.3-0.3,30.1,1.1c9.7,1.6,19.2,4.3,28.3,8
		c8.9,3.9,17.3,8.7,25.2,14.5c7.6,5.7,14.3,12.1,20.2,18.9c5.7,6.8,10.5,14.2,14.3,21.8c3.6,7.4,6.3,15.3,7.9,23.4
		c1.7,8,2.7,16.2,2.9,24.7c0.7,8.6,1,17.4,1.2,26.6c0.9,9.4,1.8,19.2,2.6,29.3C929.4,219.3,930.6,229.9,931.3,240.5L931.3,240.5z"/>
	
		<linearGradient id="SVGID_00000059281588443627080570000017753324943329888650_" gradientUnits="userSpaceOnUse" x1="928.3167" y1="692.9929" x2="-24937.123" y2="9877.5342" gradientTransform="matrix(1 0 0 -1 0 918.1499)">
		<stop  offset="0" style="stop-color:#6D55A4"/>
		<stop  offset="1" style="stop-color:#FFFFFF"/>
	</linearGradient>
	
		<path style="opacity:0.49;fill:none;stroke:url(#SVGID_00000059281588443627080570000017753324943329888650_);stroke-linecap:round;stroke-dasharray:5,2;enable-background:new    ;" d="
		M915.3,241.1c0.3,9.6-0.5,18.6-2.3,26.9c-2.3,8.1-6,15.4-10.8,21.7c-5.5,6.1-12.1,11.2-19.5,15.4c-7.9,3.9-16.5,6.9-25.4,9
		c-9.1,1.8-18.4,2.7-27.7,2.7c-9.3-0.2-18.4-1.2-27.4-3.2c-8.9-2-17.6-4.8-26-8.4c-8.5-3.5-16.6-7.7-24.4-12.5
		c-7.9-4.6-15.2-9.5-21.7-14.6c-6.6-4.8-12.4-9.8-17.4-14.9c-5.1-4.8-9.3-9.9-12.6-15c-4.7-7.6-10.4-24.1-11.9-33.2
		c-1.4-6.4-2.6-13.3-3.6-20.7c-1.8-8.2-3.5-16.4-4.9-24.6c-2.1-8.9-3.7-18.2-4.7-27.7c-0.9-9.5-0.5-18.5,1.3-26.9
		c2.4-8.2,6.4-15.7,11.8-22.4c6.1-6.5,13.5-12.2,21.9-17.2c8.8-4.8,18.4-8.8,28.3-12.2c10-3.2,20.2-5.7,30.4-7.5
		c10.1-1.7,20-2.6,29.7-2.7c9.5,0,18.8,0.9,27.8,2.6c8.8,1.9,17.4,4.8,25.5,8.6c8,3.9,15.3,8.6,21.7,13.9
		c6.4,5.4,11.9,11.3,16.6,17.6c4.6,6.4,8.4,13.1,11.2,20.1c2.9,7,4.9,14.2,6.1,21.7c1.4,7.5,2.2,15.2,2.5,23.1
		c0.7,8,1.1,16.3,1.3,24.9c0.9,9,1.6,18,2.2,27.1C914.3,221.9,915.1,231.5,915.3,241.1L915.3,241.1z"/>
	
		<linearGradient id="SVGID_00000034066202256172335810000017411846926303084193_" gradientUnits="userSpaceOnUse" x1="912.8721" y1="693.4698" x2="-21760.6895" y2="9841.0508" gradientTransform="matrix(1 0 0 -1 0 918.1499)">
		<stop  offset="0" style="stop-color:#6D55A4"/>
		<stop  offset="1" style="stop-color:#FFFFFF"/>
	</linearGradient>
	
		<path style="opacity:0.91;fill:none;stroke:url(#SVGID_00000034066202256172335810000017411846926303084193_);stroke-linecap:round;stroke-dasharray:3,2;enable-background:new    ;" d="
		M899.8,239.7c-0.1,8.5-1,16.5-2.8,23.7c-2.1,7.1-5.3,13.4-9.4,18.8c-4.6,5.2-10.1,9.6-16.3,13c-6.6,3.2-13.8,5.6-21.4,7.1
		c-7.8,1.3-15.8,1.8-23.8,1.4c-8.1-0.5-16.2-1.7-24-3.8c-7.9-2.1-15.6-4.8-23-8.3c-7.4-3.4-14.6-7.3-21.3-11.8
		c-6.8-4.3-13-8.9-18.5-13.7c-5.5-4.6-10.4-9.3-14.5-14.2c-5.9-7.1-14.5-21.7-17.2-29.5c-1.9-5.3-3.4-10.8-4.4-16.8
		c-1.5-6-2.8-12.5-3.9-19.4c-1.7-7.4-3.2-14.9-4.3-22.4c-1.6-8-2.8-16.3-3.2-24.7c-0.4-8.4,0.2-16.3,1.9-23.7
		c2.2-7.1,5.6-13.8,10.2-19.6c5.1-5.6,11.4-10.6,18.4-14.8c7.5-4,15.6-7.3,24.1-9.9c8.7-2.5,17.6-4.3,26.5-5.4
		c8.9-1,17.8-1.3,26.5-0.9c8.6,0.5,16.9,1.8,24.9,3.8c7.9,2.1,15.4,5,22.5,8.8c7,3.8,13.2,8.3,18.6,13.2c5.4,5,10,10.5,13.8,16.3
		c3.7,5.8,6.8,11.9,9.1,18.4c2.3,6.4,4,13.1,5,19.9c1.2,6.9,2,14,2.4,21.3c0.7,7.4,1.2,15.1,1.5,23c0.8,8,1.4,16.3,1.7,24.7
		C899.5,222.6,899.9,231.2,899.8,239.7L899.8,239.7z"/>
	
		<linearGradient id="SVGID_00000173881717000866089330000001437554256882699159_" gradientUnits="userSpaceOnUse" x1="897.4003" y1="695.2605" x2="-18599.6992" y2="9535.3594" gradientTransform="matrix(1 0 0 -1 0 918.1499)">
		<stop  offset="0" style="stop-color:#6D55A4"/>
		<stop  offset="1" style="stop-color:#FFFFFF"/>
	</linearGradient>
	
		<path style="opacity:0.56;fill:none;stroke:url(#SVGID_00000173881717000866089330000001437554256882699159_);stroke-linecap:round;stroke-dasharray:3,2;enable-background:new    ;" d="
		M884.9,236.6c-0.4,7.5-1.4,14.3-3.1,20.6c-3.3,8.8-14.1,22.4-21.4,27.1c-5.4,2.7-11.2,4.6-17.5,5.7c-6.4,1-13,1.2-19.7,0.6
		c-6.8-0.6-13.6-1.9-20.3-3.9c-6.8-2-13.3-4.6-19.6-7.8c-6.4-3.1-12.5-6.8-18.2-10.9c-5.8-4-11-8.2-15.6-12.7
		c-6.7-6.5-17.2-19.9-21.1-26.9c-3.6-7-8.8-22.1-10.8-30.4c-1.5-5.7-2.8-11.7-3.9-18c-1.5-6.7-2.7-13.4-3.6-20.2
		c-1.2-7.1-1.9-14.4-2-21.7c-0.1-7.3,0.7-14.2,2.4-20.5c2-6.2,4.9-11.9,8.8-16.9c4.2-4.8,9.3-9,15.1-12.5c6.1-3.3,12.8-6,19.8-8.1
		c7.2-1.9,14.7-3.2,22.3-3.8c7.6-0.5,15.2-0.5,22.6,0.3c7.4,0.8,14.6,2.3,21.5,4.4c6.8,2.2,13.3,5.1,19.3,8.6
		c6,3.6,11.3,7.8,15.8,12.3c4.5,4.6,8.4,9.6,11.5,14.8c3.2,5.3,5.7,10.9,7.6,16.7c2,5.8,3.5,11.9,4.5,18.1c1.2,6.3,2,12.8,2.4,19.5
		c0.8,6.8,1.3,13.8,1.6,20.9c0.7,7.4,1.1,14.7,1.3,22.1C885.2,221.6,885.3,229.2,884.9,236.6L884.9,236.6z"/>
	
		<linearGradient id="SVGID_00000049915333488474216920000005550113770902512266_" gradientUnits="userSpaceOnUse" x1="882.7267" y1="697.949" x2="-15538.0938" y2="8994.0371" gradientTransform="matrix(1 0 0 -1 0 918.1499)">
		<stop  offset="0" style="stop-color:#6D55A4"/>
		<stop  offset="1" style="stop-color:#FFFFFF"/>
	</linearGradient>
	
		<path style="opacity:0.52;fill:none;stroke:url(#SVGID_00000049915333488474216920000005550113770902512266_);stroke-linecap:round;stroke-dasharray:4,3;enable-background:new    ;" d="
		M870.8,231.8c-1.1,12.7-4.6,23.1-10.1,31c-6.3,7.3-14.8,11.9-24.5,13.8c-10.3,1.4-21.4,0.2-32.3-3.3c-11.1-3.6-21.7-9.2-31.2-16.7
		c-9.7-7.1-17.4-15.1-23.2-23.6c-6.1-8.1-10.6-17-13.5-26.4c-3.7-9.5-6.4-20-8.1-31.2c-2.7-11.6-4.2-24-3.7-36.4
		c0.5-12.4,4-23.1,10-31.6c7.1-8,16.8-13.7,27.9-17c11.7-2.8,24.3-3.4,36.5-1.7c12.2,2,23.9,6.2,34,12.7c10,6.8,17.6,15.1,22.9,24.5
		c5.4,9.5,8.9,20.1,10.7,31.2c2.5,11.4,3.8,23.6,4.1,36.1C871.7,205.9,872,219.1,870.8,231.8L870.8,231.8z"/>
	
		<linearGradient id="SVGID_00000152247592248048732440000015962854778446794676_" gradientUnits="userSpaceOnUse" x1="868.2906" y1="701.9343" x2="-12560.46" y2="8211.0352" gradientTransform="matrix(1 0 0 -1 0 918.1499)">
		<stop  offset="0" style="stop-color:#6D55A4"/>
		<stop  offset="1" style="stop-color:#FFFFFF"/>
	</linearGradient>
	
		<path style="opacity:0.43;fill:none;stroke:url(#SVGID_00000152247592248048732440000015962854778446794676_);stroke-linecap:round;stroke-dasharray:5,2;enable-background:new    ;" d="
		M857.4,225.5c-1.3,10.5-4.3,19.1-8.8,25.4c-5,6-11.5,9.8-19,11.3c-7.9,1.2-16.4,0.2-25-2.8c-8.7-3-17.1-7.8-24.8-14.3
		c-7.8-6.2-14.1-13.3-19-20.9c-5.2-7.4-9.1-15.6-11.8-24.1c-3.3-8.7-5.7-18.1-7.1-27.8c-2-10.1-2.9-20.5-2.1-30.8
		c0.9-10.3,3.9-19,8.8-26c5.6-6.5,13-11.1,21.6-13.7c9-2.2,18.7-2.4,28.4-0.7c9.7,2,18.9,5.9,27.1,11.7c8.1,6,14.3,13.4,18.9,21.6
		c4.6,8.4,7.7,17.6,9.6,27.3c2.3,10,3.5,20.6,3.9,31.2C858.9,204,858.8,215,857.4,225.5L857.4,225.5z"/>
	
		<linearGradient id="SVGID_00000032624581108078939170000006811974468421917339_" gradientUnits="userSpaceOnUse" x1="852.3994" y1="708.2134" x2="-9482.8291" y2="7070.8545" gradientTransform="matrix(1 0 0 -1 0 918.1499)">
		<stop  offset="0" style="stop-color:#6D55A4"/>
		<stop  offset="1" style="stop-color:#FFFFFF"/>
	</linearGradient>
	
		<path style="opacity:0.48;fill:none;stroke:url(#SVGID_00000032624581108078939170000006811974468421917339_);stroke-linecap:round;stroke-dasharray:4,5;enable-background:new    ;" d="
		M845,218c-2.6,11.7-13.7,26.4-21.7,29.1c-5.8,1-12.1,0.3-18.4-2.1c-6.5-2.4-12.9-6.3-18.8-11.6c-6-5.2-11.1-11.3-15.1-17.9
		c-4.2-6.5-7.5-13.6-9.9-21.1c-2.8-7.7-4.7-15.6-5.7-23.7c-1.4-8.3-1.7-16.9-0.7-25c1-8.2,3.6-15,7.5-20.4
		c4.2-5.2,9.7-8.7,16.1-10.6c6.6-1.7,13.7-1.7,20.9-0.1c7.2,1.8,14.2,5.1,20.5,10.1c6.2,5.1,11.2,11.3,15,18.3
		c3.8,7.1,6.5,14.9,8.2,23c2,8.3,3.1,17.1,3.4,25.9C846.7,200.7,846.4,209.7,845,218L845,218z"/>
	
		<linearGradient id="SVGID_00000136401503900636830830000015873404530752118425_" gradientUnits="userSpaceOnUse" x1="840.4183" y1="713.4821" x2="-6824.6514" y2="5886.9224" gradientTransform="matrix(1 0 0 -1 0 918.1499)">
		<stop  offset="0" style="stop-color:#6D55A4"/>
		<stop  offset="1" style="stop-color:#FFFFFF"/>
	</linearGradient>
	
		<path style="opacity:0.85;fill:none;stroke:url(#SVGID_00000136401503900636830830000015873404530752118425_);stroke-linecap:round;stroke-dasharray:3,5;enable-background:new    ;" d="
		M833.4,209.4c-2.5,12.3-8.5,19.7-16.2,21.6c-8.1,1.6-17.7-1.8-26.2-10.2c-8.8-8-15.1-19.3-18.7-31.3c-4.2-12.1-5.9-25.7-3.8-37.8
		c2.2-12.1,8.6-20,17.3-22.8c9.1-2.3,19.6,0.4,28.8,8.2c9,8.1,14.8,19.9,17.6,32.6C835.3,182.8,836,197.1,833.4,209.4L833.4,209.4z"
		/>
	
		<linearGradient id="SVGID_00000088105277012741822270000015284561199508993977_" gradientUnits="userSpaceOnUse" x1="826.1172" y1="721.9787" x2="-3878.6406" y2="4192.0229" gradientTransform="matrix(1 0 0 -1 0 918.1499)">
		<stop  offset="0" style="stop-color:#6D55A4"/>
		<stop  offset="1" style="stop-color:#FFFFFF"/>
	</linearGradient>
	
		<path style="opacity:0.29;fill:none;stroke:url(#SVGID_00000088105277012741822270000015284561199508993977_);stroke-linecap:round;enable-background:new    ;" d="
		M822.6,199.9c-3.9,10.5-19,14.4-27.5,7.5c-5.6-5.6-9.8-13.6-12.2-22.1c-2.6-8.6-3.4-17.9-1.6-25.9c3.9-10.6,20.2-15.3,29.3-8.9
		c5.7,5.7,9.7,13.9,11.7,22.7C824.3,182.2,824.6,191.8,822.6,199.9z"/>
</g>
</svg>
