<?xml version="1.0" encoding="utf-8"?>
<!-- Generator: Adobe Illustrator 27.3.1, SVG Export Plug-In . SVG Version: 6.00 Build 0)  -->
<svg version="1.1" id="Layer_1" xmlns="http://www.w3.org/2000/svg" xmlns:xlink="http://www.w3.org/1999/xlink" x="0px" y="0px"
	 viewBox="0 0 3285 1440" style="enable-background:new 0 0 3285 1440;" xml:space="preserve">
<style type="text/css">
	.st0{opacity:0.5;}
	.st1{opacity:0.72;fill:none;stroke:url(#SVGID_1_);stroke-linecap:round;enable-background:new    ;}
	
		.st2{opacity:0.72;fill:none;stroke:url(#SVGID_00000142861066077916118060000014423925024474872763_);stroke-linecap:round;enable-background:new    ;}
	
		.st3{opacity:0.75;fill:none;stroke:url(#SVGID_00000021110807474175045970000012160055998877897865_);stroke-linecap:round;stroke-dasharray:4,3;enable-background:new    ;}
	
		.st4{opacity:0.75;fill:none;stroke:url(#SVGID_00000085215397142292713620000016102152615377162909_);stroke-linecap:round;stroke-dasharray:4,3;enable-background:new    ;}
	
		.st5{opacity:0.23;fill:none;stroke:url(#SVGID_00000098206176691473392030000016619520614585445552_);stroke-linecap:round;stroke-dasharray:1,2;enable-background:new    ;}
	
		.st6{opacity:0.69;fill:none;stroke:url(#SVGID_00000133523820030074261400000017409814560941097106_);stroke-linecap:round;stroke-dasharray:3,4;enable-background:new    ;}
	
		.st7{opacity:0.69;fill:none;stroke:url(#SVGID_00000027579554692937441460000000039919422502071726_);stroke-linecap:round;stroke-dasharray:3,4;enable-background:new    ;}
	
		.st8{opacity:0.46;fill:none;stroke:url(#SVGID_00000142144918960429591790000009140634588686850698_);stroke-linecap:round;stroke-dasharray:3,2;enable-background:new    ;}
	
		.st9{opacity:0.24;fill:none;stroke:url(#SVGID_00000099654968347374287250000004739154120091058568_);stroke-linecap:round;stroke-dasharray:5,1;enable-background:new    ;}
	
		.st10{opacity:0.24;fill:none;stroke:url(#SVGID_00000070804113484933594990000003146293136618419635_);stroke-linecap:round;stroke-dasharray:5,1;enable-background:new    ;}
	
		.st11{opacity:0.63;fill:none;stroke:url(#SVGID_00000042735578880138391620000007298284705968156350_);stroke-linecap:round;stroke-dasharray:4,2;enable-background:new    ;}
	
		.st12{opacity:0.19;fill:none;stroke:url(#SVGID_00000143612391212312975060000012261655825246157496_);stroke-linecap:round;stroke-dasharray:2,4;enable-background:new    ;}
	
		.st13{opacity:0.19;fill:none;stroke:url(#SVGID_00000113310764955426001050000017323093584351035559_);stroke-linecap:round;stroke-dasharray:2,4;enable-background:new    ;}
	
		.st14{opacity:0.79;fill:none;stroke:url(#SVGID_00000017476856869031916460000000987359974256572801_);stroke-linecap:round;stroke-dasharray:2,2;enable-background:new    ;}
	
		.st15{opacity:0.79;fill:none;stroke:url(#SVGID_00000150821207021601678110000011336594625163752639_);stroke-linecap:round;stroke-dasharray:2,2;enable-background:new    ;}
	
		.st16{opacity:0.54;fill:none;stroke:url(#SVGID_00000049197790332291614570000009032059056104427674_);stroke-linecap:round;stroke-dasharray:4,1;enable-background:new    ;}
	
		.st17{opacity:0.19;fill:none;stroke:url(#SVGID_00000162344632360497330800000008348637636440280718_);stroke-linecap:round;stroke-dasharray:5,1;enable-background:new    ;}
	
		.st18{opacity:0.19;fill:none;stroke:url(#SVGID_00000018208451274442294920000003901340702670579366_);stroke-linecap:round;stroke-dasharray:5,1;enable-background:new    ;}
	
		.st19{opacity:0.1;fill:none;stroke:url(#SVGID_00000121997254209186348720000015159250413146885042_);stroke-linecap:round;stroke-dasharray:2,4;enable-background:new    ;}
	
		.st20{opacity:0.1;fill:none;stroke:url(#SVGID_00000102512111957135075410000014585179370088916375_);stroke-linecap:round;stroke-dasharray:2,4;enable-background:new    ;}
	
		.st21{opacity:0.25;fill:none;stroke:url(#SVGID_00000098186553665102210620000008340020272799056516_);stroke-linecap:round;stroke-dasharray:4,1;enable-background:new    ;}
	
		.st22{opacity:0.25;fill:none;stroke:url(#SVGID_00000055678922686047565910000011199507185766452903_);stroke-linecap:round;stroke-dasharray:4,1;enable-background:new    ;}
	
		.st23{opacity:0.43;fill:none;stroke:url(#SVGID_00000067925139707803420290000007239145311043087251_);stroke-linecap:round;enable-background:new    ;}
	
		.st24{opacity:0.43;fill:none;stroke:url(#SVGID_00000085230459913702620440000004084772657600204168_);stroke-linecap:round;enable-background:new    ;}
	
		.st25{opacity:0.43;fill:none;stroke:url(#SVGID_00000145757311749138673520000001803860788337706131_);stroke-linecap:round;enable-background:new    ;}
	
		.st26{opacity:0.52;fill:none;stroke:url(#SVGID_00000016072073707913784210000008498771384002064539_);stroke-linecap:round;stroke-dasharray:2,5;enable-background:new    ;}
	
		.st27{opacity:0.52;fill:none;stroke:url(#SVGID_00000032615244870950305580000007084588606756306057_);stroke-linecap:round;stroke-dasharray:2,5;enable-background:new    ;}
	
		.st28{opacity:0.96;fill:none;stroke:url(#SVGID_00000012457512690912340640000005059184228493878718_);stroke-linecap:round;enable-background:new    ;}
	
		.st29{opacity:0.96;fill:none;stroke:url(#SVGID_00000173867549849478621240000017536924966507379883_);stroke-linecap:round;enable-background:new    ;}
	
		.st30{opacity:0.96;fill:none;stroke:url(#SVGID_00000104706730410877683600000014637615194789727632_);stroke-linecap:round;enable-background:new    ;}
	
		.st31{opacity:0.82;fill:none;stroke:url(#SVGID_00000070822237745711177780000008586506365757548697_);stroke-linecap:round;stroke-dasharray:1,3;enable-background:new    ;}
	
		.st32{opacity:0.82;fill:none;stroke:url(#SVGID_00000161604729334210427050000005579581765469157038_);stroke-linecap:round;stroke-dasharray:1,3;enable-background:new    ;}
	
		.st33{opacity:0.54;fill:none;stroke:url(#SVGID_00000119810402945504348550000005999105327589563535_);stroke-linecap:round;enable-background:new    ;}
	
		.st34{opacity:0.54;fill:none;stroke:url(#SVGID_00000153694660747142546150000000988514191494410908_);stroke-linecap:round;enable-background:new    ;}
	
		.st35{opacity:0.54;fill:none;stroke:url(#SVGID_00000127762860009063440350000016839555783310920364_);stroke-linecap:round;enable-background:new    ;}
	
		.st36{opacity:0.82;fill:none;stroke:url(#SVGID_00000001652017662608606400000009019584894904436121_);stroke-linecap:round;stroke-dasharray:2,1;enable-background:new    ;}
	
		.st37{opacity:0.82;fill:none;stroke:url(#SVGID_00000012445697007477695570000016300979146002448784_);stroke-linecap:round;stroke-dasharray:2,1;enable-background:new    ;}
	
		.st38{opacity:0.82;fill:none;stroke:url(#SVGID_00000045602549676244503410000004835068139128877715_);stroke-linecap:round;stroke-dasharray:2,1;enable-background:new    ;}
	
		.st39{opacity:0.1;fill:none;stroke:url(#SVGID_00000029749759216763444050000013805745469748213937_);stroke-linecap:round;enable-background:new    ;}
	
		.st40{opacity:0.71;fill:none;stroke:url(#SVGID_00000143617747909820529400000013642821906147569842_);stroke-linecap:round;stroke-dasharray:5,4;enable-background:new    ;}
	
		.st41{opacity:0.71;fill:none;stroke:url(#SVGID_00000174571640172038497900000016083905224657490077_);stroke-linecap:round;stroke-dasharray:5,4;enable-background:new    ;}
	
		.st42{opacity:0.28;fill:none;stroke:url(#SVGID_00000027602669061783546010000004017515189780373149_);stroke-linecap:round;stroke-dasharray:3,4;enable-background:new    ;}
	
		.st43{opacity:0.28;fill:none;stroke:url(#SVGID_00000040535393264175227180000011997402329286943422_);stroke-linecap:round;stroke-dasharray:1,3;enable-background:new    ;}
	
		.st44{opacity:0.28;fill:none;stroke:url(#SVGID_00000041280939449930189290000016500901744003901112_);stroke-linecap:round;stroke-dasharray:1,3;enable-background:new    ;}
	
		.st45{opacity:0.64;fill:none;stroke:url(#SVGID_00000031904316571276097610000010854744174251447205_);stroke-linecap:round;enable-background:new    ;}
	
		.st46{opacity:0.64;fill:none;stroke:url(#SVGID_00000159452726080761004550000016193776093750770594_);stroke-linecap:round;enable-background:new    ;}
	
		.st47{opacity:0.61;fill:none;stroke:url(#SVGID_00000150816911918550014560000013738538610302603946_);stroke-linecap:round;enable-background:new    ;}
	
		.st48{opacity:0.77;fill:none;stroke:url(#SVGID_00000100373635170481809480000008110590034364048516_);stroke-linecap:round;stroke-dasharray:2,4;enable-background:new    ;}
	
		.st49{opacity:0.97;fill:none;stroke:url(#SVGID_00000156551742272392385960000014865502167636323255_);stroke-linecap:round;enable-background:new    ;}
	
		.st50{opacity:0.13;fill:none;stroke:url(#SVGID_00000049179759550754690270000016141357404539593098_);stroke-linecap:round;stroke-dasharray:2,5;enable-background:new    ;}
	
		.st51{opacity:0.9;fill:none;stroke:url(#SVGID_00000149378053463622539010000004161753226420207506_);stroke-linecap:round;enable-background:new    ;}
	
		.st52{opacity:0.79;fill:none;stroke:url(#SVGID_00000182512348360836880340000015728183694669679547_);stroke-linecap:round;stroke-dasharray:5,2;enable-background:new    ;}
	
		.st53{opacity:0.86;fill:none;stroke:url(#SVGID_00000119800048505966102100000008071850711593702074_);stroke-linecap:round;stroke-dasharray:4,4;enable-background:new    ;}
	
		.st54{opacity:0.1;fill:none;stroke:url(#SVGID_00000092443486459353935320000017911249109515136687_);stroke-linecap:round;stroke-dasharray:3,2;enable-background:new    ;}
	
		.st55{opacity:0.93;fill:none;stroke:url(#SVGID_00000001663668823537251710000000630243684340315303_);stroke-linecap:round;stroke-dasharray:1,4;enable-background:new    ;}
	
		.st56{opacity:0.18;fill:none;stroke:url(#SVGID_00000028310299650470524210000014678674995737539751_);stroke-linecap:round;stroke-dasharray:1,3;enable-background:new    ;}
	
		.st57{opacity:0.12;fill:none;stroke:url(#SVGID_00000145052597439041890670000008472917739159278742_);stroke-linecap:round;stroke-dasharray:1,2;enable-background:new    ;}
	
		.st58{opacity:0.49;fill:none;stroke:url(#SVGID_00000165227511620053173840000000821708759485470340_);stroke-linecap:round;stroke-dasharray:5,2;enable-background:new    ;}
	
		.st59{opacity:0.56;fill:none;stroke:url(#SVGID_00000088852651309902316220000000515970164255223936_);stroke-linecap:round;stroke-dasharray:3,2;enable-background:new    ;}
	
		.st60{opacity:0.43;fill:none;stroke:url(#SVGID_00000083052088766383470720000007109001274428918177_);stroke-linecap:round;stroke-dasharray:5,2;enable-background:new    ;}
	
		.st61{opacity:0.85;fill:none;stroke:url(#SVGID_00000093178649785085303550000008050655175745323147_);stroke-linecap:round;stroke-dasharray:3,5;enable-background:new    ;}
	
		.st62{opacity:0.29;fill:none;stroke:url(#SVGID_00000183952190338819359810000007371163115206376621_);stroke-linecap:round;enable-background:new    ;}
</style>
<g class="st0">
	
		<linearGradient id="SVGID_1_" gradientUnits="userSpaceOnUse" x1="1018.9896" y1="1235.329" x2="-52547.2344" y2="-100525.9453" gradientTransform="matrix(1 0 0 -1 0 1437.8899)">
		<stop  offset="0" style="stop-color:#7546CC"/>
		<stop  offset="1" style="stop-color:#FFFFFF"/>
	</linearGradient>
	<path class="st1" d="M864.7,1410.9c-15-12.8-31-23.3-48-31.8c-18-6.8-36.2-12.6-54.5-18.3c-18.2-5.7-35.5-12.6-51.7-21
		c-15.2-10.2-28.9-22.6-41-37.5c-10.9-17-20.2-36.2-28.3-57.2c-7.3-22.3-13.7-45.5-19.6-69.2c-5.9-23.5-11.6-46.4-17.5-68.5
		c-6.5-20.7-13.4-40-20.8-57.9c-8.2-16.2-16.7-30.9-25.5-44.4c-9.4-12.3-18.8-23.8-28-34.9c-9.3-10.7-18.2-21.6-26.4-32.9
		c-7.9-11.8-15.1-24.4-21.2-38c-5.7-14.6-10.4-30.3-14.2-47.2c-3.3-17.9-5.7-36.8-7.4-56.7c-1.3-20.6-2-42-2-63.8
		c0.1-22.3,0.5-44.7,1.4-67.3c0.8-22.6,1.9-45.1,3.3-67.4c1.3-22,2.8-43.7,4.7-64.9c1.7-20.9,3.8-41.3,6.2-61.2
		c2.4-19.5,5.1-38.6,8.3-57.1c3.2-18.2,6.9-36.1,11.2-53.6c4.3-17.2,9.1-34.2,14.4-51c5.3-16.6,11.2-33.1,17.5-49.6
		c6.2-16.4,13-32.8,20.1-49.3c6.9-16.5,14.3-33.1,21.9-49.9c7.4-16.9,15.1-33.9,23.2-51.1c7.8-17.3,16-34.7,24.5-52.3
		c8.4-17.7,17.1-35.2,26.2-52.6"/>
	
		<linearGradient id="SVGID_00000145763394231594082730000016052112721583870854_" gradientUnits="userSpaceOnUse" x1="2904.6877" y1="1259.6624" x2="-57063.6562" y2="-112663.9062" gradientTransform="matrix(1 0 0 -1 0 1437.8899)">
		<stop  offset="0" style="stop-color:#7546CC"/>
		<stop  offset="1" style="stop-color:#FFFFFF"/>
	</linearGradient>
	
		<path style="opacity:0.72;fill:none;stroke:url(#SVGID_00000145763394231594082730000016052112721583870854_);stroke-linecap:round;enable-background:new    ;" d="
		M2670.1,55.3c8,20,15.3,39.8,22.1,59.3c6.8,18.7,13.1,36.7,19.1,53.8c6,16.1,11.6,31.2,16.7,45.4c5.1,13.2,9.7,25.8,13.6,37.8
		c3.7,11.5,6.7,22.7,8.9,33.9c1.9,11.2,2.9,22.7,3.2,34.6c0,12.4-0.7,25.4-2.1,39.2c-1.4,14.6-3.2,29.9-5.3,46.2
		c-1.8,17.1-3.5,35-5.2,53.8c-1,19.6-1.6,39.9-1.7,60.9c0.8,21.7,2.2,43.9,4.3,66.6c3,23.2,6.6,46.7,10.7,70.4c4.9,24,10,48,15.3,72
		c5.5,23.9,10.9,47.5,15.7,70.9c4.5,22.9,8.1,45.3,10.6,67.1c1.6,21.1,1.6,41.4,0,60.9c-3,18.6-7.8,36.4-14.7,53.2
		c-8.3,16-18.5,31.2-30.5,45.6c-13.2,13.7-28,26.9-44.2,39.6c-16.6,12.4-34.1,24.6-52.2,36.8c-17.7,12.4-35.4,25.1-52.9,38.2
		c-16.3,13.8-31.7,28-45.9,42.9c-12.7,15.7-24.1,32.1-34.3,49.1c-8.6,17.8-16.2,36.2-22.8,55c-5.4,19.3-10.3,38.9-14.9,58.4
		c-4,19.7-8.2,39.2-12.7,58.1"/>
	
		<linearGradient id="SVGID_00000090282855430380575610000001588870461910123941_" gradientUnits="userSpaceOnUse" x1="741.1987" y1="1331.4257" x2="-34956.7109" y2="-121955.5391" gradientTransform="matrix(1 0 0 -1 0 1437.8899)">
		<stop  offset="0" style="stop-color:#7546CC"/>
		<stop  offset="1" style="stop-color:#FFFFFF"/>
	</linearGradient>
	
		<path style="opacity:0.75;fill:none;stroke:url(#SVGID_00000090282855430380575610000001588870461910123941_);stroke-linecap:round;stroke-dasharray:4,3;enable-background:new    ;" d="
		M677,1424.1c-13.9-17.9-28.3-33.5-42.9-46.9c-15.3-11.2-30.7-20.9-45.9-29.6c-15.4-7.9-30.4-16-44.6-24.8
		c-13.9-9.6-26.9-20.8-38.8-33.8c-11.3-14.7-21.5-31.5-30.7-50.3c-8.6-20.4-16.3-42.3-23.1-65.6c-6.6-24.1-12.6-48.8-18.2-73.9
		c-5.7-25-11.2-49.8-16.5-74c-5.7-23.6-11.4-46.5-17.2-68.6c-6.2-21.1-12.5-41.5-18.7-61.1c-6.7-18.8-13.3-37.1-19.7-54.9
		c-6.6-17.3-13-34.4-18.8-51.3c-5.9-16.7-11.1-33.5-15.6-50.4c-4.3-16.9-7.8-34-10.3-51.4c-2.2-17.4-3.4-35.2-3.5-53.3
		c0.2-18.2,1.4-36.6,3.5-55.4c2.4-18.9,5.5-38,9.4-57.4c3.9-19.5,8.4-39.3,13.3-59.4c4.7-20.2,9.6-40.6,14.8-61.2
		c4.7-20.8,9.6-41.7,14.5-62.9c4.5-21.3,9-42.7,13.8-64.3c4.4-21.6,9.1-43.1,14.1-64.3c5-21.3,10.5-42.2,16.7-63
		c6.4-20.7,13.6-41,21.7-61.1c8.5-20,17.9-39.7,28.2-59.1"/>
	
		<linearGradient id="SVGID_00000073722652266066572550000011144631735611263636_" gradientUnits="userSpaceOnUse" x1="2993.2981" y1="1335.0555" x2="-34952.7227" y2="-129716.0312" gradientTransform="matrix(1 0 0 -1 0 1437.8899)">
		<stop  offset="0" style="stop-color:#7546CC"/>
		<stop  offset="1" style="stop-color:#FFFFFF"/>
	</linearGradient>
	
		<path style="opacity:0.75;fill:none;stroke:url(#SVGID_00000073722652266066572550000011144631735611263636_);stroke-linecap:round;stroke-dasharray:4,3;enable-background:new    ;" d="
		M2831.6,56.5c2,19.4,2.8,39.3,2.4,59.4c-0.8,20.2-2.4,40.3-4.5,60.4c-1.9,19.8-3.9,39.4-5.8,58.8c-1,19.1-1.5,37.9-1.3,56.6
		c1.7,18.5,4.3,37.1,8.2,55.7c5.5,18.6,12.3,37.6,20.3,56.8c9.6,19.4,20.1,39.2,31.5,59.5c12.4,20.4,25.2,41.3,38,62.5
		c12.9,21.2,25.2,42.7,36.5,64.3c10.3,21.4,19,42.8,25.5,64c4.8,20.8,7,41.2,6.5,61.3c-2.7,19.5-8.2,38.6-16.5,57.2
		c-10.2,18.1-22.8,35.8-37.4,53.2c-15.6,17.1-32.5,34.2-50.2,51.2c-17.3,17.1-34.5,34.5-51.1,52.2c-14.9,18.2-28.3,36.8-39.9,55.8
		c-9.3,19.7-16.6,39.9-22.2,60.6c-3.3,21.4-5.1,43.1-5.8,65.2c0.7,22.5,1.8,45.2,3,68c1.3,22.9,1.8,45.7,1.1,68.3
		c-1.7,22.5-5.2,44.5-10.9,66.1c-7.4,21.3-17.1,42-29.3,62.1c-14.1,19.7-30.4,38.7-49,57"/>
	
		<linearGradient id="SVGID_00000093873240145168889760000002585949543063466677_" gradientUnits="userSpaceOnUse" x1="2978.4226" y1="1359.6443" x2="-40229.5859" y2="-128046.9219" gradientTransform="matrix(1 0 0 -1 0 1437.8899)">
		<stop  offset="0" style="stop-color:#7546CC"/>
		<stop  offset="1" style="stop-color:#FFFFFF"/>
	</linearGradient>
	
		<path style="opacity:0.23;fill:none;stroke:url(#SVGID_00000093873240145168889760000002585949543063466677_);stroke-linecap:round;stroke-dasharray:1,2;enable-background:new    ;" d="
		M2791.2,16.3c8.8,13.8,16.1,28.3,21.8,43.6c4.7,15.9,7.9,32.6,9.7,50.1c1,18,0.8,36.7-0.5,55.8c-1.6,19.4-3.8,39.1-6.6,58.9
		c-2.4,19.9-4.8,39.8-7.1,59.7c-1.3,19.8-2,39.6-1.9,59.4c1.5,19.7,4,39.4,7.6,59.3c5.3,19.9,11.7,39.9,19.2,60.2
		c9,20.4,18.8,41,29.4,62c11.4,21,23.1,42.2,34.6,63.7c11.5,21.3,22.3,42.7,32,64c8.8,21,15.8,41.8,20.8,62.4
		c3.3,20,4.1,39.5,2.4,58.6c-3.8,18.4-10.3,36.4-19.3,53.8c-10.8,16.9-23.9,33.4-38.8,49.6c-15.8,15.9-32.9,31.8-50.7,47.6
		c-17.4,16-34.8,32.3-51.6,49.1c-15.3,17.3-29.1,35.1-41.4,53.4c-10.1,19-18.5,38.7-25.1,59c-4.6,21-7.8,42.5-9.9,64.4
		c-0.8,22.4-1.1,45.1-1.4,67.9c0,23-0.7,45.8-2.4,68.4c-2.5,22.4-6.7,44.4-12.8,65.8c-7.6,21-17.3,41.2-29.2,60.7"/>
	
		<linearGradient id="SVGID_00000158017313472838540560000007703460545589598117_" gradientUnits="userSpaceOnUse" x1="826.6879" y1="1322.4012" x2="-43415.3125" y2="-115253.1953" gradientTransform="matrix(1 0 0 -1 0 1437.8899)">
		<stop  offset="0" style="stop-color:#7546CC"/>
		<stop  offset="1" style="stop-color:#FFFFFF"/>
	</linearGradient>
	
		<path style="opacity:0.69;fill:none;stroke:url(#SVGID_00000158017313472838540560000007703460545589598117_);stroke-linecap:round;stroke-dasharray:3,4;enable-background:new    ;" d="
		M679.1,1393.1c-10.1-24.3-20-48.3-30-71.4c-10.6-21.5-21.5-41.3-32.8-59.2c-12.1-15.7-24.6-29.5-37.3-41.8
		c-13.2-10.7-26.4-20.6-39.2-30.2c-12.8-9.3-25-19.1-36.4-29.8c-10.9-11.6-20.8-24.6-29.7-39.3c-8.2-16-15.4-33.7-21.5-53
		c-5.6-20.5-10.5-42.3-14.6-65.1c-3.9-23.5-7.3-47.4-10.3-71.7c-3.1-24.3-6.1-48.6-8.9-72.5c-3.1-23.5-6.2-46.5-9.2-69
		c-3.4-21.8-6.7-43-10-63.6c-3.5-19.9-6.8-39.3-9.7-58.3c-3.1-18.4-5.7-36.4-7.8-54.2c-2-17.4-3.3-34.6-3.9-51.7
		c-0.4-16.9,0-33.8,1.3-50.7c1.5-16.8,3.8-33.7,6.9-50.8c3.3-17.1,7.2-34.3,11.9-51.8c4.7-17.5,9.8-35.3,15.5-53.3
		c5.5-18.2,11.3-36.6,17.4-55.3c5.8-18.9,11.8-38.1,18.1-57.5c5.9-19.6,12.1-39.5,18.5-59.5c6.2-20.2,12.7-40.3,19.6-60.3
		c6.9-20,14.3-39.9,22.3-59.5c8.2-19.6,17.1-39,26.7-58.1"/>
	
		<linearGradient id="SVGID_00000142148306105150111500000009947886909502546818_" gradientUnits="userSpaceOnUse" x1="2957.1746" y1="1322.6937" x2="-43306.1016" y2="-120578.8672" gradientTransform="matrix(1 0 0 -1 0 1437.8899)">
		<stop  offset="0" style="stop-color:#7546CC"/>
		<stop  offset="1" style="stop-color:#FFFFFF"/>
	</linearGradient>
	
		<path style="opacity:0.69;fill:none;stroke:url(#SVGID_00000142148306105150111500000009947886909502546818_);stroke-linecap:round;stroke-dasharray:3,4;enable-background:new    ;" d="
		M2757.2,39.9c10.5,12.6,19.8,25.2,28,37.9c7.4,12.8,13.4,26.1,18,39.9c3.7,14.4,6.1,29.5,7.1,45.4c0.3,16.5-0.5,33.7-2.2,51.5
		c-2,18.3-4.6,37.2-7.6,56.5c-2.6,19.6-5.3,39.5-7.7,59.6c-1.5,20.3-2.3,40.7-2.4,61.3c1.2,20.7,3.5,41.5,6.8,62.5
		c4.8,21.1,10.7,42.3,17.6,63.8c8.2,21.5,17.1,43.2,26.5,65c10.2,21.8,20.5,43.6,30.5,65.5c10,21.6,19.1,43.2,27.2,64.5
		c7.1,20.8,12.5,41.3,15.9,61.4c1.8,19.4,1.2,38.3-1.8,56.6c-4.9,17.6-12.3,34.6-22.1,51c-11.4,15.8-24.9,31.3-40.1,46.4
		c-16.1,14.8-33.2,29.6-51.1,44.4c-17.5,15-35,30.3-52,46.2c-15.6,16.4-29.9,33.3-42.8,50.9c-10.9,18.3-20.2,37.4-27.9,57.1
		c-5.8,20.5-10.3,41.5-13.8,63c-2.2,22.1-3.9,44.4-5.5,66.8c-1.2,22.6-3.1,45.1-5.7,67.3c-3.3,22-8,43.4-14.4,64.2"/>
	
		<linearGradient id="SVGID_00000128448953379884320860000006220772836241647012_" gradientUnits="userSpaceOnUse" x1="2925.6501" y1="1331.0444" x2="-49817.3164" y2="-122294.6484" gradientTransform="matrix(1 0 0 -1 0 1437.8899)">
		<stop  offset="0" style="stop-color:#7546CC"/>
		<stop  offset="1" style="stop-color:#FFFFFF"/>
	</linearGradient>
	
		<path style="opacity:0.46;fill:none;stroke:url(#SVGID_00000128448953379884320860000006220772836241647012_);stroke-linecap:round;stroke-dasharray:3,2;enable-background:new    ;" d="
		M2690.4,7c11.1,18,21.9,35,32.2,51.1c10.3,14.9,20,29.1,29,42.5c8.7,12.7,16.4,25,23.1,37.2c6.1,12.1,11,24.3,14.7,37
		c3,13,4.7,26.6,5.2,41c0,14.9-1,30.7-2.9,47.1c-2.1,17.1-4.7,34.9-7.6,53.3c-2.6,19-5.2,38.5-7.5,58.4c-1.5,20.4-2.4,41.1-2.6,62.2
		c1,21.4,3,43.1,5.9,65c4.2,22.1,9.4,44.4,15.4,66.9c7.2,22.6,14.9,45.2,23.1,68c8.8,22.6,17.5,45.2,25.9,67.6
		c8.3,22.1,15.7,43.9,21.9,65.4c5.3,20.9,9,41.3,10.7,61c0.2,19-1.7,37.4-6,55.1c-6,16.9-14.3,33.2-24.9,48.8
		c-12,15-25.9,29.6-41.5,43.8c-16.2,13.9-33.5,27.7-51.5,41.6c-17.6,14-35.2,28.5-52.4,43.4c-15.9,15.5-30.6,31.6-44.1,48.4
		c-11.6,17.5-21.7,35.8-30.4,54.8c-6.9,19.8-12.6,40.1-17.2,61c-3.4,21.4-6.4,43-9.1,64.8c-2.3,21.9-5.1,43.7-8.6,65.1
		c-3.9,21.2-9,41.7-15.6,61.4"/>
	
		<linearGradient id="SVGID_00000042706060399378100150000002011684126863309981_" gradientUnits="userSpaceOnUse" x1="958.0316" y1="1222.4061" x2="-49236.9297" y2="-104338.9375" gradientTransform="matrix(1 0 0 -1 0 1437.8899)">
		<stop  offset="0" style="stop-color:#7546CC"/>
		<stop  offset="1" style="stop-color:#FFFFFF"/>
	</linearGradient>
	
		<path style="opacity:0.24;fill:none;stroke:url(#SVGID_00000042706060399378100150000002011684126863309981_);stroke-linecap:round;stroke-dasharray:5,1;enable-background:new    ;" d="
		M831.5,1433.3c-18.9-5.4-38-10.1-56.8-15c-18.6-5.3-36.2-12.2-52.6-21.1c-15.3-11-29.1-24.6-41.3-40.9
		c-11.1-18.5-20.8-39.1-29.4-61.4c-8-23.3-15.4-47.2-22.5-71.1c-7.3-23.3-14.7-45.7-22.4-66.8c-8.4-19.4-17.3-37.2-26.5-53.3
		c-10-14.4-20.3-27.4-30.7-39.4c-10.8-10.9-21.4-21.5-31.6-32c-10.1-10.5-19.5-21.5-28.1-33.5c-8.1-12.7-15.3-26.7-21.4-41.9
		c-5.6-16.4-10.2-34-13.9-52.9c-3.3-19.9-5.7-40.8-7.5-62.5c-1.6-22.4-2.7-45.2-3.4-68.3c-0.7-23.3-1.1-46.6-1.3-69.7
		c-0.3-23-0.5-45.6-0.5-67.8c-0.2-21.8-0.1-43.1,0.2-63.9c0.2-20.3,0.7-40.2,1.6-59.5c0.8-18.9,2.2-37.3,4.1-55.4
		c1.9-17.7,4.4-35.1,7.6-52.3c3.2-16.9,7.1-33.7,11.6-50.4c4.5-16.5,9.6-33.1,15.3-49.6c5.6-16.6,11.7-33.2,18.3-50
		c6.4-16.9,13.1-34,20.3-51.2c6.9-17.4,14-35.1,21.5-53c7.2-18,14.7-36.2,22.6-54.7c7.7-18.5,15.8-37,24.2-55.3"/>
	
		<linearGradient id="SVGID_00000127044461895196674410000002051353915741903801_" gradientUnits="userSpaceOnUse" x1="2912.3904" y1="1318.6007" x2="-55740.6094" y2="-122030.2188" gradientTransform="matrix(1 0 0 -1 0 1437.8899)">
		<stop  offset="0" style="stop-color:#7546CC"/>
		<stop  offset="1" style="stop-color:#FFFFFF"/>
	</linearGradient>
	
		<path style="opacity:0.24;fill:none;stroke:url(#SVGID_00000127044461895196674410000002051353915741903801_);stroke-linecap:round;stroke-dasharray:5,1;enable-background:new    ;" d="
		M2665.3,2.3c9.8,20.3,19.1,40.2,28,59.6c8.9,18.5,17.4,36.1,25.5,52.8c8.1,15.5,15.8,30.2,22.8,44c6.9,12.9,13,25.3,18.3,37.2
		c4.9,11.6,8.8,23.2,11.7,34.9c2.4,11.9,3.7,24.3,4,37.3c-0.1,13.5-1.1,27.8-2.8,42.8c-1.8,15.8-4.1,32.4-6.8,49.7
		c-2.3,18.1-4.6,36.9-6.7,56.4c-1.3,20.1-2.2,40.8-2.4,62c0.9,21.7,2.5,43.8,4.9,66.4c3.6,22.8,8,45.9,13,69.2
		c6,23.4,12.5,46.9,19.2,70.4c7.2,23.4,14.2,46.6,20.9,69.5c6.4,22.6,12,44.7,16.4,66.4c3.5,21,5.3,41.3,5.4,61
		c-1.4,18.8-4.8,36.8-10.3,54.1c-7.1,16.4-16.4,32-27.7,47c-12.6,14.3-26.9,28.1-42.8,41.5c-16.4,13.1-33.8,26.1-51.8,39.1
		c-17.7,13.2-35.3,26.7-52.7,40.8c-16.1,14.6-31.2,29.9-45.1,45.7c-12.2,16.7-23,34.1-32.5,52.1c-7.8,18.9-14.5,38.3-20.3,58.3
		c-4.5,20.5-8.5,41.2-12.3,62c-3.3,20.9-6.8,41.7-10.9,62c-4.3,20-9.7,39.3-16.2,57.8"/>
	
		<linearGradient id="SVGID_00000164516298715610473330000007604702968437876670_" gradientUnits="userSpaceOnUse" x1="2891.1555" y1="1246.5861" x2="-62319.5547" y2="-111260.7812" gradientTransform="matrix(1 0 0 -1 0 1437.8899)">
		<stop  offset="0" style="stop-color:#7546CC"/>
		<stop  offset="1" style="stop-color:#FFFFFF"/>
	</linearGradient>
	
		<path style="opacity:0.63;fill:none;stroke:url(#SVGID_00000164516298715610473330000007604702968437876670_);stroke-linecap:round;stroke-dasharray:4,2;enable-background:new    ;" d="
		M2647.4,50.6c8.7,18,16.4,36.8,23.2,56c6.3,19.4,11.9,38.8,16.8,58c4.8,18.7,9.1,36.8,13,54.1c4,16.4,7.6,31.9,10.9,46.6
		c3.4,13.7,6.4,26.6,8.9,38.8c3.6,17.2,8,50.1,8.6,66.8c0.2,11.6-0.2,23.7-1.1,36.5c-0.8,13.5-1.9,27.8-3.3,43
		c-1.1,16.1-2.2,33.1-3.2,51c-0.4,18.8-0.6,38.5-0.5,58.9c0.9,21.2,2.2,43.2,4,65.7c2.5,23.1,5.4,46.6,8.6,70.3
		c3.8,24.1,7.6,48.2,11.5,72.3c4,24,7.6,47.8,10.6,71.2c2.7,23,4.4,45.4,5,67.1c-0.3,21-2,41.2-5.3,60.4
		c-4.5,18.4-10.8,35.8-18.9,52.3c-9.4,15.6-20.5,30.3-33.3,44.1c-13.8,13.2-29,25.8-45.5,37.8c-16.8,11.8-34.4,23.3-52.5,34.8
		c-17.8,11.6-35.5,23.5-53,35.7c-16.4,12.9-32,26.2-46.5,40c-13.1,14.7-25,30-35.7,45.8c-9.3,16.7-17.5,33.8-24.8,51.3
		c-6.2,18.1-11.8,36.3-17,54.5c-4.6,18.4-9.2,36.5-14.1,54"/>
	
		<linearGradient id="SVGID_00000145048591295428424550000004515801340353380747_" gradientUnits="userSpaceOnUse" x1="1073.2887" y1="1148.3776" x2="-55853.5117" y2="-88426.0312" gradientTransform="matrix(1 0 0 -1 0 1437.8899)">
		<stop  offset="0" style="stop-color:#7546CC"/>
		<stop  offset="1" style="stop-color:#FFFFFF"/>
	</linearGradient>
	
		<path style="opacity:0.19;fill:none;stroke:url(#SVGID_00000145048591295428424550000004515801340353380747_);stroke-linecap:round;stroke-dasharray:2,4;enable-background:new    ;" d="
		M889.3,1430.1c-9-20.6-17.5-41.8-25.9-62.9c-9-20.2-18.8-39-29.4-56.3c-12.1-15.1-25.4-28.2-39.7-39.5c-15.6-9.4-31.8-17.6-48.2-25
		c-16.8-6.9-33.1-14.1-48.7-22.2c-14.8-9-28.3-19.7-40.3-32.2c-10.7-14.2-19.8-30.5-27.3-48.6c-6.4-19.6-11.5-40.5-15.7-62.5
		c-3.6-22.5-6.7-45.2-9.6-67.7c-3.1-22-6.3-43.2-9.8-63.4c-4.2-19-8.8-36.7-13.8-53.2c-5.8-15.2-12-29.3-18.4-42.6
		c-6.9-12.3-13.8-24.2-20.4-35.7c-6.8-11.3-13.2-22.8-19-34.7c-5.6-12.2-10.4-25-14.5-38.7c-3.6-14.3-6.4-29.5-8.3-45.5
		c-1.4-16.8-2.1-34.4-1.9-52.7c0.5-19,1.7-38.5,3.5-58.4c2-20.3,4.7-40.9,7.8-61.5c3.2-20.8,6.9-41.6,11-62.2
		c4.1-20.5,8.6-40.8,13.5-60.7c4.9-19.8,10.2-39.1,15.8-58.1c5.7-18.7,11.7-37.1,18.1-55c6.4-17.7,13.2-35.1,20.4-52.1
		c7.1-16.9,14.6-33.5,22.5-49.8c7.8-16.3,15.8-32.4,24.3-48.4c8.2-16,16.8-32,25.6-47.8c8.7-16,17.6-31.9,26.8-47.8"/>
	
		<linearGradient id="SVGID_00000166643266377746053690000009329651703199305902_" gradientUnits="userSpaceOnUse" x1="2854.696" y1="1245.1398" x2="-67098.4922" y2="-108826.3125" gradientTransform="matrix(1 0 0 -1 0 1437.8899)">
		<stop  offset="0" style="stop-color:#7546CC"/>
		<stop  offset="1" style="stop-color:#FFFFFF"/>
	</linearGradient>
	
		<path style="opacity:0.19;fill:none;stroke:url(#SVGID_00000166643266377746053690000009329651703199305902_);stroke-linecap:round;stroke-dasharray:2,4;enable-background:new    ;" d="
		M2581.2,19.6c13.4,11.9,25.9,24.5,37.4,38c10.8,14.3,20.4,29.5,28.8,45.7c7.6,16.9,14.1,34.7,19.5,52.9c4.9,18.6,8.9,37.3,12.1,56
		c3.1,18.4,5.6,36.4,7.6,53.7c2.2,16.6,4,32.5,5.5,47.5c1.8,14.1,3.2,27.5,4.5,40.1c2,17.6,4.6,50.7,5,67.1
		c0.3,11.1,0.3,22.7-0.1,34.8c-0.2,12.7-0.6,26.2-1.3,40.5c-0.3,15.2-0.6,31.2-0.9,48.3c0.2,17.9,0.5,36.8,1,56.5
		c1.1,20.6,2.4,41.9,4.1,63.8c2.1,22.6,4.5,45.6,6.9,69.1c2.8,23.7,5.5,47.6,8.1,71.4c2.5,23.8,4.6,47.3,6,70.4
		c1,22.7,1,44.8-0.2,66.2c-2,20.7-5.3,40.5-10.2,59.3c-6,18-13.6,35-22.8,51c-10.4,15.1-22.4,29.3-35.9,42.6
		c-14.4,12.7-30,24.6-46.6,36c-17,11.1-34.7,22-52.8,32.6c-17.8,10.9-35.5,21.9-52.9,33.2c-16.5,12-32.1,24.3-46.8,37.1
		c-13.3,13.6-25.6,27.8-36.8,42.4c-9.8,15.5-18.6,31.3-26.4,47.5c-6.8,16.8-13,33.7-18.7,50.5c-5.1,17-10.2,33.8-15.3,49.9"/>
	
		<linearGradient id="SVGID_00000135653722234800286480000005867935450268522686_" gradientUnits="userSpaceOnUse" x1="1120.4614" y1="1146.8044" x2="-59475.8789" y2="-86098.0859" gradientTransform="matrix(1 0 0 -1 0 1437.8899)">
		<stop  offset="0" style="stop-color:#7546CC"/>
		<stop  offset="1" style="stop-color:#FFFFFF"/>
	</linearGradient>
	
		<path style="opacity:0.79;fill:none;stroke:url(#SVGID_00000135653722234800286480000005867935450268522686_);stroke-linecap:round;stroke-dasharray:2,2;enable-background:new    ;" d="
		M901.1,1432.1c-12.1-15-22.5-32.3-31.3-51.4c-8.1-20.2-15.5-41.1-22.8-62.1c-7.7-20.3-16.1-39.6-25.3-57.5
		c-10.6-16-22.3-30.2-35.1-42.6c-14.1-10.6-29-19.9-44.4-28.3c-15.9-7.6-31.5-15.3-46.5-23.4c-14.5-8.7-27.8-18.7-39.6-30.2
		c-10.7-13-19.7-27.8-27.1-44.4c-6.2-18.1-11.1-37.6-14.7-58.2c-2.9-21.4-5.1-43.4-6.7-65.5c-1.7-21.9-3.3-43.4-5-64.2
		c-2.3-19.8-5-38.6-8-56.4c-3.9-16.5-8.1-32-12.7-46.4c-5.3-13.5-10.7-26.2-16.1-38.5c-5.8-11.8-11.4-23.4-16.5-35.1
		c-5.2-11.7-9.8-23.8-13.7-36.4c-3.7-13-6.6-26.8-8.7-41.2c-1.7-15.1-2.6-30.9-2.6-47.3c0.3-17.1,1.5-34.8,3.3-53
		c2.1-18.6,4.9-37.7,8.3-56.9c3.6-19.5,7.8-39.1,12.5-58.7c4.8-19.7,10-39.2,15.7-58.5c5.8-19.2,11.9-38.2,18.5-56.8
		c6.6-18.5,13.5-36.6,20.8-54.4c7.3-17.6,15-34.9,23-51.8c8-16.8,16.3-33.3,24.8-49.5c8.5-16.2,17.3-32.1,26.3-47.8
		c8.9-15.7,18.1-31.3,27.5-46.8c9.3-15.5,18.8-30.9,28.5-46.1"/>
	
		<linearGradient id="SVGID_00000127765607265587603900000011269139015192733834_" gradientUnits="userSpaceOnUse" x1="2805.4797" y1="1225.7491" x2="-70099.2344" y2="-103740.3906" gradientTransform="matrix(1 0 0 -1 0 1437.8899)">
		<stop  offset="0" style="stop-color:#7546CC"/>
		<stop  offset="1" style="stop-color:#FFFFFF"/>
	</linearGradient>
	
		<path style="opacity:0.79;fill:none;stroke:url(#SVGID_00000127765607265587603900000011269139015192733834_);stroke-linecap:round;stroke-dasharray:2,2;enable-background:new    ;" d="
		M2504.7,3.8c12.7,13.1,25.6,25.6,38.6,37.5c13.3,11.4,26.4,22.7,39,34.1c12.3,11.5,23.9,23.6,34.4,36.4
		c9.9,13.3,18.6,27.6,26.1,42.6c6.7,15.8,12.1,32.3,16.4,49.5c3.7,17.6,6.4,35.4,8.3,53.4c1.6,17.9,2.6,35.4,3,52.6
		c0.5,16.6,0.7,32.6,0.7,47.9c0.2,14.5,0.3,28.3,0.2,41.4c0.3,12.4,0.5,24.3,0.5,35.8c0.5,16.7,1.1,49.9,1.2,67.4
		c0.3,12.3,0.5,25.2,0.6,38.9c0.5,14.4,0.9,29.7,1.2,46c0.8,17.1,1.7,35.1,2.7,54c1.4,19.7,2.9,40.2,4.5,61.3
		c1.9,21.8,3.8,44.1,5.7,66.8c2,23,3.8,46.2,5.3,69.3c1.3,23.1,2,46,2,68.5c-0.6,22.1-2.1,43.6-4.7,64.3
		c-3.5,20.1-8.3,39.2-14.5,57.4c-7.3,17.4-16.1,33.7-26.3,49c-11.3,14.5-24,28-38.1,40.6c-14.8,12-30.8,23.3-47.6,34
		c-17.1,10.5-34.8,20.6-52.9,30.5c-17.7,10.1-35.4,20.3-52.8,30.7c-16.5,11-32.2,22.4-46.9,34.1c-13.5,12.5-26.1,25.5-37.5,39
		c-10.2,14.3-19.4,28.9-27.8,43.8c-7.3,15.5-14,31.1-20.2,46.6c-5.6,15.8-11.1,31.3-16.5,46.3"/>
	
		<linearGradient id="SVGID_00000047757255235277178290000011633221065462312098_" gradientUnits="userSpaceOnUse" x1="2781.7971" y1="1197.5483" x2="-72894.0391" y2="-98746.3984" gradientTransform="matrix(1 0 0 -1 0 1437.8899)">
		<stop  offset="0" style="stop-color:#7546CC"/>
		<stop  offset="1" style="stop-color:#FFFFFF"/>
	</linearGradient>
	
		<path style="opacity:0.54;fill:none;stroke:url(#SVGID_00000047757255235277178290000011633221065462312098_);stroke-linecap:round;stroke-dasharray:4,1;enable-background:new    ;" d="
		M2478.4,11.3c9.9,15.8,20,31,30.6,45.5c11.2,13.5,22.7,26.3,34.3,38.5c12,11.6,23.8,22.9,35.2,34.2c11.3,11.2,21.9,22.8,31.5,34.9
		c9.1,12.5,17,25.7,23.7,39.6c5.9,14.6,10.6,29.9,14,45.9c2.8,16.4,4.5,33.2,5.3,50.2c0.4,17.1,0.1,34.2-0.7,51
		c-0.8,16.5-2,32.5-3.4,47.9c-1.1,14.9-2.3,29.1-3.6,42.7c-0.8,13-1.6,25.5-2.3,37.6c-0.2,11.7-0.5,23.2-0.7,34.6
		c0.3,11.4,0.5,22.9,0.7,34.8c0.7,12.2,1.3,24.9,1.9,38.3c1,14,2.1,28.8,3.1,44.4c1.4,16.4,2.8,33.6,4.2,51.6
		c1.7,18.8,3.4,38.3,5,58.5c1.8,20.8,3.5,42.1,4.9,63.7c1.4,22,2.5,44.1,3.1,66.2c0.3,22.1-0.1,44-1.3,65.5
		c-1.8,21.1-4.6,41.6-8.5,61.4c-4.8,19.1-10.8,37.4-18.1,54.7c-8.3,16.5-18.1,32-29.1,46.4c-12,13.7-25.3,26.5-39.8,38.3
		c-15.2,11.3-31.3,21.8-48.2,31.7c-17.2,9.7-34.8,19-52.7,28.1c-17.6,9.3-35.1,18.6-52.4,28.2c-16.4,10.1-32.1,20.5-46.9,31.2
		c-13.7,11.5-26.4,23.4-38.1,35.7c-10.6,13.1-20.2,26.6-29,40.3c-7.8,14.3-15.1,28.8-21.7,43.1c-6.1,14.7-12,29.1-17.8,43.1"/>
	
		<linearGradient id="SVGID_00000183950431981903674800000014926508473792538514_" gradientUnits="userSpaceOnUse" x1="1227.2611" y1="1036.7172" x2="-58992.3867" y2="-72046.7188" gradientTransform="matrix(1 0 0 -1 0 1437.8899)">
		<stop  offset="0" style="stop-color:#7546CC"/>
		<stop  offset="1" style="stop-color:#FFFFFF"/>
	</linearGradient>
	
		<path style="opacity:0.19;fill:none;stroke:url(#SVGID_00000183950431981903674800000014926508473792538514_);stroke-linecap:round;stroke-dasharray:5,1;enable-background:new    ;" d="
		M1108.3,1443.6c-10.4-12.8-22.1-24.5-35.3-34.8c-14.9-8.4-31.4-15.4-49.2-21.2c-19.1-4.4-38.9-8.3-58.9-12.2
		c-20-4-39-9.1-56.7-15.7c-16.3-8.1-30.8-18.4-43.2-30.9c-10.7-14.4-19.6-30.8-27-48.9c-6.3-19.2-11.8-39.2-16.9-59.6
		c-5.3-20.1-10.9-39.6-17.1-58.2c-7.5-17.2-16-33-25.6-47.2c-11-12.6-22.9-23.9-35.6-34.2c-13.5-9.2-27.1-17.9-40.5-26.5
		c-13.3-8.6-25.9-17.9-37.3-28c-10.5-11.1-19.6-23.4-27.1-37.2c-6.3-15-11-31.4-14.3-49.1c-2.3-18.7-3.4-38.2-3.5-58.4
		c0.2-20.6,1-41.2,2.1-61.8c0.9-20.3,1.7-40,2.3-59.1c0-18.3-0.4-35.8-1.1-52.3c-1.5-15.7-3.4-30.5-5.6-44.6
		c-2.8-13.4-5.8-26.2-8.8-38.6c-3.4-12.1-6.6-24-9.6-35.8c-3-11.8-5.6-23.9-7.5-36.3c-1.8-12.6-3-25.6-3.5-39.1
		c-0.2-13.9,0.4-28.2,1.8-43c1.7-15.2,4.1-30.8,7.3-46.7c3.5-16.3,7.6-32.8,12.4-49.5c5.1-16.9,10.7-33.9,17-50.9
		c6.4-17.1,13.3-34.1,20.7-51c7.5-16.9,15.5-33.6,23.8-50.1c8.4-16.5,17.2-32.6,26.3-48.5c9.1-15.9,18.5-31.5,28.2-46.8
		c9.6-15.3,19.5-30.4,29.6-45.1c10-14.8,20.2-29.4,30.6-43.7"/>
	
		<linearGradient id="SVGID_00000088821644829617968860000002812459501137109909_" gradientUnits="userSpaceOnUse" x1="2763.1526" y1="1176.9556" x2="-75825.6094" y2="-94199.5" gradientTransform="matrix(1 0 0 -1 0 1437.8899)">
		<stop  offset="0" style="stop-color:#7546CC"/>
		<stop  offset="1" style="stop-color:#FFFFFF"/>
	</linearGradient>
	
		<path style="opacity:0.19;fill:none;stroke:url(#SVGID_00000088821644829617968860000002812459501137109909_);stroke-linecap:round;stroke-dasharray:5,1;enable-background:new    ;" d="
		M2459.1,11c8.1,17,16,33.9,23.9,50.5c8.4,16,17.2,31.4,26.2,46c9.7,13.8,19.7,26.8,29.9,39.3c10.6,11.8,21.1,23.1,31.4,34.3
		c10.2,11,19.8,22.1,28.6,33.5c8.3,11.7,15.5,24,21.6,36.9c5.3,13.4,9.3,27.5,12.2,42.2c2.1,15.2,3.1,30.9,3.2,46.9
		c-0.4,16.2-1.6,32.6-3.4,48.8c-1.9,16.1-4.2,32-6.7,47.4c-2.3,15.1-4.6,29.7-7,43.7c-1.8,13.6-3.6,26.8-5.2,39.6
		c-1,12.4-1.8,24.6-2.5,36.6c0,12,0.1,24,0.2,36.2c0.8,12.5,1.6,25.3,2.6,38.7c1.4,13.8,2.8,28.3,4.3,43.5
		c1.8,15.8,3.6,32.4,5.3,49.6c2,17.9,3.8,36.5,5.5,55.7c1.8,19.7,3.2,39.8,4.4,60.3c1,20.8,1.5,41.6,1.4,62.5
		c-0.5,20.8-1.7,41.4-3.8,61.6c-2.7,19.9-6.5,39.1-11.4,57.6c-5.7,17.9-12.7,35-20.8,51.1c-9.1,15.4-19.5,29.8-31.2,43.2
		c-12.5,12.7-26.1,24.5-40.9,35.4c-15.3,10.4-31.5,20.1-48.4,29.1c-17.1,8.9-34.5,17.4-52.2,25.6c-17.4,8.5-34.7,17-51.8,25.6
		c-16.3,9.2-31.9,18.6-46.7,28.4c-13.8,10.5-26.7,21.4-38.6,32.7c-10.9,12.1-21,24.5-30.2,37.1c-8.4,13.3-16.1,26.7-23.4,40.1
		c-6.7,13.8-13.2,27.4-19.6,40.6"/>
	
		<linearGradient id="SVGID_00000037675196227275402940000015243288348922513312_" gradientUnits="userSpaceOnUse" x1="1252.9677" y1="1025.9529" x2="-59629.5117" y2="-66950.3125" gradientTransform="matrix(1 0 0 -1 0 1437.8899)">
		<stop  offset="0" style="stop-color:#7546CC"/>
		<stop  offset="1" style="stop-color:#FFFFFF"/>
	</linearGradient>
	
		<path style="opacity:0.1;fill:none;stroke:url(#SVGID_00000037675196227275402940000015243288348922513312_);stroke-linecap:round;stroke-dasharray:2,4;enable-background:new    ;" d="
		M1107.7,1436.1c-7.5-14-15.3-28.1-23.9-41.7c-9.8-12.4-20.9-23.8-33.5-34c-14.3-8.4-30.1-15.7-47.2-21.8
		c-18.3-4.9-37.3-9.4-56.5-14c-19.1-4.7-37.3-10.3-54.2-17.3c-15.6-8.4-29.3-18.6-41-30.9c-10.1-14-18.3-29.9-24.9-47.4
		c-5.6-18.6-10.1-38-14.2-58c-4.1-19.8-8.5-39.2-13.3-57.9c-5.9-17.5-12.8-33.7-20.7-48.7c-9.3-13.4-19.7-25.5-30.8-36.5
		c-12.1-9.9-24.5-19.2-36.9-28.2c-12.5-8.8-24.4-17.9-35.5-27.6c-10.3-10.3-19.3-21.7-26.9-34.3c-6.4-13.6-11.3-28.5-14.6-44.6
		c-2.3-17.1-3.3-35.2-3.2-54c0.7-19.4,2.2-39.1,4.2-59c2-19.9,4.2-39.4,6.3-58.6c1.7-18.6,3.1-36.6,4.2-53.9
		c0.4-16.5,0.4-32.2,0.1-47.2c-1.1-14.3-2.4-27.9-3.9-41.1c-2-12.6-4.1-24.9-6-37c-2.2-11.9-4.1-23.8-5.6-35.7
		c-1.5-12-2.5-24.2-3-36.7c-0.3-12.8,0.2-25.9,1.3-39.3c1.4-13.8,3.5-27.9,6.3-42.2c3.2-14.7,7-29.7,11.5-44.8
		c4.8-15.4,10.2-30.9,16.3-46.4c6.3-15.7,13.1-31.4,20.5-47.1c7.5-15.7,15.5-31.3,24-46.7c8.5-15.5,17.5-30.7,26.7-45.8
		c9.3-15,19-29.8,28.9-44.4c9.9-14.6,20.1-28.9,30.5-43c10.4-14.1,20.9-28,31.7-41.6"/>
	
		<linearGradient id="SVGID_00000146482330107079203520000004776335600681179532_" gradientUnits="userSpaceOnUse" x1="2743.4534" y1="1155.9834" x2="-81222.8438" y2="-92593.7344" gradientTransform="matrix(1 0 0 -1 0 1437.8899)">
		<stop  offset="0" style="stop-color:#7546CC"/>
		<stop  offset="1" style="stop-color:#FFFFFF"/>
	</linearGradient>
	
		<path style="opacity:0.1;fill:none;stroke:url(#SVGID_00000146482330107079203520000004776335600681179532_);stroke-linecap:round;stroke-dasharray:2,4;enable-background:new    ;" d="
		M2440.2,11c8.4,15.7,16.1,32,23.1,48.7c6.9,16.8,13.6,33.5,20.2,50.1c7.1,16,14.3,31.4,21.9,46.2c8.2,14,16.7,27.2,25.4,39.8
		c9.2,11.9,18.4,23.3,27.5,34.4c9.1,10.8,17.8,21.5,25.7,32.4c7.6,11.1,14.2,22.5,19.7,34.4c4.8,12.4,8.5,25.3,10.9,38.8
		c1.7,14,2.3,28.6,1.9,43.5c-0.9,15.3-2.7,30.8-5.2,46.3c-2.6,15.6-5.7,31.2-9.1,46.5c-3.2,15.1-6.4,30-9.7,44.4
		c-2.8,14.2-5.4,28-7.8,41.4c-1.8,13.2-3.3,26.2-4.6,39c-0.6,12.7-0.9,25.4-0.9,38.3c0.6,13,1.3,26.2,2.2,39.8
		c1.5,14,3,28.4,4.6,43.5c2,15.5,4,31.6,5.8,48.3c2.1,17.2,4,34.9,5.7,53.2c1.7,18.6,3,37.6,3.9,56.9c0.7,19.4,0.7,39,0.1,58.4
		c-1,19.4-2.9,38.5-5.7,57.2c-3.4,18.4-7.9,36.2-13.4,53.3c-6.4,16.5-14,32.2-22.7,47c-9.6,14.1-20.4,27.3-32.4,39.5
		c-12.8,11.6-26.5,22.3-41.3,32.2c-15.3,9.4-31.4,18.1-48,26.3c-16.9,8-34.1,15.6-51.5,23c-17.1,7.6-34.2,15.2-51,23
		c-16.2,8.3-31.7,16.9-46.4,25.7c-13.9,9.6-26.9,19.6-39.1,29.9c-11.3,11.1-21.8,22.6-31.5,34.3c-8.9,12.4-17.4,25-25.3,37.5
		c-7.4,13.1-14.6,25.9-21.7,38.6c-7,12.9-14.1,25.3-21.5,37.2"/>
	
		<linearGradient id="SVGID_00000062880190875179224260000007297479950998585763_" gradientUnits="userSpaceOnUse" x1="1275.9542" y1="1015.3917" x2="-59996.6523" y2="-61958.2148" gradientTransform="matrix(1 0 0 -1 0 1437.8899)">
		<stop  offset="0" style="stop-color:#7546CC"/>
		<stop  offset="1" style="stop-color:#FFFFFF"/>
	</linearGradient>
	
		<path style="opacity:0.25;fill:none;stroke:url(#SVGID_00000062880190875179224260000007297479950998585763_);stroke-linecap:round;stroke-dasharray:4,1;enable-background:new    ;" d="
		M1105.5,1424.9c-7.5-12.3-14.4-25.6-21-39.5c-6.8-13.8-14.1-27.4-22.1-40.6c-9.3-12.1-19.9-23.2-32-33.2
		c-13.7-8.4-28.8-15.8-45.3-22.3c-17.5-5.4-35.7-10.4-54.1-15.5c-18.3-5.2-35.6-11.4-51.7-18.7c-14.8-8.5-27.8-18.8-38.9-30.9
		c-9.4-13.7-17-29-22.9-45.9c-4.8-17.9-8.6-36.7-11.6-56.1c-3-19.3-6.1-38.5-9.6-57.1c-4.5-17.6-9.7-34.2-16-49.6
		c-7.6-14-16.3-26.9-25.8-38.6c-10.6-10.6-21.6-20.5-32.9-29.9c-11.6-9-22.7-18.1-33.3-27.6c-10-9.8-18.9-20.4-26.5-31.9
		c-6.6-12.4-11.6-25.9-15.2-40.5c-2.5-15.6-3.6-32.1-3.4-49.5c0.9-18,2.7-36.6,5.3-55.4c2.8-19.1,6-38.1,9.3-57
		c3.1-18.6,6.1-36.7,8.8-54.3c2.2-17,4-33.4,5.5-49.1c0.8-15.1,1.3-29.5,1.4-43.3c-0.4-13.3-1-26.2-1.6-38.7
		c-1.1-12.2-2-24.2-2.7-36.1c-0.9-11.8-1.4-23.7-1.5-35.6c-0.1-12,0.4-24.3,1.5-36.7c1.2-12.6,3.1-25.5,5.7-38.6
		c2.8-13.3,6.3-26.9,10.5-40.6c4.4-13.9,9.5-28,15.2-42.1c5.9-14.3,12.5-28.6,19.6-42.9c7.3-14.4,15.1-28.8,23.4-43
		c8.4-14.3,17.2-28.5,26.5-42.5c9.3-14,19-27.9,29-41.5c10-13.7,20.3-27.1,30.8-40.4c10.5-13.3,21.3-26.3,32.2-39.1"/>
	
		<linearGradient id="SVGID_00000098922449868637432440000002701883099592925847_" gradientUnits="userSpaceOnUse" x1="2716.0693" y1="1128.423" x2="-83139" y2="-87110.0859" gradientTransform="matrix(1 0 0 -1 0 1437.8899)">
		<stop  offset="0" style="stop-color:#7546CC"/>
		<stop  offset="1" style="stop-color:#FFFFFF"/>
	</linearGradient>
	
		<path style="opacity:0.25;fill:none;stroke:url(#SVGID_00000098922449868637432440000002701883099592925847_);stroke-linecap:round;stroke-dasharray:4,1;enable-background:new    ;" d="
		M2415.2,17.5c10.6,12.8,20,26.7,28.2,41.4c7.6,15.3,14.2,31.3,20.2,47.6c5.8,16.5,11.3,32.9,16.6,49.3c5.8,15.9,11.6,31.3,17.7,46
		c6.8,14,13.8,27.4,21.1,40.1c7.9,12,15.8,23.4,23.6,34.5c8,10.6,15.7,21.1,22.8,31.6c6.9,10.5,12.9,21.3,18,32.3
		c4.5,11.5,7.9,23.4,10.1,35.8c1.6,12.9,2,26.3,1.4,40.2c-1.2,14.3-3.2,28.8-6,43.6c-3.1,15-6.6,30.1-10.6,45.2
		c-3.8,15.1-7.8,30-11.8,44.7c-3.6,14.6-7,28.9-10.2,43c-2.6,13.9-4.9,27.7-6.8,41.3c-1.2,13.5-2.1,27.1-2.7,40.6
		c0.1,13.7,0.5,27.5,1.1,41.6c1.2,14.3,2.5,29,3.9,44.1c1.9,15.4,3.7,31.3,5.4,47.6c2,16.7,3.7,33.7,5.2,51.1
		c1.5,17.7,2.5,35.6,3.1,53.7c0.4,18.2,0,36.4-1,54.4c-1.5,17.9-3.8,35.5-7.1,52.7c-3.9,16.8-8.9,33.1-14.9,48.6
		c-6.8,15-14.8,29.2-23.8,42.6c-9.9,12.7-20.9,24.5-33,35.5c-12.8,10.4-26.5,19.9-41.2,28.6c-15.1,8.3-30.9,16.1-47.3,23.2
		c-16.5,7-33.4,13.8-50.4,20.3c-16.8,6.8-33.6,13.5-50.1,20.4c-16,7.5-31.3,15.2-46.1,23.1c-13.9,8.8-27.2,17.9-39.6,27.3
		c-11.6,10.3-22.6,20.9-32.8,31.8c-9.6,11.6-18.7,23.5-27.4,35.4c-8.2,12.4-16.3,24.8-24.2,37c-7.8,12.5-15.8,24.6-24.1,36.4"/>
	
		<linearGradient id="SVGID_00000088840078746088579980000005288391848056999067_" gradientUnits="userSpaceOnUse" x1="2338.6799" y1="1434.8793" x2="2338.6799" y2="1434.8793" gradientTransform="matrix(1 0 0 -1 0 1437.8899)">
		<stop  offset="0" style="stop-color:#7546CC"/>
		<stop  offset="1" style="stop-color:#FFFFFF"/>
	</linearGradient>
	
		<path style="opacity:0.43;fill:none;stroke:url(#SVGID_00000088840078746088579980000005288391848056999067_);stroke-linecap:round;enable-background:new    ;" d="
		M2338.7,3"/>
	
		<linearGradient id="SVGID_00000090291536161055844840000004724752041168064159_" gradientUnits="userSpaceOnUse" x1="1364.8701" y1="935.5428" x2="-60167.6836" y2="-57277.0742" gradientTransform="matrix(1 0 0 -1 0 1437.8899)">
		<stop  offset="0" style="stop-color:#7546CC"/>
		<stop  offset="1" style="stop-color:#FFFFFF"/>
	</linearGradient>
	
		<path style="opacity:0.43;fill:none;stroke:url(#SVGID_00000090291536161055844840000004724752041168064159_);stroke-linecap:round;enable-background:new    ;" d="
		M1356.7,1438.2c-16.1-2.2-33-3.8-50.6-4.8c-18.2-0.2-36.8-0.2-55.7-0.1c-18.8,0.3-37.4,0.2-55.5-0.6c-17.3-1.3-33.7-3.8-48.8-7.6
		c-13.8-4.9-26.3-11.3-37.2-19.3c-9.7-9.1-18.1-19.7-25.3-31.6c-6.6-12.4-12.7-25.7-18.6-39.4c-6.2-13.4-13-26.7-20.6-39.5
		c-8.8-11.7-19-22.6-30.5-32.5c-13.2-8.5-27.7-16-43.4-22.8c-16.8-5.8-34.1-11.4-51.6-17c-17.4-5.8-34-12.3-49.2-19.9
		c-14.1-8.7-26.4-18.9-36.8-30.7c-8.8-13.3-15.7-28.1-21-44.3c-4.1-17.2-7.1-35.4-9.3-54c-2.1-18.8-4-37.5-6.2-55.9
		c-3-17.6-6.8-34.3-11.5-50c-6-14.5-12.9-27.9-20.8-40.2c-9-11.2-18.6-21.7-28.5-31.6c-10.4-9.3-20.7-18.6-30.5-27.9
		c-9.6-9.5-18.2-19.5-25.7-30.2c-6.6-11.4-11.9-23.7-15.7-36.9c-2.8-14.1-4.2-29.1-4.2-45c0.8-16.6,2.7-33.8,5.5-51.4
		c3.2-18,7-36.2,11.2-54.4c4.1-18.1,8.3-36,12.5-53.6c3.7-17.2,7.2-33.9,10.5-50c2.6-15.6,4.8-30.7,6.8-45.1
		c1.3-14,2.4-27.5,3.3-40.5c0.4-12.7,0.7-25.1,1.1-37.2c0.1-11.9,0.3-23.7,0.9-35.4c0.4-11.7,1.2-23.4,2.5-35.2
		c1.3-11.9,3.2-23.9,5.7-36c2.6-12.3,5.8-24.7,9.7-37.2c4.1-12.7,8.8-25.5,14.1-38.3c5.5-13,11.7-26,18.4-39.1
		c6.9-13.1,14.4-26.2,22.3-39.3c8.1-13.1,16.7-26.1,25.7-39c9.1-12.9,18.6-25.7,28.5-38.4c9.9-12.7,20.1-25.2,30.6-37.4
		c10.5-12.3,21.3-24.5,32.4-36.4"/>
	
		<linearGradient id="SVGID_00000166640197515583522070000014250961118906383012_" gradientUnits="userSpaceOnUse" x1="2663.5623" y1="1113.9146" x2="-84309.2578" y2="-81166.3594" gradientTransform="matrix(1 0 0 -1 0 1437.8899)">
		<stop  offset="0" style="stop-color:#7546CC"/>
		<stop  offset="1" style="stop-color:#FFFFFF"/>
	</linearGradient>
	
		<path style="opacity:0.43;fill:none;stroke:url(#SVGID_00000166640197515583522070000014250961118906383012_);stroke-linecap:round;enable-background:new    ;" d="
		M2338.7,3c14.9,8.9,29.2,18.2,42.8,27.9c13,10.3,24.8,21.3,35.5,33.2c9.8,12.7,18.4,26.2,25.8,40.5c6.7,14.9,12.5,30.5,17.5,46.4
		c4.8,16.1,9.2,32.2,13.3,48.2c4.5,15.7,9,30.9,13.7,45.6c5.3,14,11,27.4,16.8,40.2c6.5,12,13.1,23.5,19.8,34.5
		c7,10.6,13.7,20.9,19.9,31.1c6.2,10.1,11.7,20.3,16.4,30.7c4.2,10.7,7.4,21.8,9.6,33.2c1.5,11.9,2,24.3,1.4,37.2
		c-1.1,13.3-3.1,27-6,41c-3.2,14.3-6.9,28.9-11.1,43.6c-4.2,14.8-8.6,29.7-13.1,44.5c-4.2,14.8-8.3,29.5-12.2,44.2
		c-3.3,14.6-6.4,29-9.1,43.4c-2,14.3-3.7,28.7-5,43c-0.6,14.4-0.9,28.9-0.9,43.6c0.6,14.8,1.4,29.9,2.3,45.2
		c1.4,15.5,2.7,31.3,4.1,47.4c1.6,16.3,2.9,32.8,4,49.6c1.1,16.9,1.8,33.9,1.9,50.9c-0.1,17-0.8,33.9-2.3,50.7
		c-1.9,16.5-4.7,32.6-8.3,48.4c-4.3,15.3-9.6,30-15.9,44c-7.1,13.5-15.2,26.2-24.4,38.1c-9.9,11.3-20.9,21.8-33,31.4
		c-12.6,9.1-26.2,17.5-40.5,25.1c-14.8,7.3-30.2,14-46.2,20.2c-16.1,6.1-32.5,12-49.1,17.7c-16.4,5.9-32.8,11.9-49.1,18
		c-15.7,6.7-31,13.6-45.7,20.8c-14,7.9-27.4,16.3-40.1,25c-12,9.5-23.5,19.4-34.4,29.6c-10.2,10.9-20.1,22.1-29.6,33.4
		c-9.1,11.9-18,23.7-26.9,35.6c-8.8,12.1-17.7,24-26.9,35.6"/>
	
		<linearGradient id="SVGID_00000013910825874474644650000018360465543363223978_" gradientUnits="userSpaceOnUse" x1="2325.9053" y1="1409.1797" x2="1235.4198" y2="460.097" gradientTransform="matrix(1 0 0 -1 0 1437.8899)">
		<stop  offset="0" style="stop-color:#7546CC"/>
		<stop  offset="1" style="stop-color:#FFFFFF"/>
	</linearGradient>
	
		<path style="opacity:0.52;fill:none;stroke:url(#SVGID_00000013910825874474644650000018360465543363223978_);stroke-linecap:round;stroke-dasharray:2,5;enable-background:new    ;" d="
		M2299.5,19.7c13.8,9.3,27.8,18.4,41.9,27.6"/>
	
		<linearGradient id="SVGID_00000134960345209489418750000010658268889631455396_" gradientUnits="userSpaceOnUse" x1="2644.4136" y1="1066.278" x2="-85438.9531" y2="-75595.3516" gradientTransform="matrix(1 0 0 -1 0 1437.8899)">
		<stop  offset="0" style="stop-color:#7546CC"/>
		<stop  offset="1" style="stop-color:#FFFFFF"/>
	</linearGradient>
	
		<path style="opacity:0.52;fill:none;stroke:url(#SVGID_00000134960345209489418750000010658268889631455396_);stroke-linecap:round;stroke-dasharray:2,5;enable-background:new    ;" d="
		M2341.4,47.3c14.1,9.2,27.6,18.6,40.4,28.5c12.2,10.3,23.3,21.3,33.2,33.1c9.1,12.4,16.9,25.7,23.6,39.6c5.9,14.5,10.9,29.5,15,45
		c3.8,15.6,7.2,31.3,10.3,46.9c3.3,15.3,6.6,30.3,10,44.9c4,13.9,8.3,27.3,12.8,40.1c5.2,12.1,10.5,23.6,16,34.6
		c8.8,15.7,25.1,45.5,31.9,60.4c5.6,15.3,11.2,48,11.2,65.7c-0.9,12.4-2.7,25.3-5.4,38.5c-3,13.6-6.7,27.6-10.9,41.8
		c-4.3,14.5-8.9,29.1-13.7,43.9c-4.6,14.9-9.2,29.8-13.6,44.8c-4,15-7.8,30-11.3,45c-2.9,15-5.4,30.1-7.6,45.1
		c-1.5,15.1-2.7,30.3-3.6,45.5c-0.3,15.3-0.4,30.8-0.3,46.4c0.6,15.7,1.2,31.6,1.7,47.6c0.8,16.1,1.5,32.3,1.9,48.5
		c0.4,16.2,0.5,32.5,0,48.6c-0.6,16-1.9,31.8-3.9,47.4c-2.4,15.2-5.6,30-9.6,44.4c-4.6,13.9-10.2,27.2-16.8,39.8
		c-7.2,12-15.4,23.4-24.7,33.9c-9.9,9.9-20.8,19.1-32.6,27.5c-12.4,7.9-25.6,15.1-39.6,21.7c-14.4,6.2-29.3,11.9-44.8,17.2
		c-15.6,5.2-31.5,10.2-47.7,15.1c-16,5.1-32,10.3-47.9,15.6c-15.5,5.9-30.6,12-45.2,18.5c-14.1,7.2-27.6,14.8-40.6,22.8
		c-12.4,8.8-24.3,17.9-35.8,27.5c-10.9,10.2-21.5,20.8-31.8,31.5c-9.9,11.3-19.8,22.7-29.6,34c-9.7,11.7-19.5,23.2-29.6,34.5"/>
	
		<linearGradient id="SVGID_00000147935305537913173310000010924239904762913200_" gradientUnits="userSpaceOnUse" x1="2312.1846" y1="1384.8275" x2="492.2845" y2="-70.6115" gradientTransform="matrix(1 0 0 -1 0 1437.8899)">
		<stop  offset="0" style="stop-color:#7546CC"/>
		<stop  offset="1" style="stop-color:#FFFFFF"/>
	</linearGradient>
	
		<path style="opacity:0.96;fill:none;stroke:url(#SVGID_00000147935305537913173310000010924239904762913200_);stroke-linecap:round;enable-background:new    ;" d="
		M2265.3,31c11.4,10.5,23.5,20.7,35.9,30.5c13.1,9.4,26.3,18.8,39.6,28.2"/>
	
		<linearGradient id="SVGID_00000035489176634630786030000001752807882745934224_" gradientUnits="userSpaceOnUse" x1="1389.744" y1="868.576" x2="-57364.4258" y2="-46119.2305" gradientTransform="matrix(1 0 0 -1 0 1437.8899)">
		<stop  offset="0" style="stop-color:#7546CC"/>
		<stop  offset="1" style="stop-color:#FFFFFF"/>
	</linearGradient>
	
		<path style="opacity:0.96;fill:none;stroke:url(#SVGID_00000035489176634630786030000001752807882745934224_);stroke-linecap:round;enable-background:new    ;" d="
		M1432.3,1425.3c-12.3-7.8-24.9-15.4-37.8-22.6c-13.6-6.5-27.7-12.5-42.5-17.9c-15.5-4.6-31.7-8.6-48.5-12.1
		c-17.5-2.8-35.4-5.2-53.6-7.3c-18.4-1.8-36.8-3.7-55-5.7c-17.8-2.2-34.8-5-51-8.6c-15.2-4.2-29.1-9.5-41.7-15.9
		c-11.3-7.3-21.2-15.8-29.7-25.5c-7.4-10.5-13.8-22-19.3-34.3c-5.1-12.6-9.9-25.6-14.7-38.9c-5.4-12.8-11.3-25.4-18.1-37.5
		c-8.1-11.2-17.5-21.6-28.1-31.3c-12.1-8.6-25.4-16.4-39.8-23.7c-15.3-6.6-31-13.1-46.8-19.6c-15.7-6.7-30.6-13.9-44.3-22
		c-12.6-8.9-23.5-19-32.7-30.3c-7.6-12.5-13.5-26.2-17.7-41.1c-3-15.8-4.7-32.4-5.5-49.6c-0.4-17.4-0.4-35-0.4-52.5
		c-0.5-17-1.5-33.5-3.1-49.2c-2.8-14.9-6.4-28.9-10.9-42c-5.7-12.2-12.2-23.6-19.2-34.3c-7.9-10-15.9-19.7-23.9-29.1
		c-8.2-9.2-15.9-18.6-22.8-28.2c-6.5-9.9-12-20.3-16.3-31.3c-3.5-11.6-5.7-23.9-6.6-36.9c0-13.7,1.3-28,3.6-42.8
		c3.1-15.4,7-31.2,11.7-47.3c5-16.4,10.6-32.9,16.4-49.3c5.8-16.5,11.7-32.8,17.6-48.8c5.5-15.8,10.9-31.3,16.1-46.4
		c4.7-14.8,9.1-29.1,13.2-43.1c3.6-13.6,7-26.8,10.3-39.7c2.8-12.6,5.5-24.8,8.2-36.8c2.4-11.8,4.9-23.4,7.6-34.8
		c2.5-11.3,5.3-22.5,8.4-33.7c3-11.1,6.5-22.2,10.4-33.2c3.9-11,8.4-22,13.3-33c5-11,10.6-22,16.7-33c6.2-11,13-22,20.2-32.9
		c7.4-10.9,15.2-21.8,23.6-32.6c8.4-10.8,17.3-21.5,26.7-32.1c9.4-10.6,19.2-21.1,29.4-31.5"/>
	
		<linearGradient id="SVGID_00000121277121579102255650000008485495242180194444_" gradientUnits="userSpaceOnUse" x1="2622.658" y1="1021.1739" x2="-90188.3672" y2="-73203.1172" gradientTransform="matrix(1 0 0 -1 0 1437.8899)">
		<stop  offset="0" style="stop-color:#7546CC"/>
		<stop  offset="1" style="stop-color:#FFFFFF"/>
	</linearGradient>
	
		<path style="opacity:0.96;fill:none;stroke:url(#SVGID_00000121277121579102255650000008485495242180194444_);stroke-linecap:round;enable-background:new    ;" d="
		M2340.8,89.7c13.3,9.3,26,18.9,38,28.9c11.4,10.3,21.8,21.3,31,32.8c8.4,12.2,15.5,25.1,21.5,38.5c5.2,14,9.4,28.6,12.7,43.4
		c3,15.1,5.4,30.3,7.5,45.5c2.2,15,4.4,29.7,6.6,44c2.8,13.8,5.8,27.1,9,39.8c3.9,12.1,8.1,23.7,12.4,34.7
		c7.2,15.7,21.3,45.2,27.5,59.6c5.3,14.6,11.2,45.5,11.7,62.2c-0.5,11.6-2,23.7-4.2,36.2c-2.7,13-6,26.3-10,39.9
		c-4.1,14.1-8.7,28.4-13.5,42.9c-4.7,14.8-9.6,29.8-14.5,44.9c-4.5,15.3-8.9,30.6-13.1,46c-3.7,15.5-7.1,31.1-10.2,46.7
		c-2.5,15.7-4.7,31.4-6.7,47.2c-1.4,15.8-2.5,31.7-3.5,47.6c-0.5,16-1,31.9-1.4,47.9c-0.2,16-0.5,31.9-1,47.8
		c-0.5,15.7-1.3,31.4-2.6,46.8c-1.4,15.2-3.4,30.1-6.1,44.6c-3,14.1-6.7,27.8-11.2,40.9c-5,12.6-11,24.6-17.8,35.9
		c-7.4,10.8-15.7,20.8-25,30.1c-9.8,8.7-20.6,16.7-32.2,24c-12.1,6.8-24.9,12.9-38.6,18.5c-13.9,5.2-28.4,10.1-43.4,14.5
		c-15.1,4.4-30.5,8.6-46.2,12.7c-15.5,4.4-31.1,8.8-46.8,13.5c-15.2,5.2-30.2,10.6-44.8,16.4c-14.1,6.5-27.8,13.3-41.1,20.6
		c-12.7,8.1-25.1,16.5-37.1,25.4c-11.5,9.5-22.8,19.4-33.8,29.5c-10.7,10.6-21.3,21.4-32,32.2c-10.5,11.1-21.1,22.2-32,33
		c-10.9,10.9-22.2,21.6-33.8,31.8"/>
	
		<linearGradient id="SVGID_00000085224963201145003370000011471549685551549625_" gradientUnits="userSpaceOnUse" x1="2298.0784" y1="1361.9491" x2="194.6229" y2="-181.017" gradientTransform="matrix(1 0 0 -1 0 1437.8899)">
		<stop  offset="0" style="stop-color:#7546CC"/>
		<stop  offset="1" style="stop-color:#FFFFFF"/>
	</linearGradient>
	
		<path style="opacity:0.82;fill:none;stroke:url(#SVGID_00000085224963201145003370000011471549685551549625_);stroke-linecap:round;stroke-dasharray:1,3;enable-background:new    ;" d="
		M2237.8,37.1c8.9,11.6,18.4,23,28.4,34c10.8,10.5,22.1,20.7,33.8,30.6c12.3,9.5,24.8,19,37.2,28.5"/>
	
		<linearGradient id="SVGID_00000029010678778380408930000015197377516720633003_" gradientUnits="userSpaceOnUse" x1="2598.5281" y1="978.6323" x2="-91350.6562" y2="-67936.7344" gradientTransform="matrix(1 0 0 -1 0 1437.8899)">
		<stop  offset="0" style="stop-color:#7546CC"/>
		<stop  offset="1" style="stop-color:#FFFFFF"/>
	</linearGradient>
	
		<path style="opacity:0.82;fill:none;stroke:url(#SVGID_00000029010678778380408930000015197377516720633003_);stroke-linecap:round;stroke-dasharray:1,3;enable-background:new    ;" d="
		M2337.3,130.2c12.5,9.5,24.4,19.1,35.6,29.1c10.7,10.3,20.3,21.1,28.8,32.5c7.7,11.9,14.2,24.4,19.5,37.4
		c4.6,13.6,8.1,27.5,10.7,41.9c2.2,14.6,3.9,29.3,5.1,43.9c1.3,14.6,2.4,28.9,3.6,42.9c1.6,13.6,3.5,26.7,5.6,39.4
		c2.7,12.1,5.7,23.7,8.8,34.8c5.7,15.8,17.5,45.3,22.9,59.5c4.9,14.2,11.2,43.9,12.1,59.6c-0.1,11-1,22.5-2.8,34.3
		c-2.1,12.3-5,25-8.6,38.1c-3.8,13.6-8.1,27.4-12.7,41.7c-4.7,14.6-9.6,29.4-14.7,44.4c-4.9,15.3-9.7,30.8-14.4,46.3
		c-4.4,15.8-8.6,31.6-12.6,47.6c-3.5,16-6.8,32.1-9.8,48.2c-2.6,16.2-4.9,32.3-7.1,48.4c-1.8,16.1-3.5,32.2-5.2,48.1
		c-1.4,15.9-3,31.6-4.7,47.1c-1.6,15.3-3.5,30.5-5.8,45.2c-2.4,14.5-5.3,28.6-8.8,42.2c-3.7,13.2-8.2,25.9-13.3,37.9
		c-5.5,11.6-11.9,22.5-19,32.7c-7.6,9.6-16.1,18.5-25.4,26.8c-9.8,7.7-20.4,14.6-31.8,20.9c-11.8,5.8-24.3,11-37.6,15.7
		c-13.5,4.4-27.5,8.4-42,12.1c-14.6,3.7-29.5,7.1-44.7,10.6c-15.1,3.7-30.3,7.4-45.6,11.4c-15,4.5-29.7,9.2-44.2,14.3
		c-14,5.8-27.8,11.9-41.3,18.5c-13,7.3-25.7,15-38.1,23.1c-12,8.7-23.8,17.8-35.4,27.2c-11.3,9.9-22.6,19.9-33.9,30
		c-11.1,10.4-22.3,20.8-33.7,31c-11.3,10.3-23,20.3-34.9,30"/>
	
		<linearGradient id="SVGID_00000164471805147296583570000012888964040333116605_" gradientUnits="userSpaceOnUse" x1="2272.2881" y1="1357.4974" x2="62.5598" y2="-125.5318" gradientTransform="matrix(1 0 0 -1 0 1437.8899)">
		<stop  offset="0" style="stop-color:#7546CC"/>
		<stop  offset="1" style="stop-color:#FFFFFF"/>
	</linearGradient>
	
		<path style="opacity:0.54;fill:none;stroke:url(#SVGID_00000164471805147296583570000012888964040333116605_);stroke-linecap:round;enable-background:new    ;" d="
		M2195.1,4.2c7.1,11.8,14,23.9,20.8,36.1c7.1,12,14.4,24,22.1,35.9c8.3,11.4,17.2,22.6,26.5,33.5c10.1,10.4,20.8,20.6,31.8,30.5
		c11.6,9.6,23.3,19.2,34.9,28.7"/>
	
		<linearGradient id="SVGID_00000060032192842020117040000009745989369003968170_" gradientUnits="userSpaceOnUse" x1="1455.6959" y1="836.7175" x2="-58584.0742" y2="-39458.1641" gradientTransform="matrix(1 0 0 -1 0 1437.8899)">
		<stop  offset="0" style="stop-color:#7546CC"/>
		<stop  offset="1" style="stop-color:#FFFFFF"/>
	</linearGradient>
	
		<path style="opacity:0.54;fill:none;stroke:url(#SVGID_00000060032192842020117040000009745989369003968170_);stroke-linecap:round;enable-background:new    ;" d="
		M1501.4,1436c-11.4-7.3-22.7-15.1-33.9-23.2c-11.3-8.1-22.7-16.4-34.1-24.7c-11.8-8.1-24-16.1-36.5-24
		c-13.1-7.4-26.7-14.5-40.8-21.2c-14.8-6.2-30.3-12-46.3-17.4c-16.6-4.9-33.6-9.4-51.1-13.7c-17.7-3.9-35.5-7.8-53.2-11.7
		c-17.6-3.8-34.6-8-51.1-12.5c-15.8-4.8-30.6-10.3-44.3-16.5c-12.6-6.8-23.9-14.4-33.9-23c-8.8-9.2-16.4-19.3-22.7-30.2
		c-5.6-11.4-10.3-23.4-14.4-35.8c-4-12.5-7.9-25.2-12-37.9c-4.8-12.2-10.2-24.2-16.5-35.7c-7.5-10.7-16.2-20.9-26-30.4
		c-11.1-8.7-23.3-17-36.2-24.7c-13.8-7.3-27.9-14.5-42.1-21.8c-14.1-7.4-27.3-15.2-39.5-23.6c-11.2-9-20.9-18.9-28.9-29.8
		c-6.6-11.7-11.6-24.4-14.9-38c-2.1-14.3-2.9-29.4-2.6-45c0.8-15.9,2.3-32.1,4-48.2c1.5-16,2.8-31.7,3.7-47c0-14.7-0.6-28.7-2-42.1
		c-2.5-12.6-5.8-24.6-9.8-35.9c-7.7-15.8-25.3-44.6-34.2-58.4c-8.4-13.9-20.7-43.2-24-59.1c-1.1-11.2-1-23,0.2-35.2
		c2-12.7,4.9-25.9,8.9-39.4c4.5-14,9.8-28.2,15.8-42.7c6.2-14.7,12.9-29.5,20-44.2c7-14.9,14.2-29.6,21.5-44.2
		c7-14.5,14-28.8,20.9-42.8c6.5-13.9,12.8-27.4,19-40.6c5.8-13,11.4-25.8,16.9-38.2c5.1-12.2,10.2-24.1,15.2-35.8
		c4.7-11.5,9.5-22.7,14.4-33.7c4.6-10.9,9.5-21.5,14.5-32c4.9-10.4,10.1-20.7,15.7-30.7c5.5-10,11.3-19.9,17.6-29.7
		c6.2-9.7,12.9-19.3,20-28.8c7.1-9.4,14.7-18.8,22.7-28c8-9.2,16.5-18.3,25.4-27.2c8.9-8.9,18.3-17.7,28.1-26.4"/>
	
		<linearGradient id="SVGID_00000178890887742294602790000008832508654434904489_" gradientUnits="userSpaceOnUse" x1="2572.3154" y1="938.6497" x2="-95906.0234" y2="-65153.7578" gradientTransform="matrix(1 0 0 -1 0 1437.8899)">
		<stop  offset="0" style="stop-color:#7546CC"/>
		<stop  offset="1" style="stop-color:#FFFFFF"/>
	</linearGradient>
	
		<path style="opacity:0.54;fill:none;stroke:url(#SVGID_00000178890887742294602790000008832508654434904489_);stroke-linecap:round;enable-background:new    ;" d="
		M2331.1,169c11.7,9.5,22.9,19.2,33.3,29.2c10,10.2,18.9,20.9,26.7,32c7.1,11.6,12.9,23.7,17.6,36.3c4,13,6.9,26.5,8.9,40.3
		c1.6,14,2.5,28.1,2.9,42.3c0.4,14.1,0.7,28.1,0.9,41.7c0.6,13.4,1.4,26.4,2.3,38.9c2.5,17.9,9.7,50.8,14.1,66
		c5,14.5,14.2,42.8,17.8,57c2.8,14.7,4.2,45.9,2.9,62.6c-1.6,11.7-3.9,23.9-6.9,36.5c-3.3,13-7.1,26.4-11.4,40.2
		c-4.4,14.2-9.2,28.7-14.3,43.5c-5,15.1-10.1,30.4-15.2,46c-4.9,15.8-9.7,31.7-14.5,47.7c-4.4,16.1-8.6,32.3-12.7,48.5
		c-3.7,16.3-7.3,32.5-10.8,48.6c-3.1,16.1-6.2,32.1-9.2,48c-2.8,15.7-5.7,31.2-8.7,46.4c-2.9,14.9-6.1,29.6-9.6,43.8
		c-3.6,13.9-7.6,27.2-12,40.1c-4.7,12.4-9.9,24.2-15.8,35.4c-6.2,10.6-13.1,20.6-20.7,29.9c-8,8.7-16.7,16.7-26.2,24
		c-9.9,6.8-20.5,12.8-31.8,18.2c-11.6,5-23.9,9.4-36.8,13.4c-13.1,3.7-26.7,7-40.8,10c-14.1,3-28.6,5.9-43.4,8.7
		c-14.6,3.1-29.4,6.2-44.4,9.6c-14.7,3.8-29.2,7.9-43.5,12.4c-13.9,5-27.7,10.5-41.2,16.3c-13.1,6.5-26,13.4-38.7,20.7
		c-12.3,7.9-24.4,16.1-36.5,24.6c-11.7,9-23.4,18.1-35,27.3c-11.5,9.5-23,19-34.6,28.3c-11.6,9.4-23.3,18.6-35.2,27.4
		c-11.9,8.7-24.1,16.9-36.6,24.6"/>
	
		<linearGradient id="SVGID_00000039122488589782915000000017265586210306782868_" gradientUnits="userSpaceOnUse" x1="2259.5078" y1="1336.1205" x2="-48.1234" y2="-76.1919" gradientTransform="matrix(1 0 0 -1 0 1437.8899)">
		<stop  offset="0" style="stop-color:#7546CC"/>
		<stop  offset="1" style="stop-color:#FFFFFF"/>
	</linearGradient>
	
		<path style="opacity:0.82;fill:none;stroke:url(#SVGID_00000039122488589782915000000017265586210306782868_);stroke-linecap:round;stroke-dasharray:2,1;enable-background:new    ;" d="
		M2176.7,9.7c7.3,10.8,14.1,22,20.4,33.6c6.3,11.7,12.4,23.5,18.5,35.5c6.5,11.8,13.2,23.5,20.2,35.1c7.7,11.2,15.9,22.2,24.7,32.9
		c9.5,10.3,19.4,20.4,29.7,30.3c10.8,9.6,21.7,19.2,32.6,28.8"/>
	
		<linearGradient id="SVGID_00000129191803279650321660000001395069257865981878_" gradientUnits="userSpaceOnUse" x1="1459.2938" y1="797.7452" x2="-56157.4336" y2="-34464.7422" gradientTransform="matrix(1 0 0 -1 0 1437.8899)">
		<stop  offset="0" style="stop-color:#7546CC"/>
		<stop  offset="1" style="stop-color:#FFFFFF"/>
	</linearGradient>
	
		<path style="opacity:0.82;fill:none;stroke:url(#SVGID_00000129191803279650321660000001395069257865981878_);stroke-linecap:round;stroke-dasharray:2,1;enable-background:new    ;" d="
		M1547.1,1438.3c-11.1-4.2-21.9-9.1-32.6-14.8c-10.7-6-21.3-12.5-31.7-19.6c-10.6-7.2-21.2-14.8-31.9-22.6
		c-11-7.8-22.2-15.7-33.7-23.6c-12-7.7-24.4-15.3-37.3-22.7c-13.5-7-27.6-13.9-42.2-20.4c-15.3-6.1-31.1-11.9-47.3-17.4
		c-16.8-5.1-33.8-10.1-51-14.9c-17.4-4.6-34.7-9.3-51.6-14.2c-16.7-4.9-32.7-10.1-48-15.8c-14.5-6-28-12.7-40.3-20
		c-11.2-7.8-21.1-16.5-29.8-25.9c-7.6-9.9-14-20.6-19.4-31.9c-4.7-11.6-8.8-23.7-12.3-36.2c-3.6-12.4-7.1-24.9-10.9-37.3
		c-4.6-12-9.8-23.6-15.9-34.9c-7.3-10.6-15.7-20.6-25.1-30.1c-10.7-8.8-22.2-17.2-34.5-25.2c-13.1-7.6-26.4-15.1-39.7-22.8
		c-13.2-7.7-25.7-15.8-37.1-24.3c-10.5-9.1-19.6-18.9-27.1-29.5c-6.2-11.3-10.7-23.5-13.7-36.5c-1.8-13.7-2.2-27.9-1.5-42.7
		c1.3-15.1,3.3-30.5,5.7-46c2.3-15.4,4.5-30.5,6.5-45.4c1.3-14.4,1.9-28.3,1.9-41.6c-1-12.7-2.8-24.8-5.3-36.3
		c-5.4-16.1-19.4-45.4-26.9-59.2c-7.6-13.6-19.6-41.5-23.2-56.2c-1.8-15.7,0.9-49.7,5.2-68c3.9-12.7,8.6-25.8,14.1-39
		c5.9-13.6,12.4-27.3,19.4-41.2c7.2-14,14.6-28,22.3-41.9c7.6-14,15.4-27.8,23.1-41.5c7.5-13.6,14.9-26.9,22.3-40
		c7-13,13.9-25.7,20.8-38.1c6.5-12.3,12.8-24.3,19.1-35.9c6-11.5,12-22.8,18-33.8c5.8-10.9,11.6-21.5,17.6-31.9
		c5.8-10.3,11.8-20.4,18-30.3c6.1-9.8,12.5-19.4,19.1-28.8c6.6-9.4,13.6-18.6,20.9-27.6c7.3-9,15-17.8,23.1-26.4
		c8.1-8.6,16.6-17.1,25.5-25.4"/>
	
		<linearGradient id="SVGID_00000179608759724955163700000000857658262076660123_" gradientUnits="userSpaceOnUse" x1="2544.2786" y1="901.1918" x2="-102729.6719" y2="-63528.3867" gradientTransform="matrix(1 0 0 -1 0 1437.8899)">
		<stop  offset="0" style="stop-color:#7546CC"/>
		<stop  offset="1" style="stop-color:#FFFFFF"/>
	</linearGradient>
	
		<path style="opacity:0.82;fill:none;stroke:url(#SVGID_00000179608759724955163700000000857658262076660123_);stroke-linecap:round;stroke-dasharray:2,1;enable-background:new    ;" d="
		M2322.7,205.9c10.9,9.6,21.3,19.3,31,29.1c9.2,10.1,17.5,20.6,24.7,31.5c6.5,11.3,11.8,23,16,35.2c3.4,12.6,5.8,25.5,7.3,38.7
		c1,13.4,1.4,27,1.2,40.7c-0.3,13.7-0.8,27.2-1.4,40.5c-0.3,13.1-0.5,25.9-0.6,38.3c1,17.9,5.1,51.1,8.2,66.5
		c3.9,14.8,11.6,43.2,14.9,57.4c2.8,14.4,5.3,44.8,4.6,61c-1,11.3-2.7,23-5.1,35.1c-2.7,12.5-6,25.5-9.8,38.7
		c-4,13.7-8.5,27.8-13.3,42.2c-4.9,14.7-10,29.7-15.3,45c-5.2,15.5-10.5,31.2-15.8,47c-5.1,16-10.2,32-15.2,48
		c-4.8,16.1-9.5,32.2-14.1,48.1c-4.4,15.9-8.8,31.7-13.2,47.2c-4.2,15.4-8.5,30.5-12.9,45.3c-4.3,14.5-8.8,28.6-13.6,42.2
		c-4.8,13.2-10,26-15.6,38.1c-5.7,11.7-11.9,22.7-18.7,33.1c-7,9.8-14.5,19-22.7,27.5c-8.4,7.9-17.5,15.1-27.3,21.6
		c-10,6-20.7,11.3-32,16.1c-11.5,4.3-23.6,8.1-36.3,11.4c-12.8,3.1-26.1,5.8-39.8,8.3c-13.7,2.4-27.8,4.8-42.1,7
		c-14.2,2.5-28.7,5.1-43.3,7.8c-14.3,3.2-28.6,6.7-42.7,10.4c-13.8,4.3-27.4,9-40.9,14.1c-13.1,5.7-26,11.8-38.8,18.2
		c-12.4,7-24.7,14.3-36.8,21.8c-11.9,8-23.7,16.1-35.4,24.3c-11.5,8.5-23.1,17-34.7,25.3c-11.5,8.4-23,16.6-34.6,24.4
		c-11.6,7.7-23.2,15-35,21.7c-11.8,6.4-23.6,12.3-35.6,17.4c-11.9,4.7-23.9,8.6-35.9,11.7"/>
	
		<linearGradient id="SVGID_00000150792997435456777470000002189372508493624704_" gradientUnits="userSpaceOnUse" x1="2247.0413" y1="1314.9717" x2="-235.6441" y2="-64.7482" gradientTransform="matrix(1 0 0 -1 0 1437.8899)">
		<stop  offset="0" style="stop-color:#7546CC"/>
		<stop  offset="1" style="stop-color:#FFFFFF"/>
	</linearGradient>
	
		<path style="opacity:0.1;fill:none;stroke:url(#SVGID_00000150792997435456777470000002189372508493624704_);stroke-linecap:round;enable-background:new    ;" d="
		M2157,18.3c8,9.5,15.3,19.6,22,30.1c6.3,10.7,12.2,21.8,17.7,33.2c5.5,11.4,10.9,23,16.4,34.6c5.9,11.4,12,22.8,18.4,34.1
		c7.2,10.9,14.8,21.7,22.9,32.2c8.8,10.2,18.1,20.1,27.6,30c10.1,9.6,20.2,19.1,30.3,28.7"/>
	
		<linearGradient id="SVGID_00000094576977463172558630000007015942018624046008_" gradientUnits="userSpaceOnUse" x1="2227.4475" y1="1308.5668" x2="-2711.8374" y2="-1170.5454" gradientTransform="matrix(1 0 0 -1 0 1437.8899)">
		<stop  offset="0" style="stop-color:#7546CC"/>
		<stop  offset="1" style="stop-color:#FFFFFF"/>
	</linearGradient>
	
		<path style="opacity:0.71;fill:none;stroke:url(#SVGID_00000094576977463172558630000007015942018624046008_);stroke-linecap:round;stroke-dasharray:5,4;enable-background:new    ;" d="
		M2105.3,8.1c10.9,6.9,21.1,14.3,30.5,22.3c8.9,8.3,17,17,24.4,26.3c6.9,9.6,13.1,19.6,18.7,30c5.4,10.6,10.4,21.4,15.1,32.6
		c4.8,11.1,9.6,22.3,14.4,33.6c5.3,11.1,10.9,22.1,16.8,33c6.6,10.6,13.7,21.1,21.2,31.4c8.2,10,16.8,19.8,25.7,29.6
		c9.3,9.5,18.8,19,28.1,28.5"/>
	
		<linearGradient id="SVGID_00000161595805584897683870000018405954674338994336_" gradientUnits="userSpaceOnUse" x1="2318.0825" y1="1163.5685" x2="-136144.2188" y2="-68333.0391" gradientTransform="matrix(1 0 0 -1 0 1437.8899)">
		<stop  offset="0" style="stop-color:#7546CC"/>
		<stop  offset="1" style="stop-color:#FFFFFF"/>
	</linearGradient>
	
		<path style="opacity:0.71;fill:none;stroke:url(#SVGID_00000161595805584897683870000018405954674338994336_);stroke-linecap:round;stroke-dasharray:5,4;enable-background:new    ;" d="
		M2300.2,275.4c9.4,9.5,18.3,19.1,26.6,28.8c7.9,9.9,14.9,20,21,30.4c5.4,10.7,9.7,21.7,13,33c2.6,11.6,4.2,23.5,4.8,35.7
		c0.2,12.4-0.4,24.9-1.6,37.5c-1.3,12.7-3.1,25.4-5,37.9c-1.8,12.5-3.6,24.8-5.3,36.9c-1.8,17.7-3.3,51.2-2.9,67
		c1.4,15.3,5.4,44.9,7.7,59.3c2.3,14.5,5.4,44.3,5.8,59.9c-0.1,10.7-0.7,21.7-2,33c-1.5,11.6-3.6,23.6-6.3,35.9
		c-2.9,12.6-6.4,25.6-10.4,38.9c-4.2,13.6-8.9,27.5-13.9,41.6c-5.2,14.4-10.7,28.9-16.5,43.6c-5.8,14.9-11.8,29.8-18.1,44.8
		c-6.2,15-12.5,30-19,44.8c-6.4,14.8-12.9,29.4-19.5,43.8c-6.6,14.2-13.3,28-20.1,41.5c-6.8,13.2-13.8,25.9-21,38.2
		c-7.2,11.9-14.8,23.2-22.5,33.8c-7.9,10.2-16,19.8-24.6,28.8c-8.7,8.4-17.7,16.2-27.2,23.2c-9.6,6.6-19.7,12.5-30.1,17.7
		c-10.6,4.8-21.7,9-33.2,12.6c-11.6,3.3-23.6,6.1-36,8.4c-12.5,2.1-25.3,4-38.4,5.5c-13.1,1.5-26.5,2.9-40.1,4.2
		c-13.5,1.5-27.2,3-41,4.7c-13.6,2-27.2,4.2-40.6,6.7c-13.2,2.9-26.3,6.1-39.2,9.6c-12.7,4-25.1,8.3-37.5,12.8
		c-12,5.1-23.9,10.3-35.7,15.8c-11.5,5.9-22.8,11.8-34,17.8c-11,6.3-21.8,12.5-32.5,18.6c-10.5,6.2-21,12.2-31.3,17.8
		c-15.2,8.2-45.1,22.2-59.6,27.6c-14.3,4.3-42.4,8.9-56.1,9c-13.5-1.2-40.2-7.7-53.4-12.9c-13.4-6.3-40.8-22-55-31
		c-10-6.2-20.2-12.7-30.8-19.4c-11.1-6.6-22.6-13.4-34.6-20.2c-12.6-6.6-25.6-13.3-39.1-19.9c-14.1-6.4-28.7-12.7-43.7-18.9
		c-15.4-6-31.2-12-47.1-18c-16.1-5.8-32.2-11.8-48.1-17.8c-15.7-6.1-31.1-12.4-45.8-18.9c-14.2-6.8-27.6-14-40-21.6
		c-11.6-8-22-16.5-31.4-25.5c-8.4-9.4-15.6-19.4-21.7-29.9c-5.3-10.8-9.8-22.1-13.4-33.8c-3.3-11.8-6.2-23.8-8.8-36
		c-2.9-12-6-24-9.3-35.8c-4.2-11.4-9.1-22.6-14.8-33.4c-6.8-10.3-14.5-20.1-23.1-29.6c-9.7-9-20.1-17.7-31.1-26.1
		c-11.6-8.1-23.4-16.3-35.2-24.4c-11.6-8.2-22.6-16.7-32.6-25.4c-9.2-9.1-17.2-18.8-23.7-28.9c-5.4-10.7-9.2-22-11.6-33.8
		c-1.3-12.4-1.2-25.2,0-38.5c1.9-13.6,4.6-27.4,8-41.4c3.4-14,7.1-28,10.7-41.7c3.2-13.6,6.1-26.8,8.5-39.6
		c2.1-18.5,1.9-52.4-0.4-68c-3.8-14.6-13.3-42.1-18.2-55.4c-4.7-13.2-11.1-40.2-12.2-54.3c0.4-14.7,6.5-46,12.1-62.4
		c4.5-11.4,9.8-22.9,15.8-34.7c6.4-12,13.3-24.1,20.7-36.2c7.6-12.3,15.6-24.7,23.9-37c8.3-12.4,16.8-24.7,25.4-36.9
		c8.5-12.2,17.1-24.2,25.7-36c8.4-11.8,16.9-23.4,25.3-34.7c8.2-11.3,16.4-22.3,24.5-33c8-10.7,15.9-21.1,23.9-31.2
		c7.8-10,15.6-19.8,23.5-29.4c7.8-9.4,15.7-18.6,23.7-27.5c7.9-8.9,16-17.4,24.3-25.8c8.3-8.3,16.7-16.3,25.5-24.1
		c8.7-7.7,17.7-15.2,26.9-22.5"/>
	
		<linearGradient id="SVGID_00000083779235250278124000000014270025863291287720_" gradientUnits="userSpaceOnUse" x1="2210.9009" y1="1299.0023" x2="-6749.3008" y2="-2735.1187" gradientTransform="matrix(1 0 0 -1 0 1437.8899)">
		<stop  offset="0" style="stop-color:#7546CC"/>
		<stop  offset="1" style="stop-color:#FFFFFF"/>
	</linearGradient>
	
		<path style="opacity:0.28;fill:none;stroke:url(#SVGID_00000083779235250278124000000014270025863291287720_);stroke-linecap:round;stroke-dasharray:3,4;enable-background:new    ;" d="
		M2045.5,9.8c12.4,5.1,24.4,10.6,36,16.4c11.2,6,21.9,12.5,32,19.4c14,11,37.7,35.7,47.4,49.4c8.4,14.4,22.4,45.2,28.6,61.3
		c4.2,10.7,8.4,21.6,12.7,32.4c4.8,10.7,9.8,21.3,15.3,31.9c6.1,10.3,12.6,20.5,19.6,30.5c7.6,9.8,15.5,19.4,23.8,29
		c8.6,9.4,17.3,18.8,26,28.3"/>
	
		<linearGradient id="SVGID_00000114759072534599235230000017683174371661375622_" gradientUnits="userSpaceOnUse" x1="2192.4656" y1="1297.012" x2="-14037.3545" y2="-5201.1182" gradientTransform="matrix(1 0 0 -1 0 1437.8899)">
		<stop  offset="0" style="stop-color:#7546CC"/>
		<stop  offset="1" style="stop-color:#FFFFFF"/>
	</linearGradient>
	
		<path style="opacity:0.28;fill:none;stroke:url(#SVGID_00000114759072534599235230000017683174371661375622_);stroke-linecap:round;stroke-dasharray:1,3;enable-background:new    ;" d="
		M1950.7,6.3c23.8,7.6,47.9,16,72,25.2c24,9.4,46.8,20,68,32c19.6,12.8,36.7,27.2,51.1,43.3c12.4,17,22.4,35.5,30.4,55.3
		c7.6,20,14.7,40.7,21.9,61.8c6.6,15.4,22.5,45.6,31.9,60.3c7,9.5,14.4,19,21.9,28.5c8,9.3,16,18.6,23.9,27.9"/>
	
		<linearGradient id="SVGID_00000160192715884131435650000004843869779177541513_" gradientUnits="userSpaceOnUse" x1="2292.5933" y1="1086.9316" x2="-131421.1875" y2="-52449.6797" gradientTransform="matrix(1 0 0 -1 0 1437.8899)">
		<stop  offset="0" style="stop-color:#7546CC"/>
		<stop  offset="1" style="stop-color:#FFFFFF"/>
	</linearGradient>
	
		<path style="opacity:0.28;fill:none;stroke:url(#SVGID_00000160192715884131435650000004843869779177541513_);stroke-linecap:round;stroke-dasharray:1,3;enable-background:new    ;" d="
		M2271.9,340.5c8,9.3,15.5,18.7,22.5,28.2c9.6,14.4,23.9,44.5,28.2,60.3c1.9,10.8,2.9,21.8,3.1,33c-1.3,23-5.1,46.4-10.8,70
		c-5.5,23.5-11.2,46.7-16.5,69.2c-3.4,22-5.7,43.2-7.1,63.8c0.5,20.2,1.4,40.2,2.1,60.1c1.4,20.2,1.7,40.8,0.5,62.1
		c-1.8,22.1-5.5,45-11.2,68.7c-6.8,24.7-15.6,50-26.1,75.8c-11.4,26.3-24.2,52.5-38.2,78.4c-14.5,25.6-30.1,50.3-46.5,73.6
		c-16.8,22.3-34.4,42.7-52.9,60.9c-18.9,16.7-38.7,31-59.5,42.6c-21.2,10.1-43.5,17.9-66.8,23.3c-11.7,2.4-23.7,4.3-35.9,5.7
		c-12.2,1.4-24.6,2.4-37.2,3.1c-12.5,0.8-25.2,1.4-38.1,1.9c-12.8,0.7-25.6,1.3-38.5,1.9c-12.7,1-25.4,2.1-37.8,3.2
		c-12.3,1.6-24.4,3.4-36.4,5.3c-17.5,3.7-51.2,12.6-67.4,17.7c-20.8,8-40.7,16.1-59.8,23.8c-18.4,8.5-36.1,16-52.9,22.1
		c-16.5,6-32.5,10-47.8,12.1c-15.5,1.2-30.7,0.2-45.9-3.1c-16-4.2-32.4-10.3-49.6-18.3c-18.8-8.4-38.8-18.2-60.4-29
		c-23.6-10.8-48.9-22.2-75.6-34.2c-28.2-11.8-57-24.1-85.8-37.1c-28.3-13.2-54.9-27.5-79-43c-21.4-16.4-39.1-34.4-52.7-54.1
		c-10.7-20.6-18.1-42.6-22.9-65.5c-4.5-22.9-8.9-46-14.4-68.7c-3.9-10.9-8.4-21.5-13.7-31.9c-6.3-10-13.3-19.7-21.1-29.2
		c-8.6-9.1-17.9-18-27.6-26.8c-10.2-8.5-20.5-17.1-30.6-25.7c-10.1-8.6-19.6-17.3-28.2-26.2c-11.4-13.9-26.7-43.7-30.3-59.9
		c-0.9-11.3-0.6-22.9,0.8-34.7c5-24.6,12.8-49.7,22.2-74.7c8.7-24.9,16.6-48.8,22.9-71.5c3.2-21.6,4.4-41.9,3.9-60.8
		c-3-18.2-6.4-35.6-9.5-52.6c-3.3-17.1-4.7-34.3-3.7-51.9c2.4-18.4,7.7-37.3,15.9-56.7c9.8-20.3,22.2-41,36.6-61.8
		c15.4-21.5,32.2-42.8,50-63.7c18-21.2,36.4-41.7,55.2-61.5c18.5-19.7,37.1-38.4,55.9-56.2c18.4-17.5,37.1-33.9,56-49.2
		c18.7-15,37.9-28.9,57.6-41.7"/>
	
		<linearGradient id="SVGID_00000017490996713155475830000015848484452219577533_" gradientUnits="userSpaceOnUse" x1="2181.5574" y1="1278.4045" x2="-18427.0898" y2="-5978.2104" gradientTransform="matrix(1 0 0 -1 0 1437.8899)">
		<stop  offset="0" style="stop-color:#7546CC"/>
		<stop  offset="1" style="stop-color:#FFFFFF"/>
	</linearGradient>
	
		<path style="opacity:0.64;fill:none;stroke:url(#SVGID_00000017490996713155475830000015848484452219577533_);stroke-linecap:round;enable-background:new    ;" d="
		M1901,19.6c21.2,6.9,43.2,14.4,65.7,22.4c23.1,7.9,46.3,16.5,68.9,26.1c22.1,9.8,42.8,20.9,61.6,33.3
		c17.1,13.1,31.7,27.7,43.7,43.8c10.3,16.8,18.4,34.9,24.9,54c6.4,19.3,12.4,39.1,18.8,59.2c8.4,19.5,18,38.9,29.2,58.1
		c13.4,18.5,27.7,36.9,42.1,55.4"/>
	
		<linearGradient id="SVGID_00000145023768967224634080000012949903646964724365_" gradientUnits="userSpaceOnUse" x1="2278.3079" y1="1051.4164" x2="-128781.9922" y2="-45096.8906" gradientTransform="matrix(1 0 0 -1 0 1437.8899)">
		<stop  offset="0" style="stop-color:#7546CC"/>
		<stop  offset="1" style="stop-color:#FFFFFF"/>
	</linearGradient>
	
		<path style="opacity:0.64;fill:none;stroke:url(#SVGID_00000145023768967224634080000012949903646964724365_);stroke-linecap:round;enable-background:new    ;" d="
		M2255.9,372c14.5,18.5,27,37.2,36.6,56.5c7.5,19.9,11.4,40.6,11.9,61.9c-1.7,22.1-6,44.6-12.1,67.3c-6.3,22.8-13.1,45.4-19.7,67.6
		c-4.9,21.9-9,43.2-12.1,63.9c-1.2,20.5-1.8,40.7-2.3,60.8c0.5,20.2,0.3,40.7-0.9,61.5c-1.5,21.4-4.7,43.4-9.7,65.9
		c-5.9,23.2-13.8,46.8-23.5,70.7c-10.7,24.2-23,48.3-36.7,71.9c-14.5,23.3-30.2,45.7-47,66.6c-17.3,20.1-35.6,38.3-54.7,54.5
		c-19.6,14.8-40,27.3-61.3,37.5c-21.6,8.8-44.1,15.3-67.3,19.7c-23.4,3.6-47.4,5.6-71.9,6.3c-24.4,0.9-49.1,1.2-73.9,1.3
		c-24.4,1.4-48.1,3-71,5.1c-22.3,3.8-43.7,8.1-64.1,12.9c-19.8,6.2-38.6,12.4-56.5,18.4c-17.4,6.8-34,12.7-49.8,17.5
		c-15.6,4.8-30.7,8.1-45.3,9.6c-14.9,1-29.8,0.1-44.9-2.8c-16.1-3.5-32.8-8.8-50.5-15.6c-19.3-7.3-39.9-15.9-62-25.6
		c-23.8-9.8-49-20.5-75.2-32c-27.1-11.6-54.3-24-80.8-37.3c-25.6-13.8-49.2-28.8-69.9-45c-18.1-17.2-32.7-35.7-43.5-55.7
		c-8.4-20.7-14-42.5-17.6-65c-3.8-22.4-7.7-44.7-12.9-66.7c-8.4-20.8-19.4-40.9-33.1-60c-17-18-35.5-35.6-54.2-53
		c-18.4-17.6-33.7-35.7-44.9-54.6c-7.6-20.1-10.2-41.3-8.1-63.6c5.1-23.2,13.1-46.9,23.1-70.7c9.7-23.7,19-46.7,27.2-68.8
		c5.5-21.3,9.1-41.4,11-60.3c-0.6-18.3-2.1-35.7-3.7-52.6c-2.4-16.8-3.5-33.5-2.9-50.2c1.5-17.3,5.5-34.9,12.1-52.8
		c8.1-18.7,18.7-37.6,31.4-56.7c14-19.7,29.6-39.3,46.5-58.6c17.5-19.6,35.8-38.7,54.6-57.1c18.9-18.4,38.1-36,57.5-52.7
		c19.2-16.5,38.7-31.9,58.4-46.2c19.5-14.1,39.4-27,59.6-38.8"/>
	
		<linearGradient id="SVGID_00000179607505178892481290000013795862215959015820_" gradientUnits="userSpaceOnUse" x1="2166.5974" y1="1272.8956" x2="-26955.0918" y2="-7614.7695" gradientTransform="matrix(1 0 0 -1 0 1437.8899)">
		<stop  offset="0" style="stop-color:#7546CC"/>
		<stop  offset="1" style="stop-color:#FFFFFF"/>
	</linearGradient>
	
		<path style="opacity:0.61;fill:none;stroke:url(#SVGID_00000179607505178892481290000013795862215959015820_);stroke-linecap:round;enable-background:new    ;" d="
		M1803.1,16c17.7,5.7,35.6,11.9,53.8,18.7c19.2,6.3,39,13.2,59.4,20.6c21.3,7,43,14.6,64.9,22.9c22.2,8.2,43.9,17.2,64.8,27.2
		c20.1,10.3,38.5,21.7,54.8,34.4c14.6,13.3,26.9,27.9,36.6,43.9c8.3,16.4,14.9,34,20,52.4c5.3,18.4,10.5,37.4,16.1,56.6
		c7.6,18.7,16.5,37.4,26.7,56c12.3,18,25.4,36.1,38.5,54.3"/>
	
		<linearGradient id="SVGID_00000111908924136110235210000010139843913104484525_" gradientUnits="userSpaceOnUse" x1="2241.1997" y1="989.2095" x2="-121859.8984" y2="-31203.8066" gradientTransform="matrix(1 0 0 -1 0 1437.8899)">
		<stop  offset="0" style="stop-color:#7546CC"/>
		<stop  offset="1" style="stop-color:#FFFFFF"/>
	</linearGradient>
	
		<path style="opacity:0.77;fill:none;stroke:url(#SVGID_00000111908924136110235210000010139843913104484525_);stroke-linecap:round;stroke-dasharray:2,4;enable-background:new    ;" d="
		M2220.4,433.5c12,17.9,22.3,36,30.1,54.4c6.1,18.9,9,38.2,8.8,58c-2.2,20.3-7,41.1-13.8,62.1c-7.5,21.2-15.8,42.5-24.5,63.6
		c-7.7,21.1-14.8,41.9-21.3,62.5c-4.8,20.4-8.8,40.6-12.3,60.5c-2.2,19.9-4.5,39.9-7,59.7c-2.2,20.1-5.4,40.2-9.9,60.4
		c-4.9,20.4-11.3,40.7-19.4,60.9c-8.9,20.1-19.5,39.8-31.7,58.8c-13,18.6-27.5,36.1-43.3,52.3c-16.5,15.4-34.1,29.2-52.6,41.1
		c-19.1,10.9-39,19.8-59.7,26.7c-21,5.9-42.5,10-64.6,12.2c-22.2,1.7-44.7,2.1-67.4,1.3c-22.7-0.5-45.3-1.7-67.9-3.2
		c-22.3-0.5-43.9-0.8-64.5-0.9c-20.3,1.3-39.8,3-58.3,4.9c-18.2,3.2-35.5,6.5-52,9.6c-16.3,4-32,7.5-47.1,10.2
		c-15.3,3.1-30.3,5.1-45.3,5.9c-15.5,0.7-31.4,0-47.7-2.1c-17.4-2.4-35.5-6.3-54.6-11.6c-20.3-5.7-41.7-12.6-63.9-20.8
		c-23.1-8.6-46.7-18.3-70.3-29.1c-23.4-11.3-46-23.8-67-37.5c-19.5-14.3-36.5-29.8-50.7-46.6c-11.9-17.4-20.8-36-26.8-55.5
		c-4.6-19.9-7.4-40.4-9.2-61.4c-2.6-20.7-5.9-41.4-10.7-61.8c-7.6-19.6-17.5-38.8-29.6-57.4c-14.7-18-30.4-35.7-46.2-53.5
		c-15.5-17.8-28.3-35.7-37.7-54c-6.5-19-8.5-38.6-6.4-58.7c4.9-20.8,12.9-42,23.2-63.1c10.8-21.3,22-42.3,32.9-62.7
		c9.2-20.1,17.1-39.4,23.5-57.9c4.1-18,6.9-35.3,9-52c0.6-16.5,1.3-32.5,2.7-48.2c1.3-15.9,4-31.7,8.5-47.5
		c5.3-16.1,12.7-32.3,22.1-48.4c10.5-16.5,22.8-32.8,36.8-48.9c14.8-16.3,30.9-32.3,48.1-47.7c17.6-15.4,36-30.2,54.9-44.2
		c19.1-13.8,38.6-26.8,58.4-38.7c19.8-11.7,39.9-22.3,60.2-31.8c20.3-9.2,40.8-17.3,61.4-24.2c20.7-6.6,41.6-12,62.6-16.2
		c21-4,41.7-6.7,62-8.2c20.3-1.4,40.1-1.7,59.5-0.9c19.3,0.8,38.2,2.5,56.5,5.3c18.3,2.6,36.2,6,53.6,10.3
		c17.5,4,34.7,8.7,51.7,14.2c17.3,5.1,34.6,10.8,51.9,17c18,5.9,36.3,12.3,55.1,19.1c19.5,6.5,39.5,13.5,59.9,21.1
		c21,7.3,42.1,15.2,63,23.8c20.8,8.6,40.9,18,59.8,28.4c17.8,10.7,33.8,22.4,47.7,35.3c12.3,13.3,22.2,27.9,30,43.5
		c6.6,16,11.8,32.9,15.8,50.5c4.4,17.6,8.9,35.7,13.9,54c6.9,17.9,15.1,35.9,24.4,53.9C2196.6,397.8,2208.5,415.5,2220.4,433.5"/>
	
		<linearGradient id="SVGID_00000160885784431679849610000004485755880921207173_" gradientUnits="userSpaceOnUse" x1="2199.1277" y1="929.9808" x2="-113543.375" y2="-18804.2148" gradientTransform="matrix(1 0 0 -1 0 1437.8899)">
		<stop  offset="0" style="stop-color:#7546CC"/>
		<stop  offset="1" style="stop-color:#FFFFFF"/>
	</linearGradient>
	
		<path style="opacity:0.97;fill:none;stroke:url(#SVGID_00000160885784431679849610000004485755880921207173_);stroke-linecap:round;enable-background:new    ;" d="
		M2180.1,493.3c9.7,17.2,17.9,34.6,24.1,52.1c4.7,17.8,6.8,35.9,6.1,54.2c-2.5,18.7-7.4,37.7-14.5,56.9c-8,19.4-17.2,38.9-27.1,58.5
		c-9.6,19.6-19.1,39.1-28.4,58.5c-8,19.4-15.5,38.5-22.4,57.5c-5.6,18.9-11,37.6-16.1,56.1c-4.4,18.4-9.2,36.6-14.5,54.4
		c-5.2,17.7-11.4,35-18.7,51.7c-7.7,16.4-16.7,32.1-27,46.9c-10.9,14.3-23.2,27.4-36.6,39.3c-14.1,11.1-29.3,20.8-45.5,28.8
		c-16.7,7.2-34.2,12.8-52.5,16.8c-18.6,3.2-37.8,4.9-57.4,5.2c-19.8,0-39.8-1.2-60-3.3c-20.2-1.9-40.5-4.3-60.7-7.1
		c-20.1-1.9-39.6-3.8-58.5-5.6c-18.7-0.6-36.8-1-54.3-1.2c-17.3,0.9-34.2,1.9-50.5,2.8c-16.4,1.8-32.5,3.2-48.5,4.3
		c-16.2,1.5-32.5,2.2-48.9,2.2c-17,0-34.3-1-52.2-3.1c-18.5-2.3-37.6-5.8-57.2-10.5c-20.1-5.1-40.6-11.4-61.1-18.9
		c-20.5-8-40.6-17.2-59.8-27.7c-18.3-10.9-35.1-23.1-50-36.4c-13.2-13.8-24.1-28.8-32.4-44.7c-6.7-16.4-11.1-33.6-13.6-51.5
		c-1.9-18.1-3-36.7-3.7-55.5c-2-18.7-4.9-37.4-9.2-56.1c-6.9-18.3-15.5-36.3-25.8-54.2c-12.3-17.5-25.4-35.1-38.2-52.6
		c-12.7-17.6-23.1-35.2-30.7-52.7c-5.3-18-6.9-36.1-4.8-54.4c4.5-18.7,12-37.5,21.9-56.3c10.9-19,22.9-37.7,35.2-56.1
		c11.5-18.4,22.5-36.2,32.5-53.6c8.2-17.2,15.3-33.8,21.4-49.8c4.5-15.9,8.5-31.4,12.3-46.4c3-15,6.6-29.7,11-44.1
		c4.5-14.5,10.2-28.7,17.3-42.7c7.7-14.1,17-27.9,27.7-41.3c11.4-13.5,24.3-26.6,38.3-39.1c14.6-12.5,30.3-24.4,46.8-35.5
		c16.8-11,34.4-21.2,52.4-30.4c18.2-9.1,36.9-17.2,55.8-24.2c19-6.8,38.2-12.5,57.6-17.1c19.4-4.4,39-7.6,58.6-9.7
		c19.6-1.9,38.9-2.7,57.7-2.3c18.8,0.4,37.2,1.8,55.2,4.2c18.1,2.3,35.8,5.5,53.1,9.4c17.5,3.8,34.7,8.4,51.8,13.6
		c17.3,4.9,34.6,10.5,51.8,16.6c17.7,5.8,35.5,12.2,53.5,19c18.5,6.5,37.2,13.5,56.1,21c19.3,7.2,38.6,14.9,57.8,23.2
		c19.2,8.1,37.8,16.9,55.7,26.3c17.2,9.4,33.2,19.7,47.6,30.7c13.2,11.2,24.5,23.2,33.8,36.1c8,13.1,14.2,27,18.7,41.8
		c3.9,14.8,6.9,30.3,9.3,46.3c3.1,15.9,6.5,32.3,10.6,48.9c5.8,16.4,12.6,33,20.3,49.9C2160.8,459.2,2170.5,476.1,2180.1,493.3"/>
	
		<linearGradient id="SVGID_00000078012374932598731220000009630098484535326648_" gradientUnits="userSpaceOnUse" x1="2151.5691" y1="879.0012" x2="-104038.1875" y2="-8041.311" gradientTransform="matrix(1 0 0 -1 0 1437.8899)">
		<stop  offset="0" style="stop-color:#7546CC"/>
		<stop  offset="1" style="stop-color:#FFFFFF"/>
	</linearGradient>
	
		<path style="opacity:0.13;fill:none;stroke:url(#SVGID_00000078012374932598731220000009630098484535326648_);stroke-linecap:round;stroke-dasharray:2,5;enable-background:new    ;" d="
		M2134.6,550.6c7.6,16.4,13.9,32.8,18.5,49.4c3.5,16.6,4.7,33.4,3.6,50.3c-2.6,17.1-7.5,34.2-14.4,51.5
		c-7.9,17.4-17.3,34.8-27.7,52.3c-10.6,17.5-21.6,35-32.7,52.4c-10.4,17.4-20.7,34.6-30.5,51.5c-8.9,16.9-17.4,33.6-25.6,49.8
		c-7.3,16.2-14.6,31.9-22,47c-6.9,14.9-14.1,29.2-21.9,42.8c-7.7,13.1-16.1,25.4-25.4,36.7c-9.5,10.7-19.9,20.4-31.2,28.7
		c-11.6,7.7-24.2,14.2-37.7,19.2c-13.7,4.4-28.3,7.4-43.6,9.1c-15.5,1.2-31.5,1.1-48.2-0.2c-16.7-1.4-33.8-3.7-51.3-6.8
		c-17.5-2.9-35.2-6.3-53.2-10c-17.9-3.1-35.6-6.2-53-9.2c-17.3-2.2-34.4-4.2-51.3-6.1c-16.9-1-33.6-2-50.2-3
		c-16.7-0.3-33.4-0.8-50.1-1.5c-17-0.3-34.1-1.2-51.3-2.6c-17.6-1.3-35.3-3.3-53.2-6.2c-18.1-3-36.3-6.9-54.3-11.9
		c-18-5.2-35.5-11.5-52.4-18.9c-16.3-7.7-31.6-16.5-45.5-26.4c-12.8-10.2-23.9-21.5-33-33.7c-7.8-12.5-13.6-26-17.6-40.2
		c-3-14.4-4.5-29.6-4.9-45.2c-0.5-15.8-0.7-32-1.1-48.5c-1.8-16.5-4.5-33.2-8.4-50c-6-16.7-13.4-33.4-21.9-50.3
		c-10.1-16.7-20.5-33.6-30.7-50.5c-10-17-18.1-33.8-24-50.5c-4.1-16.8-5.2-33.5-3.3-50.1c4-16.8,10.8-33.5,19.8-50.1
		c10.3-16.7,22-33.2,34.7-49.4c12.5-16.3,25.1-32.3,37.4-47.9c11.2-15.6,21.7-30.8,31.4-45.6c8.3-14.8,16-29.2,23.1-43.1
		c6.1-14,12.1-27.5,18.2-40.7c5.6-13.2,11.7-25.9,18.5-38.2c6.8-12.3,14.6-24.2,23.4-35.5c9.1-11.3,19.3-22.1,30.6-32.2
		c11.6-10.1,24.2-19.5,37.8-28.1c13.8-8.5,28.5-16.2,43.8-23.1c15.5-6.6,31.6-12.4,48.2-17.2c16.7-4.5,33.8-8.1,51.2-10.7
		c17.4-2.3,35.2-3.7,53.1-3.9c18-0.1,35.7,0.8,53.2,2.6c17.5,1.9,34.8,4.7,51.9,8.3c17.2,3.6,34.2,7.9,51.1,12.9
		c17,4.9,34,10.4,51,16.5c17.2,5.9,34.4,12.4,51.6,19.3c17.5,6.7,35,13.9,52.5,21.6c17.7,7.4,35.3,15.3,52.7,23.7
		c17.4,8.2,34.3,16.8,50.5,26c15.8,9,30.8,18.6,44.5,28.7c12.9,10.1,24.3,20.7,34.2,32c8.8,11.2,16,23.1,21.5,35.6
		c4.7,12.5,8.1,25.5,10.3,39.1c2.2,13.6,3.9,27.6,5.3,42.2c2.4,14.4,5.1,29.3,8.4,44.5c4.8,15.1,10.5,30.5,16.7,46.2
		C2119.4,518.2,2127.1,534.2,2134.6,550.6"/>
	
		<linearGradient id="SVGID_00000047780972639209758810000011451553036335305919_" gradientUnits="userSpaceOnUse" x1="2126.0579" y1="856.7534" x2="-98907.2578" y2="-3312.4517" gradientTransform="matrix(1 0 0 -1 0 1437.8899)">
		<stop  offset="0" style="stop-color:#7546CC"/>
		<stop  offset="1" style="stop-color:#FFFFFF"/>
	</linearGradient>
	
		<path style="opacity:0.9;fill:none;stroke:url(#SVGID_00000047780972639209758810000011451553036335305919_);stroke-linecap:round;enable-background:new    ;" d="
		M2109.7,577.6c6.6,15.9,12,31.8,15.9,47.8c2.9,16,3.8,32.1,2.5,48.2c-2.6,16.2-7.4,32.4-14.1,48.6c-7.7,16.3-16.9,32.6-27.3,48.9
		c-10.7,16.3-22,32.5-33.6,48.6c-11.2,16.1-22.4,32-33.4,47.7c-10.2,15.6-20,30.9-29.6,45.8c-8.8,14.8-17.4,29.1-25.9,42.8
		c-8,13.5-16.1,26.3-24.5,38.3c-8.2,11.6-16.8,22.4-26,32.1c-9.2,9.2-19.1,17.3-29.8,24.3c-10.8,6.4-22.4,11.5-34.7,15.3
		c-12.5,3.3-25.7,5.3-39.6,6.1c-14,0.4-28.7-0.3-43.8-2.1c-15.2-1.9-31-4.7-47.1-8.1c-16.1-3.2-32.7-7-49.5-11.1
		c-16.8-3.5-33.6-7.1-50.2-10.7c-16.6-2.8-33.2-5.6-49.7-8.3c-16.5-1.9-33-3.8-49.5-5.7c-16.6-1.3-33.2-2.7-49.9-4.4
		c-16.8-1.3-33.8-3-50.8-5.2c-17.2-2.1-34.3-4.8-51.4-8.2c-17.1-3.5-34-7.8-50.5-13.1c-16.2-5.4-31.8-11.8-46.4-19.1
		c-13.9-7.6-26.6-16.1-37.8-25.6c-10.2-9.7-18.7-20.4-25.4-31.8c-5.6-11.7-9.6-24.2-11.9-37.3c-1.8-13.3-2.4-27.3-2.2-41.8
		c-0.2-14.6-0.3-29.6-0.6-44.9c-1.8-15.4-4.5-31-8.2-46.9c-5.6-15.8-12.4-31.9-20-48.1c-9-16.2-18.2-32.5-27-49
		c-8.7-16.5-15.8-32.8-20.8-48.9c-3.5-16.2-4.3-32.2-2.5-48c3.8-15.9,10.1-31.7,18.6-47.2c9.8-15.6,21.1-31,33.5-46.1
		c12.6-15.2,25.4-30.1,38.3-44.7c12.1-14.6,23.8-28.9,34.9-42.9c9.9-14,19.2-27.6,28-40.8c7.7-13.2,15.2-26.1,22.6-38.5
		c6.7-12.4,13.7-24.4,21-36c7.1-11.5,14.9-22.5,23.4-33c8.6-10.4,18-20.2,28.4-29.4c10.6-9,22-17.4,34.3-25
		c12.5-7.4,25.8-14.1,39.8-19.9c14.2-5.6,28.9-10.3,44.2-14.1c15.4-3.6,31.3-6.2,47.5-7.9c16.3-1.5,33-1.9,50-1.4
		c17,0.7,33.9,2.3,50.7,4.8c16.8,2.6,33.5,6,50.1,10.1c16.7,4.1,33.2,9,49.8,14.5c16.6,5.4,33.2,11.4,49.8,17.9
		c16.7,6.4,33.5,13.3,50.2,20.7c16.8,7.2,33.6,14.8,50.3,22.9c16.7,7.9,33.1,16.3,49.1,25c15.8,8.6,30.9,17.7,45.2,27.2
		c13.8,9.4,26.5,19.2,38,29.5c10.7,10.2,19.9,20.9,27.7,32.1c6.8,11.1,12.3,22.7,16.2,34.8c3.4,12.1,5.8,24.6,7.2,37.6
		c1.6,13,2.9,26.4,4,40.2c2.1,13.8,4.6,27.9,7.6,42.4c4.4,14.5,9.5,29.3,15.1,44.5C2096.4,546.2,2103.2,561.7,2109.7,577.6"/>
	
		<linearGradient id="SVGID_00000014595896077321076630000016668523886971230133_" gradientUnits="userSpaceOnUse" x1="2072.3066" y1="818.9584" x2="-88030.4062" y2="4777.3545" gradientTransform="matrix(1 0 0 -1 0 1437.8899)">
		<stop  offset="0" style="stop-color:#7546CC"/>
		<stop  offset="1" style="stop-color:#FFFFFF"/>
	</linearGradient>
	
		<path style="opacity:0.79;fill:none;stroke:url(#SVGID_00000014595896077321076630000016668523886971230133_);stroke-linecap:round;stroke-dasharray:5,2;enable-background:new    ;" d="
		M2055.9,626.6c4.8,14.8,8.5,29.5,11,44.2c1.8,14.6,1.9,29.2,0.4,43.6c-2.6,14.4-7.1,28.7-13.1,42.8c-7.1,14.1-15.6,28-25.3,41.7
		c-10.3,13.7-21.4,27.2-33.2,40.5c-11.8,13.3-23.8,26.2-36,38.9c-11.8,12.6-23.5,24.9-35.1,36.7c-11,11.7-21.8,22.9-32.5,33.4
		c-10.1,10.4-20.1,20.1-30.1,29c-9.6,8.7-19.2,16.5-29,23.4c-14.5,9.3-44.8,22.2-61,25.7c-10.9,1.6-22.2,2.2-34,1.7
		c-11.8-0.7-24.2-2.4-37-4.9c-12.8-2.6-26.1-5.9-39.9-9.8c-13.8-3.8-28-8-42.7-12.7c-14.7-4.2-29.6-8.6-44.5-13.1
		c-14.9-3.9-30-7.9-45.1-11.9c-15.1-3.4-30.3-6.9-45.6-10.4c-15.3-3-30.6-6.2-45.8-9.7c-15.2-3-30.4-6.4-45.4-10.2
		c-14.8-3.5-29.4-7.5-43.5-12.1c-13.8-4.5-27.1-9.5-39.5-15.2c-12-5.7-23-12.1-32.9-19.1c-13.2-11-31.8-36.5-37.1-50.8
		c-3.3-15.2-4.7-48.5-4.1-66.5c-0.1-12.3-0.4-25-1-38.2c-1.9-13.3-4.5-27-7.9-41c-4.8-14.1-10.3-28.6-16.3-43.4
		c-6.9-14.8-13.8-29.8-20.3-45.1c-6.4-15.3-11.4-30.3-14.9-45.1c-2.4-14.8-2.7-29.2-0.8-43.4c3.3-14.1,8.7-28,16.1-41.6
		c8.5-13.5,18.6-26.7,30-39.7c11.9-12.9,24.5-25.6,37.5-38c12.8-12.4,25.7-24.5,38.4-36.4c12.1-11.9,23.8-23.5,35.2-34.8
		c10.6-11.3,20.8-22.3,30.8-32.9c9.3-10.6,18.4-20.8,27.5-30.6c8.7-9.7,17.5-18.9,26.6-27.6c8.9-8.6,18.1-16.5,27.8-23.9
		c9.6-7.2,19.9-13.7,30.6-19.5c10.8-5.6,22.2-10.5,34.1-14.5c12-3.9,24.5-6.9,37.6-9c13.1-2,26.7-3,40.8-3.2
		c14.1,0,28.6,0.9,43.5,2.7c14.9,2,29.9,4.8,44.9,8.4c15,3.7,30,8.1,45.1,13.1c15,5.1,30,10.8,45,17.1c15,6.3,29.9,13.1,44.8,20.3
		c14.8,7.2,29.5,14.8,43.9,22.9c14.4,7.9,28.5,16.3,42.1,25c13.4,8.6,26.3,17.5,38.5,26.8c11.8,9.1,22.8,18.5,32.9,28.3
		c9.5,9.6,17.9,19.5,25.1,29.7c6.6,10.1,12.1,20.5,16.3,31.2c5.1,16,10.4,49.6,11.4,67.2c0.9,11.8,1.8,24,2.6,36.5
		c1.8,12.5,3.9,25.5,6.4,38.8c3.6,13.3,7.6,27,11.9,41.1C2046.2,597.3,2051.2,611.8,2055.9,626.6"/>
	
		<linearGradient id="SVGID_00000138562540292823373070000003627720881701458051_" gradientUnits="userSpaceOnUse" x1="2015.8728" y1="790.3775" x2="-76535.6094" y2="10981.0869" gradientTransform="matrix(1 0 0 -1 0 1437.8899)">
		<stop  offset="0" style="stop-color:#7546CC"/>
		<stop  offset="1" style="stop-color:#FFFFFF"/>
	</linearGradient>
	
		<path style="opacity:0.86;fill:none;stroke:url(#SVGID_00000138562540292823373070000003627720881701458051_);stroke-linecap:round;stroke-dasharray:4,4;enable-background:new    ;" d="
		M1997.5,666.1c3.1,13.4,5.4,26.7,6.7,39.8c0.8,13,0.4,25.9-1.4,38.5c-2.6,12.5-6.5,24.7-11.9,36.7c-6.2,11.8-13.6,23.4-22.1,34.6
		c-9.2,11.1-19.2,21.9-30,32.3c-11.1,10.3-22.7,20.3-34.6,29.9c-11.9,9.5-24,18.5-36.1,27.1c-11.9,8.5-23.7,16.5-35.4,23.9
		c-11.3,7.3-22.6,13.9-33.7,19.9c-16.1,8.3-47.5,20.9-63.1,24.9c-15.3,2.9-46.4,4-62.4,2.4c-16.1-2.6-49.8-11.5-67.4-17.5
		c-11.9-4-24.1-8.5-36.7-13.5c-12.6-4.6-25.3-9.4-38.1-14.5c-12.8-4.6-25.6-9.4-38.4-14.2c-12.8-4.4-25.6-9-38.3-13.7
		c-12.7-4.3-25.2-8.7-37.5-13.3c-12.2-4.3-24.1-8.8-35.5-13.6c-16.6-6.9-46.4-22.2-59.1-30.6c-11.2-8.7-28.1-28.1-33.6-38.9
		c-4-11.2-7.5-36-7.5-49.6c-0.1-14.2-0.8-45-2.2-61.7c-2-11.4-4.5-23.3-7.5-35.6c-3.9-12.4-8.2-25.2-12.7-38.4
		c-5.1-13.2-10-26.7-14.4-40.3c-4.4-13.6-7.7-27.1-9.8-40.3c-1.3-13.1-1.1-25.9,0.7-38.4c2.9-12.4,7.5-24.4,13.6-36
		c7.1-11.5,15.7-22.7,25.4-33.6c10.4-10.8,21.7-21.2,33.6-31.4c12.2-10.1,24.7-19.9,37.5-29.5c12.6-9.5,25.2-18.8,37.6-27.8
		c12.1-9,23.9-17.7,35.6-26c11.2-8.4,22.2-16.3,33.1-23.9c10.4-7.5,20.8-14.6,31.1-21.3c15-9.6,45.3-25.7,60.8-32.1
		c15.6-5.5,48.1-12.8,65.2-14.3c11.5-0.6,23.3-0.5,35.4,0.5c12.1,1.1,24.6,3.1,37.4,5.8c12.8,2.9,25.6,6.5,38.3,10.8
		c12.7,4.4,25.4,9.4,38,15.1c12.6,5.6,25.1,11.8,37.4,18.6c12.3,6.7,24.3,13.8,36.2,21.4c11.7,7.5,23.1,15.4,34.1,23.6
		c10.8,8.2,21.1,16.6,30.9,25.4c9.5,8.6,18.3,17.5,26.4,26.6c11.2,13.6,28.8,41.5,35,55.9c4.9,14.4,10.5,43.9,11.6,59.2
		c0.9,15.5,2.3,47.8,3.5,64.8c1.5,11.5,3.3,23.3,5.3,35.4c2.8,12.2,5.8,24.7,8.8,37.6C1991,639.6,1994.4,652.7,1997.5,666.1"/>
	
		<linearGradient id="SVGID_00000003070738884926414210000002499405939633891971_" gradientUnits="userSpaceOnUse" x1="1986.939" y1="779.3168" x2="-70625.7188" y2="13358.4111" gradientTransform="matrix(1 0 0 -1 0 1437.8899)">
		<stop  offset="0" style="stop-color:#7546CC"/>
		<stop  offset="1" style="stop-color:#FFFFFF"/>
	</linearGradient>
	
		<path style="opacity:0.1;fill:none;stroke:url(#SVGID_00000003070738884926414210000002499405939633891971_);stroke-linecap:round;stroke-dasharray:3,2;enable-background:new    ;" d="
		M1967.1,681.4c2.4,12.6,4.1,25.1,4.8,37.3c0.4,12.2-0.3,24.1-2.1,35.8c-5.7,22.9-16.4,44.6-31.4,64.7
		c-17.3,19.6-37.8,37.7-60.3,54.1c-22.8,16-46.4,30.1-70,42.2c-22.6,11.5-44.9,20.7-66.8,27.1c-20.8,5.7-41.5,8.6-62.3,8.4
		c-20.1-0.7-40.8-4.3-62.1-10.6c-10.6-3.1-21.4-6.8-32.4-11.1c-11-4.1-22.3-8.6-33.9-13.6c-11.6-4.7-23.1-9.7-34.6-14.8
		c-11.6-4.8-23.1-9.8-34.5-14.8c-22.9-9.1-45.2-18.7-66.3-28.9c-20.8-9-39.8-18.8-56.3-29.5c-15.5-10-28-21.2-37-33.6
		c-7.8-12.2-12.3-25.9-13.8-41c-1.8-15.3-2-32.4-1.7-51c-2.3-19.3-5.7-40.4-10.2-63.1c-3.5-11.6-7.2-23.5-11-35.8
		c-4.2-12.3-8.3-24.9-11.8-37.7c-3.5-12.8-6-25.4-7.5-37.7c-0.9-12.2-0.4-24.2,1.4-35.7c6.3-22.7,18.5-44.1,35.5-63.9
		c19.5-19.4,42.1-37.5,66.5-54.3c24.3-16.8,49-32.4,73.2-46.7c22.9-14.3,45.3-27.1,67.1-38.2c20.7-10.9,41.4-19.7,62.4-26.1
		c20.4-6,41.5-9.4,63.3-9.9c16.4,0.3,50.2,4.8,67.7,9.1c11.7,3.2,23.3,7.1,34.8,11.6c11.5,4.6,22.9,9.8,34.1,15.5
		c22.3,11.5,43.8,24.9,64.1,40c19.8,14.8,37.9,30.9,53.8,48c14.9,16.6,27.2,34.2,36.3,52.3c8.2,17.6,13.3,36,15.7,55
		c2.5,18.7,3.3,38.3,3.1,58.7c1.9,20.6,4.1,42.5,6.8,65.4c2.4,11.6,4.9,23.5,7.4,35.6C1962,656.4,1964.7,668.8,1967.1,681.4"/>
	
		<linearGradient id="SVGID_00000182511019997187391040000000988191225910661262_" gradientUnits="userSpaceOnUse" x1="1957.7676" y1="771.1552" x2="-64634.5703" y2="15244.9609" gradientTransform="matrix(1 0 0 -1 0 1437.8899)">
		<stop  offset="0" style="stop-color:#7546CC"/>
		<stop  offset="1" style="stop-color:#FFFFFF"/>
	</linearGradient>
	
		<path style="opacity:0.93;fill:none;stroke:url(#SVGID_00000182511019997187391040000000988191225910661262_);stroke-linecap:round;stroke-dasharray:1,4;enable-background:new    ;" d="
		M1936.3,693.4c3.4,23.6,3.8,46.2,0.5,67.6c-5.4,21-15.1,40.5-28.7,58.3c-15.6,17.3-34.3,32.9-55,46.6
		c-21.4,13.3-43.8,24.7-66.5,34.1c-22.2,8.9-44.3,15.6-65.9,19.9c-20.9,3.8-41.4,5-61.7,3.6c-19.8-1.8-39.8-6-59.9-12.5
		c-20-6.4-40.5-14.8-61.4-24.9c-21.1-9.2-41.7-19.3-61.6-29.9c-20-9.4-39-19.4-56.6-29.8c-17.3-9.3-32.8-19.4-45.7-30
		c-12.3-10-21.8-20.9-28.3-32.6c-6-11.6-9.3-24.3-10.3-38.3c-1.7-14.2-2.4-30-2.7-47.2c-2.8-17.9-6.2-37.4-10.4-58.5
		c-6.8-21.6-13.4-44.5-18.8-68.2c-5.2-23.6-6.5-46.4-3.5-67.9c5.8-20.9,16.7-40.4,31.9-58.3c17.5-17.4,38.2-33.5,60.9-48.2
		c23.1-14.5,46.9-27.8,70.8-39.8c23-11.9,45.7-22.4,67.9-31.3c21.2-8.7,42.3-15.5,63.2-20.2c20.3-4.3,40.8-6.2,61.6-5.6
		c20.5,1.1,41.5,4.9,62.8,11.5c21.2,7,41.7,16.3,61.3,27.7c19.4,11.4,37.8,24.6,54.5,39.1c16.4,14.3,31,29.8,43.3,46.2
		c11.6,15.9,20.8,32.6,27.2,49.9c5.9,16.8,9.4,34.3,10.7,52.2c1.8,17.8,2.4,36.5,2.2,55.9c1.9,19.7,3.9,40.4,6.2,62
		C1928.7,646.9,1933.1,669.9,1936.3,693.4"/>
	
		<linearGradient id="SVGID_00000116230986787374822740000010838692037760701855_" gradientUnits="userSpaceOnUse" x1="1928.3438" y1="765.099" x2="-58588.6641" y2="16635.0957" gradientTransform="matrix(1 0 0 -1 0 1437.8899)">
		<stop  offset="0" style="stop-color:#7546CC"/>
		<stop  offset="1" style="stop-color:#FFFFFF"/>
	</linearGradient>
	
		<path style="opacity:0.18;fill:none;stroke:url(#SVGID_00000116230986787374822740000010838692037760701855_);stroke-linecap:round;stroke-dasharray:1,3;enable-background:new    ;" d="
		M1905.5,701.8c2.3,21.8,1.9,42.6-1.5,62c-5.1,19-13.8,36.4-25.8,52.1c-13.8,15.1-30.4,28.5-49.1,39.9c-19.5,11-40.1,20.1-61.3,27.1
		c-21,6.7-42.1,11.3-62.9,13.7c-20.3,2.1-40.2,1.9-59.8-0.5c-19.2-2.6-38.2-7.3-57-14.1c-18.8-6.6-37.6-14.9-56.4-24.8
		c-19-9.1-37.1-19.1-54.2-29.6c-17.2-9.5-33.2-19.5-47.5-29.8c-14.2-9.5-26.5-19.4-36.6-29.8c-9.7-9.8-16.9-20.3-21.8-31.5
		c-4.8-11-7.5-23.1-8.5-36.1c-2-13.3-3.2-28-4.2-44c-3.1-16.6-6.5-34.7-10.3-54.2c-5.8-20-11.1-41-15.1-62.8
		c-3.8-21.7-4.4-42.5-1.2-62.1c5.4-19,15-36.7,28.4-52.8c15.5-15.5,34-29.7,54.5-42.4c21.3-12.4,43.6-23.6,66.3-33.4
		c22.3-9.7,44.6-18,66.4-24.8c21.2-6.6,42-11.5,62.4-14.5c20-2.7,39.8-3.3,59.4-1.6c19.4,2.1,38.8,6.6,57.9,13.5
		c19.1,7.3,37.2,16.6,54,27.6c16.7,11.1,32,23.8,45.6,37.5c13.3,13.7,24.8,28.3,34.1,43.7c8.9,15.1,15.6,30.8,20,46.9
		c4.3,15.9,6.7,32.4,7.4,49.3c1.4,16.9,2,34.6,2,52.9c1.8,18.7,3.6,38.2,5.5,58.5C1900,658.6,1903.3,680,1905.5,701.8z"/>
	
		<linearGradient id="SVGID_00000085944426708294521270000006708387364410541457_" gradientUnits="userSpaceOnUse" x1="1898.9473" y1="761.388" x2="-52533.1133" y2="17531.291" gradientTransform="matrix(1 0 0 -1 0 1437.8899)">
		<stop  offset="0" style="stop-color:#7546CC"/>
		<stop  offset="1" style="stop-color:#FFFFFF"/>
	</linearGradient>
	
		<path style="opacity:0.12;fill:none;stroke:url(#SVGID_00000085944426708294521270000006708387364410541457_);stroke-linecap:round;stroke-dasharray:1,2;enable-background:new    ;" d="
		M1874.9,706.5c1.3,19.9,0.4,38.7-3.1,56.2c-4.7,17-12.4,32.5-23,46.2c-12,13.1-26.5,24.5-42.8,34c-17.2,9-35.7,16.1-54.8,21.4
		c-19.3,4.8-38.8,7.8-58.1,8.8c-19.1,0.7-37.9-0.5-56.3-3.7c-18.2-3.3-36-8.4-53.3-15.2c-17.4-6.7-34.5-14.8-51.2-24.3
		c-16.9-8.9-32.6-18.6-47.1-28.7c-14.6-9.3-27.8-19.1-39.4-29.1c-11.6-9.3-21.4-19-29.2-29.1c-7.7-9.6-13.5-19.7-17.3-30.4
		c-4.1-10.6-6.6-22-7.9-34.3c-2.3-12.6-4.1-26.4-5.6-41.3c-3.2-15.5-6.6-32.2-9.9-50.1c-4.8-18.3-9-37.5-11.8-57.3
		c-2.6-19.7-2.5-38.6,0.8-56.2c4.9-17.2,13.4-33,25.1-47.4c13.5-13.7,29.6-26.1,47.8-37c19-10.5,39.3-19.8,60.2-27.7
		c20.8-7.7,41.8-14.1,62.6-19c20.3-4.7,40.4-7.9,59.9-9.4c19.2-1.2,38-0.6,56.2,2c18.1,2.9,35.8,7.9,52.9,15
		c17.1,7.4,32.8,16.5,47.1,27.1c14.2,10.6,26.8,22.6,37.7,35.4c10.8,12.8,19.7,26.5,26.7,40.7c6.8,14.1,11.7,28.7,14.8,43.8
		c3.2,14.9,5,30.4,5.5,46.3c1.3,16,1.9,32.6,2.2,49.8c1.7,17.6,3.4,35.9,4.8,54.7C1871.4,666.9,1873.7,686.6,1874.9,706.5z"/>
	
		<linearGradient id="SVGID_00000142137670943839892700000011068897818142018230_" gradientUnits="userSpaceOnUse" x1="1869.2836" y1="760.1395" x2="-46519.9414" y2="17942.5215" gradientTransform="matrix(1 0 0 -1 0 1437.8899)">
		<stop  offset="0" style="stop-color:#7546CC"/>
		<stop  offset="1" style="stop-color:#FFFFFF"/>
	</linearGradient>
	
		<path style="opacity:0.49;fill:none;stroke:url(#SVGID_00000142137670943839892700000011068897818142018230_);stroke-linecap:round;stroke-dasharray:5,2;enable-background:new    ;" d="
		M1845,707.6c0.5,18-0.9,34.8-4.4,50.3c-4.3,15.1-11.2,28.7-20.2,40.6c-10.2,11.4-22.6,21-36.5,28.8c-14.8,7.4-30.8,12.9-47.6,16.7
		c-17,3.4-34.4,5.1-51.8,5.1c-17.3-0.3-34.5-2.3-51.2-5.9c-16.7-3.7-32.9-9-48.6-15.7c-15.7-6.6-31-14.4-45.7-23.5
		c-14.8-8.6-28.4-17.8-40.5-27.4c-12.3-9-23.3-18.4-32.6-28c-9.5-9.1-17.3-18.5-23.5-28.1c-8.7-14.2-19.4-45-22.3-62.2
		c-2.6-12-4.8-24.9-6.6-38.8c-3.2-14.4-6.3-29.8-9.1-46c-3.9-16.6-7-34-8.8-51.7c-1.6-17.7-0.9-34.5,2.4-50.3
		c4.5-15.3,11.9-29.4,22-42c11.5-12.1,25.3-22.8,41-32.1c16.5-8.9,34.3-16.5,52.9-22.8c18.8-6,37.8-10.7,56.8-14.1
		c18.8-3.1,37.4-4.9,55.5-5.1c17.9,0,35.2,1.6,51.9,4.9c16.6,3.6,32.5,8.9,47.7,16c15.1,7.4,28.7,16.2,40.7,26.1
		c11.9,10,22.3,21.1,31.1,33c8.7,11.9,15.7,24.5,21,37.6c5.4,13,9.2,26.6,11.5,40.5c2.6,13.9,4.1,28.4,4.6,43.2
		c1.3,15,2.1,30.6,2.5,46.6c1.6,16.4,3,33.3,4,50.6C1843.1,671.7,1844.6,689.6,1845,707.6z"/>
	
		<linearGradient id="SVGID_00000050626575767113463480000015448624449694012854_" gradientUnits="userSpaceOnUse" x1="1811.495" y1="764.3696" x2="-34663.8789" y2="17302.4355" gradientTransform="matrix(1 0 0 -1 0 1437.8899)">
		<stop  offset="0" style="stop-color:#7546CC"/>
		<stop  offset="1" style="stop-color:#FFFFFF"/>
	</linearGradient>
	
		<path style="opacity:0.56;fill:none;stroke:url(#SVGID_00000050626575767113463480000015448624449694012854_);stroke-linecap:round;stroke-dasharray:3,2;enable-background:new    ;" d="
		M1788.1,699.1c-0.7,13.9-2.6,26.8-5.8,38.5c-6.1,16.5-26.4,42-40.1,50.7c-10.1,5-21.1,8.5-32.7,10.6c-11.9,1.8-24.4,2.2-36.9,1.2
		c-12.7-1.2-25.5-3.6-38-7.3c-12.6-3.7-24.9-8.6-36.7-14.5c-11.9-5.8-23.3-12.6-34.1-20.4c-10.9-7.5-20.6-15.4-29.2-23.7
		c-12.5-12.1-32.1-37.3-39.4-50.4c-6.7-13.2-16.5-41.4-20.1-56.8c-2.9-10.6-5.3-21.9-7.3-33.6c-2.7-12.1-5-24.7-6.7-37.8
		c-2.2-13.3-3.5-26.9-3.7-40.5c-0.1-13.6,1.4-26.5,4.5-38.4c3.7-11.6,9.2-22.2,16.4-31.6c7.9-9,17.4-16.9,28.3-23.5
		c11.4-6.2,23.9-11.3,37.1-15.1c13.5-3.6,27.6-6,41.7-7.2c14.2-1,28.5-0.9,42.4,0.5c13.9,1.5,27.4,4.3,40.2,8.2
		c12.8,4.1,24.9,9.5,36.2,16.2c11.2,6.8,21.1,14.5,29.6,23c8.5,8.6,15.7,17.9,21.6,27.7c6,9.9,10.7,20.4,14.3,31.2
		c3.8,10.9,6.5,22.3,8.4,33.9c2.2,11.8,3.7,24,4.6,36.5c1.5,12.7,2.4,25.8,3,39.1c1.2,13.6,2,27.4,2.4,41.4
		C1788.7,671.1,1788.8,685.2,1788.1,699.1z"/>
	
		<linearGradient id="SVGID_00000169520176110448599740000012880269881310148527_" gradientUnits="userSpaceOnUse" x1="1757.0165" y1="776.8682" x2="-23365.6035" y2="14824.8711" gradientTransform="matrix(1 0 0 -1 0 1437.8899)">
		<stop  offset="0" style="stop-color:#7546CC"/>
		<stop  offset="1" style="stop-color:#FFFFFF"/>
	</linearGradient>
	
		<path style="opacity:0.43;fill:none;stroke:url(#SVGID_00000169520176110448599740000012880269881310148527_);stroke-linecap:round;stroke-dasharray:5,2;enable-background:new    ;" d="
		M1736.8,678.4c-2.5,19.6-8.1,35.6-16.5,47.6c-9.3,11.3-21.6,18.4-35.5,21.1c-14.8,2.2-30.8,0.4-46.7-5.2
		c-16.2-5.7-32.1-14.6-46.4-26.7c-14.6-11.6-26.5-24.9-35.6-39.2c-9.6-13.9-17-29.1-22.1-45.1c-6.2-16.2-10.7-33.8-13.3-52.1
		c-3.8-18.8-5.4-38.4-3.9-57.7c1.6-19.2,7.3-35.6,16.5-48.6c10.4-12.2,24.4-20.8,40.4-25.6c16.8-4.1,35-4.5,53-1.3
		c18.1,3.7,35.4,11,50.7,21.9c15.1,11.3,26.8,25,35.3,40.4c8.6,15.6,14.5,33,17.9,51.2c4.2,18.7,6.6,38.5,7.2,58.4
		C1739.5,638.1,1739.4,658.9,1736.8,678.4z"/>
	
		<linearGradient id="SVGID_00000082341201962958142460000004249872311359058334_" gradientUnits="userSpaceOnUse" x1="1704.9421" y1="798.4296" x2="-12634.8691" y2="10476.9287" gradientTransform="matrix(1 0 0 -1 0 1437.8899)">
		<stop  offset="0" style="stop-color:#7546CC"/>
		<stop  offset="1" style="stop-color:#FFFFFF"/>
	</linearGradient>
	
		<path style="opacity:0.85;fill:none;stroke:url(#SVGID_00000082341201962958142460000004249872311359058334_);stroke-linecap:round;stroke-dasharray:3,5;enable-background:new    ;" d="
		M1691.8,648.2c-4.7,23-15.8,36.9-30.2,40.5c-15.2,3-33-3.3-49.1-19c-16.4-15-28.3-36-35-58.5c-7.8-22.7-11.1-48-7.2-70.8
		c4.1-22.7,16.2-37.4,32.4-42.6c17-4.3,36.7,0.7,53.8,15.3c16.8,15.2,27.8,37.2,32.9,60.9C1695.4,598.6,1696.6,625.3,1691.8,648.2z"
		/>
	
		<linearGradient id="SVGID_00000030477833669533149870000015794462687658040741_" gradientUnits="userSpaceOnUse" x1="1678.1636" y1="814.3406" x2="-7123.5068" y2="7306.0991" gradientTransform="matrix(1 0 0 -1 0 1437.8899)">
		<stop  offset="0" style="stop-color:#7546CC"/>
		<stop  offset="1" style="stop-color:#FFFFFF"/>
	</linearGradient>
	
		<path style="opacity:0.29;fill:none;stroke:url(#SVGID_00000030477833669533149870000015794462687658040741_);stroke-linecap:round;enable-background:new    ;" d="
		M1671.7,630.6c-7.4,19.7-35.5,26.9-51.5,14.1c-10.6-10.5-18.4-25.4-22.8-41.4c-4.8-16-6.3-33.4-3-48.5
		c7.3-19.8,37.9-28.7,54.8-16.6c10.7,10.6,18.1,26,21.8,42.4C1674.8,597.4,1675.3,615.4,1671.7,630.6z"/>
</g>
</svg>
