<svg width="181" height="48" viewBox="0 0 181 48" fill="none" xmlns="http://www.w3.org/2000/svg">
<path d="M0.304687 37.507L0.304687 39.6652L0.974456 39.6652C4.84423 39.6652 8.714 40.3349 12.2861 41.6745L12.2861 24.4837C12.2861 21.2837 13.4768 19.5721 15.1884 18.3814C16.8256 19.5721 18.1652 21.3582 18.1652 24.4837L18.1652 44.7256C19.5791 45.6931 20.9187 46.8094 22.1094 48.0001L22.1094 24.4093C22.1094 19.0512 19.2815 16.0744 16.0814 14.214C15.7838 14.0651 15.4861 13.9163 15.1884 13.7675C14.8907 13.9163 14.5931 14.0651 14.2954 14.214C10.5 16.2233 8.19307 20.1675 8.26749 24.4093L8.26749 37.5814L4.24888 37.5814L4.24888 24.6326C4.24888 13.9907 8.93726 8.33489 15.1884 4.83721C21.0675 8.40931 26.128 13.9907 26.128 24.6326L26.128 37.507L30.0722 37.507L30.0722 24.4093C30.0722 11.7582 23.4489 4.83721 15.9326 0.372093C15.7094 0.223256 15.4117 0.0744187 15.1884 3.24917e-08C14.9652 0.0744187 14.6675 0.223256 14.4442 0.372093C7.15121 4.53954 0.304687 11.7582 0.304687 24.4093L0.304687 37.507Z" fill="#B71234"/>
<path d="M46.6892 14.0984C46.6892 14.4705 46.6148 14.917 46.6148 15.2891L46.6148 17.5217C46.6148 17.9682 46.6148 18.4147 46.6892 18.8612C46.7637 18.9357 46.8381 19.0101 47.1357 19.0101L47.4334 19.0101L47.4334 19.2333C46.9869 19.2333 46.6148 19.2333 46.2427 19.2333C45.945 19.2333 45.573 19.2333 45.1264 19.2333L45.1264 19.0101L45.4241 19.0101C45.573 19.0101 45.6474 19.0101 45.7962 18.9357C45.8706 18.8612 45.8706 18.7868 45.8706 18.638C45.8706 18.3403 45.8706 17.9682 45.8706 17.4473L45.8706 15.2147C45.8706 14.7682 45.8706 14.3961 45.8706 14.024L45.4241 14.024C45.052 14.024 44.7544 14.024 44.3823 14.0984C44.3078 14.0984 44.3078 14.2473 44.2334 14.4705L44.159 14.9915L43.9357 14.9915L43.9357 14.5449C43.9357 14.3961 43.9357 14.0984 43.8613 13.7263L46.3171 13.7263L48.4753 13.7263C48.4009 14.1729 48.4009 14.5449 48.4009 14.9915L48.1776 14.9915L48.1776 14.4705C48.1776 14.3961 48.1776 14.2473 48.1032 14.1729C48.0288 14.0984 47.9544 14.0984 47.8799 14.0984C47.5823 14.0984 47.2846 14.0984 46.9125 14.0984L46.6892 14.0984ZM52.1962 17.3729L49.9637 17.3729L49.7404 18.0426C49.5916 18.2659 49.5171 18.5636 49.5171 18.7868C49.5171 18.8612 49.5171 18.8612 49.5916 18.9357C49.666 18.9357 49.7404 19.0101 49.8148 19.0101L50.1869 19.0845L50.1869 19.3077C49.9637 19.3077 49.666 19.3077 49.3683 19.3077C49.0706 19.3077 48.6985 19.3077 48.4009 19.3077L48.4009 19.0845C48.5497 19.0845 48.6241 19.0845 48.773 19.0101C48.8474 18.9357 48.9218 18.8612 48.9218 18.7868C49.0706 18.4147 49.2939 18.0426 49.5171 17.5961L50.559 15.2147C50.8567 14.5449 51.0055 14.0984 51.1544 13.8008L51.3776 13.8008L53.3125 18.3403C53.3869 18.5636 53.4613 18.7124 53.5358 18.9357C53.5358 19.0101 53.6102 19.0101 53.6846 19.0845C53.8334 19.0845 53.9078 19.1589 54.0567 19.1589L54.0567 19.3822C53.759 19.3822 53.3869 19.3822 53.0892 19.3822C52.7916 19.3822 52.4195 19.3822 51.973 19.3822L51.973 19.1589L52.3451 19.1589C52.4195 19.1589 52.4939 19.1589 52.5683 19.0845C52.6427 19.0845 52.6427 19.0101 52.6427 19.0101C52.6427 18.8612 52.5683 18.7868 52.4939 18.638L52.1962 17.3729ZM50.1125 17.0752L52.1218 17.0752L51.1544 14.7682L50.1125 17.0752ZM56.1404 18.8612L56.8846 18.8612C57.4055 18.8612 57.7776 18.8612 58.0009 18.8612C58.2241 18.8612 58.373 18.7868 58.5962 18.7868L58.8195 17.8938L59.0427 17.8938C58.9683 18.4147 58.8939 18.8612 58.8939 19.2333C58.5962 19.3077 58.2241 19.3077 57.9265 19.3077L56.066 19.3077L54.8753 19.3077L54.8753 19.0845C55.0985 19.0101 55.173 18.9357 55.2474 18.7868C55.3218 18.4147 55.3218 17.9682 55.3218 17.5961L55.3218 15.438C55.3218 14.9915 55.3218 14.5449 55.2474 14.1729C55.2474 14.0984 55.0986 14.024 54.9497 14.024L54.5032 14.024L54.5032 13.8008L55.8427 13.8008C56.1404 13.8008 56.4381 13.8008 56.959 13.8008L56.959 14.024L56.5125 14.024C56.3637 14.024 56.2892 14.024 56.2892 14.1729C56.2148 14.4705 56.2148 14.7682 56.2892 15.1403L56.2892 17.5961L56.2892 18.7124L56.2892 18.8612L56.1404 18.8612ZM61.052 18.8612L61.7962 18.8612C62.3172 18.8612 62.6893 18.8612 62.9125 18.8612C63.1358 18.8612 63.2846 18.7868 63.5079 18.7868L63.7311 17.8938L64.0288 17.8938C63.9544 18.4147 63.88 18.8612 63.88 19.2333C63.5823 19.3077 63.2102 19.3077 62.9125 19.3077L61.052 19.3077L59.8613 19.3077L59.8613 19.0845C60.0846 19.0101 60.159 18.9357 60.2334 18.7868C60.3079 18.4147 60.3079 17.9682 60.2334 17.5961L60.2334 15.438C60.2334 14.9915 60.2334 14.5449 60.159 14.1729C60.159 14.0984 60.0102 14.024 59.8613 14.024L59.5637 14.024L59.5637 13.8008L60.8288 13.8008C61.1265 13.8008 61.4241 13.8008 61.9451 13.8008L61.9451 14.024L61.4241 14.024C61.2753 14.024 61.2009 14.024 61.2009 14.1729C61.052 14.3961 61.052 14.7682 61.052 15.0659L61.052 17.5217L61.052 18.638L61.052 18.8612ZM64.5497 19.0101L64.773 19.0101C64.9962 19.0101 65.1451 18.9357 65.2195 18.8612C65.2939 18.3403 65.2939 17.745 65.2939 17.224L65.2939 15.8845C65.2939 15.2891 65.2939 14.7682 65.2195 14.1729C65.1451 14.0984 65.0707 14.024 64.8474 14.024L64.5497 14.024L64.5497 13.8008C64.9962 13.8008 65.4427 13.8008 65.8148 13.8008C66.1869 13.8008 66.4846 13.8008 66.7823 13.8008L66.7823 14.024L66.4846 14.024C66.3358 14.024 66.2614 14.024 66.1125 14.0984C66.0381 14.1729 66.0381 14.3217 66.0381 14.4705C66.0381 14.7682 66.0381 15.2147 66.0381 15.9589L66.0381 17.2984C66.0381 17.8194 66.0381 18.4147 66.1125 18.9357C66.1869 19.0101 66.2614 19.0845 66.559 19.0845L66.7823 19.0845L66.7823 19.3077C66.4846 19.3077 66.1125 19.3077 65.7404 19.3077C65.3683 19.3077 64.9218 19.3077 64.5497 19.3077L64.5497 19.0101ZM68.866 14.6194L68.866 17.2984C68.866 17.8938 68.866 18.3403 68.866 18.5636C68.866 18.7124 68.866 18.7868 68.9404 18.9357C69.0893 19.0101 69.1637 19.0101 69.3125 19.0101L69.5358 19.0101L69.5358 19.2333C69.2381 19.2333 69.0148 19.2333 68.7916 19.2333L67.7497 19.2333L67.7497 19.0101L68.0474 19.0101C68.1962 19.0101 68.2707 19.0101 68.3451 18.9357C68.4195 18.8612 68.4195 18.7868 68.4195 18.638C68.4195 18.3403 68.4939 17.9682 68.4939 17.5217L68.4939 15.5868C68.4939 15.2147 68.4939 14.8426 68.4939 14.5449C68.4939 14.4705 68.4939 14.3217 68.4195 14.2473C68.3451 14.1729 68.3451 14.1729 68.2707 14.0984C68.1962 14.024 68.1218 14.024 67.973 14.024L67.7497 14.024L67.7497 13.8008L68.4939 13.8008C68.6427 13.8008 68.866 13.8008 69.0893 13.8008C69.3125 14.0984 69.6102 14.3961 69.8335 14.6938C70.0567 14.9915 70.28 15.2891 70.5032 15.5868L71.8428 17.224C72.3637 17.8194 72.6614 18.1915 72.8846 18.4147L72.8846 15.9589C72.8846 15.3636 72.8846 14.8426 72.8102 14.2473C72.7358 14.1729 72.6614 14.0984 72.3637 14.0984L72.066 14.0984L72.066 13.8752L73.0335 13.8752C73.2567 13.8752 73.5544 13.8752 73.9265 13.8752L73.9265 14.0984L73.7032 14.0984C73.48 14.0984 73.3311 14.1729 73.2567 14.3217C73.1823 14.4705 73.2567 14.9915 73.2567 16.0333L73.2567 17.745C73.2567 18.1915 73.2567 18.7868 73.3311 19.4566C73.1079 19.4566 72.8846 19.3822 72.7358 19.3077C72.6614 19.3077 72.5869 19.2333 72.5869 19.1589C72.2893 18.8612 71.9916 18.4891 71.6939 18.117L68.866 14.6194ZM75.7125 14.6194L75.7125 17.2984C75.7125 17.8938 75.7125 18.3403 75.7125 18.5636C75.7125 18.7124 75.7125 18.7868 75.7869 18.9357C75.9358 19.0101 76.0102 19.0101 76.159 19.0101L76.3823 19.0101L76.3823 19.2333C76.0846 19.2333 75.8614 19.2333 75.6381 19.2333L74.5218 19.2333L74.5218 19.0101L74.8195 19.0101C74.9683 19.0101 75.0428 19.0101 75.1172 18.9357C75.1916 18.8612 75.1916 18.7868 75.1916 18.638C75.1916 18.3403 75.266 17.9682 75.266 17.5217L75.266 15.5868C75.266 15.2147 75.266 14.8426 75.266 14.5449C75.266 14.4705 75.266 14.3217 75.1916 14.2473C75.1172 14.1729 75.1172 14.1729 75.0428 14.0984C74.9683 14.024 74.8939 14.024 74.7451 14.024L74.5218 14.024L74.5218 13.8008L75.266 13.8008C75.4149 13.8008 75.6381 13.8008 75.8614 13.8008C76.0846 14.0984 76.3823 14.3961 76.6056 14.6938C76.8288 14.9915 77.0521 15.2891 77.2753 15.5868L78.6149 17.224C79.1358 17.8194 79.4335 18.1915 79.6567 18.4147L79.6567 15.9589C79.6567 15.3636 79.6567 14.8426 79.5823 14.2473C79.5079 14.1729 79.4335 14.0984 79.1358 14.0984L78.9125 14.0984L78.9125 13.8752L79.88 13.8752C80.1032 13.8752 80.4009 13.8752 80.773 13.8752L80.773 14.0984L80.4753 14.0984C80.2521 14.0984 80.1032 14.1729 80.0288 14.3217C79.9544 14.4705 80.0288 14.9915 80.0288 16.0333L80.0288 17.745C80.0288 18.1915 80.0288 18.7868 80.1032 19.4566C79.88 19.4566 79.6567 19.3822 79.5079 19.3077C79.4335 19.3077 79.359 19.2333 79.359 19.1589C79.0614 18.7868 78.6893 18.4891 78.3916 18.0426L75.7125 14.6194ZM84.866 17.3729L82.6335 17.3729L82.3358 18.0426C82.187 18.2659 82.1125 18.5636 82.1125 18.7868C82.1125 18.8612 82.1125 18.8612 82.187 18.9357C82.2614 18.9357 82.3358 19.0101 82.4102 19.0101L82.7823 19.0845L82.7823 19.3077C82.559 19.3077 82.2614 19.3077 81.9637 19.3077C81.666 19.3077 81.2939 19.3077 80.9963 19.3077L80.9963 19.0845L81.1451 19.0845C81.2939 19.0845 81.3683 19.0845 81.5172 19.0101C81.5916 18.9357 81.666 18.8612 81.666 18.7868C81.8149 18.4147 82.0381 18.0426 82.2614 17.5961L83.3032 15.2147C83.6009 14.5449 83.7497 14.0984 83.8986 13.8008L84.1963 13.8008L86.1311 18.3403C86.2056 18.5636 86.28 18.7124 86.3544 18.9357C86.3544 19.0101 86.4288 19.0101 86.5032 19.0845C86.6521 19.0845 86.7265 19.1589 86.8753 19.1589L86.8753 19.3822C86.5777 19.3822 86.2056 19.3822 85.9079 19.3822C85.6102 19.3822 85.2381 19.3822 84.7916 19.3822L84.7916 19.1589L85.1637 19.1589C85.2381 19.1589 85.3125 19.1589 85.387 19.0845C85.4614 19.0845 85.4614 19.0101 85.4614 19.0101C85.4614 18.8612 85.387 18.7868 85.3125 18.638L84.866 17.3729ZM82.7823 17.0752L84.7172 17.0752L83.7497 14.7682L82.7823 17.0752ZM90.373 14.024L90.373 13.8008L91.5637 13.8008L92.68 13.8008L92.68 14.024L92.3823 14.024C92.1591 14.024 92.0102 14.0984 91.9358 14.1729C91.8614 14.6194 91.8614 14.9915 91.8614 15.438L91.8614 16.9263C91.8614 17.2984 91.8614 17.6705 91.9358 18.0426C92.0102 18.2659 92.1591 18.4891 92.3823 18.5636C92.68 18.7124 93.0521 18.7868 93.4242 18.7868C93.7963 18.7868 94.1684 18.7124 94.5405 18.5636C94.7637 18.4891 94.9125 18.2659 94.987 18.0426C95.1358 17.5961 95.1358 17.1496 95.1358 16.7031L95.1358 15.2147C95.1358 14.8426 95.1358 14.4705 95.0614 14.0984C94.987 14.024 94.8381 13.9496 94.5405 13.9496L94.3172 13.9496L94.3172 13.7263L95.3591 13.7263C95.5823 13.7263 95.88 13.7263 96.2521 13.7263L96.2521 13.9496L95.9544 13.9496C95.7312 13.9496 95.6567 14.024 95.5823 14.0984C95.5079 14.4705 95.4335 14.8426 95.5079 15.2147L95.5079 16.6287C95.5079 17.0752 95.5079 17.5217 95.4335 17.9682C95.3591 18.1915 95.2102 18.4147 95.0614 18.5636C94.8381 18.7868 94.6149 18.9357 94.3916 19.0101C94.0939 19.1589 93.7218 19.1589 93.3498 19.1589C92.9777 19.1589 92.6056 19.0845 92.3079 19.0101C92.0846 18.9357 91.787 18.7868 91.6381 18.638C91.4893 18.4891 91.3404 18.3403 91.3404 18.117C91.266 17.745 91.1916 17.4473 91.266 17.0752L91.266 15.2147C91.266 14.8426 91.266 14.3961 91.1916 14.024C91.1172 13.9496 91.0428 13.8752 90.7451 13.8752L90.373 13.8752L90.373 14.024ZM92.6056 12.5356C92.8288 12.5356 93.0521 12.7589 93.0521 12.9822C93.0521 13.2054 92.8288 13.4287 92.6056 13.4287C92.3823 13.4287 92.1591 13.2054 92.1591 12.9822C92.1591 12.8333 92.2335 12.7589 92.3079 12.6845C92.3823 12.5356 92.5312 12.5356 92.6056 12.5356ZM94.3172 12.5356C94.5405 12.5356 94.7637 12.7589 94.7637 12.9822C94.7637 13.131 94.6893 13.2054 94.6149 13.2798C94.5405 13.3543 94.466 13.4287 94.3172 13.4287C94.1684 13.4287 94.0939 13.3543 94.0195 13.2798C93.8707 13.131 93.8707 12.8333 94.0195 12.6845C94.0939 12.5356 94.1684 12.5356 94.3172 12.5356ZM98.5591 18.8612L99.3032 18.8612C99.7498 18.8612 100.196 18.8612 100.42 18.8612C100.643 18.8612 100.792 18.7868 101.015 18.7868L101.238 17.8938L101.461 17.8938C101.387 18.4147 101.313 18.8612 101.313 19.2333C101.015 19.3077 100.643 19.3077 100.345 19.3077L98.4846 19.3077L97.2939 19.3077L97.2939 19.0845C97.4428 19.0101 97.5916 18.9357 97.666 18.7868C97.7405 18.4147 97.7405 17.9682 97.7405 17.5961L97.7405 15.5124C97.7405 15.0659 97.7405 14.6194 97.666 14.2473C97.5916 14.1729 97.5172 14.0984 97.3684 14.0984L96.9218 14.0984L96.9218 13.8752L98.1126 13.8752C98.4102 13.8752 98.7823 13.8752 99.2288 13.8752L99.2288 14.0984L98.7823 14.0984C98.6335 14.0984 98.5591 14.0984 98.4846 14.2473C98.4102 14.5449 98.4102 14.917 98.4102 15.2147L98.4102 17.6705L98.4102 18.7868L98.5591 18.8612ZM101.982 19.0101L102.206 19.0101C102.429 19.0101 102.578 18.9357 102.652 18.8612C102.727 18.3403 102.727 17.745 102.727 17.224L102.727 15.8845C102.727 15.2891 102.727 14.7682 102.652 14.1729C102.578 14.0984 102.503 14.024 102.28 14.024L101.982 14.024L101.982 13.8008C102.429 13.8008 102.801 13.8008 103.247 13.8008C103.694 13.8008 103.917 13.8008 104.215 13.8008L104.215 14.024L103.917 14.024C103.768 14.024 103.694 14.024 103.545 14.0984C103.471 14.1729 103.471 14.3217 103.471 14.4705C103.471 14.7682 103.471 15.2147 103.471 15.9589L103.471 17.2984C103.471 17.8194 103.471 18.4147 103.545 18.9357C103.62 19.0101 103.694 19.0845 103.992 19.0845L104.215 19.0845L104.215 19.3077C103.917 19.3077 103.545 19.3077 103.173 19.3077C102.801 19.3077 102.429 19.3077 101.982 19.3077L101.982 19.0101ZM107.489 16.1822L110.094 18.638L110.317 18.8612C110.392 18.9357 110.392 18.9357 110.466 18.9357C110.54 18.9357 110.615 18.9357 110.689 18.9357L110.689 19.1589C110.466 19.1589 110.317 19.1589 110.094 19.1589C109.871 19.1589 109.722 19.1589 109.573 19.1589L106.894 16.6287C106.82 16.5543 106.745 16.4798 106.745 16.4798C106.745 16.4798 106.671 16.5543 106.671 16.6287L106.671 17.8194C106.671 18.117 106.671 18.4147 106.671 18.7868C106.745 18.8612 106.82 18.9357 107.117 18.9357L107.415 18.9357L107.415 19.1589C106.968 19.1589 106.596 19.1589 106.299 19.1589C106.001 19.1589 105.554 19.1589 105.182 19.1589L105.182 18.9357L105.48 18.9357C105.703 18.9357 105.778 18.9357 105.852 18.8612C105.927 18.5636 105.927 18.1915 105.927 17.8938L105.927 15.2891C105.927 14.917 105.927 14.4705 105.852 14.0984C105.778 14.024 105.703 13.9496 105.48 13.9496L105.182 13.9496L105.182 13.7263L106.224 13.7263L107.415 13.7263L107.415 13.9496L107.192 13.9496C107.043 13.9496 106.968 13.9496 106.894 14.024C106.82 14.0984 106.82 14.1729 106.82 14.2473C106.82 14.3961 106.82 14.6938 106.82 15.2891L106.82 16.331L106.894 16.331C107.117 16.1822 107.266 16.0333 107.415 15.8845C107.564 15.7356 107.787 15.5124 108.159 15.1403L109.275 14.024L109.275 13.7263C109.573 13.7263 109.796 13.7263 109.945 13.7263C110.094 13.7263 110.392 13.7263 110.615 13.7263L110.615 13.9496L110.392 13.9496C110.243 13.9496 110.094 13.9496 109.945 14.024C109.647 14.2473 109.35 14.4705 109.052 14.7682L107.489 16.1822ZM110.913 16.4798C110.913 15.7356 111.21 14.9915 111.731 14.4705C112.327 13.9496 113.145 13.6519 113.889 13.7263C114.633 13.7263 115.378 13.9496 115.973 14.4705C116.494 14.9915 116.717 15.6612 116.717 16.4054C116.717 17.224 116.42 17.9682 115.824 18.5636C115.229 19.1589 114.41 19.4566 113.592 19.4566C113.071 19.4566 112.624 19.3822 112.178 19.0845C111.806 18.8612 111.433 18.4891 111.21 18.117C110.987 17.5961 110.838 17.0752 110.913 16.4798ZM111.657 16.2566C111.657 16.7775 111.731 17.2984 111.954 17.745C112.103 18.117 112.401 18.4891 112.773 18.7124C113.145 18.9357 113.517 19.0101 113.889 19.0101C114.261 19.0101 114.633 18.9357 114.931 18.7124C115.229 18.4891 115.452 18.2659 115.601 17.8938C115.75 17.4473 115.899 17.0008 115.824 16.5543C115.824 16.1077 115.75 15.5868 115.527 15.1403C115.378 14.7682 115.08 14.4705 114.782 14.2473C114.41 14.024 114.038 13.9496 113.592 13.9496C113.22 13.9496 112.847 14.024 112.55 14.2473C112.252 14.3961 112.029 14.6938 111.88 14.9915C111.806 15.438 111.657 15.8101 111.657 16.2566ZM117.387 16.4798C117.387 15.7356 117.685 14.9915 118.206 14.4705C118.801 13.9496 119.62 13.6519 120.364 13.7263C121.108 13.7263 121.852 13.9496 122.447 14.4705C122.968 14.9915 123.192 15.6612 123.192 16.4054C123.192 17.224 122.894 17.9682 122.299 18.5636C121.703 19.1589 120.885 19.4566 120.066 19.4566C119.545 19.4566 119.099 19.3822 118.652 19.0845C118.28 18.8612 117.908 18.4891 117.685 18.117C117.461 17.5961 117.313 17.0752 117.387 16.4798ZM118.131 16.2566C118.131 16.7775 118.206 17.2984 118.429 17.745C118.578 18.117 118.875 18.4891 119.247 18.7124C119.62 18.9357 119.992 19.0101 120.364 19.0101C120.736 19.0101 121.108 18.9357 121.406 18.7124C121.703 18.4891 121.927 18.2659 122.075 17.8938C122.224 17.4473 122.373 17.0008 122.299 16.5543C122.299 16.1077 122.224 15.5868 122.001 15.1403C121.852 14.7682 121.554 14.4705 121.257 14.2473C120.885 14.024 120.513 13.9496 120.066 13.9496C119.694 13.9496 119.322 14.024 119.024 14.2473C118.727 14.3961 118.503 14.6938 118.354 14.9915C118.206 15.438 118.131 15.8101 118.131 16.2566ZM125.35 18.8612L126.094 18.8612C126.54 18.8612 126.987 18.8612 127.21 18.8612C127.434 18.8612 127.582 18.7868 127.806 18.7868L128.029 17.8938L128.252 17.8938C128.178 18.4147 128.103 18.8612 128.103 19.2333C127.806 19.3077 127.434 19.3077 127.136 19.3077L125.275 19.3077L124.085 19.3077L124.085 19.0845C124.308 19.0101 124.382 18.9357 124.457 18.7868C124.531 18.4147 124.531 17.9682 124.531 17.5961L124.531 15.5124C124.531 15.0659 124.531 14.6194 124.457 14.2473C124.382 14.1729 124.308 14.0984 124.159 14.0984L123.713 14.0984L123.713 13.8752L124.903 13.8752C125.201 13.8752 125.573 13.8752 126.02 13.8752L126.02 14.0984L125.573 14.0984C125.424 14.0984 125.35 14.0984 125.275 14.2473C125.201 14.5449 125.201 14.917 125.201 15.2147L125.201 17.6705L125.201 18.7868L125.35 18.8612Z" fill="white"/>
<path d="M45.4985 36.0801C45.4985 34.2941 45.573 32.8057 45.573 31.4662C45.573 30.1266 45.573 28.5639 45.4985 26.8522C45.4985 26.4057 45.4241 26.108 45.2009 25.9592C44.7544 25.8104 44.3078 25.7359 43.8613 25.8104L43.8613 25.2894C44.8288 25.3638 45.7218 25.3638 46.3916 25.3638C47.0613 25.3638 47.8799 25.3638 48.9218 25.2894L48.9218 25.8104C48.4753 25.7359 48.0288 25.8104 47.5823 25.9592C47.359 26.108 47.2846 26.4057 47.2846 26.8522L47.2102 30.9452L50.9311 30.9452L54.7265 30.9452L54.652 26.8522C54.652 26.4057 54.5776 26.108 54.3544 25.9592C53.9079 25.8104 53.4613 25.7359 53.0148 25.8104L53.0148 25.2894C53.9823 25.3638 54.8753 25.3638 55.5451 25.3638C56.2148 25.3638 57.0334 25.3638 58.0009 25.2894L58.0009 25.8104C57.5544 25.7359 57.1079 25.8104 56.6613 25.9592C56.4381 26.108 56.3637 26.4057 56.3637 26.8522C56.3637 28.6383 56.2893 30.1266 56.2893 31.4662C56.2893 32.8057 56.2893 34.3685 56.3637 36.0801C56.3637 36.5267 56.4381 36.8243 56.6613 36.9732C57.1079 37.122 57.5544 37.1964 58.0009 37.122L58.0009 37.6429C57.0334 37.5685 56.1404 37.5685 55.4706 37.5685C54.8009 37.5685 53.9823 37.5685 53.0148 37.6429L53.0148 37.122C53.4613 37.1964 53.9079 37.122 54.3544 36.8987C54.5776 36.7499 54.652 36.4522 54.652 36.0057L54.7265 31.5406C53.3125 31.5406 52.1218 31.5406 51.0055 31.5406L47.2102 31.5406L47.2846 36.0057C47.2846 36.4522 47.359 36.7499 47.5823 36.8987C48.0288 37.0476 48.4753 37.122 48.9218 37.122L48.9218 37.6429C47.9544 37.5685 47.0613 37.5685 46.3916 37.5685C45.7218 37.5685 44.9032 37.5685 43.9357 37.6429L43.9357 37.122C44.3823 37.1964 44.8288 37.122 45.2753 36.9732C45.3497 36.8243 45.4985 36.5267 45.4985 36.0801ZM61.1265 37.8662C60.5311 37.8662 59.9358 37.7174 59.4148 37.3453C58.9683 36.9732 58.7451 36.4522 58.8195 35.8569C58.8195 35.1871 58.9683 34.5918 59.4148 34.0708C59.9358 33.5499 60.5311 33.2522 61.2009 33.1778L64.1032 32.5825C64.1032 31.9871 63.9544 31.3173 63.5079 30.8708C63.0613 30.4243 62.5404 30.2011 61.9451 30.2755C61.7218 30.2755 61.4241 30.3499 61.2009 30.4243C60.9776 30.4987 60.7544 30.5732 60.6055 30.6476L60.0846 31.9127L59.4893 31.615L59.4893 30.3499C60.0102 29.9778 60.5311 29.6801 61.1265 29.4569C61.573 29.308 62.0195 29.1592 62.466 29.1592C63.2846 29.0848 64.1776 29.3825 64.773 29.9034C65.2939 30.5732 65.5916 31.4662 65.5172 32.2848L65.5172 33.3266L65.5172 36.0801C65.4427 36.3778 65.5916 36.6755 65.7404 36.9732C66.0381 37.122 66.4102 37.1964 66.7079 37.122L66.7079 37.5685L65.4427 37.5685L64.0288 37.5685L64.0288 36.1546L62.0195 37.6429C61.7218 37.7918 61.4241 37.8662 61.1265 37.8662ZM64.1032 33.4011L64.1032 32.9546L61.8707 33.5499C61.4241 33.6243 61.052 33.8476 60.7544 34.2197C60.5311 34.5173 60.3823 34.8894 60.3823 35.336C60.3823 35.708 60.4567 36.0801 60.7544 36.3778C61.052 36.6755 61.4241 36.7499 61.7962 36.7499C62.2427 36.7499 62.7637 36.6011 63.1358 36.3034C63.5079 36.0057 63.8055 35.708 64.1032 35.4104C64.1032 34.6662 64.1032 33.9964 64.1032 33.4011ZM70.1311 37.8662C69.5358 37.8662 68.9404 37.7174 68.4195 37.3453C67.973 36.9732 67.7497 36.4522 67.8241 35.8569C67.7497 35.1871 67.973 34.5918 68.4195 34.0708C68.9404 33.5499 69.5358 33.2522 70.2055 33.1778L73.1079 32.5825C73.1079 31.9871 72.959 31.3173 72.5125 30.8708C72.066 30.4243 71.5451 30.2011 70.9497 30.2755C70.7265 30.2755 70.4288 30.3499 70.2055 30.4243C69.9823 30.4987 69.759 30.5732 69.6102 30.6476L69.0893 31.9127L68.4939 31.615L68.4939 30.3499C69.0148 29.9778 69.5358 29.6801 70.1311 29.4569C70.5776 29.308 71.0241 29.1592 71.4707 29.1592C72.2893 29.0848 73.1823 29.3825 73.7776 29.9034C74.2986 30.5732 74.5963 31.4662 74.5218 32.2848L74.5218 33.3266L74.5218 36.0801C74.4474 36.3778 74.5962 36.6755 74.7451 36.9732C75.0428 37.122 75.4149 37.1964 75.7125 37.122L75.7125 37.5685L74.373 37.5685L72.959 37.5685L72.959 36.1546L70.9497 37.6429C70.7265 37.7918 70.4288 37.8662 70.1311 37.8662ZM73.0335 33.4011L73.0335 32.9546L70.8009 33.5499C70.3544 33.6243 69.9823 33.8476 69.6846 34.2197C69.4614 34.5173 69.3125 34.8894 69.3125 35.336C69.3125 35.708 69.3869 36.0801 69.6846 36.3778C69.9823 36.6755 70.3544 36.7499 70.7265 36.7499C71.173 36.7499 71.6939 36.6011 72.066 36.3034C72.4381 36.0057 72.7358 35.708 73.0335 35.4104C73.0335 34.6662 73.0335 33.9964 73.0335 33.4011ZM77.4242 31.3918C77.4242 30.9453 77.3497 30.6476 77.2009 30.4987C76.8288 30.3499 76.4567 30.2755 76.0102 30.3499L76.0102 29.9034C76.5311 29.829 76.9776 29.7546 77.4242 29.6801C77.8707 29.5313 78.3916 29.3825 78.8381 29.2336L79.1358 29.3825C79.0614 29.6801 78.987 29.9778 78.987 30.2755L78.987 31.0941C79.5079 30.5732 80.1032 30.0522 80.6986 29.6057C81.1451 29.308 81.7404 29.1592 82.2614 29.1592C83.2288 29.0848 84.1218 29.4569 84.7916 30.1266C85.4614 30.8708 85.7591 31.8383 85.7591 32.8057C85.6846 34.1453 85.0893 35.336 84.1218 36.1546C83.2288 37.122 82.0381 37.7174 80.6986 37.7918C80.1032 37.7918 79.5823 37.6429 79.0614 37.4197L78.9125 37.3453L78.987 40.9174C78.987 41.3639 79.0614 41.6615 79.2846 41.8104C79.6567 41.9592 80.0288 42.0336 80.4753 41.9592L80.4753 42.4057C79.6567 42.3313 78.9125 42.3313 78.2428 42.3313C77.573 42.3313 76.8288 42.3313 76.0102 42.4057L76.0102 42.0336C76.3823 42.1081 76.8288 42.0336 77.1265 41.8848C77.2753 41.736 77.3497 41.4383 77.4242 40.9918C77.4242 38.9825 77.4986 37.2708 77.4986 35.8569L77.4242 31.3918ZM81.3683 36.9732C82.187 37.0476 82.9311 36.6755 83.4521 36.0801C83.973 35.336 84.2707 34.4429 84.1963 33.4755C84.1963 32.6569 83.973 31.8383 83.4521 31.1685C83.0056 30.5732 82.2614 30.2755 81.5172 30.2755C80.4009 30.3499 79.4335 30.9453 78.987 31.9127L78.987 35.708C79.2846 36.1546 79.6567 36.4522 80.0288 36.6755C80.4753 36.8987 80.9218 37.0476 81.3683 36.9732ZM92.1591 31.7639L92.0846 31.2429C92.0846 31.0941 92.0102 30.9453 92.0102 30.8708C92.0102 30.7964 91.9358 30.6476 91.8614 30.5732C91.7125 30.3499 91.4893 30.2011 91.3405 30.1266C90.9684 29.9034 90.5963 29.829 90.2242 29.829C89.7777 29.829 89.2567 29.9778 88.8846 30.2011C88.587 30.4987 88.3637 30.8708 88.4381 31.3173C88.4381 31.6894 88.587 31.9871 88.8846 32.2104C89.4056 32.508 90.0009 32.6569 90.5963 32.7313C91.3405 32.8057 92.0846 33.1034 92.7544 33.5499C93.2009 33.922 93.4242 34.4429 93.3498 34.9639C93.3498 35.7825 92.9777 36.6011 92.3079 37.122C91.5637 37.7174 90.6707 38.015 89.7032 37.9406C89.2567 37.9406 88.8846 37.9406 88.4381 37.8662C87.9172 37.7918 87.4707 37.6429 87.0242 37.5685C87.0986 37.0476 87.0986 36.6755 87.173 36.3034C87.173 36.0057 87.173 35.5592 87.173 35.1127L87.6939 35.1127L87.7684 36.0801C87.7684 36.229 87.8428 36.3778 87.9172 36.4522C87.9916 36.6011 88.066 36.6755 88.2149 36.7499C88.4381 36.8987 88.6614 37.0476 88.9591 37.122C89.3311 37.2708 89.7032 37.3453 90.0753 37.3453C90.5963 37.3453 91.1916 37.1964 91.6381 36.8987C92.0102 36.6011 92.2335 36.0801 92.2335 35.5592C92.2335 35.1871 92.0102 34.815 91.7125 34.5918C91.0428 34.2941 90.373 34.0708 89.7032 33.9964C89.0335 33.922 88.3637 33.6987 87.7684 33.2522C87.3963 32.8801 87.173 32.2848 87.2474 31.7639C87.2474 31.0197 87.6195 30.3499 88.1404 29.9034C88.8102 29.3825 89.7032 29.1592 90.5219 29.1592C90.9684 29.1592 91.4149 29.2336 91.8614 29.308C92.2335 29.3825 92.6056 29.5313 92.9777 29.6801C92.9032 30.0522 92.8288 30.4243 92.8288 30.6476C92.8288 31.0197 92.7544 31.3173 92.7544 31.6894L92.1591 31.7639ZM96.8474 37.8662C96.2521 37.8662 95.6567 37.7174 95.1358 37.3453C94.6893 36.9732 94.466 36.4522 94.5405 35.8569C94.5405 35.1871 94.6893 34.5918 95.1358 34.0708C95.6567 33.5499 96.2521 33.2522 96.9218 33.1778L99.8242 32.5825C99.8242 31.9871 99.6753 31.3173 99.2288 30.8708C98.7823 30.4243 98.2614 30.2011 97.666 30.2755C97.4428 30.2755 97.1451 30.3499 96.9218 30.4243C96.6986 30.4987 96.4753 30.5732 96.2521 30.6476L95.7312 31.9127L95.2102 31.7639L95.2102 30.4987C95.7312 30.1266 96.2521 29.829 96.8474 29.6057C97.2939 29.4569 97.7405 29.308 98.187 29.308C99.0056 29.2336 99.8986 29.5313 100.494 30.0522C101.015 30.722 101.313 31.615 101.238 32.4336L101.238 33.4755L101.238 36.229C101.164 36.5267 101.313 36.8243 101.461 37.122C101.759 37.2708 102.131 37.3453 102.429 37.2708L102.429 37.7174L101.015 37.6429L99.6009 37.6429L99.6009 36.229L97.5916 37.7174C97.4428 37.7918 97.1451 37.8662 96.8474 37.8662ZM99.8242 33.4011L99.8242 32.9546L97.5916 33.5499C97.1451 33.6243 96.773 33.8476 96.4753 34.2197C96.2521 34.5173 96.1032 34.9639 96.1032 35.336C96.1032 35.708 96.1777 36.0801 96.4753 36.3778C96.773 36.6755 97.1451 36.7499 97.5172 36.7499C97.9637 36.7499 98.4846 36.6011 98.8567 36.3034C99.2288 36.0057 99.5265 35.708 99.8242 35.4104C99.8242 34.6662 99.8242 33.9964 99.8242 33.4011ZM104.959 36.1546C104.959 34.2197 105.033 32.508 105.033 31.0941L105.033 26.7778C105.033 26.2569 104.959 25.8848 104.81 25.8104C104.438 25.6615 103.992 25.6615 103.545 25.7359L103.545 25.2894C104.066 25.215 104.513 25.1406 104.959 25.0662C105.406 24.9173 105.927 24.7685 106.373 24.5452L106.671 24.6941C106.596 25.1406 106.522 25.5127 106.522 25.8848C106.522 26.1825 106.447 26.7778 106.447 27.522L106.447 31.1685C106.447 32.6569 106.447 34.3685 106.522 36.229C106.522 36.6755 106.596 36.9732 106.82 37.122C107.192 37.2708 107.564 37.3453 108.01 37.2708L108.01 37.7174C107.192 37.6429 106.447 37.6429 105.778 37.6429C105.108 37.6429 104.364 37.6429 103.545 37.7174L103.545 37.2708C103.917 37.3453 104.364 37.2708 104.661 37.122C104.81 36.8987 104.959 36.6011 104.959 36.1546ZM111.136 32.1359L111.136 34.9639C111.136 35.4848 111.285 35.9313 111.582 36.3034C111.88 36.6755 112.327 36.8243 112.773 36.8243C113.368 36.8243 113.964 36.6011 114.41 36.1546C114.857 35.8569 115.154 35.336 115.154 34.7406L115.154 33.4011L115.154 31.3918C115.154 31.0941 115.154 30.7964 115.006 30.4987C114.931 30.3499 114.708 30.3499 114.41 30.3499L113.74 30.3499L113.74 29.9034C114.261 29.829 114.708 29.7546 115.154 29.6801C115.601 29.5313 116.122 29.3825 116.568 29.2336L116.866 29.3825C116.792 29.6801 116.792 29.9778 116.717 30.2755C116.717 30.5732 116.717 31.2429 116.643 32.1359L116.643 33.4011L116.643 36.1546C116.643 36.6011 116.717 36.8987 116.94 37.0476C117.313 37.1964 117.759 37.2708 118.131 37.1964L118.131 37.6429L116.717 37.5685L115.229 37.5685L115.229 36.0801C114.857 36.5267 114.485 36.8987 114.038 37.1964C113.443 37.6429 112.699 37.7918 112.029 37.7918C111.359 37.7918 110.764 37.6429 110.243 37.1964C109.796 36.7499 109.573 36.1546 109.573 35.4848L109.573 33.3266L109.573 31.3173C109.573 31.0197 109.573 30.722 109.424 30.4243C109.35 30.2755 109.127 30.2755 108.829 30.2755L108.159 30.2755L108.159 29.829C108.68 29.7546 109.127 29.6801 109.573 29.6057C110.02 29.4569 110.54 29.308 110.987 29.1592L111.285 29.308C111.21 29.6057 111.136 29.9034 111.136 30.2011C111.136 30.4987 111.136 31.1685 111.136 32.1359ZM126.54 36.1546C126.54 36.6011 126.615 36.8987 126.838 37.0476C127.21 37.1964 127.582 37.2708 128.029 37.1964L128.029 37.6429C127.21 37.5685 126.466 37.5685 125.796 37.5685C125.127 37.5685 124.382 37.5685 123.564 37.6429L123.564 37.1964C123.936 37.2708 124.382 37.1964 124.68 37.0476C124.829 36.8987 124.903 36.6011 124.978 36.1546C124.978 34.2197 125.052 32.508 125.052 31.0941L125.052 26.7778C125.052 26.2569 124.978 25.8848 124.829 25.8104C124.382 25.6615 123.936 25.6615 123.489 25.7359L123.489 25.2894C124.01 25.215 124.457 25.1406 124.978 25.0662C125.499 24.9173 125.945 24.7685 126.466 24.5452L126.764 24.6941C126.689 25.1406 126.615 25.5127 126.615 25.8848C126.615 26.1825 126.54 26.7778 126.54 27.522L126.54 31.1685L126.54 33.029L126.615 33.029C127.359 32.3592 128.029 31.8383 128.55 31.3173C129.071 30.7964 129.74 30.2011 130.485 29.4569L132.271 29.4569L132.271 29.9034L132.196 29.9034C131.824 29.9778 131.452 30.0522 131.154 30.2011C130.634 30.4987 130.187 30.7964 129.74 31.1685L129.145 31.615L127.954 32.5825L129.74 34.3685L131.527 36.0801C131.75 36.3778 132.047 36.6011 132.345 36.8243C132.568 36.8987 132.792 36.9732 133.015 36.9732L133.015 37.3453L132.122 37.6429L131.229 37.9406C130.261 36.9732 129.517 36.1546 128.773 35.4848L126.392 33.1778L126.54 36.1546ZM134.652 36.6755C133.834 35.7825 133.461 34.6662 133.461 33.5499C133.387 32.3592 133.834 31.2429 134.727 30.4243C135.545 29.6057 136.736 29.1592 137.927 29.2336C139.043 29.1592 140.085 29.6057 140.903 30.3499C141.647 31.0941 142.094 32.2104 142.094 33.2522C142.168 34.5173 141.722 35.708 140.829 36.6011C140.01 37.4941 138.82 37.9406 137.629 37.9406C136.438 37.9406 135.396 37.4197 134.652 36.6755ZM139.787 36.3778C140.234 35.6336 140.457 34.7406 140.457 33.922C140.531 32.8801 140.234 31.8383 139.713 30.8708C139.266 30.1266 138.447 29.7546 137.554 29.7546C136.885 29.7546 136.215 30.0522 135.768 30.5732C135.322 31.2429 135.099 32.0615 135.099 32.8801C135.024 33.9964 135.322 35.1127 135.843 36.0801C136.289 36.8243 137.108 37.2708 137.927 37.2708C138.671 37.2708 139.34 36.9732 139.787 36.3778ZM144.029 36.1546C144.029 34.2197 144.103 32.508 144.103 31.0941L144.103 26.7778C144.103 26.2569 144.029 25.8848 143.88 25.8104C143.508 25.6615 143.061 25.6615 142.615 25.7359L142.615 25.2894C143.136 25.215 143.582 25.1406 144.029 25.0662C144.475 24.9173 144.996 24.7685 145.443 24.5452L145.741 24.6941C145.666 25.1406 145.592 25.5127 145.592 25.8848C145.592 26.2569 145.517 26.7778 145.517 27.522L145.517 31.1685C145.517 32.6569 145.517 34.3685 145.592 36.229C145.592 36.6755 145.666 36.9732 145.889 37.122C146.261 37.2708 146.634 37.3453 147.08 37.2708L147.08 37.7174C146.261 37.6429 145.517 37.6429 144.847 37.6429C144.178 37.6429 143.434 37.6429 142.615 37.7174L142.615 37.2708C142.987 37.3453 143.434 37.2708 143.731 37.122C143.954 36.8987 144.029 36.6011 144.029 36.1546ZM149.461 36.1546C149.461 34.2197 149.536 32.508 149.536 31.0941L149.536 26.7778C149.536 26.2569 149.461 25.8848 149.313 25.8104C148.941 25.6615 148.494 25.6615 148.047 25.7359L148.047 25.2894C148.568 25.215 149.015 25.1406 149.461 25.0662C149.908 24.9173 150.429 24.7685 150.875 24.5452L151.173 24.6941C151.099 25.1406 151.024 25.5127 151.024 25.8848C151.024 26.1825 150.95 26.7778 150.95 27.522L150.95 31.1685C150.95 32.6569 150.95 34.3685 151.024 36.229C151.024 36.6755 151.099 36.9732 151.322 37.122C151.694 37.2708 152.066 37.3453 152.513 37.2708L152.513 37.7174C151.694 37.6429 150.95 37.6429 150.28 37.6429C149.61 37.6429 148.866 37.6429 148.047 37.7174L148.047 37.2708C148.42 37.3453 148.866 37.2708 149.164 37.122C149.387 36.8987 149.461 36.6011 149.461 36.1546ZM156.903 37.8662C155.861 37.8662 154.82 37.4197 154.075 36.6755C153.331 35.7825 152.959 34.6662 152.959 33.5499C152.959 32.3592 153.406 31.2429 154.224 30.4987C155.043 29.6801 156.159 29.2336 157.35 29.308C158.243 29.308 159.061 29.6801 159.657 30.3499C160.178 30.9452 160.475 31.6894 160.55 32.4336L160.55 33.3266L158.764 33.5499L156.754 33.5499L154.596 33.5499C154.596 34.4429 154.894 35.2615 155.341 36.0057C155.861 36.7499 156.68 37.122 157.573 37.0476C158.02 37.0476 158.466 36.9732 158.913 36.8987C159.359 36.7499 159.731 36.5267 160.103 36.229L160.327 36.4522L160.029 37.122C159.582 37.4197 159.061 37.6429 158.466 37.7918C157.945 37.7918 157.424 37.8662 156.903 37.8662ZM159.061 32.8057L159.061 32.508C159.136 31.7639 158.913 31.0941 158.466 30.4987C158.094 29.9778 157.499 29.7546 156.903 29.7546C156.234 29.7546 155.564 30.0522 155.117 30.5732C154.671 31.2429 154.448 31.9871 154.522 32.7313L156.68 32.7313L159.061 32.8057ZM165.536 37.8662C164.494 37.9406 163.527 37.4941 162.857 36.6755C162.187 35.8569 161.815 34.815 161.815 33.6987C161.889 32.508 162.41 31.3918 163.303 30.6476C164.122 29.7546 165.238 29.2336 166.354 29.1592C166.875 29.1592 167.396 29.2336 167.843 29.4569L168.364 29.6801L168.364 26.7034C168.364 26.1825 168.289 25.8104 168.141 25.7359C167.768 25.5871 167.322 25.5871 166.875 25.6615L166.875 25.215C167.396 25.1406 167.843 25.0662 168.289 24.9918C168.736 24.8429 169.257 24.6941 169.703 24.4708L170.001 24.6197C169.927 25.0662 169.852 25.4383 169.852 25.8104C169.852 26.1825 169.778 26.7034 169.778 27.4476L169.778 31.0941C169.778 32.5825 169.778 34.2941 169.852 36.1546C169.852 36.6011 169.927 36.8987 170.15 37.0476C170.522 37.1964 170.894 37.2708 171.341 37.1964L171.341 37.6429L169.852 37.6429L168.364 37.6429L168.364 36.0801C167.843 36.6011 167.248 37.0476 166.652 37.4941C166.429 37.7918 165.982 37.8662 165.536 37.8662ZM165.982 29.9034C165.238 29.9034 164.494 30.2011 164.048 30.8708C163.527 31.615 163.303 32.508 163.378 33.4011C163.303 34.2941 163.601 35.1127 164.122 35.8569C164.568 36.4522 165.313 36.8243 166.057 36.8243C166.503 36.8243 167.024 36.6755 167.396 36.3778C167.843 36.0801 168.141 35.6336 168.364 35.1871L168.364 31.0941C168.066 30.7964 167.62 30.4987 167.173 30.2755C166.875 30.0522 166.429 29.9778 165.982 29.9034ZM172.457 37.2708C173.648 35.8569 174.615 34.5918 175.508 33.5499C176.252 32.5825 177.22 31.3918 178.187 30.0522C177.741 29.9778 177.294 29.9778 176.848 29.9778C176.475 29.9778 176.029 29.9778 175.582 30.0522C175.136 30.0522 174.615 30.1266 174.168 30.2011C174.02 30.2755 173.945 30.3499 173.945 30.5732L173.722 31.7639L173.201 31.7639C173.275 31.3173 173.275 30.8708 173.35 30.5732C173.35 30.2011 173.424 29.829 173.424 29.3825L177.517 29.4569L180.42 29.3825L180.42 29.7546C179.229 31.1685 178.261 32.4336 177.368 33.4755L174.689 36.9732C175.285 37.0476 175.88 37.0476 176.475 37.0476C176.996 37.0476 177.592 37.0476 178.187 36.9732C178.634 36.9732 179.154 36.8987 179.601 36.8243C179.75 36.7499 179.824 36.6011 179.824 36.3778L180.048 35.0383L180.568 35.0383C180.494 35.5592 180.494 36.0057 180.42 36.3778C180.42 36.7499 180.345 37.1964 180.345 37.7174L175.285 37.6429L172.382 37.7174L172.457 37.2708ZM176.401 28.5639C175.954 27.9685 175.657 27.4476 175.285 27.0755C174.913 26.7034 174.615 26.1825 174.168 25.5871L174.764 25.5871L176.848 27.522L178.931 25.5871L179.527 25.5871L177.294 28.5639L176.401 28.5639Z" fill="white"/>
</svg>
