<svg width="182" height="48" viewBox="0 0 182 48" fill="none" xmlns="http://www.w3.org/2000/svg">
<path d="M0.869141 37.507L0.869141 39.6652L1.53891 39.6652C5.40868 39.6652 9.27845 40.3349 12.8505 41.6745L12.8505 24.4837C12.8505 21.2837 14.0412 19.5721 15.7529 18.3814C17.3901 19.5721 18.7296 21.3582 18.7296 24.4837L18.7296 44.7256C20.1436 45.6931 21.4831 46.8094 22.6738 48.0001L22.6738 24.4093C22.6738 19.0512 19.8459 16.0744 16.6459 14.214C16.3482 14.0651 16.0506 13.9163 15.7529 13.7675C15.4552 13.9163 15.1575 14.0651 14.8599 14.214C11.0645 16.2233 8.75752 20.1675 8.83194 24.4093L8.83194 37.5814L4.81333 37.5814L4.81333 24.6326C4.81333 13.9907 9.50171 8.33489 15.7529 4.83721C21.632 8.40931 26.6924 13.9907 26.6924 24.6326L26.6924 37.507L30.6366 37.507L30.6366 24.4093C30.6366 11.7582 24.0134 4.83721 16.4971 0.372093C16.2738 0.223256 15.9761 0.0744187 15.7529 3.24917e-08C15.5296 0.0744187 15.2319 0.223256 15.0087 0.372093C7.71566 4.53954 0.869141 11.7582 0.869141 24.4093L0.869141 37.507Z" fill="#B71234"/>
<path d="M47.2537 14.0984C47.2537 14.4705 47.1793 14.917 47.1793 15.2891L47.1793 17.5217C47.1793 17.9682 47.1793 18.4147 47.2537 18.8612C47.3281 18.9357 47.4025 19.0101 47.7002 19.0101L47.9979 19.0101L47.9979 19.2333C47.5514 19.2333 47.1793 19.2333 46.8072 19.2333C46.5095 19.2333 46.1374 19.2333 45.6909 19.2333L45.6909 19.0101L45.9886 19.0101C46.1374 19.0101 46.2118 19.0101 46.3607 18.9357C46.4351 18.8612 46.4351 18.7868 46.4351 18.638C46.4351 18.3403 46.4351 17.9682 46.4351 17.4473L46.4351 15.2147C46.4351 14.7682 46.4351 14.3961 46.4351 14.024L45.9886 14.024C45.6165 14.024 45.3188 14.024 44.9467 14.0984C44.8723 14.0984 44.8723 14.2473 44.7979 14.4705L44.7235 14.9915L44.5002 14.9915L44.5002 14.5449C44.5002 14.3961 44.5002 14.0984 44.4258 13.7263L46.8816 13.7263L49.0397 13.7263C48.9653 14.1729 48.9653 14.5449 48.9653 14.9915L48.7421 14.9915L48.7421 14.4705C48.7421 14.3961 48.7421 14.2473 48.6676 14.1729C48.5932 14.0984 48.5188 14.0984 48.4444 14.0984C48.1467 14.0984 47.849 14.0984 47.4769 14.0984L47.2537 14.0984ZM52.7607 17.3729L50.5281 17.3729L50.3049 18.0426C50.156 18.2659 50.0816 18.5636 50.0816 18.7868C50.0816 18.8612 50.0816 18.8612 50.156 18.9357C50.2304 18.9357 50.3049 19.0101 50.3793 19.0101L50.7514 19.0845L50.7514 19.3077C50.5281 19.3077 50.2304 19.3077 49.9328 19.3077C49.6351 19.3077 49.263 19.3077 48.9653 19.3077L48.9653 19.0845C49.1142 19.0845 49.1886 19.0845 49.3374 19.0101C49.4118 18.9357 49.4862 18.8612 49.4862 18.7868C49.6351 18.4147 49.8583 18.0426 50.0816 17.5961L51.1235 15.2147C51.4211 14.5449 51.57 14.0984 51.7188 13.8008L51.9421 13.8008L53.877 18.3403C53.9514 18.5636 54.0258 18.7124 54.1002 18.9357C54.1002 19.0101 54.1746 19.0101 54.249 19.0845C54.3979 19.0845 54.4723 19.1589 54.6211 19.1589L54.6211 19.3822C54.3235 19.3822 53.9514 19.3822 53.6537 19.3822C53.356 19.3822 52.9839 19.3822 52.5374 19.3822L52.5374 19.1589L52.9095 19.1589C52.9839 19.1589 53.0583 19.1589 53.1328 19.0845C53.2072 19.0845 53.2072 19.0101 53.2072 19.0101C53.2072 18.8612 53.1328 18.7868 53.0583 18.638L52.7607 17.3729ZM50.677 17.0752L52.6863 17.0752L51.7188 14.7682L50.677 17.0752ZM56.7049 18.8612L57.4491 18.8612C57.97 18.8612 58.3421 18.8612 58.5653 18.8612C58.7886 18.8612 58.9374 18.7868 59.1607 18.7868L59.3839 17.8938L59.6072 17.8938C59.5328 18.4147 59.4584 18.8612 59.4584 19.2333C59.1607 19.3077 58.7886 19.3077 58.4909 19.3077L56.6304 19.3077L55.4397 19.3077L55.4397 19.0845C55.663 19.0101 55.7374 18.9357 55.8118 18.7868C55.8863 18.4147 55.8863 17.9682 55.8863 17.5961L55.8863 15.438C55.8863 14.9915 55.8863 14.5449 55.8118 14.1729C55.8118 14.0984 55.663 14.024 55.5142 14.024L55.0676 14.024L55.0676 13.8008L56.4072 13.8008C56.7049 13.8008 57.0025 13.8008 57.5235 13.8008L57.5235 14.024L57.077 14.024C56.9281 14.024 56.8537 14.024 56.8537 14.1729C56.7793 14.4705 56.7793 14.7682 56.8537 15.1403L56.8537 17.5961L56.8537 18.7124L56.8537 18.8612L56.7049 18.8612ZM61.6165 18.8612L62.3607 18.8612C62.8816 18.8612 63.2537 18.8612 63.477 18.8612C63.7002 18.8612 63.8491 18.7868 64.0723 18.7868L64.2956 17.8938L64.5932 17.8938C64.5188 18.4147 64.4444 18.8612 64.4444 19.2333C64.1467 19.3077 63.7746 19.3077 63.477 19.3077L61.6165 19.3077L60.4258 19.3077L60.4258 19.0845C60.6491 19.0101 60.7235 18.9357 60.7979 18.7868C60.8723 18.4147 60.8723 17.9682 60.7979 17.5961L60.7979 15.438C60.7979 14.9915 60.7979 14.5449 60.7235 14.1729C60.7235 14.0984 60.5746 14.024 60.4258 14.024L60.1281 14.024L60.1281 13.8008L61.3932 13.8008C61.6909 13.8008 61.9886 13.8008 62.5095 13.8008L62.5095 14.024L61.9886 14.024C61.8398 14.024 61.7653 14.024 61.7653 14.1729C61.6165 14.3961 61.6165 14.7682 61.6165 15.0659L61.6165 17.5217L61.6165 18.638L61.6165 18.8612ZM65.1142 19.0101L65.3374 19.0101C65.5607 19.0101 65.7095 18.9357 65.7839 18.8612C65.8584 18.3403 65.8584 17.745 65.8584 17.224L65.8584 15.8845C65.8584 15.2891 65.8584 14.7682 65.7839 14.1729C65.7095 14.0984 65.6351 14.024 65.4118 14.024L65.1142 14.024L65.1142 13.8008C65.5607 13.8008 66.0072 13.8008 66.3793 13.8008C66.7514 13.8008 67.0491 13.8008 67.3467 13.8008L67.3467 14.024L67.0491 14.024C66.9002 14.024 66.8258 14.024 66.677 14.0984C66.6026 14.1729 66.6025 14.3217 66.6025 14.4705C66.6025 14.7682 66.6025 15.2147 66.6025 15.9589L66.6025 17.2984C66.6025 17.8194 66.6026 18.4147 66.677 18.9357C66.7514 19.0101 66.8258 19.0845 67.1235 19.0845L67.3467 19.0845L67.3467 19.3077C67.0491 19.3077 66.677 19.3077 66.3049 19.3077C65.9328 19.3077 65.4863 19.3077 65.1142 19.3077L65.1142 19.0101ZM69.4305 14.6194L69.4305 17.2984C69.4305 17.8938 69.4305 18.3403 69.4305 18.5636C69.4305 18.7124 69.4305 18.7868 69.5049 18.9357C69.6537 19.0101 69.7281 19.0101 69.877 19.0101L70.1002 19.0101L70.1002 19.2333C69.8026 19.2333 69.5793 19.2333 69.356 19.2333L68.3142 19.2333L68.3142 19.0101L68.6119 19.0101C68.7607 19.0101 68.8351 19.0101 68.9095 18.9357C68.9839 18.8612 68.9839 18.7868 68.9839 18.638C68.9839 18.3403 69.0584 17.9682 69.0584 17.5217L69.0584 15.5868C69.0584 15.2147 69.0584 14.8426 69.0584 14.5449C69.0584 14.4705 69.0584 14.3217 68.9839 14.2473C68.9095 14.1729 68.9095 14.1729 68.8351 14.0984C68.7607 14.024 68.6863 14.024 68.5374 14.024L68.3142 14.024L68.3142 13.8008L69.0584 13.8008C69.2072 13.8008 69.4305 13.8008 69.6537 13.8008C69.877 14.0984 70.1746 14.3961 70.3979 14.6938C70.6212 14.9915 70.8444 15.2891 71.0677 15.5868L72.4072 17.224C72.9281 17.8194 73.2258 18.1915 73.4491 18.4147L73.4491 15.9589C73.4491 15.3636 73.4491 14.8426 73.3747 14.2473C73.3002 14.1729 73.2258 14.0984 72.9281 14.0984L72.6305 14.0984L72.6305 13.8752L73.5979 13.8752C73.8212 13.8752 74.1188 13.8752 74.4909 13.8752L74.4909 14.0984L74.2677 14.0984C74.0444 14.0984 73.8956 14.1729 73.8212 14.3217C73.7467 14.4705 73.8212 14.9915 73.8212 16.0333L73.8212 17.745C73.8212 18.1915 73.8212 18.7868 73.8956 19.4566C73.6723 19.4566 73.4491 19.3822 73.3002 19.3077C73.2258 19.3077 73.1514 19.2333 73.1514 19.1589C72.8537 18.8612 72.556 18.4891 72.2584 18.117L69.4305 14.6194ZM76.277 14.6194L76.277 17.2984C76.277 17.8938 76.277 18.3403 76.277 18.5636C76.277 18.7124 76.277 18.7868 76.3514 18.9357C76.5002 19.0101 76.5747 19.0101 76.7235 19.0101L76.9467 19.0101L76.9467 19.2333C76.6491 19.2333 76.4258 19.2333 76.2026 19.2333L75.0863 19.2333L75.0863 19.0101L75.384 19.0101C75.5328 19.0101 75.6072 19.0101 75.6816 18.9357C75.756 18.8612 75.756 18.7868 75.756 18.638C75.756 18.3403 75.8305 17.9682 75.8305 17.5217L75.8305 15.5868C75.8305 15.2147 75.8305 14.8426 75.8305 14.5449C75.8305 14.4705 75.8305 14.3217 75.756 14.2473C75.6816 14.1729 75.6816 14.1729 75.6072 14.0984C75.5328 14.024 75.4584 14.024 75.3095 14.024L75.0863 14.024L75.0863 13.8008L75.8305 13.8008C75.9793 13.8008 76.2026 13.8008 76.4258 13.8008C76.6491 14.0984 76.9467 14.3961 77.17 14.6938C77.3933 14.9915 77.6165 15.2891 77.8398 15.5868L79.1793 17.224C79.7002 17.8194 79.9979 18.1915 80.2212 18.4147L80.2212 15.9589C80.2212 15.3636 80.2212 14.8426 80.1468 14.2473C80.0723 14.1729 79.9979 14.0984 79.7002 14.0984L79.477 14.0984L79.477 13.8752L80.4444 13.8752C80.6677 13.8752 80.9654 13.8752 81.3374 13.8752L81.3374 14.0984L81.0398 14.0984C80.8165 14.0984 80.6677 14.1729 80.5933 14.3217C80.5188 14.4705 80.5933 14.9915 80.5933 16.0333L80.5933 17.745C80.5933 18.1915 80.5933 18.7868 80.6677 19.4566C80.4444 19.4566 80.2212 19.3822 80.0723 19.3077C79.9979 19.3077 79.9235 19.2333 79.9235 19.1589C79.6258 18.7868 79.2537 18.4891 78.9561 18.0426L76.277 14.6194ZM85.4305 17.3729L83.1979 17.3729L82.9002 18.0426C82.7514 18.2659 82.677 18.5636 82.677 18.7868C82.677 18.8612 82.677 18.8612 82.7514 18.9357C82.8258 18.9357 82.9002 19.0101 82.9747 19.0101L83.3468 19.0845L83.3468 19.3077C83.1235 19.3077 82.8258 19.3077 82.5281 19.3077C82.2305 19.3077 81.8584 19.3077 81.5607 19.3077L81.5607 19.0845L81.7095 19.0845C81.8584 19.0845 81.9328 19.0845 82.0816 19.0101C82.1561 18.9357 82.2305 18.8612 82.2305 18.7868C82.3793 18.4147 82.6026 18.0426 82.8258 17.5961L83.8677 15.2147C84.1654 14.5449 84.3142 14.0984 84.463 13.8008L84.7607 13.8008L86.6956 18.3403C86.77 18.5636 86.8444 18.7124 86.9188 18.9357C86.9188 19.0101 86.9933 19.0101 87.0677 19.0845C87.2165 19.0845 87.2909 19.1589 87.4398 19.1589L87.4398 19.3822C87.1421 19.3822 86.77 19.3822 86.4723 19.3822C86.1747 19.3822 85.8026 19.3822 85.3561 19.3822L85.3561 19.1589L85.7282 19.1589C85.8026 19.1589 85.877 19.1589 85.9514 19.0845C86.0258 19.0845 86.0258 19.0101 86.0258 19.0101C86.0258 18.8612 85.9514 18.7868 85.877 18.638L85.4305 17.3729ZM83.3468 17.0752L85.2816 17.0752L84.3142 14.7682L83.3468 17.0752ZM90.9375 14.024L90.9375 13.8008L92.1282 13.8008L93.2444 13.8008L93.2444 14.024L92.9468 14.024C92.7235 14.024 92.5747 14.0984 92.5003 14.1729C92.4258 14.6194 92.4258 14.9915 92.4258 15.438L92.4258 16.9263C92.4258 17.2984 92.4258 17.6705 92.5003 18.0426C92.5747 18.2659 92.7235 18.4891 92.9468 18.5636C93.2444 18.7124 93.6165 18.7868 93.9886 18.7868C94.3607 18.7868 94.7328 18.7124 95.1049 18.5636C95.3282 18.4891 95.477 18.2659 95.5514 18.0426C95.7003 17.5961 95.7003 17.1496 95.7003 16.7031L95.7003 15.2147C95.7003 14.8426 95.7003 14.4705 95.6258 14.0984C95.5514 14.024 95.4026 13.9496 95.1049 13.9496L94.8816 13.9496L94.8816 13.7263L95.9235 13.7263C96.1468 13.7263 96.4444 13.7263 96.8165 13.7263L96.8165 13.9496L96.5189 13.9496C96.2956 13.9496 96.2212 14.024 96.1468 14.0984C96.0723 14.4705 95.9979 14.8426 96.0724 15.2147L96.0724 16.6287C96.0724 17.0752 96.0723 17.5217 95.9979 17.9682C95.9235 18.1915 95.7747 18.4147 95.6258 18.5636C95.4026 18.7868 95.1793 18.9357 94.9561 19.0101C94.6584 19.1589 94.2863 19.1589 93.9142 19.1589C93.5421 19.1589 93.17 19.0845 92.8723 19.0101C92.6491 18.9357 92.3514 18.7868 92.2026 18.638C92.0537 18.4891 91.9049 18.3403 91.9049 18.117C91.8305 17.745 91.7561 17.4473 91.8305 17.0752L91.8305 15.2147C91.8305 14.8426 91.8305 14.3961 91.7561 14.024C91.6816 13.9496 91.6072 13.8752 91.3096 13.8752L90.9375 13.8752L90.9375 14.024ZM93.17 12.5356C93.3933 12.5356 93.6165 12.7589 93.6165 12.9822C93.6165 13.2054 93.3933 13.4287 93.17 13.4287C92.9468 13.4287 92.7235 13.2054 92.7235 12.9822C92.7235 12.8333 92.7979 12.7589 92.8723 12.6845C92.9468 12.5356 93.0956 12.5356 93.17 12.5356ZM94.8816 12.5356C95.1049 12.5356 95.3282 12.7589 95.3282 12.9822C95.3282 13.131 95.2537 13.2054 95.1793 13.2798C95.1049 13.3543 95.0305 13.4287 94.8816 13.4287C94.7328 13.4287 94.6584 13.3543 94.584 13.2798C94.4351 13.131 94.4351 12.8333 94.584 12.6845C94.6584 12.5356 94.7328 12.5356 94.8816 12.5356ZM99.1235 18.8612L99.8677 18.8612C100.314 18.8612 100.761 18.8612 100.984 18.8612C101.207 18.8612 101.356 18.7868 101.579 18.7868L101.803 17.8938L102.026 17.8938C101.951 18.4147 101.877 18.8612 101.877 19.2333C101.579 19.3077 101.207 19.3077 100.91 19.3077L99.0491 19.3077L97.8584 19.3077L97.8584 19.0845C98.0072 19.0101 98.1561 18.9357 98.2305 18.7868C98.3049 18.4147 98.3049 17.9682 98.3049 17.5961L98.3049 15.5124C98.3049 15.0659 98.3049 14.6194 98.2305 14.2473C98.1561 14.1729 98.0817 14.0984 97.9328 14.0984L97.4863 14.0984L97.4863 13.8752L98.677 13.8752C98.9747 13.8752 99.3468 13.8752 99.7933 13.8752L99.7933 14.0984L99.3468 14.0984C99.1979 14.0984 99.1235 14.0984 99.0491 14.2473C98.9747 14.5449 98.9747 14.917 98.9747 15.2147L98.9747 17.6705L98.9747 18.7868L99.1235 18.8612ZM102.547 19.0101L102.77 19.0101C102.993 19.0101 103.142 18.9357 103.217 18.8612C103.291 18.3403 103.291 17.745 103.291 17.224L103.291 15.8845C103.291 15.2891 103.291 14.7682 103.217 14.1729C103.142 14.0984 103.068 14.024 102.844 14.024L102.547 14.024L102.547 13.8008C102.993 13.8008 103.365 13.8008 103.812 13.8008C104.258 13.8008 104.482 13.8008 104.779 13.8008L104.779 14.024L104.482 14.024C104.333 14.024 104.258 14.024 104.11 14.0984C104.035 14.1729 104.035 14.3217 104.035 14.4705C104.035 14.7682 104.035 15.2147 104.035 15.9589L104.035 17.2984C104.035 17.8194 104.035 18.4147 104.11 18.9357C104.184 19.0101 104.258 19.0845 104.556 19.0845L104.779 19.0845L104.779 19.3077C104.482 19.3077 104.11 19.3077 103.737 19.3077C103.365 19.3077 102.993 19.3077 102.547 19.3077L102.547 19.0101ZM108.054 16.1822L110.658 18.638L110.882 18.8612C110.956 18.9357 110.956 18.9357 111.031 18.9357C111.105 18.9357 111.179 18.9357 111.254 18.9357L111.254 19.1589C111.031 19.1589 110.882 19.1589 110.658 19.1589C110.435 19.1589 110.286 19.1589 110.137 19.1589L107.458 16.6287C107.384 16.5543 107.31 16.4798 107.31 16.4798C107.31 16.4798 107.235 16.5543 107.235 16.6287L107.235 17.8194C107.235 18.117 107.235 18.4147 107.235 18.7868C107.31 18.8612 107.384 18.9357 107.682 18.9357L107.979 18.9357L107.979 19.1589C107.533 19.1589 107.161 19.1589 106.863 19.1589C106.565 19.1589 106.119 19.1589 105.747 19.1589L105.747 18.9357L106.044 18.9357C106.268 18.9357 106.342 18.9357 106.417 18.8612C106.491 18.5636 106.491 18.1915 106.491 17.8938L106.491 15.2891C106.491 14.917 106.491 14.4705 106.417 14.0984C106.342 14.024 106.268 13.9496 106.044 13.9496L105.747 13.9496L105.747 13.7263L106.789 13.7263L107.979 13.7263L107.979 13.9496L107.756 13.9496C107.607 13.9496 107.533 13.9496 107.458 14.024C107.384 14.0984 107.384 14.1729 107.384 14.2473C107.384 14.3961 107.384 14.6938 107.384 15.2891L107.384 16.331L107.458 16.331C107.682 16.1822 107.831 16.0333 107.979 15.8845C108.128 15.7356 108.351 15.5124 108.724 15.1403L109.84 14.024L109.84 13.7263C110.137 13.7263 110.361 13.7263 110.51 13.7263C110.658 13.7263 110.956 13.7263 111.179 13.7263L111.179 13.9496L110.956 13.9496C110.807 13.9496 110.658 13.9496 110.51 14.024C110.212 14.2473 109.914 14.4705 109.617 14.7682L108.054 16.1822ZM111.477 16.4798C111.477 15.7356 111.775 14.9915 112.296 14.4705C112.891 13.9496 113.71 13.6519 114.454 13.7263C115.198 13.7263 115.942 13.9496 116.537 14.4705C117.058 14.9915 117.282 15.6612 117.282 16.4054C117.282 17.224 116.984 17.9682 116.389 18.5636C115.793 19.1589 114.975 19.4566 114.156 19.4566C113.635 19.4566 113.189 19.3822 112.742 19.0845C112.37 18.8612 111.998 18.4891 111.775 18.117C111.551 17.5961 111.403 17.0752 111.477 16.4798ZM112.221 16.2566C112.221 16.7775 112.296 17.2984 112.519 17.745C112.668 18.117 112.965 18.4891 113.337 18.7124C113.71 18.9357 114.082 19.0101 114.454 19.0101C114.826 19.0101 115.198 18.9357 115.496 18.7124C115.793 18.4891 116.017 18.2659 116.165 17.8938C116.314 17.4473 116.463 17.0008 116.389 16.5543C116.389 16.1077 116.314 15.5868 116.091 15.1403C115.942 14.7682 115.644 14.4705 115.347 14.2473C114.975 14.024 114.603 13.9496 114.156 13.9496C113.784 13.9496 113.412 14.024 113.114 14.2473C112.817 14.3961 112.593 14.6938 112.444 14.9915C112.37 15.438 112.221 15.8101 112.221 16.2566ZM117.951 16.4798C117.951 15.7356 118.249 14.9915 118.77 14.4705C119.365 13.9496 120.184 13.6519 120.928 13.7263C121.672 13.7263 122.417 13.9496 123.012 14.4705C123.533 14.9915 123.756 15.6612 123.756 16.4054C123.756 17.224 123.458 17.9682 122.863 18.5636C122.268 19.1589 121.449 19.4566 120.631 19.4566C120.11 19.4566 119.663 19.3822 119.217 19.0845C118.844 18.8612 118.472 18.4891 118.249 18.117C118.026 17.5961 117.877 17.0752 117.951 16.4798ZM118.696 16.2566C118.696 16.7775 118.77 17.2984 118.993 17.745C119.142 18.117 119.44 18.4891 119.812 18.7124C120.184 18.9357 120.556 19.0101 120.928 19.0101C121.3 19.0101 121.672 18.9357 121.97 18.7124C122.268 18.4891 122.491 18.2659 122.64 17.8938C122.789 17.4473 122.937 17.0008 122.863 16.5543C122.863 16.1077 122.789 15.5868 122.565 15.1403C122.417 14.7682 122.119 14.4705 121.821 14.2473C121.449 14.024 121.077 13.9496 120.631 13.9496C120.258 13.9496 119.886 14.024 119.589 14.2473C119.291 14.3961 119.068 14.6938 118.919 14.9915C118.77 15.438 118.696 15.8101 118.696 16.2566ZM125.914 18.8612L126.658 18.8612C127.105 18.8612 127.551 18.8612 127.775 18.8612C127.998 18.8612 128.147 18.7868 128.37 18.7868L128.593 17.8938L128.817 17.8938C128.742 18.4147 128.668 18.8612 128.668 19.2333C128.37 19.3077 127.998 19.3077 127.7 19.3077L125.84 19.3077L124.649 19.3077L124.649 19.0845C124.872 19.0101 124.947 18.9357 125.021 18.7868C125.096 18.4147 125.096 17.9682 125.096 17.5961L125.096 15.5124C125.096 15.0659 125.096 14.6194 125.021 14.2473C124.947 14.1729 124.872 14.0984 124.724 14.0984L124.277 14.0984L124.277 13.8752L125.468 13.8752C125.765 13.8752 126.138 13.8752 126.584 13.8752L126.584 14.0984L126.137 14.0984C125.989 14.0984 125.914 14.0984 125.84 14.2473C125.765 14.5449 125.765 14.917 125.765 15.2147L125.765 17.6705L125.765 18.7868L125.914 18.8612Z" fill="black"/>
<path d="M46.063 36.0801C46.063 34.2941 46.1374 32.8057 46.1374 31.4662C46.1374 30.1266 46.1374 28.5639 46.063 26.8522C46.063 26.4057 45.9886 26.108 45.7653 25.9592C45.3188 25.8104 44.8723 25.7359 44.4258 25.8104L44.4258 25.2894C45.3932 25.3638 46.2862 25.3638 46.956 25.3638C47.6258 25.3638 48.4444 25.3638 49.4863 25.2894L49.4863 25.8104C49.0397 25.7359 48.5932 25.8104 48.1467 25.9592C47.9235 26.108 47.849 26.4057 47.849 26.8522L47.7746 30.9452L51.4956 30.9452L55.2909 30.9452L55.2165 26.8522C55.2165 26.4057 55.1421 26.108 54.9188 25.9592C54.4723 25.8104 54.0258 25.7359 53.5793 25.8104L53.5793 25.2894C54.5467 25.3638 55.4398 25.3638 56.1095 25.3638C56.7793 25.3638 57.5979 25.3638 58.5653 25.2894L58.5653 25.8104C58.1188 25.7359 57.6723 25.8104 57.2258 25.9592C57.0025 26.108 56.9281 26.4057 56.9281 26.8522C56.9281 28.6383 56.8537 30.1266 56.8537 31.4662C56.8537 32.8057 56.8537 34.3685 56.9281 36.0801C56.9281 36.5267 57.0025 36.8243 57.2258 36.9732C57.6723 37.122 58.1188 37.1964 58.5653 37.122L58.5653 37.6429C57.5979 37.5685 56.7049 37.5685 56.0351 37.5685C55.3653 37.5685 54.5467 37.5685 53.5793 37.6429L53.5793 37.122C54.0258 37.1964 54.4723 37.122 54.9188 36.8987C55.1421 36.7499 55.2165 36.4522 55.2165 36.0057L55.2909 31.5406C53.877 31.5406 52.6863 31.5406 51.57 31.5406L47.7746 31.5406L47.849 36.0057C47.849 36.4522 47.9235 36.7499 48.1467 36.8987C48.5932 37.0476 49.0397 37.122 49.4863 37.122L49.4863 37.6429C48.5188 37.5685 47.6258 37.5685 46.956 37.5685C46.2862 37.5685 45.4676 37.5685 44.5002 37.6429L44.5002 37.122C44.9467 37.1964 45.3932 37.122 45.8397 36.9732C45.9142 36.8243 46.063 36.5267 46.063 36.0801ZM61.6909 37.8662C61.0956 37.8662 60.5002 37.7174 59.9793 37.3453C59.5328 36.9732 59.3095 36.4522 59.3839 35.8569C59.3839 35.1871 59.5328 34.5918 59.9793 34.0708C60.5002 33.5499 61.0956 33.2522 61.7653 33.1778L64.6677 32.5825C64.6677 31.9871 64.5188 31.3173 64.0723 30.8708C63.6258 30.4243 63.1049 30.2011 62.5095 30.2755C62.2863 30.2755 61.9886 30.3499 61.7653 30.4243C61.5421 30.4987 61.3188 30.5732 61.17 30.6476L60.6491 31.9127L60.0537 31.615L60.0537 30.3499C60.5746 29.9778 61.0956 29.6801 61.6909 29.4569C62.1374 29.308 62.5839 29.1592 63.0305 29.1592C63.8491 29.0848 64.7421 29.3825 65.3374 29.9034C65.8584 30.5732 66.156 31.4662 66.0816 32.2848L66.0816 33.3266L66.0816 36.0801C66.0072 36.3778 66.156 36.6755 66.3049 36.9732C66.6026 37.122 66.9746 37.1964 67.2723 37.122L67.2723 37.5685L66.0072 37.5685L64.5932 37.5685L64.5932 36.1546L62.5839 37.6429C62.2863 37.7918 61.9886 37.8662 61.6909 37.8662ZM64.6677 33.4011L64.6677 32.9546L62.4351 33.5499C61.9886 33.6243 61.6165 33.8476 61.3188 34.2197C61.0956 34.5173 60.9467 34.8894 60.9467 35.336C60.9467 35.708 61.0212 36.0801 61.3188 36.3778C61.6165 36.6755 61.9886 36.7499 62.3607 36.7499C62.8072 36.7499 63.3281 36.6011 63.7002 36.3034C64.0723 36.0057 64.37 35.708 64.6677 35.4104C64.6677 34.6662 64.6677 33.9964 64.6677 33.4011ZM70.6956 37.8662C70.1002 37.8662 69.5049 37.7174 68.9839 37.3453C68.5374 36.9732 68.3142 36.4522 68.3886 35.8569C68.3142 35.1871 68.5374 34.5918 68.9839 34.0708C69.5049 33.5499 70.1002 33.2522 70.77 33.1778L73.6723 32.5825C73.6723 31.9871 73.5235 31.3173 73.077 30.8708C72.6305 30.4243 72.1095 30.2011 71.5142 30.2755C71.2909 30.2755 70.9933 30.3499 70.77 30.4243C70.5467 30.4987 70.3235 30.5732 70.1746 30.6476L69.6537 31.9127L69.0584 31.615L69.0584 30.3499C69.5793 29.9778 70.1002 29.6801 70.6956 29.4569C71.1421 29.308 71.5886 29.1592 72.0351 29.1592C72.8537 29.0848 73.7467 29.3825 74.3421 29.9034C74.863 30.5732 75.1607 31.4662 75.0863 32.2848L75.0863 33.3266L75.0863 36.0801C75.0119 36.3778 75.1607 36.6755 75.3095 36.9732C75.6072 37.122 75.9793 37.1964 76.277 37.122L76.277 37.5685L74.9374 37.5685L73.5235 37.5685L73.5235 36.1546L71.5142 37.6429C71.2909 37.7918 70.9933 37.8662 70.6956 37.8662ZM73.5979 33.4011L73.5979 32.9546L71.3653 33.5499C70.9188 33.6243 70.5467 33.8476 70.2491 34.2197C70.0258 34.5173 69.877 34.8894 69.877 35.336C69.877 35.708 69.9514 36.0801 70.2491 36.3778C70.5467 36.6755 70.9188 36.7499 71.2909 36.7499C71.7374 36.7499 72.2584 36.6011 72.6305 36.3034C73.0026 36.0057 73.3002 35.708 73.5979 35.4104C73.5979 34.6662 73.5979 33.9964 73.5979 33.4011ZM77.9886 31.3918C77.9886 30.9453 77.9142 30.6476 77.7654 30.4987C77.3933 30.3499 77.0212 30.2755 76.5747 30.3499L76.5747 29.9034C77.0956 29.829 77.5421 29.7546 77.9886 29.6801C78.4351 29.5313 78.9561 29.3825 79.4026 29.2336L79.7002 29.3825C79.6258 29.6801 79.5514 29.9778 79.5514 30.2755L79.5514 31.0941C80.0723 30.5732 80.6677 30.0522 81.263 29.6057C81.7095 29.308 82.3049 29.1592 82.8258 29.1592C83.7933 29.0848 84.6863 29.4569 85.3561 30.1266C86.0258 30.8708 86.3235 31.8383 86.3235 32.8057C86.2491 34.1453 85.6537 35.336 84.6863 36.1546C83.7933 37.122 82.6026 37.7174 81.263 37.7918C80.6677 37.7918 80.1468 37.6429 79.6258 37.4197L79.477 37.3453L79.5514 40.9174C79.5514 41.3639 79.6258 41.6615 79.8491 41.8104C80.2212 41.9592 80.5933 42.0336 81.0398 41.9592L81.0398 42.4057C80.2212 42.3313 79.477 42.3313 78.8072 42.3313C78.1375 42.3313 77.3933 42.3313 76.5747 42.4057L76.5747 42.0336C76.9468 42.1081 77.3933 42.0336 77.6909 41.8848C77.8398 41.736 77.9142 41.4383 77.9886 40.9918C77.9886 38.9825 78.063 37.2708 78.063 35.8569L77.9886 31.3918ZM81.9328 36.9732C82.7514 37.0476 83.4956 36.6755 84.0165 36.0801C84.5375 35.336 84.8351 34.4429 84.7607 33.4755C84.7607 32.6569 84.5375 31.8383 84.0165 31.1685C83.57 30.5732 82.8258 30.2755 82.0816 30.2755C80.9654 30.3499 79.9979 30.9453 79.5514 31.9127L79.5514 35.708C79.8491 36.1546 80.2212 36.4522 80.5933 36.6755C81.0398 36.8987 81.4863 37.0476 81.9328 36.9732ZM92.7235 31.7639L92.6491 31.2429C92.6491 31.0941 92.5747 30.9453 92.5747 30.8708C92.5747 30.7964 92.5003 30.6476 92.4258 30.5732C92.277 30.3499 92.0537 30.2011 91.9049 30.1266C91.5328 29.9034 91.1607 29.829 90.7886 29.829C90.3421 29.829 89.8212 29.9778 89.4491 30.2011C89.1514 30.4987 88.9282 30.8708 89.0026 31.3173C89.0026 31.6894 89.1514 31.9871 89.4491 32.2104C89.97 32.508 90.5654 32.6569 91.1607 32.7313C91.9049 32.8057 92.6491 33.1034 93.3189 33.5499C93.7654 33.922 93.9886 34.4429 93.9142 34.9639C93.9142 35.7825 93.5421 36.6011 92.8723 37.122C92.1282 37.7174 91.2351 38.015 90.2677 37.9406C89.8212 37.9406 89.4491 37.9406 89.0026 37.8662C88.4816 37.7918 88.0351 37.6429 87.5886 37.5685C87.663 37.0476 87.663 36.6755 87.7375 36.3034C87.7375 36.0057 87.7375 35.5592 87.7375 35.1127L88.2584 35.1127L88.3328 36.0801C88.3328 36.229 88.4072 36.3778 88.4816 36.4522C88.5561 36.6011 88.6305 36.6755 88.7793 36.7499C89.0026 36.8987 89.2258 37.0476 89.5235 37.122C89.8956 37.2708 90.2677 37.3453 90.6398 37.3453C91.1607 37.3453 91.7561 37.1964 92.2026 36.8987C92.5747 36.6011 92.7979 36.0801 92.7979 35.5592C92.7979 35.1871 92.5747 34.815 92.277 34.5918C91.6072 34.2941 90.9375 34.0708 90.2677 33.9964C89.5979 33.922 88.9282 33.6987 88.3328 33.2522C87.9607 32.8801 87.7375 32.2848 87.8119 31.7639C87.8119 31.0197 88.184 30.3499 88.7049 29.9034C89.3747 29.3825 90.2677 29.1592 91.0863 29.1592C91.5328 29.1592 91.9793 29.2336 92.4258 29.308C92.7979 29.3825 93.17 29.5313 93.5421 29.6801C93.4677 30.0522 93.3933 30.4243 93.3933 30.6476C93.3933 31.0197 93.3189 31.3173 93.3189 31.6894L92.7235 31.7639ZM97.4119 37.8662C96.8165 37.8662 96.2212 37.7174 95.7003 37.3453C95.2537 36.9732 95.0305 36.4522 95.1049 35.8569C95.1049 35.1871 95.2537 34.5918 95.7003 34.0708C96.2212 33.5499 96.8165 33.2522 97.4863 33.1778L100.389 32.5825C100.389 31.9871 100.24 31.3173 99.7933 30.8708C99.3468 30.4243 98.8258 30.2011 98.2305 30.2755C98.0072 30.2755 97.7096 30.3499 97.4863 30.4243C97.263 30.4987 97.0398 30.5732 96.8165 30.6476L96.2956 31.9127L95.7747 31.7639L95.7747 30.4987C96.2956 30.1266 96.8165 29.829 97.4119 29.6057C97.8584 29.4569 98.3049 29.308 98.7514 29.308C99.57 29.2336 100.463 29.5313 101.058 30.0522C101.579 30.722 101.877 31.615 101.803 32.4336L101.803 33.4755L101.803 36.229C101.728 36.5267 101.877 36.8243 102.026 37.122C102.324 37.2708 102.696 37.3453 102.993 37.2708L102.993 37.7174L101.579 37.6429L100.165 37.6429L100.165 36.229L98.1561 37.7174C98.0072 37.7918 97.7096 37.8662 97.4119 37.8662ZM100.389 33.4011L100.389 32.9546L98.1561 33.5499C97.7096 33.6243 97.3375 33.8476 97.0398 34.2197C96.8165 34.5173 96.6677 34.9639 96.6677 35.336C96.6677 35.708 96.7421 36.0801 97.0398 36.3778C97.3375 36.6755 97.7096 36.7499 98.0817 36.7499C98.5282 36.7499 99.0491 36.6011 99.4212 36.3034C99.7933 36.0057 100.091 35.708 100.389 35.4104C100.389 34.6662 100.389 33.9964 100.389 33.4011ZM105.524 36.1546C105.524 34.2197 105.598 32.508 105.598 31.0941L105.598 26.7778C105.598 26.2569 105.524 25.8848 105.375 25.8104C105.003 25.6615 104.556 25.6615 104.11 25.7359L104.11 25.2894C104.631 25.215 105.077 25.1406 105.524 25.0662C105.97 24.9173 106.491 24.7685 106.937 24.5452L107.235 24.6941C107.161 25.1406 107.086 25.5127 107.086 25.8848C107.086 26.1825 107.012 26.7778 107.012 27.522L107.012 31.1685C107.012 32.6569 107.012 34.3685 107.086 36.229C107.086 36.6755 107.161 36.9732 107.384 37.122C107.756 37.2708 108.128 37.3453 108.575 37.2708L108.575 37.7174C107.756 37.6429 107.012 37.6429 106.342 37.6429C105.672 37.6429 104.928 37.6429 104.11 37.7174L104.11 37.2708C104.482 37.3453 104.928 37.2708 105.226 37.122C105.375 36.8987 105.524 36.6011 105.524 36.1546ZM111.7 32.1359L111.7 34.9639C111.7 35.4848 111.849 35.9313 112.147 36.3034C112.444 36.6755 112.891 36.8243 113.337 36.8243C113.933 36.8243 114.528 36.6011 114.975 36.1546C115.421 35.8569 115.719 35.336 115.719 34.7406L115.719 33.4011L115.719 31.3918C115.719 31.0941 115.719 30.7964 115.57 30.4987C115.496 30.3499 115.272 30.3499 114.975 30.3499L114.305 30.3499L114.305 29.9034C114.826 29.829 115.272 29.7546 115.719 29.6801C116.165 29.5313 116.686 29.3825 117.133 29.2336L117.431 29.3825C117.356 29.6801 117.356 29.9778 117.282 30.2755C117.282 30.5732 117.282 31.2429 117.207 32.1359L117.207 33.4011L117.207 36.1546C117.207 36.6011 117.282 36.8987 117.505 37.0476C117.877 37.1964 118.324 37.2708 118.696 37.1964L118.696 37.6429L117.282 37.5685L115.793 37.5685L115.793 36.0801C115.421 36.5267 115.049 36.8987 114.603 37.1964C114.007 37.6429 113.263 37.7918 112.593 37.7918C111.924 37.7918 111.328 37.6429 110.807 37.1964C110.361 36.7499 110.137 36.1546 110.137 35.4848L110.137 33.3266L110.137 31.3173C110.137 31.0197 110.137 30.722 109.989 30.4243C109.914 30.2755 109.691 30.2755 109.393 30.2755L108.724 30.2755L108.724 29.829C109.244 29.7546 109.691 29.6801 110.137 29.6057C110.584 29.4569 111.105 29.308 111.551 29.1592L111.849 29.308C111.775 29.6057 111.7 29.9034 111.7 30.2011C111.7 30.4987 111.7 31.1685 111.7 32.1359ZM127.105 36.1546C127.105 36.6011 127.179 36.8987 127.403 37.0476C127.775 37.1964 128.147 37.2708 128.593 37.1964L128.593 37.6429C127.775 37.5685 127.031 37.5685 126.361 37.5685C125.691 37.5685 124.947 37.5685 124.128 37.6429L124.128 37.1964C124.5 37.2708 124.947 37.1964 125.244 37.0476C125.393 36.8987 125.468 36.6011 125.542 36.1546C125.542 34.2197 125.617 32.508 125.617 31.0941L125.617 26.7778C125.617 26.2569 125.542 25.8848 125.393 25.8104C124.947 25.6615 124.5 25.6615 124.054 25.7359L124.054 25.2894C124.575 25.215 125.021 25.1406 125.542 25.0662C126.063 24.9173 126.51 24.7685 127.031 24.5452L127.328 24.6941C127.254 25.1406 127.179 25.5127 127.179 25.8848C127.179 26.1825 127.105 26.7778 127.105 27.522L127.105 31.1685L127.105 33.029L127.179 33.029C127.924 32.3592 128.593 31.8383 129.114 31.3173C129.635 30.7964 130.305 30.2011 131.049 29.4569L132.835 29.4569L132.835 29.9034L132.761 29.9034C132.389 29.9778 132.017 30.0522 131.719 30.2011C131.198 30.4987 130.751 30.7964 130.305 31.1685L129.71 31.615L128.519 32.5825L130.305 34.3685L132.091 36.0801C132.314 36.3778 132.612 36.6011 132.91 36.8243C133.133 36.8987 133.356 36.9732 133.579 36.9732L133.579 37.3453L132.686 37.6429L131.793 37.9406C130.826 36.9732 130.082 36.1546 129.338 35.4848L126.956 33.1778L127.105 36.1546ZM135.217 36.6755C134.398 35.7825 134.026 34.6662 134.026 33.5499C133.951 32.3592 134.398 31.2429 135.291 30.4243C136.11 29.6057 137.3 29.1592 138.491 29.2336C139.607 29.1592 140.649 29.6057 141.468 30.3499C142.212 31.0941 142.658 32.2104 142.658 33.2522C142.733 34.5173 142.286 35.708 141.393 36.6011C140.575 37.4941 139.384 37.9406 138.193 37.9406C137.003 37.9406 135.961 37.4197 135.217 36.6755ZM140.351 36.3778C140.798 35.6336 141.021 34.7406 141.021 33.922C141.096 32.8801 140.798 31.8383 140.277 30.8708C139.831 30.1266 139.012 29.7546 138.119 29.7546C137.449 29.7546 136.779 30.0522 136.333 30.5732C135.886 31.2429 135.663 32.0615 135.663 32.8801C135.589 33.9964 135.886 35.1127 136.407 36.0801C136.854 36.8243 137.672 37.2708 138.491 37.2708C139.235 37.2708 139.905 36.9732 140.351 36.3778ZM144.593 36.1546C144.593 34.2197 144.668 32.508 144.668 31.0941L144.668 26.7778C144.668 26.2569 144.593 25.8848 144.444 25.8104C144.072 25.6615 143.626 25.6615 143.179 25.7359L143.179 25.2894C143.7 25.215 144.147 25.1406 144.593 25.0662C145.04 24.9173 145.561 24.7685 146.007 24.5452L146.305 24.6941C146.231 25.1406 146.156 25.5127 146.156 25.8848C146.156 26.2569 146.082 26.7778 146.082 27.522L146.082 31.1685C146.082 32.6569 146.082 34.3685 146.156 36.229C146.156 36.6755 146.231 36.9732 146.454 37.122C146.826 37.2708 147.198 37.3453 147.645 37.2708L147.645 37.7174C146.826 37.6429 146.082 37.6429 145.412 37.6429C144.742 37.6429 143.998 37.6429 143.179 37.7174L143.179 37.2708C143.551 37.3453 143.998 37.2708 144.296 37.122C144.519 36.8987 144.593 36.6011 144.593 36.1546ZM150.026 36.1546C150.026 34.2197 150.1 32.508 150.1 31.0941L150.1 26.7778C150.1 26.2569 150.026 25.8848 149.877 25.8104C149.505 25.6615 149.058 25.6615 148.612 25.7359L148.612 25.2894C149.133 25.215 149.579 25.1406 150.026 25.0662C150.472 24.9173 150.993 24.7685 151.44 24.5452L151.738 24.6941C151.663 25.1406 151.589 25.5127 151.589 25.8848C151.589 26.1825 151.514 26.7778 151.514 27.522L151.514 31.1685C151.514 32.6569 151.514 34.3685 151.589 36.229C151.589 36.6755 151.663 36.9732 151.886 37.122C152.258 37.2708 152.631 37.3453 153.077 37.2708L153.077 37.7174C152.258 37.6429 151.514 37.6429 150.845 37.6429C150.175 37.6429 149.431 37.6429 148.612 37.7174L148.612 37.2708C148.984 37.3453 149.431 37.2708 149.728 37.122C149.951 36.8987 150.026 36.6011 150.026 36.1546ZM157.468 37.8662C156.426 37.8662 155.384 37.4197 154.64 36.6755C153.896 35.7825 153.524 34.6662 153.524 33.5499C153.524 32.3592 153.97 31.2429 154.789 30.4987C155.607 29.6801 156.724 29.2336 157.914 29.308C158.807 29.308 159.626 29.6801 160.221 30.3499C160.742 30.9452 161.04 31.6894 161.114 32.4336L161.114 33.3266L159.328 33.5499L157.319 33.5499L155.161 33.5499C155.161 34.4429 155.458 35.2615 155.905 36.0057C156.426 36.7499 157.244 37.122 158.138 37.0476C158.584 37.0476 159.031 36.9732 159.477 36.8987C159.924 36.7499 160.296 36.5267 160.668 36.229L160.891 36.4522L160.593 37.122C160.147 37.4197 159.626 37.6429 159.031 37.7918C158.51 37.7918 157.989 37.8662 157.468 37.8662ZM159.626 32.8057L159.626 32.508C159.7 31.7639 159.477 31.0941 159.031 30.4987C158.658 29.9778 158.063 29.7546 157.468 29.7546C156.798 29.7546 156.128 30.0522 155.682 30.5732C155.235 31.2429 155.012 31.9871 155.086 32.7313L157.245 32.7313L159.626 32.8057ZM166.1 37.8662C165.058 37.9406 164.091 37.4941 163.421 36.6755C162.751 35.8569 162.379 34.815 162.379 33.6987C162.454 32.508 162.975 31.3918 163.868 30.6476C164.686 29.7546 165.803 29.2336 166.919 29.1592C167.44 29.1592 167.961 29.2336 168.407 29.4569L168.928 29.6801L168.928 26.7034C168.928 26.1825 168.854 25.8104 168.705 25.7359C168.333 25.5871 167.886 25.5871 167.44 25.6615L167.44 25.215C167.961 25.1406 168.407 25.0662 168.854 24.9918C169.3 24.8429 169.821 24.6941 170.268 24.4708L170.565 24.6197C170.491 25.0662 170.417 25.4383 170.417 25.8104C170.417 26.1825 170.342 26.7034 170.342 27.4476L170.342 31.0941C170.342 32.5825 170.342 34.2941 170.417 36.1546C170.417 36.6011 170.491 36.8987 170.714 37.0476C171.086 37.1964 171.458 37.2708 171.905 37.1964L171.905 37.6429L170.417 37.6429L168.928 37.6429L168.928 36.0801C168.407 36.6011 167.812 37.0476 167.217 37.4941C166.993 37.7918 166.547 37.8662 166.1 37.8662ZM166.547 29.9034C165.803 29.9034 165.058 30.2011 164.612 30.8708C164.091 31.615 163.868 32.508 163.942 33.4011C163.868 34.2941 164.165 35.1127 164.686 35.8569C165.133 36.4522 165.877 36.8243 166.621 36.8243C167.068 36.8243 167.589 36.6755 167.961 36.3778C168.407 36.0801 168.705 35.6336 168.928 35.1871L168.928 31.0941C168.631 30.7964 168.184 30.4987 167.738 30.2755C167.44 30.0522 166.993 29.9778 166.547 29.9034ZM173.021 37.2708C174.212 35.8569 175.179 34.5918 176.072 33.5499C176.817 32.5825 177.784 31.3918 178.752 30.0522C178.305 29.9778 177.858 29.9778 177.412 29.9778C177.04 29.9778 176.593 29.9778 176.147 30.0522C175.7 30.0522 175.179 30.1266 174.733 30.2011C174.584 30.2755 174.51 30.3499 174.51 30.5732L174.286 31.7639L173.765 31.7639C173.84 31.3173 173.84 30.8708 173.914 30.5732C173.914 30.2011 173.989 29.829 173.989 29.3825L178.082 29.4569L180.984 29.3825L180.984 29.7546C179.793 31.1685 178.826 32.4336 177.933 33.4755L175.254 36.9732C175.849 37.0476 176.445 37.0476 177.04 37.0476C177.561 37.0476 178.156 37.0476 178.752 36.9732C179.198 36.9732 179.719 36.8987 180.165 36.8243C180.314 36.7499 180.389 36.6011 180.389 36.3778L180.612 35.0383L181.133 35.0383C181.059 35.5592 181.058 36.0057 180.984 36.3778C180.984 36.7499 180.91 37.1964 180.91 37.7174L175.849 37.6429L172.947 37.7174L173.021 37.2708ZM176.965 28.5639C176.519 27.9685 176.221 27.4476 175.849 27.0755C175.477 26.7034 175.179 26.1825 174.733 25.5871L175.328 25.5871L177.412 27.522L179.496 25.5871L180.091 25.5871L177.858 28.5639L176.965 28.5639Z" fill="black"/>
</svg>
