<?xml version="1.0" encoding="utf-8"?>
<!-- Generator: Adobe Illustrator 27.0.0, SVG Export Plug-In . SVG Version: 6.00 Build 0)  -->
<svg version="1.1" id="Layer_1" xmlns="http://www.w3.org/2000/svg" xmlns:xlink="http://www.w3.org/1999/xlink" x="0px" y="0px"
	 viewBox="0 0 292 60" style="enable-background:new 0 0 292 60;" xml:space="preserve">
<style type="text/css">
	.st0{fill-rule:evenodd;clip-rule:evenodd;fill:#FFFFFF;}
	.st1{fill-rule:evenodd;clip-rule:evenodd;fill:#B71234;}
</style>
<g>
	<path class="st0" d="M61.1,32.1c-0.1,1.1-0.1,2.2-0.1,3.4v6.2c0,2.3,0.1,3.6,0.2,3.8c0.1,0.2,0.5,0.4,1.2,0.4h0.8v0.7
		c-1.3-0.1-2.4-0.1-3.3-0.1c-0.9,0-2,0-3.3,0.1v-0.7h0.9c0.5,0,0.8-0.1,0.9-0.2c0.1-0.1,0.2-0.4,0.3-0.7c0.1-0.8,0.1-1.9,0.1-3.3
		v-6.2c0-1.2,0-2.3-0.1-3.4h-1.1c-1.8,0-2.8,0-3,0.1c-0.2,0.1-0.3,0.4-0.4,1l-0.2,1.4h-0.7l0-1.3c0-0.5,0-1.3-0.1-2.2
		c3.9,0.1,6.3,0.1,7,0.1l6.1-0.1c-0.1,1.2-0.2,2.4-0.2,3.5h-0.7l-0.1-1.4c0-0.5-0.1-0.8-0.2-0.9c-0.1-0.1-0.3-0.1-0.5-0.2
		c-0.8-0.1-1.7-0.1-2.7-0.1C62,32.1,61.1,32.1,61.1,32.1z M76.9,41.3h-6.3l-0.8,1.8c-0.5,1.2-0.7,1.9-0.7,2.1c0,0.2,0,0.3,0.1,0.4
		c0.1,0.1,0.3,0.1,0.7,0.2l1,0.1v0.7c-0.7-0.1-1.5-0.1-2.4-0.1c-1,0-2,0-2.8,0.1v-0.7l0.3,0c0.5,0,0.8-0.1,1-0.2
		c0.1-0.1,0.3-0.3,0.5-0.7c0.5-1,1-2.2,1.6-3.4l3-6.8c0.8-1.8,1.3-3.1,1.6-3.9h0.8l5.5,12.8c0.4,0.9,0.6,1.4,0.7,1.6
		c0.1,0.2,0.3,0.3,0.4,0.4c0.2,0.1,0.5,0.1,1.1,0.2v0.7c-0.9-0.1-1.8-0.1-2.7-0.1c-0.8,0-1.8,0-3.2,0.1v-0.7l1.1-0.1
		c0.4,0,0.6-0.1,0.7-0.1c0.1-0.1,0.2-0.2,0.2-0.3c0-0.1-0.1-0.5-0.3-1L76.9,41.3L76.9,41.3z M71,40.4h5.5l-2.8-6.6L71,40.4z
		 M88,45.4c0.7,0,1.4,0.1,2.1,0.1c1.4,0,2.4,0,3.2-0.1c0.5-0.1,1.1-0.2,1.7-0.3l0.7-2.6h0.7c-0.2,1.4-0.3,2.7-0.4,3.9
		c-0.7,0.1-1.5,0.2-2.7,0.2L88,46.4c-0.7,0-1.8,0-3.3,0.1V46c0.6-0.3,0.9-0.5,1-0.8c0.1-0.3,0.2-1.4,0.2-3.4v-6
		c0-2.2-0.1-3.4-0.2-3.6c-0.1-0.3-0.4-0.4-0.9-0.4h-1.2v-0.7c1.7,0.1,2.9,0.1,3.5,0.1c0.8,0,1.8,0,3.1-0.1v0.7h-1.4
		c-0.4,0-0.6,0.1-0.7,0.3C88,32.3,88,33.2,88,34.8v6.9l0,3.1L88,45.4L88,45.4z M101.9,45.4c0.7,0,1.4,0.1,2.1,0.1
		c1.4,0,2.4,0,3.2-0.1c0.5-0.1,1.1-0.2,1.7-0.3l0.7-2.6h0.7c-0.2,1.4-0.3,2.7-0.4,3.9c-0.7,0.1-1.6,0.2-2.7,0.2l-5.2-0.1
		c-0.7,0-1.8,0-3.3,0.1V46c0.6-0.3,0.9-0.5,1-0.8c0.1-0.3,0.2-1.4,0.2-3.4v-6c0-2.2-0.1-3.4-0.2-3.6c-0.1-0.3-0.4-0.4-0.9-0.4h-1.2
		v-0.7c1.7,0.1,2.9,0.1,3.5,0.1c0.8,0,1.8,0,3.1-0.1v0.7h-1.4c-0.4,0-0.6,0.1-0.7,0.3c-0.1,0.2-0.2,1.1-0.2,2.8v6.9l0,3.1
		C101.9,44.8,101.9,45.4,101.9,45.4z M111.7,45.8h0.7c0.7,0,1.1-0.2,1.2-0.5c0.1-0.3,0.2-1.9,0.2-4.7V37c0-2.9-0.1-4.5-0.2-4.8
		c-0.1-0.3-0.5-0.4-1.1-0.4h-0.9v-0.7c1.2,0.1,2.4,0.1,3.6,0.1c1,0,1.9,0,2.7-0.1v0.7h-0.8c-0.5,0-0.9,0.1-1,0.2
		c-0.1,0.1-0.2,0.4-0.2,0.9c0,0.8-0.1,2.2-0.1,4.1v3.8c0,2.8,0.1,4.4,0.2,4.7c0.1,0.3,0.5,0.4,1.2,0.4h0.7v0.7
		c-0.9-0.1-1.9-0.1-3-0.1c-1.2,0-2.4,0-3.4,0.1L111.7,45.8L111.7,45.8z M124,33.5V41c0,1.7,0,2.9,0.1,3.6c0.1,0.5,0.1,0.8,0.3,0.9
		c0.1,0.1,0.5,0.2,1.1,0.2l0.7,0.1v0.7c-0.8-0.1-1.5-0.1-2.2-0.1c-0.4,0-1.5,0-3.1,0.1v-0.7h0.8c0.5,0,0.8-0.1,0.9-0.2
		c0.1-0.1,0.2-0.4,0.3-0.8c0.1-0.8,0.1-1.9,0.1-3.2v-5.4c0-1,0-2,0-3c0-0.4-0.1-0.7-0.2-0.9c-0.1-0.2-0.2-0.3-0.4-0.4
		c-0.2-0.1-0.5-0.2-0.8-0.2h-0.7v-0.7c0.9,0.1,1.6,0.1,2.1,0.1c0.5,0,1.1,0,1.7-0.1c0.7,0.9,1.4,1.7,2,2.6c0.6,0.8,1.3,1.7,2,2.5
		l3.7,4.6c1.3,1.6,2.3,2.8,2.9,3.4v-7c0-2.9-0.1-4.5-0.2-4.8c-0.1-0.3-0.5-0.4-1.3-0.5l-0.8-0.1v-0.7c1.2,0.1,2.1,0.1,2.7,0.1
		c0.7,0,1.6,0,2.6-0.1v0.7h-0.8c-0.7,0-1.1,0.2-1.2,0.7c-0.1,0.3-0.1,1.9-0.1,4.8v4.9c0,1.3,0.1,2.9,0.2,4.7c-1-0.2-1.6-0.3-1.7-0.3
		c-0.2-0.1-0.3-0.2-0.5-0.3c-0.8-0.9-1.7-1.9-2.5-3L124,33.5L124,33.5z M143.3,33.5V41c0,1.7,0,2.9,0.1,3.6c0.1,0.5,0.1,0.8,0.3,0.9
		c0.1,0.1,0.5,0.2,1.1,0.2l0.7,0.1v0.7c-0.8-0.1-1.5-0.1-2.2-0.1c-0.4,0-1.5,0-3.1,0.1v-0.7h0.8c0.5,0,0.8-0.1,0.9-0.2
		c0.1-0.1,0.2-0.4,0.3-0.8c0.1-0.8,0.1-1.9,0.1-3.2v-5.4c0-1,0-2,0-3c0-0.4-0.1-0.7-0.2-0.9c-0.1-0.2-0.2-0.3-0.4-0.4
		c-0.2-0.1-0.5-0.2-0.8-0.2h-0.7v-0.7c0.9,0.1,1.6,0.1,2.1,0.1c0.5,0,1.1,0,1.7-0.1c0.7,0.9,1.4,1.7,2,2.6c0.6,0.8,1.3,1.7,2,2.5
		l3.7,4.6c1.3,1.6,2.3,2.8,2.9,3.4v-7c0-2.9-0.1-4.5-0.2-4.8c-0.1-0.3-0.5-0.4-1.3-0.5l-0.8-0.1v-0.7c1.2,0.1,2.1,0.1,2.7,0.1
		c0.7,0,1.6,0,2.6-0.1v0.7h-0.8c-0.7,0-1.1,0.2-1.2,0.7c-0.1,0.3-0.1,1.9-0.1,4.8v4.9c0,1.3,0.1,2.9,0.2,4.7c-1-0.2-1.6-0.3-1.7-0.3
		c-0.2-0.1-0.3-0.2-0.5-0.3c-0.8-0.9-1.7-1.9-2.5-3L143.3,33.5L143.3,33.5z M169.1,41.3h-6.3l-0.8,1.8c-0.5,1.2-0.7,1.9-0.7,2.1
		c0,0.2,0,0.3,0.1,0.4c0.1,0.1,0.3,0.1,0.7,0.2l1,0.1v0.7c-0.7-0.1-1.5-0.1-2.4-0.1c-1,0-2,0-2.8,0.1v-0.7l0.3,0
		c0.5,0,0.8-0.1,1-0.2c0.1-0.1,0.3-0.3,0.5-0.7c0.5-1,1-2.2,1.6-3.4l3-6.8c0.8-1.8,1.3-3.1,1.6-3.9h0.8l5.5,12.8
		c0.4,0.9,0.6,1.4,0.7,1.6c0.1,0.2,0.3,0.3,0.4,0.4c0.2,0.1,0.5,0.1,1.1,0.2v0.7c-0.9-0.1-1.8-0.1-2.7-0.1c-0.8,0-1.9,0-3.2,0.1
		v-0.7l1.1-0.1c0.4,0,0.6-0.1,0.7-0.1c0.1-0.1,0.2-0.2,0.2-0.3c0-0.1-0.1-0.5-0.3-1L169.1,41.3L169.1,41.3z M163.2,40.4h5.5
		l-2.8-6.6L163.2,40.4z M195.9,27.5c0.3,0,0.6,0.1,0.8,0.3c0.2,0.2,0.4,0.5,0.4,0.8c0,0.3-0.1,0.6-0.4,0.8c-0.2,0.2-0.5,0.3-0.8,0.3
		c-0.3,0-0.6-0.1-0.8-0.3c-0.2-0.2-0.4-0.5-0.4-0.8c0-0.3,0.1-0.6,0.4-0.8C195.3,27.6,195.6,27.5,195.9,27.5z M191.2,27.5
		c0.3,0,0.6,0.1,0.8,0.3c0.2,0.2,0.4,0.5,0.4,0.8c0,0.3-0.1,0.6-0.4,0.8c-0.2,0.2-0.5,0.3-0.8,0.3c-0.3,0-0.6-0.1-0.9-0.3
		c-0.2-0.2-0.3-0.5-0.3-0.8c0-0.3,0.1-0.6,0.3-0.8C190.6,27.6,190.8,27.5,191.2,27.5z M184.8,31.7v-0.7c1.5,0.1,2.6,0.1,3.3,0.1
		c0.7,0,1.8,0,3.2-0.1v0.7h-0.8c-0.7,0-1.1,0.1-1.2,0.4c-0.1,0.3-0.2,1.4-0.2,3.5v4.3c0,1.6,0.1,2.6,0.3,3.2
		c0.2,0.6,0.6,1.1,1.3,1.5c0.7,0.4,1.7,0.6,2.9,0.6c1.2,0,2.3-0.2,3.1-0.7c0.6-0.3,1-0.8,1.3-1.4c0.3-0.7,0.4-1.9,0.4-3.7v-4.1
		c0-1.9-0.1-3-0.3-3.2c-0.2-0.3-0.6-0.4-1.4-0.4H196v-0.7c1.5,0.1,2.5,0.1,2.9,0.1c0.7,0,1.5,0,2.5-0.1v0.7h-0.8
		c-0.6,0-1,0.2-1.1,0.5c-0.2,0.3-0.2,1.4-0.2,3.2v4.1c0,1.9-0.1,3.1-0.3,3.8c-0.2,0.6-0.5,1.2-1,1.8c-0.5,0.5-1.1,0.9-2,1.2
		c-0.8,0.3-1.8,0.5-2.9,0.5c-1.1,0-2.2-0.1-3-0.4c-0.9-0.3-1.5-0.6-1.9-1c-0.4-0.4-0.8-0.9-0.9-1.5c-0.2-0.6-0.3-1.6-0.3-2.9l0-2.1
		v-3.3c0-2-0.1-3.2-0.2-3.4c-0.1-0.2-0.5-0.4-1.2-0.4L184.8,31.7L184.8,31.7z M207.9,45.4c0.7,0,1.4,0.1,2.1,0.1
		c1.4,0,2.4,0,3.2-0.1c0.5-0.1,1.1-0.2,1.7-0.3l0.7-2.6h0.7c-0.2,1.4-0.3,2.7-0.4,3.9c-0.7,0.1-1.6,0.2-2.7,0.2l-5.2-0.1
		c-0.7,0-1.8,0-3.3,0.1V46c0.6-0.3,0.9-0.5,1-0.8c0.1-0.3,0.2-1.4,0.2-3.4v-6c0-2.2-0.1-3.4-0.2-3.6c-0.1-0.3-0.4-0.4-0.9-0.4h-1.2
		v-0.7c1.7,0.1,2.9,0.1,3.5,0.1c0.8,0,1.8,0,3.1-0.1v0.7h-1.4c-0.4,0-0.6,0.1-0.7,0.3c-0.1,0.2-0.2,1.1-0.2,2.8v6.9l0,3.1
		L207.9,45.4L207.9,45.4z M217.5,45.8h0.7c0.7,0,1.1-0.2,1.2-0.5c0.1-0.3,0.2-1.9,0.2-4.7V37c0-2.9-0.1-4.5-0.2-4.8
		c-0.1-0.3-0.5-0.4-1.1-0.4h-0.9v-0.7c1.2,0.1,2.4,0.1,3.6,0.1c1,0,1.9,0,2.7-0.1v0.7H223c-0.5,0-0.8,0.1-1,0.2
		c-0.1,0.1-0.2,0.4-0.2,0.9c0,0.8-0.1,2.2-0.1,4.1v3.8c0,2.8,0.1,4.4,0.2,4.7c0.1,0.3,0.5,0.4,1.2,0.4h0.7v0.7
		c-0.9-0.1-1.9-0.1-3-0.1c-1.2,0-2.4,0-3.4,0.1L217.5,45.8L217.5,45.8z M233.1,37.9l7.4,6.9l0.7,0.6c0.1,0.1,0.3,0.2,0.4,0.3
		c0.1,0,0.4,0.1,0.7,0.1v0.7c-0.6-0.1-1.1-0.1-1.6-0.1c-0.5,0-1,0-1.6,0.1l-7.5-7.1c-0.3-0.2-0.4-0.4-0.5-0.4
		c-0.2,0-0.2,0.1-0.2,0.4v3.3c0,1.6,0,2.5,0.1,2.7c0.1,0.3,0.5,0.4,1.2,0.4h0.8v0.7c-1.2-0.1-2.3-0.1-3.2-0.1c-1,0-2,0-3.1,0.1v-0.7
		h0.9c0.6,0,0.9-0.1,1.1-0.3c0.1-0.2,0.2-1.1,0.2-2.8v-7.3c0-2-0.1-3.1-0.2-3.4c-0.1-0.2-0.5-0.4-1.1-0.4h-0.9v-0.7
		c1.3,0.1,2.3,0.1,2.9,0.1c0.4,0,1.6,0,3.4-0.1v0.7l-0.9,0c-0.5,0-0.8,0.1-0.9,0.2c-0.1,0.1-0.2,0.3-0.2,0.7c0,0.3,0,1.3,0,2.9v2.9
		h0.2c0.6-0.5,1.1-0.9,1.5-1.3c0.4-0.4,1.1-1.1,2.1-2.1l3.1-3.2v-0.8c0.8,0.1,1.5,0.1,2,0.1c0.5,0,1.1,0,1.8-0.1v0.7h-0.6
		c-0.5,0-1,0.1-1.3,0.3c-0.4,0.2-1.2,0.9-2.5,2.1L233.1,37.9L233.1,37.9z M242.9,38.8c0-2.4,0.8-4.3,2.3-5.7
		c1.5-1.4,3.6-2.2,6.2-2.2c2.5,0,4.5,0.7,5.9,2c1.4,1.3,2.1,3.1,2.1,5.4c0,2.4-0.8,4.4-2.5,6c-1.7,1.6-3.7,2.4-6.3,2.4
		c-1.6,0-2.9-0.3-4.1-1c-1.1-0.6-2-1.6-2.7-2.8C243.2,41.8,242.9,40.4,242.9,38.8L242.9,38.8z M245.1,37.9c0,1.6,0.3,3,0.8,4.3
		c0.6,1.2,1.3,2.1,2.3,2.7c0.9,0.6,2,0.9,3.2,0.9c1.1,0,2.1-0.3,2.9-0.8c0.8-0.5,1.5-1.3,2-2.3c0.5-1,0.7-2.2,0.7-3.7
		c0-1.5-0.3-2.8-0.8-3.9c-0.5-1.1-1.3-1.9-2.2-2.4c-0.9-0.5-2-0.8-3.3-0.8c-1.2,0-2.2,0.2-3,0.7c-0.8,0.5-1.5,1.2-2,2.1
		C245.3,35.6,245.1,36.7,245.1,37.9L245.1,37.9z M261.1,38.8c0-2.4,0.8-4.3,2.3-5.7c1.5-1.4,3.6-2.2,6.2-2.2c2.5,0,4.5,0.7,5.9,2
		c1.4,1.3,2.1,3.1,2.1,5.4c0,2.4-0.8,4.4-2.5,6c-1.7,1.6-3.7,2.4-6.3,2.4c-1.6,0-2.9-0.3-4.1-1c-1.1-0.6-2-1.6-2.7-2.8
		C261.5,41.8,261.1,40.4,261.1,38.8L261.1,38.8z M263.4,37.9c0,1.6,0.3,3,0.8,4.3c0.6,1.2,1.3,2.1,2.3,2.7c0.9,0.6,2,0.9,3.2,0.9
		c1.1,0,2.1-0.3,2.9-0.8c0.8-0.5,1.5-1.3,2-2.3c0.5-1,0.7-2.2,0.7-3.7c0-1.5-0.3-2.8-0.8-3.9c-0.5-1.1-1.3-1.9-2.2-2.4
		c-0.9-0.5-2-0.8-3.3-0.8c-1.2,0-2.2,0.2-3,0.7c-0.8,0.5-1.5,1.2-2,2.1C263.6,35.6,263.4,36.7,263.4,37.9z M283.6,45.4
		c0.7,0,1.4,0.1,2.1,0.1c1.4,0,2.4,0,3.2-0.1c0.5-0.1,1.1-0.2,1.7-0.3l0.7-2.6h0.7c-0.2,1.4-0.3,2.7-0.4,3.9
		c-0.7,0.1-1.6,0.2-2.7,0.2l-5.2-0.1c-0.7,0-1.8,0-3.3,0.1V46c0.6-0.3,0.9-0.5,1-0.8c0.1-0.3,0.2-1.4,0.2-3.4v-6
		c0-2.2-0.1-3.4-0.2-3.6c-0.1-0.3-0.4-0.4-0.9-0.4h-1.2v-0.7c1.7,0.1,2.9,0.1,3.5,0.1c0.8,0,1.8,0,3.1-0.1v0.7h-1.4
		c-0.4,0-0.6,0.1-0.7,0.3c-0.1,0.2-0.2,1.1-0.2,2.8v6.9l0,3.1L283.6,45.4L283.6,45.4z"/>
	<path class="st1" d="M0,46.6v2.6c0.3,0,0.5,0,0.8,0c5,0,9.7,0.9,14,2.5l0-21.2c0-3.9,1.5-6.1,3.6-7.5c2.1,1.4,3.7,3.6,3.7,7.5
		l0,24.9c1.8,1.2,3.4,2.6,4.9,4l0-29c0-6.6-3.5-10.3-7.4-12.6c-0.4-0.2-0.8-0.4-1.1-0.5c-0.3,0.1-0.7,0.3-1.1,0.5
		c-3.8,2.1-7.4,6-7.4,12.6l0,16.1H4.9l0-15.8c0-13.1,5.8-20,13.5-24.4c7.2,4.4,13.5,11.3,13.5,24.4l0,15.8h4.9l0-16.1
		C36.8,15,28.6,6.5,19.3,1c0,0-0.7-0.4-0.9-0.5c-0.1,0-0.9,0.5-0.9,0.5C8.5,6,0,15,0,30.5L0,46.6z"/>
</g>
</svg>
