<?xml version="1.0" encoding="utf-8"?>
<!-- Generator: Adobe Illustrator 27.0.0, SVG Export Plug-In . SVG Version: 6.00 Build 0)  -->
<svg version="1.1" id="Layer_1" xmlns="http://www.w3.org/2000/svg" xmlns:xlink="http://www.w3.org/1999/xlink" x="0px" y="0px"
	 viewBox="0 0 32.1 51.7" style="enable-background:new 0 0 32.1 51.7;" xml:space="preserve">
<style type="text/css">
	.st0{fill:#981617;}
</style>
<path class="st0" d="M0,40.4v2.3c0.2,0,0.5,0,0.7,0c4.4,0,8.5,0.8,12.2,2.2V26.4c0-3.5,1.3-5.3,3.2-6.6c1.8,1.3,3.2,3.2,3.2,6.6
	v21.8c1.6,1.1,3,2.2,4.3,3.5V26.3c0-5.8-3.1-9-6.5-11c-0.3-0.2-0.7-0.4-1-0.5c-0.3,0.1-0.6,0.3-1,0.5c-3.3,1.9-6.5,5.2-6.5,11v14.2
	H4.3V26.6C4.3,15.1,9.3,9,16,5.2c6.3,3.8,11.8,9.9,11.8,21.4v13.9h4.3V26.4c0-13.6-7.1-21.1-15.3-25.9c0,0-0.6-0.4-0.8-0.4
	c-0.1,0-0.8,0.4-0.8,0.4C7.4,4.9,0,12.7,0,26.3V40.4z"/>
</svg>
